<svg xmlns="http://www.w3.org/2000/svg" viewBox="0 0 512 512"><g fill="#2e4057"><path d="M195.8 320.1c-2.5-2-5.2-3.9-8-5.5-2.2-1.2-4.5-2-7-2.6-3.5-.7-7-1-10.5-1.1-5-.1-10 .3-15 .9-4.6.6-9.2 1.4-13.8 2.5-5 1.2-9.9 2.7-14.6 4.9-2.9 1.3-5.7 2.8-8.3 4.8-1.3 1-2.5 2.1-3.5 3.4-1.4 1.8-2.2 3.8-2.3 6.1-.1 1.7-.3 3.3-.4 5-.3 3.3-.7 6.6-1 10-.3 3.3-.6 6.7-1 10-.4 4.2-.9 8.4-1.3 12.5v1c.5 0 .8 0 1.2-.1 4.1-.8 8.3-1.3 12.5-1.7 4.4-.4 8.8-.7 13.1-.8 7.1-.1 14.1 0 21.2.5 3.1.2 6.2.4 9.3.7 3.8.4 7.6.8 11.4 1.3 4.3.6 8.6 1.3 12.9 1.9 1 .2 2.1.3 3.1.5.2-.3.3-.5.4-.8.4-1 .9-2 1.3-3 3.5-9.1 6.3-18.4 7.1-28.2.3-4 .2-8-.7-12-.8-4-2.8-7.5-6.1-10.2zM510.4 274.4c-1.5-.5-3.4-1.1-5.3-1.6-4.6-1.1-9.2-1.5-13.9-1.7-4.8-.1-9.6-.2-14.3.2-2 .1-4 .2-6 .4-2.6.2-5.2.4-7.9.7-2.9.3-5.7.6-8.5 1-3.1.4-6.3.8-9.4 1.3-4.4.7-8.9 1.4-13.3 2.2l-13.8 2.4c-4.9.9-9.9 1.8-14.8 2.7-5.1.9-10.1 1.9-15.2 2.7-4.3.7-8.7 1.5-13 2.1-4 .6-7.9 1.1-11.9 1.5-3.7.4-7.5.8-11.3 1-5 .3-10 .4-15 .1-4.3-.3-8.5-.8-12.6-1.8-3.7-.9-7.3-2.3-10.6-4.2-1.8-1.1-3.1-2.5-3.9-4.5-.3-.7-.5-1.3-.7-2-.7-2.5-.8-5-.7-7.5.1-4.3.7-8.6 1.4-12.8 1.1-6.2 2.6-12.3 4.1-18.5 2.2-9 4.5-18 6.6-27 2-8.4 3.5-16.9 4-25.6.2-4.3.1-8.5-.7-12.7-.5-2.3-1.2-4.5-2.3-6.6-1.4-2.5-3.3-4.4-5.9-5.6-1.7-.8-3.4-1.3-5.1-1.8-4.1-1-8.3-1.3-12.5-1.4-7.3-.2-14.6.4-21.9 1.2-4.4.5-8.8 1.2-13.2 1.9-5.7.9-11.3 2-16.9 3.2-.4.1-.9.1-1.2.5-.1 1.3-.3 2.8-.5 4.2-.4 3.2-.7 6.4-1.1 9.5-.3 2.9-.6 5.8-1 8.7-.4 3.2-.7 6.4-1.1 9.5-.3 2.9-.6 5.8-1 8.7-.4 3.2-.7 6.4-1.1 9.5l-.9 8.7c-.4 3.2-.7 6.4-1.1 9.5-.3 2.9-.6 5.8-1 8.7-.3 3-.7 6.1-1 9.1-.3 3-.6 6-1 9-.4 3.9-.9 7.8-1.3 11.7-.5 4.2-.9 8.4-1.4 12.5-.2 1.5-.4 2.9-.3 4.4.2 3.4.7 6.8 1.5 10.2 1.5 6 4 11.5 7.1 16.8 4.3 7.2 9.5 13.6 15.5 19.4 5.8 5.6 12.1 10.5 19.2 14.4 4.7 2.6 9.8 4.5 15.1 5.6 6.4 1.3 12.9 1.8 19.4 1.8 6.7 0 13.4-.5 20-1.4 5.4-.7 10.7-1.5 16-2.4 8.2-1.4 16.4-3.1 24.6-4.8 7.6-1.6 15.1-3.2 22.7-4.7 8.2-1.6 16.5-3.2 24.8-4.4 4.4-.7 8.9-1.3 13.3-1.9 4.3-.5 8.6-.9 12.8-1.3 5.5-.5 11.1-.8 16.6-.8 5.6-.1 11.2 0 16.8.4 4.5.3 9 .7 13.4 1.3 4.5.6 9 1.3 13.4 2.3 2.9.6 5.8 1.3 8.7 2v-65.2c-.5-.3-.9-.5-1.4-.8zM219.9 186.1c-1.4-2.9-3.4-5.2-6-7-2.9-2-6-3.6-9.2-4.9-1.6-.7-3.2-1.2-4.9-1.6-3.3-.7-6.7-1.1-10.1-1.4-5.5-.4-11.1-.3-16.6 0-5.3.3-10.7.9-16 1.7-6.2.9-12.4 2-18.5 3.2-10.9 2.1-21.8 4.6-32.6 7-6.5 1.4-13.1 2.8-19.6 4.2-6.2 1.3-12.4 2.5-18.6 3.5-4.8.8-9.6 1.5-14.5 2.2-4.2.5-8.5.9-12.7 1.3-4.7.5-9.4.6-14.2.6-5.2 0-10.3-.1-15.5-.6-2.3-.2-4.7-.4-7-.9-1.1-.2-2.2-.4-3.3-.9l-.6-.4v51.3l.7.1c.2.1.5.1.7.2 2.5.3 5 .7 7.5 1 3.7.4 7.4.7 11.1 1 5.1.4 10.2.6 15.3.7h3.3c4.2-.2 8.3-.5 12.4-1 4.9-.6 9.8-1.2 14.6-2.2 6.6-1.3 13.1-2.6 19.7-4 11-2.4 22-5 33.1-6.9 4-.7 7.9-1.3 11.9-1.9 2.6-.4 5.2-.7 7.8-1 2.7-.3 5.3-.6 8-.7 3.3-.2 6.6-.3 9.9-.5 6.7-.2 13.3 0 19.9.5 3.2.2 6.5.6 9.7 1 4.6.5 9.1 1.3 13.6 2.2 4.5.9 8.9 1.9 13.3 3.1 2.2.6 4 0 5.7-1.5.9-.8 1.5-1.7 2.1-2.7.8-1.5 1.5-3 2-4.6 1.4-4.3 2-8.7 2.2-13.1.3-5.5 0-10.9-1.1-16.3-.7-3.7-1.8-7.3-3.5-10.7zM391.6 183c4.6-1.2 9.4-2.2 14.2-3 4.6-.8 9.3-1.6 14-2.1 3.6-.4 7.2-.8 10.8-1 4.2-.2 8.4-.3 12.6-.1 2 .1 3.9.2 5.9.3 2.6.2 5.1.4 7.7.7 3.6.4 7.3.9 10.9 1.4 1.9.3 3.6-.1 5.2-1.1 1.2-.7 2.2-1.6 3.2-2.6 1.3-1.4 2.3-2.9 3.3-4.5 1.8-3.2 3.2-6.5 4.1-10 1.9-7 2.7-14 1.6-21.2-.5-2.9-1.3-5.7-2.6-8.3-2.4-4.6-6.1-7.8-10.7-9.9-2-.9-4.2-1.7-6.3-2.3-9.2-2.9-18.6-4.1-28.2-4.2-4 0-8 .2-12 .7-5.3.7-10.4 1.8-15.4 3.6-3.9 1.4-7.6 3.1-11.1 5.3-.6.4-1 .8-1.1 1.7-.4 3.1-1 6.2-1.5 9.3-.7 4.5-1.5 9-2.2 13.6l-2.4 15.3-2.4 15.3c-.2 1.1-.3 2.2-.5 3.5 1.1.1 2-.2 2.9-.4z"/><path d="M338.6 259c.3.9.8 1.8 1.3 2.7.7 1.1 1.7 1.6 3.1 1.3l6.3-1.2c5.1-.9 10.1-1.8 15.2-2.7 4.3-.8 8.7-1.5 13-2.2 3.4-.6 6.9-1.1 10.3-1.6 3-.4 6-.9 9.1-1.3 3.3-.4 6.5-.9 9.8-1.3 2.7-.3 5.5-.7 8.2-1 3.2-.4 6.4-.7 9.5-1 2.8-.3 5.5-.5 8.3-.7 3.8-.3 7.6-.6 11.4-.7 6.3-.3 12.6-.4 18.9-.1 2.4.1 4.7.5 7.1 1.1 3.1.8 5.9 2.1 8.7 3.5 1.1.6 2.2 1.1 3.3 1.6.6.3 1.2.4 1.8.6.6.1 1.1-.3 1.3-.9 0-.2.1-.4.1-.6.4-3.9.7-7.9 1.1-11.8.3-3.6.6-7.2 1-10.8.4-4.6.9-9.1 1.3-13.7.5-4.9.9-9.9 1.4-14.8 0-.5 0-1-.1-1.4-.4-1.8-1.5-3.2-3-4.2-1.2-.8-2.5-1.4-3.8-1.9-2.3-.9-4.6-1.5-7-2.1-4.9-1.3-9.9-2.3-14.9-2.7-5.4-.4-10.8-.6-16.3-.5-2.6.1-5.2.1-7.9.3-2.6.1-5.1.3-7.7.5-2.7.2-5.4.4-8.1.7-3.2.3-6.4.7-9.5 1-2.7.3-5.4.6-8.1 1-3.7.5-7.4 1-11 1.6-4.4.7-8.8 1.3-13.1 2.1-5.8 1-11.5 2.2-17.3 3.3-5.3 1.1-10.5 2.3-15.7 3.7-1.7.4-3 1.3-3.9 2.8-.7 1-1.2 2.1-1.7 3.3-1.1 2.4-1.7 5-2.3 7.5-1.1 5-1.7 10-1.9 15-.3 6.3-.3 12.6.5 18.9.2 2.3.5 4.5 1.3 6.7zM206.5 250.3c-1.1-.8-2.3-1.5-3.7-1.9-1.9-.7-3.9-1.3-5.9-1.9-3.5-1-7.1-1.9-10.7-2.4-4.3-.7-8.7-1-13.1-1.1-7.8-.3-15.7.1-23.5.6-3.9.3-7.8.6-11.7 1-3.8.4-7.7.8-11.5 1.3-4.5.6-9 1.2-13.5 1.9-5 .8-10 1.5-15 2.4-7.1 1.2-14.2 2.6-21.2 4.2-3.8.9-7.6 1.9-11.4 2.8-1.4.3-2.5 1.1-3.4 2.3-.4.6-.9 1.3-1.2 1.9-.5 1-1 2.1-1.4 3.1-1.2 3.4-2 6.9-2.5 10.4-.9 5.8-1.3 11.6-1.4 17.4.1 3 .3 6 .5 9 .1 2.2.5 4.5.9 6.7.3 1.6.7 3.2 1.4 4.6.3.7.8 1.3 1.3 1.9.6.7 1.3.9 2.2.7.5-.1.9-.2 1.4-.3 5-.9 9.9-1.9 14.9-2.8 4.2-.8 8.4-1.5 12.6-2.2 3.9-.6 7.7-1.2 11.6-1.8 3.6-.5 7.2-1.1 10.8-1.6 3.2-.4 6.3-.9 9.5-1.3 2.7-.4 5.5-.7 8.2-1 3-.3 6-.7 9-1 2.5-.3 4.9-.5 7.4-.7 3.1-.3 6.3-.5 9.4-.7 2.7-.2 5.3-.3 8-.4 6.1-.3 12.2-.3 18.3 0 3.5.2 6.9.9 10.1 2.3 2 .8 4 1.8 6 2.8 1 .5 2 1 3 1.4.4.2.9.3 1.4.3s.9-.3 1.1-.8c.1-.2.1-.4.1-.6l.9-9.6c.2-2.4.4-4.8.7-7.3.3-2.8.5-5.5.8-8.3.2-2.4.4-4.8.7-7.1.4-3.8.7-7.5 1.1-11.3.2-2.5.4-4.9.7-7.4.1-.9 0-1.7-.3-2.5-.6-1-1.5-2.1-2.6-3z"/></g></svg>