<svg xmlns="http://www.w3.org/2000/svg" viewBox="0 0 44.4 43.9"><g fill-rule="evenodd" clip-rule="evenodd" fill="#2e4057"><path d="M20.8 36.5c.4 0 .9.1 1.3.1 3.3 0 6.5-1.1 9-3-.1 0-.2-.1-.3-.1-.9-.3-1.7-.7-2.5-1.2-2.2 1.9-4.7 3.3-7.5 4.2z"/><path d="M32.3 32.5l.4-.4c1-1 1.9-2.2 2.6-3.5-1.3-.3-2.5-.8-3.6-1.4-1.1-.6-2.2-1.5-3.1-2.5-2.4 2.2-5 4.1-7.9 5.6-2.5 1.3-5.2 2.3-8 2.8 1.7 1.4 3.5 2.4 5.5 2.9 1.9-.5 3.7-1.2 5.4-2 1.5-.8 3-1.8 4.3-3l.3-.3.4.2c.9.5 1.8 1 2.7 1.3.3.1.6.2 1 .3z"/><path d="M37 23c-3.1-.7-4.5-1.6-4.7-6-3.6-1.5-7.5 2.8-12.5 6.3-3.8 2.6-7.8 4.4-11.2 4.5.7 1.6 1.7 3.1 3 4.4 3-.5 5.9-1.4 8.6-2.8 3-1.6 5.7-3.5 8.1-5.8l.5-.5.4.5c.9 1.1 1.9 2 3.1 2.7 1.1.6 2.3 1.1 3.6 1.4.6-1.6 1-3.1 1.1-4.7zM12.4 5.4c-.1.2-.2.3-.2.5V6c0 .1.1.1.2 0l.6-.4s.1 0 .1-.1v-.3c0-.1-.1-.2-.1-.3l-.1-.1h.1v-.1c.4-.1.6-.6.4-1 .1 0 0-.1 0-.2-.1-.2-.2-.3-.4-.4-.1-.1-.3-.1-.5 0-.1.1-.2.2-.2.4 0 .1 0 .3.1.4.1.1.3.1.5 0 .1 0 .1-.1.2-.1h.1v.1c-.1.1-.3.2-.5.3l-.1.1v-.1c-.1.1-.2.1-.3.1H12v.5c.3 0 .5.1.5.1 0 .1 0 .2-.1.5zm.4-1.9c-.1 0-.2.1-.2 0v-.1s0-.1.1-.1h.2c0 .2 0 .2-.1.2zM7 7.9c.7.4 1.2.7 1.3.7h.2v-.2c-.2-.1-.2-.2-.3-.2-.1-.1-.1-.2-.2-.3-.3-.2-.5-.4-.5-.4-.2-.1-.4-.3-.6-.4-.2-.1 0 0 0 .1l.1.7zM7.2 8.8c.1 0 .1.1 0 .3-.1.1-.1.2-.2.3h-.3v.1c.1.1.1.2.2.3.3.2.5.1.7-.2l.1-.1c.2-.4.1-.7-.2-.9-.2-.2-.5-.2-.7-.2-.1 0-.3 0-.4.1v.1l.2.5.6-.3zM10.7 6.2c0 .1 0 .2-.1.5-.1.2-.1.4-.2.5v.1c0 .1.1.1.2 0l.5-.5v-.1c.2-.2.1-.5-.2-.7-.1-.1-.2-.2-.4-.3-.1-.1-.3-.1-.4-.1l.1.5c.3 0 .5 0 .5.1zM11.5 5.9v-.2c0-.1-.1-.2-.1-.3-.1-.2-.1-.3-.2-.4-.2-.3-.4-.5-.4-.5-.1-.2-.3-.3-.5-.5v.1l-.1.7c.6.6 1 .9 1.1 1 .1.1.1.1.2.1zM28.1 3c.2.1.4 0 .5-.1.1-.1.2-.2.3-.4.1-.2.1-.4-.1-.5-.1-.1-.2-.2-.4-.3-.1 0-.2.1-.4.3-.1.1-.2.3-.3.4-.1.3 0 .5.4.6zm.3-.8c.2 0 .2.1.3.1-.1.1 0 .2 0 .2 0 .1-.1.1-.2 0-.2-.1-.2-.1-.2-.2 0 0 0-.1.1-.1zM32.4 5.6v.2l.6.4h.1c.1 0 .2-.1.3-.1.1-.1.2-.1.3-.2l.1-.1s0 .1.1.1l.1.1c.1.1.3.1.4.1 0 .1 0 .3.1.4l.1.1.1.1c.2.1.3.2.5.3.1 0 .2 0 .3.1.1 0 .2 0 .3.1.1 0 .2.1.3.2l.4-.3c0-.2-.1-.3-.2-.4-.1-.1-.1-.3-.2-.4 0-.1-.1-.3-.2-.4-.1-.1-.3-.1-.5-.1-.1 0-.2.1-.3.1V6h.1c.1 0 .1 0 .2.1s.1.1.1.2l.1.3c-.2-.1-.4-.2-.6-.4V6c-.1 0-.1-.1-.1-.2s0-.1.1-.2v-.1h-.1s-.1.1-.2.1-.2 0-.2-.1l-.1-.1c-.1-.1-.1-.1-.1-.2s0-.2-.1-.3h-.1l-.5.2c.1.3.1.5 0 .5 0 .1-.2.1-.5.1-.2 0-.4 0-.7-.1zM34.4 4.6l-.1-.3H34l.1.3zM34.1 4.6c0 .1.1.1 0 0zM35.3 7.7l.1-.2h-.3v.2zM32.147 3.173l.285-.095.095.284-.285.095zM31.6 2.1l-.2.1v.3l.3-.1zM36.5 7.1c.1 0 .1-.1 0 0zM15.347 4.027l.095-.285.285.095-.095.285zM34.9 7.3h.2v.2h-.2zM12.248 2.817l.09-.178.179.089-.09.179zM8.8 7.1h.1s0 .1-.1.3c-.2 0-.3.1-.4.2h-.3v.1c0 .1.1.2.2.3.2.2.5.2.8-.1l.1-.1c.2-.4.1-.8-.2-.9-.2-.2-.4-.3-.7-.3-.1 0-.3 0-.4.1v.1l.2.5c.2-.1.4-.1.7-.2zM11.949 2.917l.089-.18.179.09-.09.18zM7.4 10.7l-.2.1.1.2h.1v-.2l.2-.1v-.3l-.2.1zM6.3 10h.1v.1l-.1.2.5.5c.1-.2.2-.4.1-.6-.1-.1-.2-.2-.4-.3s-.5-.2-.7-.2l.2.4c.1 0 .2-.1.3-.1zM6.6 12.4h.2v-.2c0-.1-.1-.1-.1-.1l-.1-.1-.4-.2s-.1 0-.1-.1v-.1c.1.1.3.1.5.1.1 0 .3-.1.4-.2v-.3c-.2-.1-.2-.2-.3-.3l-.5-.3v.1c-.1.1-.1.2-.2.2 0 0-.1.1-.2.1s-.1.1-.2.1c0 0 0 .1.1.1 0 0 0 .1-.1.1-.1.1-.1.3-.1.4 0 .1.1.2.2.3.3.1.6.3.9.4zm-.3-1.2h.2v.1c0 .1-.2.1-.5 0 .1 0 .2-.1.3-.1zM37.3 9.4v-.1zM18.859 1l.212-.212.212.212-.212.212zM37.4 9.5c.1.1.2.2.4.2 0 .2 0 .3.1.5 0 .2.2.2.3.2.1 0 .2 0 .3-.1.2-.1.3-.4.3-.6V8.9h-.1l-.5.1H38l-.1.1-.1-.1-.5.4.1.1zm.9.6l-.1-.1v-.1c0-.1.1-.1.2-.1 0 .2 0 .3-.1.3zm-.2-.7l.1-.1s.1 0 .1.1v.2h-.1s-.1 0-.1-.2zM14.7 3.6c.2 0 .5-.1.7-.2.3-.1.5-.2.7-.5.1 0 .1-.3 0-.5-.1-.3-.3-.4-.5-.5l-.1.5c.1 0 .2 0 .3.1v.1c-.1.1-.1.1-.2.1s-.2.1-.5.2c-.2.1-.4.1-.6.1-.1 0-.2-.1-.2-.2s-.1-.1-.1-.1c-.1 0-.1.1-.1.2s0 .2.1.3c.1.2.3.4.5.4zM38.9 11.9c-.1 0-.2 0-.4-.2-.2-.1-.3-.2-.4-.3H38c-.1 0-.1.1 0 .2l.3.6s0 .1.1.1c.4.1.7 0 1-.2.2-.1.3-.2.4-.3 0-.1.1-.3 0-.5-.1-.1-.3-.2-.4-.2-.2 0-.3.1-.5.1-.1.1-.2.2-.2.3 0 .1.1.3.2.4zm.3-.5c.1 0 .1 0 .2.1 0 .1 0 .1-.1.2l-.1-.1c-.1-.1-.1-.2 0-.2zM36 8.7c-.1 0-.1.1 0 .2l.5.5h.4c.1 0 .2-.1.3-.2l.1-.1v.1l.5-.2c-.1-.1-.1-.2-.1-.3v-.3l-.5.1c0 .3 0 .5-.1.5s-.2 0-.5-.1c-.2-.1-.4-.1-.6-.2zM34.8 7.6h.2v.2h-.2zM31.5 4.7h-.7c0 .1 0 .1.1.1l.6.3h.1c.3-.1.5-.3.7-.6.1-.1.1-.3.2-.5-.1.1-.1 0-.1-.1l-.5.3c.1.2.1.4.1.4 0 .1-.2.1-.5.1zM17 2.8c.1.1.2 0 .2-.1s0-.2.1-.3v-.3c0-.1-.1-.3-.1-.6-.1-.1-.2-.3-.2-.5l-.5.3c.1.5.3 1 .5 1.5z"/><path d="M34 6.6h.2v.2H34zM22.1 2.9h.8c.2-.2.3-.5.3-.8 0-.2 0-.3-.1-.5.1-.2 0-.3-.1-.4l-.3.5c.2.2.3.3.3.4 0 .1-.1.2-.4.3-.2.1-.3.2-.5.3 0 0-.1 0 0 .2-.1 0-.1 0 0 0zM18.8 3.3l.7-.1h.1c.1-.4.2-.7.1-1 0-.2-.1-.3-.2-.5l-.3-.3h-.1L19 2c.3.2.4.3.4.3 0 .1-.1.2-.3.4-.1.2-.3.3-.4.4v.1c0 .1.1.1.1.1zM20.2 2.1c0 .1.1.1 0 0h.2c0-.1 0-.2.1-.3v-.3c0-.4-.1-.6-.1-.7-.1-.2-.1-.4-.2-.6l-.5.5c.3.8.4 1.3.5 1.4zM20.2.2c0-.1-.1-.1 0 0zM17.3.5c0-.1-.1-.1 0 0zM16.2 1.2c.1-.2.1-.2.2-.2h.4c.2 0 .3-.1.5-.3V.5c-.1 0-.2 0-.3.1-.1.1-.2.1-.2.1h-.6s-.1.1-.1.2v.2c0 .1.1.1.1.1zM26.7 2.7s.1 0 0 0c.2-.2.2-.3.3-.4v-.4c.1-.4.1-.6.1-.7.1-.2.2-.4.1-.6l-.5.4c-.1.9-.1 1.4-.1 1.5 0 .1 0 .2.1.2zM27.2.6c.1-.1 0-.1 0 0zM21.7 2.1s.1 0 .1-.1.1-.2.1-.3v-.3c0-.4 0-.6-.1-.7 0-.2 0-.4-.1-.7l-.5.5c.2.8.3 1.3.4 1.5 0 .1.1.1.1.1zM29.3 3.5c.1.1.2.1.4 0 .1 0 .2-.1.3-.2 0 .2.1.4.3.5 0 0 .1-.2.3-.3l-.3.5h-.1l.1.1c.3-.1.5-.1.7-.1.2-.2.3-.3.4-.5.1-.2.1-.5.1-.7L31 3v.5h-.1l-.3-.1.1-.1c-.2-.1-.2-.2-.2-.3v-.8l-.5.1v.6h-.2c-.1 0-.1 0-.2-.1-.1 0-.1-.1-.2-.2v-.2c0-.1 0-.1-.1-.1 0 0-.1 0-.2.1 0 .1-.1.1-.1.2 0 .5 0 .7.3.9zM24.9 3c.8.1 1.2-.2 1.3-.8 0-.2 0-.3-.2-.4 0 0-.1 0-.3-.1-.1 0-.2 0-.2-.1 0 0 0-.1.1-.1s.2-.1.3 0c.1 0 .2 0 .2.1.1 0 .1 0 .2.1 0 0 .1 0 .1-.1s0-.2-.1-.3c-.2-.1-.3-.2-.5-.2s-.4.1-.6.3c-.1.1-.2.3-.2.5 0 .1.1.2.3.3l.5.1c-.2 0-.5.1-.7 0-.5-.1-.7-.2-.7-.5v-.2c0-.1 0-.1-.1-.2-.1 0-.1.1-.2.3-.1.1-.1.3-.1.4 0 .6.3.9.9.9zM33.8 6.4h.2v.2h-.2zM42.5 12.6l-4.7 3.2c3.3 8.6-1.1 18.3-9.7 21.6-8.6 3.3-18.3-1.1-21.6-9.8-1.4-3.9-1.4-8.1.1-12L2 12.5c-5.1 11.2-.1 24.3 11 29.4 11.1 5.1 24.3.1 29.4-11 2.6-5.8 2.6-12.5.1-18.3z"/></g></svg>