<svg xmlns="http://www.w3.org/2000/svg" viewBox="0 0 44.4 43.9"><path d="M31.1 33.6c-.1 0-.2-.1-.3-.1-.9-.3-1.7-.7-2.5-1.2-2.2 1.9-4.7 3.3-7.5 4.2.4 0 .9.1 1.3.1 3.3 0 6.5-1.1 9-3z" fill="#0297f1"/><path d="M18.2 36c1.9-.5 3.7-1.2 5.4-2 1.5-.8 3-1.8 4.3-3l.3-.3.4.2c.9.5 1.8 1 2.7 1.3.3.1.6.2 1 .3l.4-.4c1-1 1.9-2.2 2.6-3.5-1.3-.3-2.5-.8-3.6-1.4-1.1-.6-2.2-1.5-3.1-2.5-2.4 2.2-5 4.1-7.9 5.6-2.5 1.3-5.2 2.3-8 2.8 1.7 1.4 3.5 2.4 5.5 2.9z" fill="#0297f1"/><path d="M37 23c-3.1-.7-4.5-1.6-4.7-6-3.6-1.5-7.5 2.8-12.5 6.3-3.8 2.6-7.8 4.4-11.2 4.5.7 1.6 1.7 3.1 3 4.4 3-.5 5.9-1.4 8.6-2.8 3-1.6 5.7-3.5 8.1-5.8l.5-.5.4.5c.9 1.1 1.9 2 3.1 2.7 1.1.6 2.3 1.1 3.6 1.4.6-1.6 1-3.1 1.1-4.7z" fill="#0297f1"/><g fill="#373435"><path d="M11.2 5c-.2-.3-.4-.5-.4-.5-.1-.2-.3-.3-.5-.5v.1l-.1.7c.6.6 1 .9 1.1 1 .1.1.1.1.2.1v-.2c0-.1-.1-.2-.1-.3-.1-.2-.1-.3-.2-.4zM12.6 4.2c-.1.1-.2.1-.3.1H12v.5c.3 0 .5.1.5.1 0 .1 0 .2-.1.5-.1.2-.2.3-.2.5V6c0 .1.1.1.2 0l.6-.4s.1 0 .1-.1v-.3c0-.1-.1-.2-.1-.3l-.1-.1h.1l-.4-.6zM10.9 6c-.1-.1-.2-.2-.4-.3-.1-.1-.3-.1-.4-.1l.1.5c.3 0 .5 0 .5.1s0 .2-.1.5c-.1.2-.1.4-.2.5v.1c0 .1.1.1.2 0l.5-.5v-.1c.2-.2.1-.5-.2-.7zM7.5 8.6c-.2-.2-.5-.2-.7-.2-.1 0-.3 0-.4.1v.1l.2.5.6-.3h.1s0 .1-.1.3c-.1.1-.1.2-.2.3H6.7v.1c.1.1.1.2.2.3.3.2.5.1.7-.2l.1-.1c.2-.4.1-.7-.2-.9zM8.2 8.2c-.1-.1-.1-.2-.2-.3-.3-.2-.5-.4-.5-.4-.2-.1-.4-.3-.6-.4s0 0 0 .1l.1.7c.7.4 1.2.7 1.3.7h.2v-.2c-.2-.1-.2-.2-.3-.2z"/><path d="M13.4 3.5c-.1-.2-.2-.3-.4-.4-.1-.1-.3-.1-.5 0-.1.1-.2.2-.2.4 0 .1 0 .3.1.4.1.1.3.1.5 0 .1 0 .1-.1.2-.1h.1v.1c-.1.1-.3.2-.5.3l-.1.1.4.5h-.1l.1-.1c.4-.1.6-.6.4-1 .1 0 0-.1 0-.2zm-.6 0c-.1 0-.2.1-.2 0v-.1s0-.1.1-.1h.2c0 .2 0 .2-.1.2zM7.6 10.4l-.2.1v.2l-.2.1.1.2h.1v-.2l.2-.1v-.3zM35.4 7.5h-.3v-.2h-.2v.2h.2v.2h.2l.1-.2zM38.2 10.4c.1 0 .2 0 .3-.1.2-.1.3-.4.3-.6V9v-.1h-.1l-.5.1H38l-.1.1-.1-.1-.5.4v-.1l.1.2c.1.1.2.2.4.2 0 .2 0 .3.1.5 0 .2.2.2.3.2zm.2-.6c0 .2 0 .3-.1.3h-.1V10v-.1c0-.1.1-.1.2-.1zm-.3-.5h.1s.1 0 .1.1v.2h-.1s-.1 0-.1-.1v-.1-.1zM36.5 7.1c.1 0 .1 0 0 0 .1 0 .1-.1 0 0 0-.2-.1-.3-.2-.4-.1-.1-.1-.3-.2-.4 0-.1-.1-.3-.2-.4-.1-.1-.3-.1-.5-.1-.1 0-.2.1-.3.1V6h.1c.1 0 .1 0 .2.1s.1.1.1.2l.1.3c-.2-.1-.4-.2-.6-.4V6c-.1 0-.1-.1-.1-.2s0-.1.1-.2v-.1h-.1s-.1.1-.2.1-.2 0-.2-.1l-.1-.1c-.1-.1-.1-.1-.1-.2s0-.2-.1-.3h-.1l-.5.2c.1.3.1.5 0 .5 0 .1-.2.1-.5.1-.2 0-.4 0-.6-.1h-.1v.2l.6.4h.1c.1 0 .2-.1.3-.1.1-.1.2-.1.3-.2l.1-.1s0 .1.1.1l.1.1c.1.1.3.1.4.1 0 .1 0 .3.1.4l.1.1.1.1c.2.1.3.2.5.3.1 0 .2 0 .3.1.1 0 .2 0 .3.1.1 0 .2.1.3.2l.4-.3zM19 1.2s.1 0 0 0l.2-.2-.2-.2-.2.2.2.2zM6.7 10.9l-.5-.3v.1c-.1.1-.1.2-.2.2 0 0-.1.1-.2.1s-.1.1-.2.1c0 0 0 .1.1.1 0 0 0 .1-.1.1-.1.1-.1.3-.1.4 0 .1.1.2.2.3.3.1.6.3.9.4h.2v-.2c0-.1-.1-.1-.1-.1l-.1-.1-.4-.2s-.1 0-.1-.1v-.1c.1.1.3.1.5.1.1 0 .3-.1.4-.2v-.3c-.2-.1-.2-.2-.3-.3 0 .1 0 .1 0 0zm-.7.4c.1 0 .2-.1.3-.1h.2v.1c0 .1-.2.1-.5 0zM32.3 3.5s.1 0 0 0l.3-.1-.1-.3-.3.1.1.3zM15.8 3.8l-.3-.1-.1.3.3.1.1-.3c.1 0 0 0 0 0zM34.1 4.6c0 .1.1.1 0 0h.3l-.1-.3H34l.1.3zM31.4 2.5l.3-.1-.1-.3-.2.1v.3zM39.8 11.3c-.1-.1-.3-.2-.4-.2-.2 0-.3.1-.5.1-.1.1-.2.2-.2.3 0 .1.1.3.2.4-.1 0-.2 0-.4-.2-.2-.1-.3-.2-.4-.3H38c-.1 0-.1.1 0 .2l.3.6s0 .1.1.1c.4.1.7 0 1-.2.2-.1.3-.2.4-.3 0-.1.1-.3 0-.5zm-.5.4l-.1-.1c-.1-.1-.1-.2 0-.2s.1 0 .2.1c0 .1 0 .1-.1.2.1 0 0 0 0 0zM12.2 3s.1 0 0 0l.1-.2.2.1.1-.2-.2-.1-.1.2-.2-.1-.1.2.2.1zM37.2 9.4zM6.8 10.8c.1-.2.2-.4.1-.6-.1-.1-.2-.2-.4-.3-.2-.1-.5-.2-.7-.2l.2.4c.1 0 .2-.1.3-.1h.1v.1l-.1.2.5.5zM9 6.9c-.2-.2-.4-.3-.7-.3-.1 0-.3 0-.4.1v.1l.2.5c.2-.1.4-.1.7-.2h.1s0 .1-.1.3c-.2 0-.3.1-.4.2H8.1v.1c0 .1.1.2.2.3.2.2.5.2.8-.1l.1-.1c.2-.4.1-.8-.2-.9zM16.1 2.4c-.1-.3-.3-.4-.5-.5l-.1.5c.1 0 .2 0 .3.1v.1c-.1.1-.1.1-.2.1s-.2.1-.5.2c-.2.1-.4.1-.6.1-.1 0-.2-.1-.2-.2s-.1-.1-.1-.1c-.1 0-.1.1-.1.2s0 .2.1.3c.1.2.3.4.5.4s.5-.1.7-.2c.3-.1.5-.2.7-.5.1 0 .1-.3 0-.5zM31.4 3.5zM28.8 2c-.1-.1-.2-.2-.4-.3-.1 0-.2.1-.4.3-.1.1-.2.3-.3.4-.1.3 0 .5.4.6.2.1.4 0 .5-.1.1-.1.2-.2.3-.4.1-.2.1-.4-.1-.5zm-.1.5c0 .1-.1.1-.2 0-.2-.1-.2-.1-.2-.2 0 0 0-.1.1-.1h.1c.1 0 .1.1.2.1-.1.1 0 .2 0 .2z"/><path d="M35 7.6h-.2v.2h.2v-.2zM37.8 9c-.1-.1-.1-.2-.1-.3v-.3l-.5.1c0 .3 0 .5-.1.5s-.2 0-.5-.1c-.2-.1-.4-.1-.5-.2H36c-.1 0-.1.1 0 .2l.5.5h.4c.1 0 .2-.1.3-.2l.1-.1v.1l.5-.2zM32.4 3.9c-.1-.1-.1-.1 0 0l-.5.3c.1.2.1.4.1.4 0 .1-.2.1-.5.1h-.6-.1c0 .1 0 .1.1.1l.6.3h.1c.3-.1.5-.3.7-.6.1-.1.1-.3.2-.5-.1.1-.1 0-.1-.1zM31.4 3.5c.1-.2.1-.5.1-.7L31 3v.5h-.1l-.3-.1-.3.6h-.1l.1.1c.3-.1.5-.1.7-.1.2-.2.3-.3.4-.5z"/><path d="M30.7 3.3c-.2-.1-.2-.2-.2-.3v-.8l-.5.1v.6h-.2c-.1 0-.1 0-.2-.1-.1 0-.1-.1-.2-.2v-.2c0-.1 0-.1-.1-.1 0 0-.1 0-.2.1 0 .1-.1.1-.1.2 0 .5 0 .7.3.9.1.1.2.1.4 0 .1 0 .2-.1.3-.2 0 .2.1.4.3.5l.4-.5zM27.2.6l-.5.4c-.1.9-.1 1.4-.1 1.5 0 .1 0 .2.1.2 0 0 .1 0 .1-.1.1-.1.1-.2.2-.3v-.4c.1-.4.1-.6.1-.7.1-.2.2-.4.1-.6.1-.1 0-.1 0 0 0-.1 0-.1 0 0zM37.2 9.3v.1-.1zM19.7 2.2c0-.2-.1-.3-.2-.5l-.3-.3h-.1L19 2c.3.2.4.3.4.3 0 .1-.1.2-.3.4-.1.2-.3.3-.4.4v.1c0 .1.1.1.1.1l.7-.1h.1c.1-.4.2-.7.1-1zM20.2.2c0-.1 0-.1 0 0 0-.1-.1-.1 0 0l-.5.5c.3.8.4 1.3.5 1.4 0 .1.1.1.1.1l.1-.1c0-.1 0-.2.1-.3v-.3c0-.4-.1-.6-.1-.7-.1-.2-.1-.4-.2-.6zM17 1s-.1 0 0 0c-.1 0-.1 0 0 0l-.5.3c.1.5.3 1 .5 1.5l.1.1s.1-.1.1-.2 0-.2.1-.3v-.3c0-.1-.1-.3-.1-.6-.1-.1-.2-.3-.2-.5zM21.9 1.4zM17.3.5c0-.1-.1-.1 0 0-.1 0-.2 0-.3.1-.1.1-.2.1-.2.1H16.2s-.1.1-.1.2v.2c0 .1.1.1.1.1l.1-.1c0-.1 0-.1.1-.1h.4c.2 0 .3-.1.5-.3V.5zM16.1.7c.1 0 .1 0 0 0 .1 0 .1 0 0 0 .1 0 0 0 0 0zM23 1.2c-.1 0-.1 0 0 0l-.3.5c.2.2.3.3.3.4 0 .1-.1.2-.4.3-.2.1-.3.2-.5.3 0 0-.1 0-.1.1s0 .1.1.1H22.9c.2-.2.3-.5.3-.8 0-.2 0-.3-.1-.5.1-.2 0-.3-.1-.4zM21.7 0s-.1 0 0 0l-.5.5c.2.8.3 1.3.4 1.5 0 .1.1.1.1.1s.1 0 .1-.1.1-.2.1-.3v-.3c0-.4 0-.6-.1-.7 0-.2 0-.4-.1-.7zM34.2 6.6H34v-.2h-.2v.2h.2v.2h.2v-.2zM25.8 1.1c-.2 0-.4.1-.6.3-.1.1-.2.3-.2.5 0 .1.1.2.3.3l.5.1h0c-.2 0-.5.1-.7 0-.5-.1-.7-.2-.7-.5v-.1-.1c0-.1 0-.1-.1-.2-.1 0-.1.1-.2.3-.1.1-.1.3-.1.4 0 .6.3.9.9.9.8.1 1.2-.2 1.3-.8 0-.2 0-.3-.2-.4 0 0-.1 0-.3-.1-.1 0-.2 0-.2-.1 0 0 0-.1.1-.1s.2-.1.3 0c.1 0 .2 0 .2.1.1 0 .1 0 .2.1 0 0 .1 0 .1-.1s0-.2-.1-.3c-.2-.1-.3-.2-.5-.2zM26.1 2.3z"/></g><path d="M37.8 15.792c3.3 8.6-1.1 18.3-9.7 21.6s-18.3-1.1-21.6-9.8c-1.4-3.9-1.4-8.1.1-12l-4.6-3.1c-5.1 11.2-.1 24.3 11 29.4s24.3.1 29.4-11c2.6-5.8 2.6-12.5.1-18.3l-4.7 3.2z" fill-rule="evenodd" clip-rule="evenodd" fill="#00368e"/></svg>