<svg xmlns="http://www.w3.org/2000/svg" viewBox="0 0 37.1 48.1"><path d="M11.4 19.6l2.9-.8c1.1 0 1.7-1 3.1-.5 1.8.5 4.5-.2 6.4.8 1.1.6 3.7-.3 3.7 1.4l2.1 2.6.7 2c0 2.5-3 5-4.5 9.8-.2.7-1.5.9-1.5 2 0 1.5 1.8 4.1 1.5 6-.2 1.5-1.9 2.9-2.4 3.2l-4 1-4.4-.5-2.7-2-.8-2.3 1.1-6.5-2-2.9c-.5 0-1-1.4-1.5-2.3-1.5-2.3-1.5-6.1-2.1-5.5-.3.3-.5-5.5 4.4-5.5z" fill="#ffa300"/><g fill="#2e4057"><path d="M36.6 24.4c-.4-.6-1-1-1.8-1.1h-.4c.1-.5.3-1.1.4-1.6.1-.3.2-.6.2-.7.3-1.1.4-2.2.6-3.3.4-2.7 0-5.4-.9-7.9-1-2.5-3-4.5-5.4-5.7-.1-.1-.2-.1-.4-.1.7-.4 1.3-1 1.8-1.7.2-.2.1-.5-.1-.6s-.4-.1-.6.1c-1.6 2.2-3.4 1.8-3.4 1.8-.3 0-.5.1-.5.4 0 .2.1.5.3.5.2 0 .4.1.6.1.6 0 1.1-.1 1.6-.4-.3.3-.3.7 0 1 .1.1.1.1.2.1 2.1 1 3.8 2.8 4.7 4.9.9 2.3 1.1 4.8.8 7.2-.1 1.1-.3 2.1-.5 3.1 0 .1-.1.4-.2.6-.1.4-.3.9-.4 1.3-.2-2.5-2.7-4.4-4.2-5.6l-.2-.2c-.7-.6-1.4-1-2.2-1.5-.4-.3-.8-.5-1.2-.8-1.2-.8-1.8-1.7-1.8-2.6 0-.3-.2-.5-.4-.5-.3 0-.5.2-.5.4-.1 1.2.6 2.4 2.2 3.4.4.3.8.5 1.2.8.7.5 1.4.9 2.1 1.5l.2.2c1.5 1.2 3.9 3 3.9 5.4 0 .3.2.5.5.5.1 0 .2 0 .3-.1-.1.5.1.9.5 1.2.3.2.6.2 1 .2h.2c.6.1 1.1.7 1 1.3v.1l-1.1 4.1c-.2.9-1.2 1.5-2.1 1.4l1.5-4.7c.2-.4 0-.8-.4-.9-.4-.2-.8 0-.9.4v.1l-2 5.5c-1 3.1-2.7 5.9-5.1 8.1l-1.3-3c.2-.2.4-.5.6-.8 1.9-2.5 3.5-5.3 4.7-8.1 1.6-3.4.1-7.5-3.3-9-.7-.3-1.5-.5-2.2-.6l-5.7-.5h-.1l-5.7.5C9 19 6.3 22.3 6.6 26c.1.8.3 1.5.6 2.2 1.3 2.9 2.9 5.6 4.7 8.1.2.3.4.5.6.8l-1.3 3c-2.2-2.2-4-5-5-8.1l-1.8-5.5c-.2-.4-.6-.5-.9-.4-.3.1-.5.5-.4.8l1.5 4.7c-1 .1-1.9-.5-2.1-1.4l-1.1-4.1c-.2-.6.2-1.2.8-1.4h.4c.6.1 1.2-.3 1.3-.9.2.1.4.2.6.2 1.3-.2 2.3-1 2.7-2.2.3-.9.5-1.8.5-2.8 0-.5.1-.9.1-1.4.4-2 1.6-3.8 3.4-4.9 1-.6 2.1-.9 3.3-1 .9-.1 1.9-.1 2.8 0h1.3c.8 0 1.5 0 2.3-.2.6-.1 1.7-.4 2-1.2.1-.2 0-.5-.2-.6-.2-.1-.5 0-.6.2-.2.4-1 .6-1.4.7-.7.1-1.4.2-2.1.2h-1.2c-1-.1-1.9 0-2.9 0-1.3.1-2.5.5-3.7 1.2-2 1.2-3.4 3.3-3.8 5.6-.1.5-.1 1-.2 1.4 0 .8-.2 1.7-.4 2.5-.3.9-1 1.5-1.9 1.7-.2 0-.3.1-.4.2-.1-.6-.2-1.2-.5-1.8l-.3-.9c-1-4.2-.9-7.8.3-10.6 2.3-5.3 8.3-6.4 12.9-6.4 0 0 2.8 0 5.8-.3 4.2-.4 7.1-1.1 8.4-2.2.3-.3.3-.7 0-1 0-.2-.4-.2-.7 0C27.7 2 19.8 2.4 16.7 2.4h-.1c-2.8-.1-5.6.4-8.2 1.4-2.7 1-4.9 3.1-6 5.7C1 12.6.9 16.5 1.9 21c.1.3.2.7.3 1 .2.4.3.8.4 1.2h-.4c-1.4.2-2.4 1.5-2.2 2.9 0 .1 0 .2.1.3l1.1 4.1c.4 1.6 2 2.7 3.7 2.4h.3c1 2.8 2.6 5.4 4.6 7.6l1 1c-.3 1.2 0 2.5.7 3.5 3.5 3.9 9.5 4.2 13.4.7l.7-.7c.7-1 1-2.3.7-3.5.4-.3.7-.6 1-1 2-2.2 3.6-4.8 4.6-7.6h.3c1.7.2 3.2-.8 3.7-2.4l1.1-4.1c.2-.6 0-1.4-.4-2zM8.1 27.8c-1.4-3-.1-6.4 2.9-7.8.6-.3 1.3-.5 1.9-.5l5.7-.5 5.7.5c3.2.3 5.6 3.2 5.3 6.4-.1.7-.2 1.3-.5 1.9-1.3 3-3.1 5.9-5.1 8.6-3.3-2.1-7.5-2.1-10.8 0-2.1-2.6-3.8-5.5-5.1-8.6zm16.6 16.5c-3.2 3.4-8.5 3.6-11.9.4l-.4-.4c-.6-.9-.7-2.1-.3-3.1l1.6-3.8c2.9-1.9 6.7-1.9 9.6 0l1.6 3.8c.5 1 .4 2.2-.2 3.1z"/><path d="M15.2 25.2c-.2-1.3-1.4-2.2-2.7-2-1.3.2-2.2 1.4-2 2.7.2 1.2 1.2 2 2.3 2 1.5-.1 2.5-1.3 2.4-2.7zm-.9.7c-.2.7-.7 1.1-1.4 1.1-.9-.1-1.5-.9-1.4-1.8.2-.8 1-1.3 1.8-1.1.7.2 1.2 1 1 1.8zM24.2 27.9c1.5.2 2.9-.8 3.1-2.3.2-1.5-.8-2.9-2.3-3.1-1.5-.2-2.9.8-3.1 2.3v.4c-.2 1.4.9 2.6 2.3 2.7zm0-4.5c1-.2 2 .4 2.2 1.4.2 1-.4 2-1.4 2.2-1 .2-2-.4-2.2-1.4v-.4c-.1-.9.5-1.7 1.4-1.8zM18.5 38.2c-2.9 0-5.2 1.8-5.2 3.9s2.3 3.9 5.2 3.9 5.2-1.8 5.2-3.9-2.3-3.9-5.2-3.9zm0 6.9c-2.4 0-4.3-1.3-4.3-3s1.9-3 4.3-3 4.3 1.3 4.3 3-1.9 3-4.3 3z"/><path d="M21.6 41.5s-.1 0 0 0h-6c-.3 0-.6.3-.6.6s.3.5.6.6h6c.3 0 .6-.2.6-.6-.1-.3-.3-.6-.6-.6zM20 43.2h-2.9c-.3 0-.6.3-.6.6s.3.5.6.6H20c.3 0 .6-.3.6-.6 0-.4-.3-.6-.6-.6zM17.1 41H20c.3 0 .6-.2.6-.6 0-.3-.2-.6-.6-.6h-2.9c-.3 0-.6.3-.6.6s.3.6.6.6z"/></g></svg>