<svg xmlns="http://www.w3.org/2000/svg" viewBox="0 0 37.1 44.3"><g fill="#2e4057"><path d="M36.7 24.5c-.4-.6-1.1-1-1.8-1.1h-.4c.1-.5.3-1.1.4-1.6.1-.3.2-.6.2-.7.3-1.1.4-2.2.6-3.3.4-2.7 0-5.4-.9-7.9-1-2.5-3-4.5-5.4-5.7-.1-.2-.3-.2-.4-.2.7-.4 1.3-1 1.8-1.7.2-.2.1-.5-.1-.6-.2-.1-.5-.1-.6.1-1.6 2.2-3.4 1.8-3.5 1.8-.3 0-.5.1-.5.4 0 .2.1.4.3.5.2 0 .4.1.6.1.6 0 1.1-.1 1.6-.4-.3.3-.3.7 0 1 .1.1.1.1.2.1 2.1 1 3.8 2.8 4.7 5 .9 2.3 1.1 4.8.8 7.2-.1 1.1-.3 2.1-.5 3.1 0 .1-.1.4-.2.6-.1.4-.3.9-.4 1.3-.2-2.6-2.7-4.5-4.2-5.7l-.2-.2c-.7-.6-1.4-1-2.2-1.5-.4-.3-.8-.5-1.2-.8-1.2-.8-1.8-1.7-1.8-2.6 0-.3-.2-.5-.4-.5s-.5.2-.5.4c-.1 1.2.6 2.4 2.2 3.4.4.3.8.5 1.2.8.7.5 1.4.9 2.1 1.5l.2.2c1.5 1.2 3.9 3 3.9 5.4 0 .3.2.5.5.5.1 0 .2 0 .3-.1-.1.5.1.9.5 1.2.3.2.6.2 1 .2h.2c.6.1 1.1.7 1 1.3v.1l-1.1 4.1c-.3.9-1.2 1.5-2.1 1.4l1.5-4.7c.1-.4-.1-.8-.5-.8-.3-.1-.7.1-.8.4L30.9 32c-2.7 7.3-6.8 10.9-12.3 10.9S8.9 39.3 6.3 32l-1.8-5.5c-.1-.4-.6-.5-.9-.4-.3.1-.5.5-.4.8l1.5 4.7c-1 .1-1.9-.5-2.1-1.4l-1.1-4.1c-.2-.6.2-1.2.8-1.4h.4c.6.1 1.2-.3 1.3-.9.1.2.2.3.4.3 1.3-.2 2.3-1.1 2.7-2.2.3-.9.5-1.8.5-2.8 0-.5.1-.9.1-1.4.4-2.1 1.6-3.8 3.4-4.9 1-.6 2.1-.9 3.3-1 .9-.1 1.9-.1 2.8 0h1.3c.8 0 1.5 0 2.3-.2.6-.1 1.7-.4 2-1.2.1-.2 0-.5-.2-.6-.2-.1-.5 0-.6.2-.2.4-1 .6-1.4.7-.7.1-1.4.2-2.1.2h-1.2c-1-.1-1.9 0-2.9 0-1.3.1-2.6.5-3.7 1.2-2 1.2-3.4 3.3-3.8 5.6-.1.5-.1 1-.2 1.4 0 .8-.2 1.7-.4 2.5-.3.9-1 1.5-1.9 1.7-.2 0-.3.1-.4.2-.1-.6-.2-1.2-.5-1.8l-.3-.9c-1-4.2-.9-7.8.3-10.6C5.9 4.9 12 3.7 16.6 3.7c.1 0 2.8 0 5.8-.3 4.2-.4 7.1-1.1 8.4-2.2.3-.2.4-.7.2-1-.2-.3-.7-.4-1-.2 0 0-.1 0-.1.1C27.7 2 19.5 2.4 16.6 2.3c-2.8 0-5.6.5-8.2 1.5-2.7 1-4.9 3.1-6 5.8C1 12.6.9 16.5 1.9 21c.1.3.2.7.3 1 .2.4.3.8.4 1.2h-.4c-1.4.2-2.4 1.5-2.2 2.9 0 .1 0 .2.1.3l1.1 4.1c.4 1.6 2 2.7 3.7 2.4h.3c1 2.8 2.6 5.4 4.6 7.6 4.7 4.9 12.4 5 17.3.3l.3-.3c2-2.2 3.6-4.8 4.6-7.6h.3c1.7.2 3.2-.8 3.7-2.4l1.1-4.1c.1-.6 0-1.3-.4-1.9z"/><path d="M12.1 23.2V25c0 .4.3.8.8.8s.8-.3.8-.8v-1.8c0-.4-.3-.8-.8-.8s-.8.4-.8.8zM14.3 21.3c.2.2.5.2.7.1.2-.2.2-.4.1-.6-.7-.7-1.6-1.1-2.6-1-1.1-.1-2.3.5-2.9 1.4-.1.2 0 .5.2.6.2.1.5 0 .6-.2.5-.6 1.2-1 2-.9.7-.2 1.4.1 1.9.6zM23.4 23.2V25c0 .4.3.8.8.8s.8-.3.8-.8v-1.8c0-.4-.3-.8-.8-.8s-.8.4-.8.8zM27.3 21.7c.2-.1.3-.4.2-.6-.6-1-1.7-1.5-2.9-1.4-1 0-1.9.3-2.6 1-.2.2-.1.5.1.7.2.2.5.1.6-.1.5-.5 1.2-.7 1.9-.7.8-.1 1.5.3 2 .9.2.2.5.3.7.2zM17.9 29.9zM19 25.5c0-.3-.2-.5-.4-.5s-.5.2-.5.4c0 1.3-.2 2.6-.6 3.8-.2.2-.1.5.1.6.1.1.2.1.3.1.1 0 .3-.1.4-.2.5-.7.7-3.7.7-4.2zM14.2 36.2H23c.3 0 .5-.2.5-.5s-.2-.5-.5-.5h-8.8c-.3 0-.5.2-.5.5s.2.5.5.5z"/></g></svg>