<svg xmlns="http://www.w3.org/2000/svg" viewBox="0 0 35.5 44.3"><path d="M8.7 31.8l6.8-4.7c1.1 0 1.9-.9 3.3-.4 1.8.5 3 1.2 4.7 2.9 1.1.6 1.6 1.1 2.8 2.7h3.3l2.7 1.7c0 5-3.3 8-5.6 9.7l-4.3-3-6.1 1-3.7-1.1-3.9 3-1.5-.4c-.5 0-.6-1.1-1.2-2-1.5-2.3-2.3-8-3-7.3-.1.4.7-2.1 5.7-2.1z" fill="#ffa300"/><g fill="#2e4057"><path d="M35.1 23.4c-.4-.6-1-1-1.7-1.1H33c.1-.5.3-1 .4-1.5.1-.3.2-.5.2-.7.2-1 .4-2.1.5-3.2.3-2.6 0-5.2-.9-7.6-1-2.4-2.8-4.3-5.2-5.4-.1-.1-.3-.1-.4-.1.7-.4 1.3-.9 1.7-1.6.1-.2.1-.5-.1-.6s-.5-.1-.6.1c-1.5 2.1-3.2 1.7-3.3 1.7-.2-.1-.5.1-.5.3 0 .2.1.5.3.5.2 0 .4.1.6.1.5 0 1.1-.1 1.6-.3-.3.3-.3.7 0 .9.1.1.1.1.2.1 2 1 3.7 2.7 4.5 4.7.8 2.2 1.1 4.6.8 6.9-.1 1-.3 2-.5 3 0 .1-.1.3-.2.6-.1.4-.3.8-.4 1.2-.2-2.5-2.6-4.4-4-5.5l-.2-.2-2.1-1.5c-.4-.2-.7-.5-1.1-.7-1.2-.8-1.7-1.7-1.7-2.5 0-.2-.2-.5-.4-.5s-.5.2-.5.4c-.1 1.2.6 2.3 2.1 3.3.4.3.8.5 1.1.8.7.4 1.4.9 2 1.4l.2.2c1.5 1.2 3.7 2.9 3.7 5.2 0 .2.2.4.4.4.1 0 .2 0 .3-.1-.1.4.1.9.4 1.1.3.1.6.2.9.2h.2c.6.1 1 .6.9 1.2v.1l-1 3.9c-.2.9-1.1 1.5-2 1.4l1.5-4.5c.1-.3-.1-.7-.4-.9-.3-.1-.7.1-.9.4l-1.7 5.3c-.1.2-.2.4-.3.7-1-.3-2-.1-2.8.5-1-1.4-2.2-2.6-3.7-3.5-1.5-1-3.2-1.7-4.9-2.2h-.1c-1.7.5-3.4 1.2-4.9 2.2-1.5.9-2.7 2.1-3.7 3.5-.8-.6-1.8-.8-2.8-.5-.1-.2-.2-.4-.3-.7L4.2 25c-.1-.4-.5-.6-.8-.5-.3.5-.5.8-.4 1.2v.1l1.5 4.5c-.9.1-1.8-.5-2-1.4l-1-3.9c-.2-.6.2-1.2.8-1.3h.4c.6.1 1.1-.3 1.2-.9 0 .1.2.2.4.2 1.2-.2 2.2-1 2.6-2.2.3-.8.5-1.7.5-2.6 0-.5.1-.9.1-1.3.4-2 1.5-3.7 3.2-4.7 1-.6 2-.9 3.1-1 .9-.1 1.8-.1 2.7 0h1.2c.7 0 1.5 0 2.2-.2.6-.1 1.6-.4 2-1.2.1-.2 0-.5-.2-.6-.2-.1-.5 0-.6.2-.2.4-1 .6-1.3.7-.6.1-1.3.2-2 .2h-1.2c-.9-.1-1.9 0-2.8 0-1.2.1-2.4.5-3.5 1.1-1.9 1.2-3.2 3.1-3.6 5.3-.1.5-.1.9-.1 1.4 0 .8-.2 1.6-.4 2.4-.3.8-1 1.4-1.8 1.6-.2 0-.3.1-.4.2-.1-.6-.2-1.2-.4-1.7-.1-.3-.2-.5-.3-.8-.9-4-.8-7.4.3-10.1 2.2-5 7.9-6.1 12.4-6.1.1 0 2.7 0 5.6-.3 4-.4 6.8-1.1 8.1-2.1.3-.2.3-.6.1-.9S29-.1 28.7.1C26.5 1.9 18.9 2.3 16 2.3h-.1c-2.7-.1-5.4.4-7.9 1.3-2.6 1-4.7 3-5.8 5.5-1.3 3-1.4 6.7-.4 11 .1.3.2.7.3 1 .2.4.3.8.4 1.2h-.4C.8 22.5-.2 23.7 0 25c0 .1 0 .2.1.3l1 3.9c.4 1.5 1.9 2.5 3.5 2.3h.3l.1.4-1.9 1c-.8.4-1.1 1.4-.7 2.2l4.4 8.4c.2.4.5.7 1 .8.4.1.9.1 1.2-.1l2.7-1.4c.5-.2.9-.6 1.1-1.1 0-.1.1-.1.1-.2 3 1.3 6.5 1.3 9.5 0 .3.6.7 1 1.3 1.3l2.7 1.4c.2.1.5.2.8.2.6 0 1.2-.3 1.4-.9l4.4-8.4c.4-.8.1-1.8-.7-2.2l-1.9-1 .1-.3h.3c1.6.2 3.1-.8 3.5-2.3l1-3.9c.3-.7.2-1.4-.2-2zM8.5 42.9c-.1.1-.3 0-.4-.1l-4.4-8.4v-.2c0-.1.1-.1.1-.2l.7-.4 4.7 8.9-.7.4zm3.2-2c-.1.2-.4.4-.6.6l-1.2.6-4.7-8.9 1.2-.6c.8-.4 1.7-.1 2.1.7l3.2 6.1c.3.5.3 1.1 0 1.5zm10.9-2.1c-.2.4-.3.9-.3 1.3-2.8 1.3-6.1 1.3-8.9 0 0-.5-.1-.9-.3-1.3l-3.2-6.1c0-.1-.1-.1-.1-.2.9-1.4 2.1-2.6 3.5-3.4 2.3-2.5 6.2-2.7 8.7-.4.2.1.3.3.4.4 1.4.9 2.7 2 3.5 3.5 0 .1-.1.1-.1.2l-3.2 6zm1.8 2.7c-.8-.4-1.1-1.4-.7-2.1l3.2-6.1c.3-.5.8-.8 1.4-.8.3 0 .5.1.7.2l1.2.6-4.7 8.9-1.1-.7zm6.7-7.8l.7.4c.1.1.2.3.1.4l-4.4 8.4c-.1.1-.3.2-.4.1l-.7-.4 4.7-8.9z"/><path d="M11.6 22.2V24c0 .4.3.7.7.7.4 0 .7-.3.7-.7v-1.7c0-.4-.3-.7-.7-.7-.4-.1-.7.2-.7.6zM22.4 22.2V24c0 .4.3.7.7.7.4 0 .7-.3.7-.7v-1.7c0-.4-.3-.7-.7-.7-.4-.1-.7.2-.7.6zM14.6 19.8c0-.2-.2-.4-.4-.4h-4.1c-.2 0-.4.2-.4.4s.2.4.4.4h4.1c.2 0 .4-.2.4-.4zM25.9 19.8c0-.2-.2-.4-.4-.4h-4.1c-.2 0-.4.2-.4.4s.2.4.4.4h4.1c.2 0 .4-.2.4-.4zM17.8 31.1c-1.1 0-2 .9-2 2s.9 2 2 2 2-.9 2-2-.9-2-2-2zm0 3.1c-.6 0-1.1-.5-1.1-1.1s.5-1.1 1.1-1.1 1.1.5 1.1 1.1c0 .6-.5 1.1-1.1 1.1z"/><path d="M17.8 28.9c-2.3 0-4.2 1.9-4.2 4.2 0 2.3 1.9 4.2 4.2 4.2 2.3 0 4.2-1.9 4.2-4.1-.1-2.4-2-4.3-4.2-4.3zm0 7.5c-1.8 0-3.3-1.5-3.3-3.3 0-1.8 1.5-3.3 3.3-3.3 1.8 0 3.3 1.5 3.3 3.3-.1 1.8-1.5 3.2-3.3 3.3z"/></g></svg>