<svg xmlns="http://www.w3.org/2000/svg" viewBox="0 0 37.2 44.4"><path d="M9.6 31.6l7.1-3.8c1.1 0 .3-1.4 1.7-1 1.8.5 6.7 3.8 8.6 4.8 1.1.6 4.7-2.4 4.7-.8v2.6l-1.3 2.1c-2 3.3-1.9 4-4.2 5.7l-2.6 1.2-5.3 1.6-3.5-1.1-3.1-1.2L9.8 40c-.5 0-1.3-1.6-1.9-2.5-1.5-2.3-1.7-4.6-2.3-3.9-.1.2-1.7-2.6-.2-3.4.4-.1 2.5 1.4 4.2 1.4z" fill="#ffa300"/><g fill="#2e4057"><path d="M36.8 24.5c-.4-.6-1.1-1-1.8-1.1h-.4c.1-.5.3-1.1.4-1.6.1-.3.2-.6.2-.7.3-1.1.4-2.2.6-3.3.4-2.7 0-5.4-.9-7.9-1.1-2.5-3-4.5-5.4-5.7-.2-.2-.3-.2-.5-.2.7-.4 1.3-1 1.8-1.7.2-.1.2-.4 0-.6-.1-.1-.3-.1-.5 0 .2-.1.4-.3.6-.4.3-.3.3-.7.1-1-.2-.3-.6-.3-.9-.1C27.7 2 19.6 2.4 16.6 2.4c-2.8-.1-5.6.4-8.2 1.4-2.7 1-4.9 3.1-6 5.8-1.3 3.1-1.5 7-.4 11.5.1.4.2.7.3 1 .2.4.3.8.4 1.3h-.4c-1.4.2-2.4 1.5-2.2 2.9 0 .1 0 .2.1.3l1.1 4.1c.4 1.6 2 2.7 3.7 2.4h.3c1 2.8 2.6 5.4 4.6 7.6 4.7 4.9 12.5 5 17.3.3l.3-.3c2-2.2 3.6-4.8 4.6-7.6h.3c1.7.2 3.2-.8 3.7-2.4l1.1-4.1c.1-.7 0-1.5-.4-2.1zm-5.9 7.6C28.3 39.3 24.1 43 18.6 43c-5.5 0-9.7-3.7-12.3-10.9L5.9 31c.6.5 1.4.9 2.2 1.1.3.1.7.1 1.1.1 1.5-.1 2.9-.6 4-1.6 1.5-1.1 3-2.3 4-3.1.8-.6 2-.6 2.8 0 1 .8 2.5 1.9 4 3.1 1.4 1.2 3.3 1.8 5.1 1.5.8-.2 1.6-.6 2.2-1.1l-.4 1.1zm4.9-5.9l-1.1 4.1c-.3.9-1.2 1.5-2.1 1.4L34 27c.1-.4-.1-.8-.5-.9-.3-.1-.7.1-.8.4l-.8 2.5c-.7 1.1-1.8 1.8-3.1 2.2-1.6.2-3.1-.2-4.3-1.3-1.5-1.1-3-2.3-4-3.1a3.3 3.3 0 00-4 0c-1 .8-2.5 1.9-4 3.1-1.2 1.1-2.8 1.5-4.3 1.3-1.1-.4-2.2-1.1-2.9-2.2l-.8-2.4c-.1-.4-.5-.6-.9-.5-.4.1-.6.5-.5.9v.1l1.5 4.8c-1 .1-1.9-.5-2.1-1.4l-1.1-4.1c-.2-.6.2-1.3.8-1.4h.4c.6.1 1.2-.3 1.3-.9.1.2.2.3.4.3 1.3-.2 2.3-1.1 2.7-2.3.3-.9.5-1.8.5-2.8 0-.5.1-.9.1-1.4C8 15.8 9.2 14 11 13c1-.6 2.1-.9 3.3-1 .9-.1 1.9-.1 2.8 0h1.3c.8 0 1.5 0 2.3-.2.6-.1 1.7-.4 2-1.2.1-.2 0-.5-.2-.6-.2-.1-.5 0-.6.2-.2.4-1 .6-1.4.7-.7.1-1.4.2-2.1.2h-1.3c-1-.1-1.9 0-2.9 0-1.3.1-2.6.5-3.7 1.2-2 1.2-3.4 3.3-3.8 5.6-.1.5-.1 1-.2 1.4 0 .8-.2 1.7-.5 2.5-.3.9-1 1.5-1.9 1.7-.2 0-.3.1-.4.2-.1-.6-.2-1.2-.5-1.8l-.3-.9c-1-4.2-.9-7.8.3-10.6C5.5 5.1 11.5 4 16.2 4c.1 0 2.8 0 5.9-.3 3.6-.3 6.2-.9 7.8-1.8l-.1.1c-1.6 2.2-3.4 1.8-3.5 1.8-.3-.1-.5.1-.6.4-.1.2.1.5.3.6.2 0 .4.1.6.1.6 0 1.1-.1 1.7-.4-.3.3-.3.7 0 1 .1.1.1.1.2.1 2.1 1 3.8 2.8 4.8 5 .9 2.3 1.1 4.8.8 7.3-.1 1.1-.3 2.1-.5 3.1 0 .1-.1.4-.2.6-.1.4-.3.9-.4 1.3-.2-2.7-2.7-4.6-4.2-5.8l-.2-.2c-.7-.6-1.5-1-2.2-1.5-.4-.3-.8-.5-1.2-.8-1.2-.8-1.8-1.7-1.8-2.6 0-.3-.2-.5-.4-.5-.3 0-.5.2-.5.4-.1 1.2.6 2.4 2.2 3.5.4.3.8.5 1.2.8.7.5 1.4.9 2.1 1.5l.2.2c1.5 1.2 3.9 3 3.9 5.4 0 .3.2.5.5.5.1 0 .2 0 .3-.1-.1.5.1.9.5 1.2.3.2.6.2 1 .2h.2c.6.1 1.1.7 1 1.3.2-.3.2-.2.2-.2z"/><path d="M12.9 22.5c-.4 0-.8.3-.8.8v1.8c0 .4.3.8.8.8s.8-.3.8-.8v-1.8c0-.4-.3-.8-.8-.8zM24.3 22.5c-.4 0-.8.3-.8.8v1.8c0 .4.3.8.8.8.4 0 .8-.3.8-.8v-1.8c-.1-.4-.4-.8-.8-.8zM14.8 20.2h-4.3c-.3 0-.5.2-.5.5s.2.5.5.5h4.3c.3 0 .5-.2.5-.5s-.2-.5-.5-.5zM26.6 20.2h-4.3c-.3 0-.5.2-.5.5s.2.5.5.5h4.3c.3 0 .5-.2.5-.5s-.2-.5-.5-.5zM18.6 32.8zM18.6 32.8c.3 0 .5-.2.5-.5v-3.7c0-.3-.2-.5-.5-.5s-.5.2-.5.5v3.7c0 .3.2.5.5.5zM11.2 33.2c-1.1 0-2 .9-2 2.1 0 .8.5 1.6 1.2 1.9.2.1.5 0 .6-.2s0-.5-.2-.6c-.4-.2-.7-.6-.6-1 0-.6.4-1.1 1-1.1s1.1.4 1.1 1v.2c0 .2 0 .3-.1.4-.1.2 0 .5.3.6.2.1.5 0 .6-.3.1-.3.2-.5.2-.8-.1-1.3-1-2.2-2.1-2.2z"/><path d="M21.5 32.7c-1.9.7-4 .7-5.9 0-.2-.1-.5 0-.6.2s0 .5.2.6c2.1.8 4.5.8 6.6 0 .2-.1.3-.4.2-.6 0-.2-.2-.3-.5-.2zM21.5 34.9c-1.9.7-4 .7-5.9 0-.2-.1-.5 0-.6.2s0 .5.2.6c2.1.8 4.5.8 6.6 0 .2-.1.3-.4.2-.6 0-.2-.2-.3-.5-.2zM21.5 37.2c-1.9.7-4 .7-5.9 0-.2-.1-.5 0-.6.2s0 .5.2.6c2.1.8 4.5.8 6.6 0 .2-.1.3-.4.2-.6 0-.2-.2-.3-.5-.2z"/></g></svg>