<svg xmlns="http://www.w3.org/2000/svg" viewBox="0 0 37.1 44.3"><g fill="#2e4057"><path d="M36.7 24.5c-.4-.6-1.1-1-1.8-1.1h-.4c.1-.5.3-1.1.5-1.6.1-.3.2-.6.2-.7.3-1.1.4-2.2.6-3.3.4-2.7 0-5.4-.9-7.9-1.1-2.5-3-4.5-5.4-5.7-.2-.2-.4-.2-.5-.2.7-.4 1.3-1 1.8-1.7.2-.2.1-.5-.1-.7-.2-.2-.5-.1-.6.1-1.6 2.2-3.4 1.8-3.5 1.8-.3 0-.5.1-.5.4 0 .2.1.4.3.5.2 0 .4.1.6.1.6 0 1.1-.1 1.6-.4-.3.3-.3.7 0 1 .1.1.1.1.2.1 2.1 1 3.8 2.8 4.7 5 .9 2.3 1.1 4.8.8 7.2-.1 1.1-.3 2.1-.5 3.1 0 .1-.1.4-.2.6-.1.4-.3.9-.4 1.3-.2-2.5-2.7-4.4-4.2-5.6l-.2-.2c-.7-.6-1.4-1-2.2-1.5-.4-.3-.8-.5-1.2-.8-1.2-.8-1.8-1.7-1.8-2.6 0-.3-.2-.5-.4-.5s-.5.2-.5.4c-.1 1.2.6 2.4 2.2 3.4.4.3.8.5 1.2.8.7.5 1.4.9 2.1 1.5l.2.2c1.5 1.2 3.9 3 3.9 5.4 0 .3.2.5.5.5.1 0 .2 0 .3-.1-.1.5.1.9.5 1.2.3.2.6.2 1 .2h.2c.6.1 1.1.7 1 1.3v.1l-1.1 4.1c-.3.9-1.2 1.5-2.1 1.4l1.5-4.7c.1-.4-.1-.8-.5-.8-.3-.1-.7.1-.8.4L30.9 32c-2.7 7.3-6.8 10.9-12.3 10.9-5.5 0-9.6-3.7-12.3-10.9l-1.8-5.5c-.1-.4-.6-.5-.9-.4-.3.1-.5.5-.4.8l1.5 4.7c-1 .1-1.9-.5-2.1-1.4l-1.1-4.1c-.2-.6.2-1.2.8-1.4h.4c.6.1 1.2-.3 1.3-.9.1.2.2.3.4.3 1.3-.2 2.3-1.1 2.7-2.2.3-.9.5-1.8.5-2.8 0-.5.1-.9.1-1.4.4-2.1 1.6-3.8 3.4-4.9 1-.6 2.1-.9 3.3-1 .9-.1 1.9-.1 2.8 0h1.3c.8 0 1.5 0 2.3-.2.6-.1 1.7-.4 2-1.2.1-.2 0-.5-.2-.6s-.5 0-.6.2c-.2.4-1 .6-1.4.7-.7.1-1.4.2-2.1.2h-1.2c-1-.1-1.9 0-2.9 0-1.3.1-2.6.5-3.7 1.2-2 1.2-3.4 3.3-3.8 5.6-.1.5-.1 1-.2 1.4 0 .8-.2 1.7-.5 2.5-.3.9-1 1.5-1.9 1.7-.2 0-.3.1-.4.2-.1-.6-.2-1.2-.5-1.8l-.3-.9c-1-4.2-.9-7.8.3-10.6 2.3-5.3 8.3-6.4 12.9-6.4.1 0 2.8 0 5.8-.3 4.2-.4 7.1-1.1 8.4-2.2.3-.2.4-.7.2-1-.2-.3-.7-.4-1-.2 0 0-.1 0-.1.1-1.9 1.8-10.1 2.2-13 2.2-2.8-.1-5.6.4-8.2 1.4-2.7 1-4.9 3.1-6 5.8C1 12.7.9 16.5 1.9 21c.1.3.2.7.3 1 .2.4.3.8.4 1.2h-.4c-1.4.2-2.4 1.5-2.2 2.9 0 .1 0 .2.1.3l1.1 4.1c.4 1.6 2 2.7 3.7 2.4h.3c1 2.8 2.6 5.4 4.6 7.6 4.7 4.9 12.4 5 17.3.3l.3-.3c2-2.2 3.6-4.8 4.6-7.6h.3c1.7.2 3.2-.8 3.7-2.4l1.1-4.1c.1-.6 0-1.3-.4-1.9z"/><path d="M12.9 25.8c.4 0 .8-.3.8-.8v-1.8c0-.4-.3-.8-.7-.8-.4 0-.8.3-.8.7V25c-.1.5.3.8.7.8zM15 21.3c.2-.2.2-.4.1-.6-.7-.7-1.6-1.1-2.6-1-1.1-.1-2.3.5-2.9 1.4-.1.2 0 .5.2.6.2.1.5 0 .6-.2.5-.6 1.2-1 2-.9.7 0 1.4.2 1.9.7.2.2.5.2.7 0zM24.2 25.8c.4 0 .8-.3.8-.8v-1.8c0-.4-.3-.8-.8-.8-.4 0-.8.3-.8.8V25c0 .5.4.8.8.8zM26.7 21.5c.1.2.2.3.4.3h.2c.2-.1.3-.4.2-.6-.6-1-1.7-1.5-2.9-1.4-1 0-1.9.3-2.6 1-.2.2-.1.5.1.7s.5.1.7-.1c.5-.5 1.2-.7 1.9-.7.8-.2 1.5.1 2 .8zM18.6 41.2zM23.8 35.3l.1-.3-.2-.2c-2.8-2.8-7.4-2.8-10.3 0l-.2.2.1.3c.1.2 1.5 5.9 5.3 5.9s5.2-5.7 5.2-5.9zm-8.3 2.8c-.5-.9-.9-1.8-1.2-2.8 1.2-1.1 2.7-1.7 4.3-1.7 1.6 0 3.1.6 4.3 1.7-.3 1-.7 1.9-1.2 2.8-1.8-1.5-4.5-1.5-6.2 0zm3.1 2.2c-1-.1-1.9-.6-2.5-1.4 1.4-1.3 3.6-1.3 5.1 0-.7.8-1.6 1.3-2.6 1.4zM18.2 29.7c.6-.7.8-3.7.8-4.2 0-.3-.2-.5-.4-.5-.3 0-.5.2-.5.4 0 1.3-.2 2.6-.6 3.8-.2.2-.1.5.1.6.1.1.2.1.3.1.1 0 .2 0 .3-.2z"/></g></svg>