<svg xmlns="http://www.w3.org/2000/svg" viewBox="0 0 30 24" style="enable-background:new 0 0 30 24" xml:space="preserve"><path style="fill:#2e4057" d="m10.2 7.9 1.4 2.7L13 7.8l-.5-1.1c-.5-1-1.3-1.9-2.3-2.5-1.1-.5-2.2-.9-3.4-.9H0v2.5h6.8c.7 0 1.4.2 2 .6.6.3 1 .9 1.4 1.5zM25.6 14.8l-1.7 1.7 1.6 1.6h-5.1c-.7 0-1.4-.2-2-.6-.6-.4-1.1-.9-1.4-1.5l-1.4-2.7-1.4 2.8.5 1.1c.5 1 1.3 1.9 2.3 2.5 1 .6 2.1.9 3.3.9h5.1l-1.6 1.6 1.7 1.7 3.7-3.7c.1-.1.2-.3.3-.4.1-.1.1-.3.1-.5s0-.3-.1-.5c-.1-.1-.2-.3-.3-.4l-3.6-3.6z"/><path style="fill:#2e4057" d="M29.3 3.7 25.6 0l-1.7 1.7 1.6 1.6h-5.1c-1.1 0-2.3.3-3.3.9-1 .6-1.8 1.5-2.3 2.5l-4.7 9.4c-.3.6-.8 1.1-1.4 1.5-.6.4-1.3.6-2 .6H0v2.5h6.8c1.1 0 2.3-.3 3.3-.9 1-.6 1.8-1.5 2.3-2.5L17 7.9c.3-.6.8-1.1 1.4-1.5.6-.4 1.3-.6 2-.6h5.1l-1.6 1.6 1.7 1.7 3.7-3.7c.1-.1.2-.3.3-.4.1-.1.1-.3.1-.5s0-.3-.1-.5c-.1 0-.2-.2-.3-.3z"/></svg>