<svg xmlns="http://www.w3.org/2000/svg" viewBox="0 0 75.3 78.6"><path d="M73.3 16.2C70.9 8.4 66.6 3.3 56.5 1.4c-9.3-1.7-26.3-2-37.2 0C8.8 3.3 2.9 9.2 1.6 17c-1.8 9.1-2 18.5-.6 27.7C2.8 56.4 12.2 62.2 21 62h1.4c.8 0 1.5.6 1.6 1.5v11.8c0 1.9 1.5 3.4 3.4 3.4.6 0 1.3-.2 1.8-.5L50.9 64c.9-.6 2-1 3.1-1.2 10.6-1.6 18.6-6.1 20.4-18.8 1.8-12.4.7-21.9-1.1-27.8z" fill="#2e4057"/><g transform="translate(33.241 12.071)" fill="#fff"><path d="M4.4 29.3c-1.5 0-2.7-1.1-2.8-2.6L0 4.7C-.2 2.3 1.7.2 4.1 0h.3c2.4 0 4.4 2 4.4 4.4v.3l-1.6 22c-.1 1.5-1.3 2.6-2.8 2.6z"/><circle cx="4.4" cy="38.5" r="4.3"/></g></svg>