<svg xmlns="http://www.w3.org/2000/svg" viewBox="0 0 33.5 24.7"><path d="M5.01 20.3c-.3 0-.6-.3-.6-.6V5c0-.3.3-.6.6-.6s.6.3.6.6v14.7c0 .3-.3.6-.6.6zM7.91 17.4c-.3 0-.6-.3-.6-.6V5c0-.3.3-.6.6-.6s.6.3.6.6v11.8c0 .3-.2.6-.6.6zM10.91 17.4c-.3 0-.6-.3-.6-.6V5c0-.3.3-.6.6-.6s.6.3.6.6v11.8c0 .3-.3.6-.6.6zM13.81 17.4c-.3 0-.6-.3-.6-.6V5c0-.3.3-.6.6-.6s.6.3.6.6v11.8c0 .3-.2.6-.6.6zM16.81 20.3c-.3 0-.6-.3-.6-.6V5c0-.3.3-.6.6-.6s.6.3.6.6v14.7c0 .3-.3.6-.6.6zM19.71 17.4c-.3 0-.6-.3-.6-.6V5c0-.3.3-.6.6-.6s.6.3.6.6v11.8c0 .3-.3.6-.6.6zM22.61 17.4c-.3 0-.6-.3-.6-.6V5c0-.3.3-.6.6-.6s.6.3.6.6v11.8c0 .3-.2.6-.6.6zM25.61 17.4c-.3 0-.6-.3-.6-.6V5c0-.3.3-.6.6-.6s.6.3.6.6v11.8c0 .3-.3.6-.6.6zM28.51 20.3c-.3 0-.6-.3-.6-.6V5c0-.3.3-.6.6-.6s.6.3.6.6v14.7c0 .3-.2.6-.6.6zM7.91 20.3c-.2 0-.3-.1-.4-.2-.1-.1-.2-.3-.2-.4 0-.1 0-.2.1-.2 0-.1.1-.1.1-.2.2-.2.6-.2.9 0 0 0 .1.1.1.2v.2c0 .2-.1.3-.2.4-.1.2-.2.2-.4.2zM10.91 20.3c-.2 0-.3-.1-.4-.2-.1-.1-.2-.3-.2-.4v-.2c0-.1.1-.1.1-.2.2-.2.6-.2.9 0 0 .1.1.1.1.2v.2c0 .2-.1.3-.2.4 0 .2-.2.2-.3.2zM13.81 20.3c-.2 0-.3-.1-.4-.2-.1-.1-.2-.3-.2-.4 0-.2.1-.3.2-.4.2-.2.6-.2.9 0 .1.1.2.3.2.4 0 .2-.1.3-.2.4-.2.2-.3.2-.5.2zM19.71 20.3h-.2c-.1 0-.1-.1-.2-.1-.1-.1-.2-.3-.2-.4 0-.2.1-.3.2-.4.2-.2.6-.2.8 0 0 0 .1.1.1.2v.2c0 .2-.1.3-.2.4 0 .1-.1.1-.3.1zM22.61 20.3c-.2 0-.3-.1-.4-.2-.1-.1-.2-.3-.2-.4v-.2c0-.1.1-.1.1-.2.2-.2.6-.2.9 0 0 0 .1.1.1.2v.2c0 .2-.1.3-.2.4.1.2-.1.2-.3.2zM25.61 20.3c-.2 0-.3-.1-.4-.2-.1-.1-.2-.3-.2-.4 0-.2.1-.3.2-.4.1-.1.1-.1.2-.1.2-.1.5 0 .6.1.1.1.2.3.2.4v.2c0 .1-.1.1-.1.2-.2.2-.4.2-.5.2zM.61 5.6c-.3 0-.6-.3-.6-.6V.6c0-.3.3-.6.6-.6h4.4c.3 0 .6.3.6.6s-.3.6-.6.6h-3.8V5c0 .3-.3.6-.6.6zM5.01 24.7H.61c-.3 0-.6-.3-.6-.6v-4.4c0-.3.3-.6.6-.6s.6.3.6.6v3.8h3.8c.3 0 .6.3.6.6s-.3.6-.6.6zM32.91 5.6c-.3 0-.6-.3-.6-.6V1.2h-3.8c-.3 0-.6-.3-.6-.6s.3-.6.6-.6h4.4c.3 0 .6.3.6.6V5c0 .3-.2.6-.6.6zM32.91 24.7h-4.4c-.3 0-.6-.3-.6-.6s.3-.6.6-.6h3.8v-3.8c0-.3.3-.6.6-.6s.6.3.6.6v4.4c0 .4-.2.6-.6.6z" fill="#2e4057"/></svg>