<svg xmlns="http://www.w3.org/2000/svg" viewBox="0 0 98.4 80.4"><path d="M95.902 51.514c-1.4 0-2.6 1.1-2.6 2.6v6.4c0 8.1-6.6 14.7-14.7 14.7h-6c-1.4 0-2.6 1.2-2.6 2.6 0 1.4 1.1 2.6 2.6 2.6h6c11 0 19.9-8.9 19.9-19.9v-6.4c-.1-1.4-1.2-2.6-2.6-2.6zm-25.4-46.4h8c8.1 0 14.7 6.6 14.7 14.7v6.3c0 1.4 1.1 2.6 2.6 2.6s2.6-1.1 2.6-2.6v-6.3c0-11-8.9-19.9-19.9-19.9h-8c-1.4 0-2.6 1.1-2.6 2.6.1 1.5 1.2 2.6 2.6 2.6zm-67.9 22.6c1.4 0 2.6-1.1 2.6-2.6v-5.3c0-8.1 6.6-14.7 14.7-14.7h5.2c1.4 0 2.6-1.2 2.6-2.6 0-1.4-1.1-2.6-2.6-2.6h-5.2c-11 0-19.9 8.9-19.9 19.9v5.3c0 1.5 1.1 2.6 2.6 2.6zm22.7 47.6h-5.4c-8.1 0-14.7-6.6-14.7-14.7v-6.8c0-1.4-1.1-2.6-2.6-2.6s-2.6 1.1-2.6 2.6v6.8c0 11 8.9 19.9 19.9 19.9h5.4c1.4 0 2.6-1.2 2.6-2.6-.1-1.5-1.2-2.6-2.6-2.6zM77.002 18.414h6v44h-6zm-20 0h6v44h-6zm-8 0h4v44h-4zm-22 0h6v44h-6zm-12 0h8v44h-8zm22 0h8v44h-8zm30 0h6v44h-6z" fill="#2e4057"/><path d="M88.402 37.614h-75.3c-1.4 0-2.6 1.2-2.6 2.6 0 1.4 1.1 2.6 2.6 2.6h75.3c1.4 0 2.6-1.2 2.6-2.6s-1.2-2.6-2.6-2.6z" fill="#ffa300"/></svg>