<svg xmlns="http://www.w3.org/2000/svg" viewBox="0 0 298.6 25.1"><g fill="#2e4057"><path d="M297.1 0h1.6v25.1h-1.6zM294.8 0h1.6v25.1h-1.6zM276 0h1.6v25.1H276zM252.6 0h1.6v25.1h-1.6zM249.1 0h1.6v25.1h-1.6zM235.3 0h1.6v25.1h-1.6zM231.1 0h1.6v25.1h-1.6zM211.4 0h1.6v25.1h-1.6zM197.3 0h1.6v25.1h-1.6zM183.4 0h1.6v25.1h-1.6zM173.7 0h1.6v25.1h-1.6zM169.1 0h1.6v25.1h-1.6zM156.1 0h1.6v25.1h-1.6zM138.1 0h1.6v25.1h-1.6zM132.6 0h1.6v25.1h-1.6zM95.1 0h1.6v25.1h-1.6zM90.7 0h1.6v25.1h-1.6zM86.2 0h1.6v25.1h-1.6zM81.7 0h1.6v25.1h-1.6zM77.2 0h1.6v25.1h-1.6zM58.5 0h1.6v25.1h-1.6zM36.4 0H38v25.1h-1.6zM280.2 0h5.4v25.1h-5.4zM267.9 0h5.4v25.1h-5.4zM260.9 0h5.4v25.1h-5.4zM221 0h5.4v25.1H221zM201.9 0h5.4v25.1h-5.4zM189.4 0h5.4v25.1h-5.4zM160.2 0h5.4v25.1h-5.4zM146.5 0h5.4v25.1h-5.4zM123.1 0h5.4v25.1h-5.4zM114.4 0h5.4v25.1h-5.4zM105.9 0h5.4v25.1h-5.4zM63.4 0h5.4v25.1h-5.4zM40.9 0h5.4v25.1h-5.4zM29.2 0h5.4v25.1h-5.4zM17.5 0h5.4v25.1h-5.4zM0 0h5.4v25.1H0zM287.2 0h6.1v25.1h-6.1z"/></g></svg>