<svg xmlns="http://www.w3.org/2000/svg" viewBox="0 0 267.3 269.3"><path d="M133.6 266.9c72.3 0 131.3-59.4 131.3-132.3S205.9 2.4 133.6 2.4 2.4 61.8 2.4 134.6s58.9 132.3 131.2 132.3z" fill-rule="evenodd" clip-rule="evenodd" fill="#fff301"/><path d="M133.6 267.8c72.8 0 132.1-59.8 132.1-133.1S206.4 1.5 133.6 1.5 1.5 61.3 1.5 134.6s59.4 133.2 132.1 133.2z" fill="none" stroke="#373435" stroke-width="3" stroke-miterlimit="2.61"/><path d="M226.1 227.9c3.1-3 5.9-6.2 8.6-9.6l7.5-10.2-16.9-168-34.6 90.2-6.1-32.7-15.9-.1-10.4 38-5.5-18.9h-5.1l-1.6 3.1-142.5-.2-.4 4-.3 4.4h142.8l4.8 40.6h13.3l8.8-34.2 6.7 43.7h15.3l18.4-52.3 13.1 102.2z" fill-rule="evenodd" clip-rule="evenodd" fill="#fe0002"/><path d="M81.6 171.8l45.4-52.2h6.6l-15.3-21.2-9 10.8-66.3.3-6-10.7-32 20.8 15.4 8.4 34.4 46.6-29 34.7c3.3 4.9 6.9 9.6 10.9 13.9L66 189.7l56.6 76.6s14.2 1.5 19.4.5l-60.4-95zm-33.2-52.1l52.3-.1L71 155.2l-22.6-35.5z" fill-rule="evenodd" clip-rule="evenodd"/><path d="M234.8 218.3c2.7-3.2 5.2-6.6 7.5-10.2l-16.9-168" fill-rule="evenodd" clip-rule="evenodd" fill="#fe0002"/></svg>