<svg xmlns="http://www.w3.org/2000/svg" viewBox="0 0 267.3 269.3"><g fill-rule="evenodd" clip-rule="evenodd" fill="#2e4057"><path d="M146.1 119.7l1.6-3.1h5.1l5.5 18.9 10.4-38 15.9.1 6.1 32.7 34.6-90.2c-23.7-23.3-56.1-37.7-91.7-37.7C61.3 2.4 2.4 61.8 2.4 134.6c0 70.9 55.9 129.2 125.7 132.2-3.1-.2-5.5-.5-5.5-.5L66 189.7l-29.3 33.5c-4-4.3-7.6-9-10.9-13.9l29-34.7L20.4 128l-.2-.1H2.9l.3-4.4.4-4h1.6L37 98.8l6 10.7 66.3-.3 9-10.8 15.3 21.2M225.5 42.2l-.1-2-.1-.1.2 2.1z"/><path d="M93.8 127.9H53.6L71 155.2zM225.4 40.2l16.9 167.9c-2.3 3.6-4.8 7-7.5 10.2v-.1l-.1.1c-2.7 3.4-5.5 6.6-8.6 9.6L213 125.7 194.6 178h-15.3l-6.7-43.7-8.8 34.2h-13.3l-4.8-40.6h-25.9l-38.2 43.9 60.3 94.8c68.5-4.3 123-61.9 123-132 0-36.9-15.1-70.4-39.5-94.4z"/></g></svg>