<svg width="30" height="118" viewBox="0 0 30 118" fill="none" xmlns="http://www.w3.org/2000/svg">
<path fill-rule="evenodd" clip-rule="evenodd" d="M15.3203 8.47626C19.3633 8.47626 22.6407 5.19883 22.6407 1.15592C22.6407 0.762596 22.6097 0.376519 22.5499 0H30V118H22.6246C22.6353 117.838 22.6407 117.675 22.6407 117.511C22.6407 113.468 19.3633 110.191 15.3203 110.191C11.2774 110.191 8 113.468 8 117.511C8 117.675 8.00542 117.838 8.01608 118H0V0H8.09075C8.03102 0.376519 8 0.762596 8 1.15592C8 5.19883 11.2774 8.47626 15.3203 8.47626ZM14 99.9913C14 100.544 14.4477 100.991 15 100.991C15.5523 100.991 16 100.544 16 99.9913V95.8918C16 95.3395 15.5523 94.8918 15 94.8918C14.4477 94.8918 14 95.3395 14 95.8918V99.9913ZM14 87.6926C14 88.2449 14.4477 88.6926 15 88.6926C15.5523 88.6926 16 88.2449 16 87.6926V79.4935C16 78.9412 15.5523 78.4935 15 78.4935C14.4477 78.4935 14 78.9412 14 79.4935V87.6926ZM14 71.2944C14 71.8466 14.4477 72.2944 15 72.2944C15.5523 72.2944 16 71.8466 16 71.2944V63.0952C16 62.5429 15.5523 62.0952 15 62.0952C14.4477 62.0952 14 62.5429 14 63.0952L14 71.2944ZM14 54.8961C14 55.4484 14.4477 55.8961 15 55.8961C15.5523 55.8961 16 55.4484 16 54.8961V46.697C16 46.1447 15.5523 45.697 15 45.697C14.4477 45.697 14 46.1447 14 46.697V54.8961ZM14 38.4978C14 39.0501 14.4477 39.4978 15 39.4978C15.5523 39.4978 16 39.0501 16 38.4978L16 30.2987C16 29.7464 15.5523 29.2987 15 29.2987C14.4477 29.2987 14 29.7464 14 30.2987V38.4978ZM14 22.0996C14 22.6518 14.4477 23.0996 15 23.0996C15.5523 23.0996 16 22.6518 16 22.0996V18C16 17.4477 15.5523 17 15 17C14.4477 17 14 17.4477 14 18V22.0996Z" fill="#2e4057"/>
</svg>
