<svg width="139" height="118" viewBox="0 0 139 118" fill="none" xmlns="http://www.w3.org/2000/svg">
<path fill-rule="evenodd" clip-rule="evenodd" d="M27.6535 8.47622C31.6964 8.47622 34.9739 5.19878 34.9739 1.15587C34.9739 0.762564 34.9429 0.376503 34.8831 0H119C130.046 0 139 8.95431 139 20V98C139 109.046 130.046 118 119 118H37.2698C37.2805 117.838 37.2859 117.675 37.2859 117.511C37.2859 113.468 34.0085 110.191 29.9656 110.191C25.9227 110.191 22.6452 113.468 22.6452 117.511C22.6452 117.675 22.6507 117.838 22.6613 118H0V0H20.4239C20.3642 0.376503 20.3332 0.762564 20.3332 1.15587C20.3332 5.19878 23.6106 8.47622 27.6535 8.47622ZM26.8095 99.1732C26.8095 99.7254 27.2572 100.173 27.8095 100.173C28.3618 100.173 28.8095 99.7254 28.8095 99.1732V95.0736C28.8095 94.5213 28.3618 94.0736 27.8095 94.0736C27.2572 94.0736 26.8095 94.5213 26.8095 95.0736V99.1732ZM26.8095 86.8745C26.8095 87.4267 27.2572 87.8745 27.8095 87.8745C28.3618 87.8745 28.8095 87.4267 28.8095 86.8745V78.6753C28.8095 78.123 28.3618 77.6753 27.8095 77.6753C27.2572 77.6753 26.8095 78.123 26.8095 78.6753V86.8745ZM26.8095 70.4762C26.8095 71.0285 27.2572 71.4762 27.8095 71.4762C28.3618 71.4762 28.8095 71.0285 28.8095 70.4762V62.2771C28.8095 61.7248 28.3618 61.2771 27.8095 61.2771C27.2572 61.2771 26.8095 61.7248 26.8095 62.2771V70.4762ZM26.8095 54.0779C26.8095 54.6302 27.2572 55.0779 27.8095 55.0779C28.3618 55.0779 28.8095 54.6302 28.8095 54.0779V45.8788C28.8095 45.3265 28.3618 44.8788 27.8095 44.8788C27.2572 44.8788 26.8095 45.3265 26.8095 45.8788V54.0779ZM26.8095 37.6796C26.8095 38.2319 27.2572 38.6796 27.8095 38.6796C28.3618 38.6796 28.8095 38.2319 28.8095 37.6796L28.8095 29.4805C28.8095 28.9282 28.3618 28.4805 27.8095 28.4805C27.2572 28.4805 26.8095 28.9282 26.8095 29.4805L26.8095 37.6796ZM26.8095 21.2814C26.8095 21.8337 27.2572 22.2814 27.8095 22.2814C28.3618 22.2814 28.8095 21.8337 28.8095 21.2814V17.1818C28.8095 16.6295 28.3618 16.1818 27.8095 16.1818C27.2572 16.1818 26.8095 16.6295 26.8095 17.1818V21.2814Z" fill="#2E333F"/>
</svg>
