<svg xmlns="http://www.w3.org/2000/svg" viewBox="0 0 24 24" style="enable-background:new 0 0 24 24" xml:space="preserve"><path style="fill:#2e4057" d="m2.2 17.7-.3 2.7c-.1.5.1.9.4 1.3.3.3.8.5 1.3.4l2.7-.3c.9-.1 1.6-.5 2.2-1 .7-.7 1.1-1.7 1.1-2.7v-.5c-.1-.8-.5-1.5-1-2.1-.6-.6-1.3-1-2.1-1.1H6c-1.8.1-3.5 1.2-3.8 3.3zM10.4 15.6c.1.1.2.3.2.5 0 .1.1.1.1.2.1.2.1.3.2.5v.1l1.9-1.5c.3-.2.6-.5.9-.7-.1-2.4-2-4.3-4.4-4.3-.2.3-.5.5-.7.8l-1.5 1.9h.1c.1 0 .3.1.4.1.1 0 .2.1.3.1.1.1.3.1.4.2.1 0 .1.1.2.1.4.2.7.5 1 .8.2.2.3.3.4.5l.1.1c.1.1.2.3.3.4 0 .1.1.2.1.2zM21.9 3c.2-.4-.1-.7-.2-.8-.2-.2-.5-.3-.9-.2-3.2 1.3-7.4 4.1-10.3 7 2.2.5 3.9 2.2 4.4 4.3 2.9-3 5.7-7.1 7-10.3z"/></svg>