<svg xmlns="http://www.w3.org/2000/svg" viewBox="0 0 10.6 11"><path d="M.4 1L1.9.8l.6-.5.6.5h2.6l1.4.1.9-.6.5.6 1.7.1.3 2.6H.3L.4 1z" fill="#ffa300"/><path d="M9.6.6h-1c.1-.3-.2-.6-.5-.6s-.7.3-.7.6H3.1c0-.3-.2-.6-.6-.6s-.6.3-.6.6H1c-.5 0-1 .4-1 1v7.7c0 .2.1.5.3.7v.1c0 .5.4.9.9.9h8.1c.5 0 .9-.4.9-.9V10c.2-.2.3-.4.3-.7V1.6c.1-.5-.3-1-.9-1zM7.9.6c0-.1.1-.2.2-.2s.2.1.2.2v.8c0 .1-.1.2-.2.2s-.2 0-.2-.1V.6zM2.3.6c0-.1.1-.2.2-.2s.2.1.2.2v.8c0 .1-.1.2-.2.2s-.2 0-.2-.1V.6zm7 10H1.2c-.2 0-.4-.1-.5-.4H9.8c-.1.2-.2.3-.5.4zm.9-1.3c0 .3-.2.5-.5.5H1c-.3 0-.5-.2-.5-.5V3.8h9.7v5.5zm0-5.9H.4V1.6c0-.3.3-.6.6-.6h1v.4c0 .3.3.6.6.6s.6-.3.6-.6V1h4.3v.4c0 .3.3.6.6.6s.6-.3.6-.6V1h1c.3 0 .5.2.5.5v1.9zM6 5.4v-.3c0-.1.1-.1.2-.1h.3s.1 0 .1.1v.3c0 .1-.1.2-.2.2h-.2c-.1 0-.2-.1-.2-.2zm0 1.5v-.2c0-.1.1-.2.2-.2h.3c.1 0 .2.1.2.2V7c0 .1-.1.2-.2.2h-.3C6.1 7.1 6 7 6 6.9zm2.1 0v-.2c0-.1.1-.2.2-.2h.3c.1 0 .2.1.2.2V7c0 .1-.1.2-.2.2h-.3c-.1-.1-.2-.2-.2-.3zm0-1.5v-.3c0-.1.1-.1.2-.1h.3s.1 0 .1.1v.3c0 .1-.1.2-.2.2h-.2c-.1 0-.2-.1-.2-.2zm0 3.1v-.3c0-.1.1-.2.2-.2h.3c.1 0 .2.1.2.2v.3c0 .1-.1.2-.2.2h-.3c-.1 0-.2-.1-.2-.2zM4 5.4v-.3C4 5 4 5 4.1 5h.3c.1 0 .2 0 .2.1v.3c0 .1-.1.2-.2.2h-.3c-.1 0-.1-.1-.1-.2zM1.9 6.9v-.2c0-.1.1-.2.2-.2h.3c.1 0 .2.1.2.2V7c0 .1-.1.2-.2.2h-.3c-.1-.1-.2-.2-.2-.3zm0 1.6v-.3c0-.1.1-.2.2-.2h.3c.1 0 .2.1.2.2v.3c0 .1-.1.2-.2.2h-.3c-.1 0-.2-.1-.2-.2zM4 6.9v-.2c0-.1 0-.2.1-.2h.3c.1 0 .2.1.2.2V7c0 .1-.1.2-.2.2h-.3C4 7.1 4 7 4 6.9zm2 1.6v-.3c0-.1.1-.2.2-.2h.3c.1 0 .2.1.2.2v.3c0 .1-.1.2-.2.2h-.3c-.1 0-.2-.1-.2-.2zM1.9 5.4v-.3c0-.1.1-.1.2-.1h.3s.1 0 .1.1v.3c0 .1-.1.2-.2.2h-.2c-.1 0-.2-.1-.2-.2zM4 8.5v-.3c0-.1 0-.2.1-.2h.3c.1 0 .2.1.2.2v.3c0 .1-.1.2-.2.2h-.3c-.1 0-.1-.1-.1-.2z" fill="#2e4057"/></svg>