<svg xmlns="http://www.w3.org/2000/svg" viewBox="0 0 45.1 35.3"><path d="M42.4 21.5l.3-2-.3-2.2-3.2.6-3.5 1-2.2 2.1-.3 2.2 4.3-.7 4.9-1z" fill="#73d6f9"/><path d="M2.9 18.4l-.3-.8 1.4-.1 4.9.9 2.1 1.4 1.2 2.1.1 1.3-2.9-.6-6.2-1-.9-.5.6-2.7z" fill="#ffa300"/><path d="M12.1 23.9H12L2.5 22c-.3-.1-.5-.4-.5-.7.1-.3.4-.5.7-.5l8.7 1.7c-.3-1.7-1.6-3-3.3-3.5l-5.4-1.1c-.3-.1-.5-.4-.5-.7.1-.3.4-.5.7-.5l5.4 1.1c2.5.7 4.2 2.8 4.3 5.4 0 .2-.1.4-.2.5 0 .1-.2.2-.3.2z" fill="#2e4057"/><path d="M42 17.3l-5.2 1.1c-2.2.6-3.7 2.5-3.8 4.8l9.5-1.9" fill="#ffa300"/><path d="M33 23.8c-.1 0-.3 0-.4-.1-.1-.1-.2-.3-.2-.5.1-2.6 1.8-4.7 4.2-5.4l5.2-1.1c.3-.1.6.1.7.5.1.3-.1.6-.5.7L36.8 19c-1.7.5-2.9 1.8-3.2 3.5l8.7-1.7c.3-.1.6.1.7.5.1.3-.1.6-.5.7L33 23.9c.1-.1 0-.1 0-.1zM27.7 25.7H17.6c-.7 0-1.2-.5-1.4-1.2l-.7-4v-.2c0-.7.5-1.4 1.4-1.4h11.7c.4.1.8.3 1 .6.2.3.3.7.2 1.1l-.7 4c-.3.7-.8 1.1-1.4 1.1zm-10.4-1.4s.1.2.2.2h10.1c.1 0 .1 0 .2-.1l.7-4v-.2s-.1-.1-.2-.1H16.8c-.2 0-.2.2-.2.2l.7 4zm11.1.2zM3.5 12.4c-1 0-2.4-.1-3.1-.7-.3-.2-.4-.6-.4-.9 0-1.4.4-2.4 1.2-3 1.4-1 3.3-.5 3.4-.5.2 0 .3.2.4.3l1.9 3.8c.1.2.1.4 0 .6s-.3.3-.5.3H4.7c-.1.1-.2.1-.3.1h-.9zm.9-.6zM3.3 8.4c-.4 0-.9.1-1.3.4-.5.4-.8 1.1-.8 2.1.1.3 1.4.5 2.8.4.1-.1.2-.1.4-.1h.9L4 8.4h-.7zM41.5 12.4h-1c-.1 0-.2 0-.3-.1h-1.6c-.2 0-.4-.1-.5-.3s-.1-.4 0-.6l2-3.8c.1-.1.2-.3.4-.3.1 0 2-.6 3.3.5.8.6 1.2 1.6 1.2 3 0 .3-.1.7-.4.9-.7.6-2.1.7-3.1.7zm-.5-1.2c1.5.1 2.7-.2 2.8-.4 0-1-.3-1.7-.8-2.1-.6-.5-1.6-.4-2-.3l-1.3 2.7h.9c.1 0 .3 0 .4.1z" fill="#2e4057"/><path d="M39.8 35.3h-2.9c-1.4 0-2.5-1.1-2.5-2.5v-1.3H10.8v1.3c0 1.4-1.1 2.5-2.5 2.5H5.4c-1.4 0-2.5-1.1-2.5-2.5v-2.7c-1.2-1.5-1.1-4.9-.9-8.3 0-.5 0-1 .1-1.4-.1-3.3 1.3-6.6 3.9-8.9l.1-.3C7.5 6.6 9 1.9 11.1.8 13.2-.3 32.5-.3 34.6.8c2.1 1.1 3.5 5.8 5 10.4l.1.3c2.5 2.3 3.9 5.6 3.9 8.9v1.9c.1 3.1.1 6.3-1 7.8v2.7c-.3 1.4-1.4 2.5-2.8 2.5zm-29.6-5H35c.3 0 .6.3.6.6v1.9c0 .8.7 1.3 1.3 1.3h2.9c.8 0 1.3-.7 1.3-1.3v-2.9c0-.2.1-.3.2-.4 1-1 .9-4.4.9-7.1v-2c0-3.1-1.3-6.1-3.6-8.2-.1-.1-.1-.2-.2-.3l-.1-.4c-1.2-3.9-2.8-8.9-4.4-9.7-1.8-.9-20.6-.9-22.3 0-1.7.9-3.3 5.8-4.5 9.7l-.1.4c0 .1-.1.2-.2.3-2.4 2.1-3.7 5.1-3.6 8.1 0 .5 0 1-.1 1.5-.1 2.8-.3 6.7.8 7.6.1.1.2.3.2.4v2.9c0 .8.7 1.3 1.3 1.3h2.9c.8 0 1.3-.7 1.3-1.3v-1.9c0-.2.3-.5.6-.5z" fill="#2e4057"/><path d="M38.7 12.4H6.3c-.3 0-.6-.3-.6-.6s.3-.6.6-.6h32.4c.3 0 .6.3.6.6s-.3.6-.6.6zM10.1 31.5s-.1 0 0 0l-6.7-1c-.3 0-.6-.4-.5-.7 0-.3.4-.6.7-.5l6.6 1c.3 0 .6.4.5.7-.1.3-.3.5-.6.5z" fill="#2e4057"/><g><path d="M34.9 31.5c-.3 0-.5-.2-.6-.5 0-.3.2-.6.5-.7l6.7-1c.3 0 .6.2.7.5 0 .3-.2.6-.5.7l-6.8 1c.1 0 0 0 0 0z" fill="#2e4057"/></g></svg>