<svg xmlns="http://www.w3.org/2000/svg" viewBox="0 0 170 116.8"><path d="M11.001 0h131.1c6.1 0 11 4.9 11 11v74.5c0 6.1-4.9 11-11 11h-131.1c-6.1 0-11-4.9-11-11V11c0-6.1 4.9-11 11-11z" fill="#5b697b"/><path fill="#262626" d="M0 9.413h153.1v21.7H0z"/><path fill="#f7f7f7" d="M6.512 36.321h93.6v13.6h-93.6zM100.745 37.82h16.2v10.6h-16.2z" opacity=".9"/><path d="M103.001 43.05c0-1.7.6-2.7 1.7-2.7s1.7 1 1.7 2.7-.6 2.8-1.7 2.8-1.7-1-1.7-2.8zm2.7 0c0-1.6-.4-2.2-1-2.2s-1 .6-1 2.2.4 2.3 1 2.3 1-.7 1-2.3zM107.154 43.05c0-1.7.6-2.7 1.7-2.7s1.7 1 1.7 2.7-.6 2.8-1.7 2.8-1.7-1-1.7-2.8zm2.7 0c0-1.6-.4-2.2-1-2.2s-1 .6-1 2.2.4 2.3 1 2.3 1-.7 1-2.3zM111.307 43.05c0-1.7.6-2.7 1.7-2.7s1.7 1 1.7 2.7-.6 2.8-1.7 2.8-1.7-1-1.7-2.8zm2.7 0c0-1.6-.4-2.2-1-2.2s-1 .6-1 2.2.4 2.3 1 2.3 1-.7 1-2.3z"/><g><path d="M153.113 17.183v73.2c0 3.4-2.7 6.1-6.1 6.1h-133.8v-73.2c0-3.4 2.7-6.1 6.1-6.1h133.8z" fill="#231f20" opacity=".1"/><g transform="translate(16.91 20.242)"><linearGradient id="a" gradientUnits="userSpaceOnUse" x1="-234.973" y1="431.267" x2="-234.973" y2="430.267" gradientTransform="matrix(153.084 0 0 -96.524 36047.133 41627.582)"><stop offset="0" stop-color="#e4e4e4"/><stop offset="1" stop-color="#e5e4e4"/></linearGradient><path d="M11 0h131.1c6.1 0 11 4.9 11 11v74.5c0 6.1-4.9 11-11 11H11c-6.1 0-11-4.9-11-11V11C0 4.9 4.9 0 11 0z" fill="url(#a)"/></g><g opacity=".8"><path d="M42.866 94.989c0-1.4.6-2.2 1.5-2.2s1.5.8 1.5 2.2-.6 2.3-1.5 2.3-1.5-.8-1.5-2.3zm2.2 0c0-1.2-.3-1.6-.7-1.6s-.8.4-.8 1.6.3 1.7.8 1.7.7-.5.7-1.7zM46.349 94.989c0-1.4.6-2.2 1.5-2.2s1.5.8 1.5 2.2-.6 2.3-1.5 2.3-1.5-.8-1.5-2.3zm2.2 0c0-1.2-.3-1.6-.7-1.6s-.8.4-.8 1.6.3 1.7.8 1.7.7-.5.7-1.7zM51.414 92.371c.1 0 .3.1.3.3v.1l-1.5 5.3c0 .1-.1.2-.2.2-.2 0-.3-.1-.3-.2v-.1l1.4-5.4c.1-.1.2-.2.3-.2zM52.168 94.989c0-1.4.6-2.2 1.5-2.2s1.5.8 1.5 2.2-.6 2.3-1.5 2.3-1.5-.8-1.5-2.3zm2.2 0c0-1.2-.3-1.6-.7-1.6s-.8.4-.8 1.6.3 1.7.8 1.7.7-.5.7-1.7zM55.651 94.989c0-1.4.6-2.2 1.5-2.2s1.5.8 1.5 2.2-.6 2.3-1.5 2.3-1.5-.8-1.5-2.3zm2.2 0c0-1.2-.3-1.6-.7-1.6s-.8.4-.8 1.6.3 1.7.8 1.7.7-.5.7-1.7z" fill="#9c9c9c"/></g><path d="M42.762 94.885c0-1.4.6-2.2 1.5-2.2s1.5.8 1.5 2.2-.6 2.3-1.5 2.3-1.5-.8-1.5-2.3zm2.2 0c0-1.2-.3-1.6-.7-1.6s-.8.4-.8 1.6.3 1.7.8 1.7.7-.5.7-1.7zM46.245 94.885c0-1.4.6-2.2 1.5-2.2s1.5.8 1.5 2.2-.6 2.3-1.5 2.3-1.5-.8-1.5-2.3zm2.2 0c0-1.2-.3-1.6-.7-1.6s-.8.4-.8 1.6.3 1.7.8 1.7.7-.5.7-1.7zM51.31 92.267c.1 0 .3.1.3.3v.1l-1.5 5.3c0 .1-.1.2-.2.2-.2 0-.3-.1-.3-.2v-.1l1.4-5.4c.1-.1.2-.2.3-.2zM52.064 94.885c0-1.4.6-2.2 1.5-2.2s1.5.8 1.5 2.2-.6 2.3-1.5 2.3-1.5-.8-1.5-2.3zm2.2 0c0-1.2-.3-1.6-.7-1.6s-.8.4-.8 1.6.3 1.7.8 1.7.7-.5.7-1.7zM55.547 94.885c0-1.4.6-2.2 1.5-2.2s1.5.8 1.5 2.2-.6 2.3-1.5 2.3-1.5-.8-1.5-2.3zm2.2 0c0-1.2-.3-1.6-.7-1.6s-.8.4-.8 1.6.3 1.7.8 1.7.7-.5.7-1.7z" fill="#9c9c9c"/><g><path d="M36.97 94.646l.5-1.4h-.2l-.2.7c0 .2-.1.3-.1.5-.1-.2-.1-.3-.2-.5l-.2-.7h-.2l.4 1.4h.2zM38.222 94.246l.1.4h.2l-.4-1.4h-.2l-.5 1.4h.2l.1-.4h.5zm-.2-.9c.1.2.1.3.1.5l.1.2h-.4l.1-.2c0-.1 0-.3.1-.5zM39.532 94.446h-.6v-1.2h-.2v1.4h.8v-.2zM39.747 93.246h.2v1.4h-.2zM41.297 93.946c0-.3-.2-.7-.5-.7h-.5v1.4h.3c.4 0 .7-.3.7-.6v-.1zm-.8.5v-1.1h.2c.3 0 .5.2.5.5s-.2.6-.6.6h-.1zM36.428 95.916h.4v1.2h.2v-1.2h.4v-.2h-1v.2zM38.477 96.316h-.6v-.6h-.2v1.4h.2v-.7h.6v.6h.2v-1.3h-.2v.6zM39.939 96.116c0-.3-.2-.4-.5-.4h-.4v1.4h.2v-.6h.2l.3.6h.3l-.4-.6c.2-.1.3-.2.3-.4zm-.7-.3h.2c.2 0 .3.1.3.2s-.1.4-.3.4h-.2v-.6zM41.022 96.516c0 .3-.1.4-.3.4s-.3-.1-.3-.4v-.8h-.2v.8c0 .4.2.6.5.6s.5-.2.5-.6v-.8h-.2v.8z" fill="#9c9c9c"/></g><g><g opacity=".8"><path d="M37.947 76.432h-.5c-.4.3-.8.4-1.3.5-.2 0-.3.2-.3.3 0 .2.2.3.3.3h.7c.2 0 .3.2.3.3v5.1c0 .1-.1.2-.2.2h-1.1c-.1.1-.3.3-.3.5v.1c0 .2.2.3.3.3h3.7c.2 0 .3-.2.3-.3v-.1c0-.2-.1-.4-.3-.4h-1c-.1 0-.2-.1-.2-.2v-6.3c-.1-.1-.2-.3-.4-.3zM42.455 83.288c1.8-1.9 3.1-3.3 3.1-4.8.1-1.2-.8-2.2-2-2.3 0 .1-.1.1-.2.1-.8 0-1.5.3-2 .9-.2.1-.2.4 0 .5.1.1.3.1.5 0 .4-.4.8-.6 1.4-.6.7-.1 1.3.5 1.4 1.2v.3c-.1.8-.4 1.5-1 2.1-.4.5-.8 1-1.2 1.4l-.8.8c-.1.2-.5.4-.6.6-.1.3.3.6.6.6h4c.2 0 .4-.2.4-.4-.1-.3-.2-.4-.5-.4h-3.1zM50.288 80.088c.8-.3 1.4-1 1.4-1.9 0-1.2-1-1.9-2.3-1.9-.7 0-1.4.2-1.9.7-.2.1-.2.4-.1.5.1.2.4.2.5 0 .4-.2.9-.4 1.4-.4.6-.1 1.2.4 1.3 1v.2c0 .7-.5 1.3-1.8 1.4-.2 0-.4.2-.4.4s.2.4.4.4c1.5.1 2.1.7 2.1 1.5s-.7 1.4-1.4 1.4h-.1c-.6 0-1.2-.2-1.7-.6-.2-.1-.4-.1-.5 0-.2.3-.2.5-.1.6.6.6 1.5.9 2.3.8 1.2.1 2.4-.8 2.5-2v-.2c0-.9-.7-1.7-1.6-1.9zM56.723 76.432h-.5c-.1 0-.3.1-.3.2l-3.1 4.6c-.1.1-.1.1-.1.2v.1c0 .2.2.4.4.4h3v1.7c0 .2.2.4.4.4h.2c.2 0 .4-.2.4-.4v-1.7h.6c.2 0 .4-.2.4-.4s-.2-.4-.4-.4h-.6v-4.3c0-.2-.2-.4-.4-.4zm-3 4.8l1.8-2.6c.2-.4.5-.8.7-1.1 0 .4-.1 1.1-.1 1.5v2.2h-2.4zM69.624 79.232c-.4 0-.8.1-1.2.3l.2-2.3h2.6c.2 0 .4-.2.4-.4s-.2-.4-.4-.4h-3.1c-.2 0-.4.2-.4.4l-.2 3.1c0 .1.1.3.2.4l.1.1c.1 0 .3 0 .4-.1.3-.2.7-.3 1.1-.3.9-.1 1.6.6 1.7 1.4v.2c0 1-.7 1.7-1.6 1.8h-.1c-.6 0-1.2-.2-1.6-.6-.2-.1-.5-.1-.6.1-.2.1-.1.4 0 .5.6.5 1.4.8 2.2.8 1.4 0 2.5-1.1 2.6-2.4v-.2c.2-1.2-.7-2.3-1.9-2.4h-.4zM75.839 79.388c-.7 0-1.4.4-1.8 1 0-2.4.9-3.3 2-3.3.4 0 .7.1 1 .3.2.1.4.1.6-.1.2-.2.1-.4 0-.6-.5-.2-1-.4-1.6-.4-1.5 0-2.9 1.2-2.9 4.3 0 2.5 1.1 3.7 2.6 3.7 1.3 0 2.3-1.1 2.3-2.4v-.1c.2-1.1-.6-2.2-1.8-2.3-.1-.1-.2-.1-.4-.1zm-.1 4.1c-.7 0-1.3-.5-1.5-1.2-.3-.8.2-1.7 1-2 .1 0 .3-.1.4-.1 1 0 1.5.6 1.5 1.6s-.6 1.7-1.4 1.7zM79.46 77.232h3.4c-1.4 1.9-2.1 4.1-2.2 6.4 0 .2.2.4.4.5h.2c.2 0 .4-.2.4-.4 0-2.4.7-4.7 2.2-6.5.1-.1.1-.2.1-.3 0-.3-.2-.5-.4-.5h-4.1c-.2 0-.4.2-.4.4 0 .3.2.4.4.4zM88.691 80.188c.6-.5 1-1.2 1.1-1.9-.2-1.2-1.2-2.1-2.4-2-1.1.1-1.9.9-2 2 0 .7.4 1.4 1.1 1.8-.9.3-1.4 1.1-1.5 2 .1 1.3 1.2 2.2 2.4 2.2h.1c1.1.2 2.2-.6 2.4-1.7.2-1.1-.3-2-1.2-2.4zm-2.4-1.9c0-.7.5-1.2 1.1-1.2h.1c.7 0 1.3.5 1.3 1.2v.1c0 .7-.6 1.2-1.3 1.2-.2 0-.5-.1-.7-.2-.3-.2-.5-.7-.5-1.1zm1.2 5.2c-.8.1-1.5-.5-1.6-1.4v-.1c0-.3.1-.7.3-1 .3-.5 1-.6 1.5-.4.8.4 1.3.8 1.3 1.6s-.6 1.4-1.4 1.3h-.1zM101.355 76.288c-1.3 0-2.3 1.1-2.3 2.4v.1c-.2 1.1.6 2.2 1.8 2.4h.4c.7 0 1.4-.4 1.8-1 0 2.4-.9 3.3-2 3.3-.4-.1-.7-.2-1-.4-.2-.1-.4-.1-.6 0-.1.2-.1.5 0 .6.5.4 1 .6 1.6.6 1.5 0 2.9-1.2 2.9-4.3 0-2.5-1.1-3.7-2.6-3.7zm0 4.1c-.9 0-1.4-.6-1.4-1.6s.6-1.7 1.3-1.7c.8 0 1.4.5 1.6 1.2.3.8-.2 1.7-1 2-.2.1-.3.1-.5.1zM107.58 76.288c-1.6 0-2.5 1.4-2.5 3.9s.9 4 2.5 4 2.5-1.4 2.5-4-1-3.9-2.5-3.9zm0 7.2c-.9 0-1.5-1-1.5-3.3s.6-3.2 1.5-3.2 1.5 1 1.5 3.2-.7 3.3-1.5 3.3zM113.865 76.432h-.5c-.4.3-.8.4-1.3.5-.2 0-.3.2-.3.3 0 .2.2.3.3.3h1v5.4c0 .1-.1.2-.2.2h-1c-.2.1-.4.3-.4.5v.1c0 .2.2.3.3.3h3.7c.2 0 .3-.2.3-.3v-.1c0-.2-.1-.4-.3-.4h-1c-.1 0-.2-.1-.2-.2v-6.3c-.1-.1-.2-.3-.4-.3zM118.368 83.288c1.8-1.9 3.1-3.3 3.1-4.8.1-1.2-.8-2.2-2-2.3 0 .1-.1.1-.2.1-.8 0-1.5.3-2 .9-.2.1-.2.4-.1.5.2.1.4.1.5 0 .4-.4.8-.6 1.4-.6.8-.1 1.4.5 1.5 1.2v.3c0 1.2-1.3 2.6-3.5 4.8-.1.1-.1.2-.1.3 0 .2.2.4.4.4h4.2c.2 0 .4-.2.4-.4 0-.3-.2-.4-.4-.4h-3.2zM134.313 80.088c.8-.3 1.4-1 1.4-1.9 0-1.2-1-1.9-2.3-1.9-.7 0-1.4.3-1.9.7-.2.1-.2.4-.1.5.1.2.4.2.5 0 .4-.2.9-.4 1.4-.4.6-.1 1.2.4 1.3 1v.2c0 .7-.5 1.3-1.8 1.4-.2 0-.4.2-.4.4s.2.4.4.4c1.5.1 2.1.7 2.1 1.5s-.7 1.4-1.4 1.4h-.2c-.6 0-1.2-.2-1.7-.6-.2-.1-.4-.1-.5 0-.1.3-.1.5 0 .6.7.6 1.5.9 2.3.8 1.2.1 2.4-.8 2.5-2v-.2c0-.9-.7-1.7-1.6-1.9zM140.748 76.432h-.5c-.1 0-.3.1-.3.2l-3.1 4.6c-.1.1-.1.1-.1.2v.1c0 .2.2.4.4.4h3v1.7c0 .2.2.4.4.4h.2c.2 0 .4-.2.4-.4v-1.7h.6c.2 0 .4-.2.4-.4s-.2-.4-.4-.4h-.6v-4.3c0-.2-.2-.4-.4-.4zm-3 4.8l1.8-2.6c.2-.4.5-.8.6-1.1 0 .4-.1 1.1-.1 1.5v2.2h-2.3zM145.542 79.232c-.4 0-.8.1-1.2.3l.2-2.3h2.6c.2 0 .4-.2.4-.4s-.2-.4-.4-.4h-3.5l-.2 3.5c0 .1.1.3.2.4l.1.1c.1 0 .3 0 .4-.1.3-.2.7-.3 1.1-.3.9-.1 1.6.6 1.7 1.4v.2c0 1-.7 1.7-1.6 1.8h-.1c-.6 0-1.2-.2-1.6-.6-.2-.1-.5-.1-.6.1-.2.1-.1.4 0 .5.6.5 1.4.8 2.2.8 1.4 0 2.5-1 2.6-2.4v-.2c.2-1.2-.7-2.3-1.9-2.4h-.4zM151.757 79.388c-.7 0-1.4.4-1.8 1 0-2.4.9-3.3 2-3.3.4 0 .7.1 1 .3.2.1.4.1.6-.1.2-.2.1-.4 0-.6-.5-.2-1-.4-1.6-.4-1.5 0-2.9 1.2-2.9 4.3 0 2.5 1.1 3.7 2.6 3.7 1.3 0 2.3-1.1 2.3-2.4v-.1c.2-1.1-.6-2.2-1.8-2.3-.1-.1-.2-.1-.4-.1zm-.1 4.1c-.7 0-1.3-.5-1.5-1.2-.3-.8.2-1.7 1-2 .1 0 .3-.1.4-.1 1 0 1.5.6 1.5 1.6s-.6 1.7-1.4 1.7z" fill="#9c9c9c"/></g><path d="M37.738 76.223h-.5c-.4.3-.8.4-1.3.5-.2 0-.3.2-.3.3 0 .2.2.3.3.3h.7c.2 0 .3.2.3.3v5.1c0 .1-.1.2-.2.2h-1.1c-.1.1-.3.3-.3.5v.1c0 .2.2.3.3.3h3.7c.2 0 .3-.2.3-.3v-.1c0-.2-.1-.4-.3-.4h-1c-.1 0-.2-.1-.2-.2v-6.3c-.1-.1-.2-.3-.4-.3zM42.246 83.079c1.8-1.9 3.1-3.3 3.1-4.8.1-1.2-.8-2.2-2-2.3 0 .1-.1.1-.2.1-.8 0-1.5.3-2 .9-.2.1-.2.4 0 .5.1.1.3.1.5 0 .4-.4.8-.6 1.4-.6.7-.1 1.3.5 1.4 1.2v.3c-.1.8-.4 1.5-1 2.1-.4.5-.8 1-1.2 1.4l-.8.8c-.1.2-.5.4-.6.6-.1.3.3.6.6.6h4c.2 0 .4-.2.4-.4 0-.3-.2-.4-.4-.4h-3.2zM50.079 79.879c.8-.3 1.4-1 1.4-1.9 0-1.2-1-1.9-2.3-1.9-.7 0-1.4.3-1.9.7-.2.1-.2.4-.1.5.1.2.4.2.5 0 .5-.2.9-.4 1.4-.4.6-.1 1.2.4 1.3 1v.2c0 .7-.5 1.3-1.8 1.4-.2 0-.4.2-.4.4s.2.4.4.4c1.5.1 2.1.7 2.1 1.5s-.7 1.4-1.4 1.4h-.1c-.6 0-1.2-.2-1.7-.6-.2-.1-.4-.1-.5 0-.2.3-.2.5-.1.6.7.6 1.5.9 2.3.8 1.2.1 2.4-.8 2.5-2v-.2c0-.9-.7-1.7-1.6-1.9zM56.514 76.223h-.5c-.1 0-.3.1-.3.2l-3.1 4.6c-.1.1-.1.1-.1.2v.1c0 .2.2.4.4.4h3v1.7c0 .2.2.4.4.4h.2c.2 0 .4-.2.4-.4v-1.7h.6c.2 0 .4-.2.4-.4s-.2-.4-.4-.4h-.6v-4.3c0-.2-.2-.4-.4-.4zm-3 4.8l1.8-2.6c.2-.4.5-.8.6-1.1 0 .4-.1 1.1-.1 1.5v2.2h-2.3zM69.415 79.023c-.4 0-.8.1-1.2.3l.2-2.3h2.6c.2 0 .4-.2.4-.4s-.2-.4-.4-.4h-3.1c-.2 0-.4.2-.4.4l-.2 3.1c0 .1.1.3.2.4l.1.1c.1 0 .3 0 .4-.1.3-.2.7-.3 1.1-.3.9-.1 1.6.6 1.7 1.4v.2c0 1-.7 1.7-1.6 1.8h-.1c-.6 0-1.2-.2-1.6-.6-.2-.1-.5-.1-.6.1-.2.1-.1.4 0 .5.6.5 1.4.8 2.2.8 1.4 0 2.5-1 2.6-2.4v-.2c.2-1.2-.7-2.3-1.9-2.4h-.4zM75.63 79.179c-.7 0-1.4.4-1.8 1 0-2.4.9-3.3 2-3.3.4 0 .7.1 1 .3.2.1.4.1.6 0 .2-.2.1-.4 0-.6-.5-.3-1-.5-1.6-.5-1.5 0-2.9 1.2-2.9 4.3 0 2.5 1.1 3.7 2.6 3.7 1.3 0 2.3-1.1 2.3-2.4v-.1c.2-1.1-.6-2.2-1.8-2.4h-.4zm-.1 4.1c-.7 0-1.3-.5-1.5-1.2-.3-.8.2-1.7 1-2 .1 0 .3-.1.4-.1 1 0 1.5.6 1.5 1.6s-.6 1.7-1.4 1.7zM79.251 77.023h3.4c-1.4 1.9-2.1 4.1-2.2 6.4 0 .2.2.4.4.5h.2c.2 0 .4-.2.4-.4 0-2.4.7-4.7 2.2-6.5.1-.1.1-.2.1-.3 0-.3-.2-.5-.4-.5h-4.1c-.2 0-.4.2-.4.4 0 .3.2.4.4.4zM88.382 79.979c.6-.5 1-1.2 1.1-1.9-.1-1.2-1.1-2.1-2.3-2-1.1.1-1.9.9-2 2 0 .7.4 1.4 1.1 1.8-.9.3-1.4 1.1-1.5 2 .1 1.3 1.2 2.2 2.4 2.2h.1c1.1.2 2.2-.6 2.4-1.7.2-1-.3-2-1.3-2.4zm-2.3-1.9c0-.7.5-1.2 1.1-1.2h.1c.7 0 1.3.5 1.3 1.2v.1c0 .7-.6 1.2-1.3 1.2-.2 0-.5-.1-.7-.2-.3-.2-.5-.7-.5-1.1zm1.2 5.2c-.8.1-1.5-.5-1.6-1.4v-.1c0-.3.1-.7.3-1 .3-.5 1-.6 1.5-.4.8.4 1.3.8 1.3 1.6s-.6 1.4-1.4 1.3h-.1zM101.146 76.079c-1.3 0-2.3 1.1-2.3 2.4v.1c-.2 1.1.6 2.2 1.8 2.4h.4c.7 0 1.4-.4 1.8-1 0 2.4-.9 3.3-2 3.3-.4-.1-.7-.2-1-.4-.2-.1-.4-.1-.6 0-.1.2-.1.5 0 .6.5.4 1 .6 1.6.6 1.5 0 2.9-1.2 2.9-4.3 0-2.5-1.1-3.7-2.6-3.7zm0 4.1c-.9 0-1.4-.6-1.4-1.6s.6-1.7 1.3-1.7c.8 0 1.4.5 1.6 1.2.3.8-.2 1.7-1 2-.2.1-.3.1-.5.1zM107.371 76.079c-1.6 0-2.5 1.4-2.5 3.9s.9 4 2.5 4 2.5-1.4 2.5-4-1-3.9-2.5-3.9zm0 7.2c-.9 0-1.5-1-1.5-3.3s.6-3.2 1.5-3.2 1.5 1 1.5 3.2-.7 3.3-1.5 3.3zM113.655 76.223h-.5c-.4.3-.8.4-1.3.5-.2 0-.3.2-.3.3 0 .2.2.3.3.3h1v5.4c0 .1-.1.2-.2.2h-1.1c-.1.1-.3.3-.3.5v.1c0 .2.2.3.3.3h3.7c.2 0 .3-.2.3-.3v-.1c0-.2-.1-.4-.3-.4h-1c-.1 0-.2-.1-.2-.2v-6.3c-.1-.1-.2-.3-.4-.3zM118.159 83.079c1.8-1.9 3.1-3.3 3.1-4.8.1-1.2-.8-2.2-2-2.3 0 .1-.1.1-.2.1-.8 0-1.5.3-2 .9-.2.1-.2.4-.1.5.2.1.4.2.5 0 .4-.4.8-.6 1.4-.6.8-.1 1.5.5 1.5 1.2v.3c0 1.2-1.3 2.6-3.5 4.8-.1.1-.1.2-.1.3 0 .2.2.4.4.4h4.2c.2 0 .4-.2.4-.4 0-.3-.2-.4-.4-.4h-3.2zM134.104 79.879c.8-.3 1.4-1 1.4-1.9 0-1.2-1-1.9-2.3-1.9-.7 0-1.4.3-1.9.7-.2.1-.2.4-.1.5.1.2.4.2.5 0 .4-.2.9-.4 1.4-.4.6-.1 1.2.4 1.3 1v.2c0 .7-.5 1.3-1.8 1.4-.2 0-.4.2-.4.4s.2.4.4.4c1.5.1 2.1.7 2.1 1.5s-.7 1.4-1.4 1.4h-.1c-.6 0-1.2-.2-1.7-.6-.2-.1-.4-.1-.5 0-.2.3-.2.5-.1.6.7.6 1.5.9 2.3.8 1.2.1 2.4-.8 2.5-2v-.2c0-.9-.7-1.7-1.6-1.9zM140.539 76.223h-.5c-.1 0-.3.1-.3.2l-3.1 4.6c-.1.1-.1.1-.1.2v.1c0 .2.2.4.4.4h3v1.7c0 .2.2.4.4.4h.2c.2 0 .4-.2.4-.4v-1.7h.6c.2 0 .4-.2.4-.4s-.2-.4-.4-.4h-.6v-4.3c0-.2-.2-.4-.4-.4zm-3 4.8l1.8-2.6c.2-.4.5-.8.7-1.1 0 .4-.1 1.1-.1 1.5v2.2h-2.4zM145.333 79.023c-.4 0-.8.1-1.2.3l.2-2.3h2.6c.2 0 .4-.2.4-.4s-.2-.4-.4-.4h-3.5l-.2 3.5c0 .1.1.3.2.4l.1.1c.1 0 .3 0 .4-.1.3-.2.7-.3 1.1-.3.9-.1 1.6.6 1.7 1.4v.2c0 1-.7 1.7-1.6 1.8h-.1c-.6 0-1.2-.2-1.6-.6-.2-.1-.5-.1-.6.1-.2.1-.1.4 0 .5.6.5 1.4.8 2.2.8 1.4 0 2.5-1 2.6-2.4v-.2c.2-1.2-.7-2.3-1.9-2.4h-.4zM151.548 79.179c-.7 0-1.4.4-1.8 1 0-2.4.9-3.3 2-3.3.4 0 .7.1 1 .3.2.1.4.1.6 0 .2-.2.1-.4 0-.6-.5-.3-1-.5-1.6-.5-1.5 0-2.9 1.2-2.9 4.3 0 2.5 1.1 3.7 2.6 3.7 1.3 0 2.3-1.1 2.3-2.4v-.1c.2-1.1-.6-2.2-1.8-2.4h-.4zm-.1 4.1c-.7 0-1.3-.5-1.5-1.2-.3-.8.2-1.7 1-2 .1 0 .3-.1.4-.1 1 0 1.5.6 1.5 1.6s-.6 1.7-1.4 1.7z" fill="#9c9c9c"/></g><g><path d="M38.946 53.533h15.5c1.4 0 2.5 1.1 2.5 2.5v9.8c0 1.3-1.1 2.4-2.4 2.4h-15.6c-1.3 0-2.4-1.1-2.4-2.4v-9.9c0-1.3 1.1-2.4 2.4-2.4z" fill="#fad757"/><path d="M54.448 53.434h-15.5c-1.4 0-2.5 1.1-2.5 2.5v9.8c0 1.4 1.1 2.5 2.5 2.5h15.5c1.4 0 2.5-1.1 2.5-2.5v-9.8c0-1.4-1.1-2.5-2.5-2.5zm-15.5.2h4.3c.4 0 .8.4.8.8 0 .1 0 .2-.1.3-.4 1.2-.7 2.3-.7 3.6h-6.6v-2.4c0-1.3 1-2.3 2.3-2.3zm-2.3 4.9h6.6v4.8h-6.6v-4.8zm2.3 9.6c-1.3 0-2.3-1-2.3-2.3v-2.4h6.6c.1 1.2.3 2.4.8 3.5 0 .1.1.2.1.3 0 .4-.3.8-.8.8l-4.4.1zm4.9 0c.4-.3.5-.8.3-1.2-.6-1.5-.8-3-.8-4.6v-2.9c0-1.6.2-3.1.8-4.6.2-.4 0-.9-.3-1.2h5.7c-.3.2-.4.5-.4.8 0 .1 0 .3.1.4.1.2.2.5.2.7 0 0 .1.1.1 0l.1-.1c-.1-.2-.2-.5-.3-.7 0-.1-.1-.2-.1-.3 0-.4.3-.8.8-.8h4.4c1.3 0 2.3 1 2.3 2.3v2.3h-6.6-.1v4.1c0 1.6-.2 3.1-.8 4.6-.1.1-.1.3-.1.4 0 .3.1.6.4.8h-5.7zm12.9-4.9h-6.6v-3.8-.9h6.6v4.7zm-2.3 4.9h-4.3c-.4 0-.8-.4-.8-.8 0-.1 0-.2.1-.3.4-1.1.7-2.3.8-3.5h6.6v2.3c-.1 1.2-1.1 2.3-2.4 2.3z"/></g></g></svg>