<?xml version="1.0" encoding="utf-8"?>
<!-- Generator: Adobe Illustrator 25.0.1, SVG Export Plug-In . SVG Version: 6.00 Build 0)  -->
<svg version="1.1" id="Layer_1" xmlns="http://www.w3.org/2000/svg" xmlns:xlink="http://www.w3.org/1999/xlink" x="0px" y="0px"
	 viewBox="0 0 296 191" style="enable-background:new 0 0 296 191;" xml:space="preserve">
<path style="fill:#2E4057;" d="M295,15.2l0.3-5l-23.9-1.6l-0.3,4.3l-61.6-4.1c-9.3-0.6-13.3,2.1-19.5,8.1l-18.1,19.7l-62.6-4.5
	c-2.9-0.2-5.8,0.8-8,2.7c-2.2,1.9-3.6,4.6-3.8,7.6l-3.3,50.3l-19.6-1.6V91c-1.7-0.1-3.4-0.2-5.1-0.3c-0.4,0-0.9-0.1-1.3-0.1
	c-0.3,0-0.7-0.1-1-0.1v0.1L51,89.3c-13.1-1-26.2,3.5-35.8,12.4C5.5,110.7,0,123.3,0,136.5v35.3c0,10.1,8.2,18.4,18.3,18.4h41.2
	c7.5,0,13.7-5.6,14.5-13c0.1-1.1,1.1-1.9,2.2-1.9h196.5c10.1,0,18.3-8.2,18.3-18.4v-24.9c0-13.3-10.3-24.4-23.5-25.5l-6.3-0.5v-0.1
	c-0.3,0-0.7,0-1,0c-1.7,0-3.4-0.2-5-0.4c-0.5,0-1-0.1-1.4-0.2c0,0,0,0,0,0v0.1l-30.6-2.4l0.7-11.1l14.6,1c0.4,0,0.8,0,1.3,0
	c10.4,0,19.4-8.4,22.1-11.3l4.9,0.3l-0.6,8.5l23.9,1.6l0.3-5l-18.9-1.2l4.7-71.6L295,15.2z M283.5,156.8c0,6-4.9,10.9-10.9,10.9
	H76.2c-4.9,0-9,3.7-9.6,8.6c-0.4,3.6-3.5,6.4-7.1,6.4H37.3v-26.4c0-7.3,3-14.1,8.3-19c5.4-5,12.3-7.4,19.6-6.8l218.3,17.3V156.8z
	 M266.9,113.8c9.3,0.7,16.7,8.7,16.7,18.1v8.3L65.8,123c-9.2-0.7-18.4,2.5-25.3,8.8c-6.8,6.3-10.7,15.2-10.7,24.5v26.4H18.3
	c-6,0-10.9-4.9-10.9-10.9v-35.3c0-11.3,4.5-21.7,12.8-29.3c7.5-6.9,16.9-10.6,26.9-10.6c1.1,0,2.2,0,3.2,0.1l43.3,3.4l-0.7,10.4
	c-0.2,2.9,0.8,5.8,2.7,8c2,2.2,4.6,3.5,7.6,3.7l106.8,7.1c0.2,0,0.5,0,0.7,0c5.8,0,10.6-4.5,11-10.3l0.6-8.7L266.9,113.8z
	 M98.7,100.6l118.8,9.4l-0.6,8.8c-0.2,3.3-3.1,5.8-6.5,5.6l-106.8-7.1c-1.6-0.1-3.1-0.8-4.2-2.1c-1.1-1.2-1.6-2.8-1.5-4.4
	L98.7,100.6z M199.7,101L99.2,93.1l3.3-50.4c0.1-1.6,0.8-3.1,2.1-4.1c1.2-1.1,2.8-1.6,4.4-1.5l81.9,4.7l-17.2,15
	c-3.7,3.2-3.9,7.9-0.6,12.1c3.1,4,9.5,7.3,16.1,7.3c3.5,0,7.1-0.9,10.4-3.2l10.9-9.5l10.2,0.7l-2.5,38.3L199.7,101z M259.7,76.3
	l-0.8,0.9c-0.1,0.1-9.8,11.2-20.2,10.5l-14.6-1l1.5-22.4c7.8-0.4,12-4.3,14.2-7.8c2.5-3.9,3.1-8.3,3.3-10.5l-5-0.3
	c-0.1,1.8-0.6,5.2-2.5,8.1c-2.6,4-7,5.8-13.1,5.4l-13.9-0.9L196.6,69c-6.8,4.6-16.1,1.3-19.6-3.1c-2.4-3.1-0.6-4.7,0-5.2l21-18.3
	l0,0l1.8-1.6l13.6-11.9l-3.3-3.8L195,38.3l-16.7-1.2l15.2-16.6c5.6-5.3,8.3-7.1,15.7-6.6l61.6,4.1L267,76.8L259.7,76.3z"/>
<polygon style="fill:#FFA300;" points="222.5,111 93.6,102.3 94.8,84.3 223.7,92.8 "/>
</svg>
