<svg xmlns="http://www.w3.org/2000/svg" viewBox="0 0 47.7 28.2"><path d="M37 8c-5.5 0-10 4.3-10 9.5S31.5 27 37 27s10-4.3 10-9.5S42.5 8 37 8zm4.3 10.3h-3.5v3.5h-1.5v-3.5h-3.5v-1.5h3.5v-3.5h1.5v3.5h3.5v1.5z" fill="#ffa300"/><g fill="#2e4057"><path d="M4.8 17.5h8.1V19H4.8zM15.4 17.5h8.1V19h-8.1z"/><path d="M2.8 22.8c-.7 0-1.3-.6-1.3-1.3V2.8c0-.7.6-1.3 1.3-1.3h33.3c.7 0 1.3.6 1.3 1.3v1.4c.5 0 1 .1 1.5.1V2.8c0-1.6-1.3-2.8-2.8-2.8H2.8C1.3 0 0 1.3 0 2.8v18.6c0 1.6 1.3 2.8 2.8 2.8h22.8c-.3-.5-.5-1-.8-1.5h-22z"/><path d="M37.1 6.9c-5.9 0-10.6 4.8-10.6 10.6s4.8 10.6 10.6 10.6c5.9 0 10.6-4.8 10.6-10.6 0-5.9-4.8-10.6-10.6-10.6zm0 19.8c-5.1 0-9.2-4.1-9.2-9.2s4.1-9.2 9.2-9.2 9.2 4.1 9.2 9.2c-.1 5.1-4.2 9.2-9.2 9.2z"/></g></svg>