<svg xmlns="http://www.w3.org/2000/svg" viewBox="0 0 124 84" style="enable-background:new 0 0 124 84" xml:space="preserve"><path style="fill:#2e4057" d="M103.3 83.7H20.1c-11 0-20-9-20-20V20.3c0-11 9-20 20-20h83.2c11 0 20 9 20 20v43.4c0 11.1-9 20-20 20z"/><linearGradient id="a" gradientUnits="userSpaceOnUse" x1="62.091" y1="71.517" x2="62.091" y2="18.517" gradientTransform="matrix(1 0 0 -1 0 86)"><stop offset="0" style="stop-color:#d3d9e7"/><stop offset="1" style="stop-color:#d2d6e1"/></linearGradient><path style="fill:url(#a)" d="M34 14.5h56.1c5.5 0 10 4.5 10 10v33c0 5.5-4.5 10-10 10H34c-5.5 0-10-4.5-10-10v-33c0-5.5 4.5-10 10-10z"/><path style="fill:#c9cedd;stroke:#bbc2d9;stroke-width:.5;stroke-dasharray:4,4" d="M31.5 42.9h62c1.5 0 2.8 1.2 2.8 2.8v9.7c0 1.5-1.2 2.8-2.8 2.8h-62c-1.5 0-2.8-1.2-2.8-2.8v-9.7c0-1.6 1.2-2.8 2.8-2.8z"/><path style="fill:#59637d" d="M24 26.1h76.1V36H24z"/><path style="fill:#b0b6c9" d="M34.6 47.6h18.7c1.4 0 2.5 1.1 2.5 2.5s-1.1 2.5-2.5 2.5H34.6c-1.4 0-2.5-1.1-2.5-2.5.1-1.4 1.2-2.5 2.5-2.5zM82.3 47.7h8.3c1.4 0 2.5 1.1 2.5 2.5s-1.1 2.5-2.5 2.5h-8.3c-1.4 0-2.5-1.1-2.5-2.5.1-1.4 1.2-2.5 2.5-2.5z"/></svg>