<svg xmlns="http://www.w3.org/2000/svg" viewBox="0 0 124 89" style="enable-background:new 0 0 124 89" xml:space="preserve"><path style="fill:#2e4057" d="M103.2 88.7H20c-11 0-20-9-20-20V25.3c0-11 9-20 20-20h83.2c11 0 20 9 20 20v43.4c0 11.1-8.9 20-20 20z"/><path style="fill:#f6f7f9" d="M55.4 3.1H80c3.9 0 7 3.1 7 7v60.7c0 3.9-3.1 7-7 7H55.4c-3.9 0-7-3.1-7-7V10.1c0-3.9 3.2-7 7-7z"/><path style="fill:none;stroke:#5e6780;stroke-width:2" d="M55.4 4.1H80c3.3 0 6 2.7 6 6v60.7c0 3.3-2.7 6-6 6H55.4c-3.3 0-6-2.7-6-6V10.1c0-3.4 2.7-6 6-6z"/><path style="fill:#e8ecf3" d="M56 4.9h23.4c2.2 0 4 1.8 4 4v5.5c0 2.2-1.8 4-4 4H56c-2.2 0-4-1.8-4-4V8.9c0-2.3 1.8-4 4-4zM56 20.1h23.4c2.2 0 4 1.8 4 4v19c0 2.2-1.8 4-4 4H56c-2.2 0-4-1.8-4-4v-19c0-2.2 1.8-4 4-4zM56 48.9h23.4c2.2 0 4 1.8 4 4V70c0 2.2-1.8 4-4 4H56c-2.2 0-4-1.8-4-4V52.9c0-2.2 1.8-4 4-4z"/><path style="fill:#ffcb05" d="M25 19.3h33.7c1.7 0 3 1.3 3 3v6.2c0 1.7-1.3 3-3 3H25c-1.7 0-3-1.3-3-3v-6.2c0-1.6 1.3-3 3-3z"/><circle style="fill:#d0a911" cx="55.6" cy="25.4" r="4.1"/><path style="fill:#55c5d1" d="M25 34.6h33.7c1.7 0 3 1.3 3 3v6.2c0 1.7-1.3 3-3 3H25c-1.7 0-3-1.3-3-3v-6.2c0-1.7 1.3-3 3-3z"/><circle style="fill:#3e9fa9" cx="55.6" cy="40.7" r="4.1"/><path style="fill:#992a6c" d="M25 49.8h33.7c1.7 0 3 1.3 3 3V59c0 1.7-1.3 3-3 3H25c-1.7 0-3-1.3-3-3v-6.2c0-1.6 1.3-3 3-3z"/><circle style="fill:#7b2056" cx="55.6" cy="55.9" r="4.1"/><path style="fill:#5e6780" d="M59.6 4.1h16.3c0 1.1-.9 2-2 2H61.7c-1.2 0-2.1-.9-2.1-2z"/></svg>