<svg xmlns="http://www.w3.org/2000/svg" viewBox="0 0 89 89"><path d="M44.5 89C20 89 0 69 0 44.5S20 0 44.5 0 89 20 89 44.5 69 89 44.5 89zm0-87C21.1 2 2 21.1 2 44.5S21.1 87 44.5 87 87 67.9 87 44.5 67.9 2 44.5 2z" fill="#2e4057"/><path d="M44.5 6.8C23.7 6.8 6.8 23.7 6.8 44.5s16.9 37.7 37.7 37.7 37.7-16.9 37.7-37.7c0-20.8-16.9-37.7-37.7-37.7z" fill="#2e4057"/><path d="M63.1 36L41.4 57.7a3.32 3.32 0 01-4.7 0L25.9 46.8c-1.3-1.3-1.3-3.4.1-4.7 1.3-1.3 3.4-1.3 4.7 0l8.5 8.5 19.3-19.3c1.3-1.3 3.4-1.3 4.7.1 1.2 1.3 1.2 3.3-.1 4.6z" fill="#ffa300"/></svg>