<svg xmlns="http://www.w3.org/2000/svg" viewBox="0 0 89 89"><path d="M44.5 89C20 89 0 69 0 44.5S20 0 44.5 0 89 20 89 44.5 69 89 44.5 89zm0-87C21.1 2 2 21.1 2 44.5S21.1 87 44.5 87 87 67.9 87 44.5 67.9 2 44.5 2z" fill="#2e4057"/><path d="M44.5 6.8C23.7 6.8 6.8 23.7 6.8 44.5s16.9 37.7 37.7 37.7 37.7-16.9 37.7-37.7c0-20.8-16.9-37.7-37.7-37.7z" fill="#2e4057"/><path d="M47 44.5L57.5 34c.7-.7.7-1.8 0-2.5s-1.8-.7-2.5 0L44.5 42 34 31.5c-.7-.7-1.8-.7-2.5 0s-.7 1.8 0 2.5L42 44.5 31.5 55c-.7.7-.7 1.8 0 2.5s1.8.7 2.5 0L44.5 47 55 57.5c.7.7 1.8.7 2.5 0s.7-1.8 0-2.5L47 44.5z" fill="#ffa300"/></svg>