<svg xmlns="http://www.w3.org/2000/svg" viewBox="0 0 29.3 30.4"><path d="M1.6 12.9l27.2-.2.1 5H1.7l-.1-4.8z" fill="#ffa300"/><g fill="#2e4057"><path d="M4.9 12.1l23.9-6.8-.8-2.8c-.2-.9-.8-1.6-1.6-2S24.7 0 23.8.2l-21.3 6C.7 6.7-.3 8.6.2 10.4l.7 2.3v12.7c0 2.8 2.2 5 5 5h18.5c2.8 0 5-2.2 5-5V12.1H4.9zm23.4 5.1H24l2.6-4.1h1.8v4.1zm-26.4 0v-4.1h4.3l-2.6 4.1H1.9zm5.5-4.1h5.2L10 17.2H4.8l2.6-4.1zm6.4 0H19l-2.6 4.1h-5.2l2.6-4.1zm6.4 0h5.2l-2.6 4.1h-5.2l2.6-4.1zM18 7.4l-5 1.4-3.9-3.4L14.2 4 18 7.4zm-2.7-3.8l5-1.4 3.8 3.4-5 1.4-3.8-3.4zm-3.5 5.5l-5 1.4L3 7.1l5.1-1.4 3.7 3.4zm12.3-8c.2-.1.4-.1.6-.1.4 0 .8.1 1.1.3.6.3 1 .8 1.1 1.4l.5 1.9-2.3.7-3.8-3.4 2.8-.8zM2 7.6l3.7 3.3-4 1.1-.5-1.9c-.3-.9.1-1.9.8-2.5zm22.3 21.8H5.9c-2.2 0-4-1.8-4-4v-7.1h26.5v7.1c-.1 2.2-1.9 4-4.1 4z"/><path d="M4.6 21.1h21.1v1H4.6zM4.6 25.9h6.5V28h1v-2.1h6V28h1v-2.1h6.5v-1h-21z"/></g></svg>