<svg xmlns="http://www.w3.org/2000/svg" viewBox="0 0 43.5 49.4"><g fill="#2e4057"><path d="M42.5 19.9H9.6l31.6-9.2c.5-.1.8-.7.7-1.2l-1.7-5.7C39.5 1.6 37.4 0 35 0c-.5 0-1 .1-1.5.2L3.9 8.8C1 9.6-.6 12.6.2 15.5L1.8 21v23c0 3 2.4 5.4 5.4 5.4h11.6c.5 0 1-.4 1-.9s-.4-1-.9-1H7.2c-1.9 0-3.4-1.5-3.4-3.4V30.9h37.8V44c0 1.9-1.5 3.4-3.4 3.4H26.5c-.5 0-1 .4-1 .9s.4 1 .9 1h11.7c3 0 5.4-2.4 5.4-5.4v-23c0-.5-.5-1-1-1zM34.1 2.1c.3-.1.6-.2.9-.2 1.5 0 2.9 1 3.3 2.5l1.4 4.8-3.9 1.1c0-.1-.1-.1-.1-.1l-6.9-6.6 5.3-1.5zm-7.3 2.1c0 .1.1.1.1.1l6.9 6.6-5.1 1.5c0-.1-.1-.1-.1-.1l-6.9-6.6 5.1-1.5zm-7.3 2.1c0 .1.1.1.1.1l6.9 6.6-5.1 1.5c0-.1-.1-.1-.1-.1l-6.9-6.6 5.1-1.5zm-7.3 2.1c0 .1.1.1.1.1l6.9 6.6-5.1 1.5c0-.1-.1-.1-.1-.1L7.1 9.9l5.1-1.5zM2.1 14.9c-.3-.9-.1-1.8.3-2.6s1.2-1.4 2.1-1.6l.5-.2c0 .1.1.1.1.1l6.9 6.6-8.5 2.5-1.4-4.8zM3.8 29v-7.1h8.5L8.1 29H3.8zm6.6 0l4.1-7.1h5.3L15.7 29h-5.3zm7.5 0l4.1-7.1h5.3l-4 7.1h-5.4zm7.6 0l4.1-7.1h5.3L30.8 29h-5.3zm16 0H33l4.1-7.1h4.4V29z"/><path d="M29.3 39.1c0-.3-.2-.7-.5-.8l-8.5-4.9c-.5-.3-1.1-.1-1.3.4-.1.1-.1.3-.1.5V44c0 .5.4 1 1 1 .2 0 .3 0 .5-.1l8.5-4.9c.2-.3.4-.6.4-.9zm-8.5 3.2v-6.4l5.6 3.2-5.6 3.2zM22.6 47.5c-.5 0-1 .4-1 1s.4 1 1 1c.5 0 1-.4 1-1s-.4-1-1-1z"/></g></svg>