<?xml version="1.0" encoding="UTF-8"?>
<svg enable-background="new 0 0 28.9 18" version="1.1" viewBox="0 0 28.9 18" xml:space="preserve" xmlns="http://www.w3.org/2000/svg">
<path d="m27.9 0s-0.1 0 0 0h-19.6c-0.3 0-0.6 0.1-0.8 0.4l-7.2 7.9c-0.4 0.4-0.4 1 0 1.4l7.2 8c0.2 0.2 0.5 0.3 0.8 0.3h19.5c0.6 0 1-0.4 1.1-1v-15.9c0-0.6-0.5-1.1-1-1.1zm-1.1 15.9h-18l-6.3-6.9 6.3-6.9h18v13.8z" fill="#2e4057"/>
<path d="m12.9 6.9 2.2 2.1-2.1 2.2c-0.4 0.4-0.4 1.1 0 1.5s1.1 0.4 1.5 0l2.1-2.2 2.2 2.1c0.4 0.4 1.1 0.4 1.5 0s0.4-1.1 0-1.5l-2.3-2.1 2.1-2.2c0.4-0.4 0.4-1.1-0.1-1.5-0.4-0.4-1-0.4-1.4 0l-2.1 2.2-2.2-2.1c-0.3-0.4-1-0.4-1.4 0-0.4 0.3-0.4 1 0 1.5z" fill="#2e4057"/>
</svg>
