<svg xmlns="http://www.w3.org/2000/svg" viewBox="0 0 23.2 26.4"><g fill="#2e4057"><path d="M20.082 0h-14.8c-1.8 0-3.2 1.4-3.2 3.1v1.4h-1.5c-.3 0-.6.3-.6.6s.3.6.6.6h1.5v4.1h-1.5c-.3 0-.6.3-.6.6s.3.6.6.6h1.5v4.1h-1.5c-.3 0-.6.3-.6.6s.3.6.6.6h1.5v4.1h-1.5c-.3 0-.6.3-.6.6s.3.6.6.6h1.5V23c0 1.7 1.4 3.1 3.1 3.1h14.9c1.7 0 3.1-1.4 3.1-3.1V3.1c0-1.7-1.4-3.1-3.1-3.1zm1.9 23.2c0 1-.8 1.9-1.9 1.9h-14.8c-1 0-1.9-.8-1.9-1.9v-1.4h1.5c.3 0 .6-.3.6-.6s-.3-.6-.6-.6h-1.5v-4.1h1.5c.3 0 .6-.3.6-.6s-.3-.6-.6-.6h-1.5v-4.1h1.5c.3 0 .6-.3.6-.6s-.3-.6-.6-.6h-1.5V5.8h1.5c.3 0 .6-.3.6-.6s-.3-.6-.6-.6h-1.5V3.1c0-1 .8-1.9 1.9-1.9h14.8c1 0 1.9.8 1.9 1.9v20.1z"/><path d="M12.682 13c1.7 0 3-1.4 3-3 0-1.7-1.4-3-3-3-1.7 0-3 1.4-3 3-.1 1.6 1.3 3 3 3zm0-4.8c1 0 1.8.8 1.8 1.8s-.8 1.8-1.8 1.8-1.8-.9-1.8-1.8c0-1 .8-1.8 1.8-1.8zM12.682 14c-2.6 0-4.7 2.1-4.7 4.7v.1c0 .3.3.6.6.6h8.1c.3 0 .6-.3.6-.6.1-2.6-2-4.7-4.6-4.8zm-3.4 4.2c.2-1.9 1.9-3.2 3.8-2.9 1.5.2 2.7 1.4 2.9 2.9h-6.7z"/></g></svg>