<svg xmlns="http://www.w3.org/2000/svg" viewBox="0 0 26.7 31.4"><path d="M18.8 7.9l.3 1.5v.9l-1.3 1.3.9 2.1 2-.2.5 1.2.2.9-1.9.8-.5.8-.4 1 2.2 2.4-1.6 1.8-2.2-1.9-1.2.7-1 2.8h-1.4l-.9-2-1.4-.8L8 23.4 6.6 22l2-2.7-1.5-1.9H4.7v-2.3l2.5-.4.8-1.8-2.2-1.5-.3-1.7 1.7-.6 2.3 1.5h.9l.5-.9-.1-1.8 1.8-1 1.3 2.5.9.9 1.1-.3 1.4-1.7 1.5-.4z" fill="#ffa300"/><g fill="#2e4057"><path d="M26.2 4C22 4 14.8 1.6 13.7.2l-.1-.1c-.2-.2-.6-.1-.7.1C11.9 1.6 4.7 4 .5 4c-.3 0-.5.3-.5.5V20c0 4.5 4.7 6.7 8.5 8.6 1.6.6 3.1 1.5 4.4 2.6.1.1.2.1.4.1.1 0 .3-.1.4-.1 1.3-1.1 2.8-1.9 4.4-2.6 3.8-1.8 8.5-4.1 8.5-8.6V4.5c.1-.2-.2-.5-.4-.5zm-.5 16.1c0 3.9-4.2 5.9-8 7.6-1.5.6-3 1.5-4.4 2.5-1.4-1-2.8-1.8-4.4-2.5-3.7-1.8-8-3.8-8-7.6V5C5 4.8 11.3 2.9 13.2 1.2c2 1.7 8.3 3.7 12.3 3.8v15.1z"/><path d="M12 6.7c-.6.1-1.1.4-1.4.8-.3.4-.4.9-.3 1.4.1.3.2.6.4.8l.1.1c-.5.2-.9.4-1.3.7-.1-.2-.3-.5-.5-.7-.2-.3-.4-.5-.7-.8l-.1-.1c-.9-.6-2.2-.4-2.8.5-.4.5-.6 1.1-.4 1.8.1.5.4 1 .8 1.2.3.2.7.3 1 .3.2 0 .5.1.6.3-.2.5-.4 1-.5 1.5-.2 0-.4 0-.5-.1-.2 0-.4-.1-.7 0h-.1c-1 .2-1.7 1.2-1.5 2.2.1.6.4 1.1.9 1.4.4.3.9.4 1.4.3.3-.1.6-.3.8-.5h.1c.2.6.5 1.2.9 1.7-.2.2-.4.3-.6.4-.3.2-.6.4-.8.6l-.1.1c-.7.9-.5 2.2.4 2.8.5.4 1.1.5 1.7.4.5-.1 1-.4 1.3-.8.2-.3.3-.7.3-1 0-.2.1-.4.2-.6.5.2 1.1.4 1.6.5 0 .1 0 .2-.1.3-.1.2-.1.4-.1.7 0 .5.3 1 .7 1.3.3.3.8.4 1.2.4h.3c.6-.1 1.1-.4 1.4-.8.3-.4.4-.9.3-1.4-.1-.3-.2-.6-.5-.8.5-.2 1-.4 1.4-.7.2.2.3.4.5.6.2.3.4.5.6.8l.1.1c.9.6 2.2.4 2.8-.5.4-.5.5-1.1.4-1.7-.1-.5-.4-1-.8-1.2-.3-.2-.7-.3-1-.3-.2 0-.4-.1-.5-.2.3-.5.4-1.1.5-1.7.1 0 .2 0 .4.1s.4.1.7.1h.1c1-.2 1.7-1.2 1.5-2.2-.1-.6-.4-1.1-.9-1.4-.3-.4-.8-.5-1.2-.4-.3.1-.6.3-.8.5-.2-.6-.5-1.2-.9-1.7.2-.1.4-.3.5-.4.3-.2.6-.4.8-.6l.1-.1c.7-.9.5-2.2-.4-2.8-.5-.4-1.1-.5-1.7-.4-.5.1-1 .4-1.3.8-.2.3-.3.7-.4 1 0 .2-.1.4-.2.6-.5-.2-1.1-.4-1.6-.4 0-.1.1-.2.1-.3.1-.2.1-.5.1-.7v-.1c-.2-1.2-1.2-1.9-2.3-1.7zm1.2 1.8c0 .1 0 .2-.1.2-.1.4-.1.8-.1 1.2 0 .3.2.5.5.5.7 0 1.5.2 2.1.5.2.1.4.1.5-.1.4-.4.7-.8.7-1.4 0-.2.1-.5.2-.7.1-.2.3-.3.6-.3.3-.1.7 0 .9.2.2.2.4.5.5.8 0 .3-.1.6-.3.8-.2.2-.3.3-.5.4-.4.2-.7.5-1.1.8-.2.2-.2.5 0 .7.5.6.9 1.3 1.2 2 .1.2.2.3.4.3.6.1 1 .1 1.3-.4 0-.1 0-.1.2-.1s.4 0 .5.1c.2.2.4.4.4.7v.1c0 .5-.3.9-.8.9H20c-.4-.1-.7-.2-1.1-.1-.3 0-.5.2-.5.5-.1.7-.3 1.4-.6 2.1-.1.2-.1.4 0 .5.3.5.8.8 1.4.8.2 0 .4.1.6.2.2.1.3.3.3.6.1.3 0 .7-.2.9l-.1.1c-.4.4-1 .5-1.4.1-.2-.2-.3-.3-.4-.5-.3-.4-.6-.8-.9-1.1-.2-.2-.5-.2-.7 0-.5.4-1.1.7-1.7 1-.2.1-.3.2-.3.4-.1.6-.1 1 .3 1.3.1 0 .1.1.1.2 0 .2 0 .4-.2.5-.2.2-.4.4-.7.4-.3 0-.5 0-.7-.2-.2-.2-.3-.4-.3-.6v-.2c.1-.3.2-.7.2-1.1 0-.3-.2-.5-.5-.5-.7 0-1.4-.2-2-.6-.1 0-.1-.1-.2-.1s-.2 0-.3.1c-.6.3-.9.8-.9 1.5 0 .2-.1.4-.2.6-.1.2-.3.3-.6.3-.3.1-.7 0-.9-.2l-.1-.1c-.4-.4-.5-1-.1-1.4.4-.1.5-.2.7-.4.4-.2.8-.5 1.1-.9.2-.2.2-.5 0-.7-.5-.6-.9-1.2-1.1-2-.1-.2-.2-.3-.4-.3-.7-.2-1.1-.2-1.5.3 0 .1-.1.1-.2.1-.2 0-.4 0-.5-.1-.2-.2-.4-.4-.4-.7v-.1c0-.5.3-.9.8-.9h.4c.4.1.7.1 1.1.1.3 0 .5-.2.5-.5.1-.7.3-1.3.6-1.9.1-.2.1-.3 0-.5-.3-.6-.9-1-1.5-1-.2 0-.4-.1-.6-.2-.2 0-.3-.2-.3-.4-.1-.3 0-.7.2-.9l.1-.1c.4-.4 1-.5 1.4-.1.2.2.4.4.5.6.3.4.6.8.9 1.1.2.2.5.2.7 0 .5-.4 1.1-.7 1.7-.9.2-.1.3-.2.3-.4.1-.4 0-.9-.4-1.2-.1-.1-.2-.2-.2-.3 0-.2 0-.4.2-.5.2-.2.4-.4.7-.4h.1c.6-.2 1 .1 1 .6z"/><path d="M11.8 12.5v.6c.1 1 1 1.8 2 1.8h.2c.8-.1 1.4-.6 1.7-1.3.1-.3-.1-.5-.3-.6-.3-.1-.6 0-.7.3-.1.4-.4.6-.8.7-.5.1-1-.3-1.1-.9v-.3c.1-.3-.1-.5-.4-.6-.3-.2-.5 0-.6.3zM12 16.1c-.9-.6-2.1-.3-2.7.6-.2.2-.1.5.1.7.2.2.5.1.7-.1.2-.4.7-.5 1.1-.4.5.2.8.7.6 1.2v.2c0 .3.2.5.5.5.2 0 .4-.1.5-.3.3-.9-.1-1.9-.8-2.4zM14.3 18.4c0 .3.2.4.5.5h.1c.3 0 .5-.3.4-.6-.1-.5.3-1 .9-1.1.3 0 .5-.3.4-.6 0-.3-.3-.5-.6-.5-1.1.2-1.8 1.2-1.7 2.3z"/></g></svg>