<svg xmlns="http://www.w3.org/2000/svg" viewBox="0 0 103.3 29.7"><path d="M92.2 15.7c-2.5 2.2-6.3 2.2-8.8 0-2.1 1.9-5.1 2.2-7.5.8-2.1-1.1-3.5-3.4-3.5-5.8.2.2.3.3.3.4 1 1.1 2.5 1.8 4 1.8h2.1c1.2.1 2.2-.8 2.3-2v-.2-8.3c0-1.2.9-2.2 2.1-2.3 1.1 0 2 .7 2.2 1.8v8.7c-.1 1.2.9 2.2 2.1 2.3s2.2-.9 2.3-2.1v-.2-8.4c0-.8.4-1.5 1-1.8 1-.6 2.4-.3 3 .7.2.3.3.6.3.9V10.8c0 1.2 1 2.2 2.2 2.2 1 0 1.9-.7 2.1-1.7 0-.2.1-.5 0-.7v-8c-.1-.9.4-1.8 1.2-2.2 1.1-.5 2.4-.1 3 1 .2.3.2.7.2 1.1 0 2.9.1 5.8 0 8.7-.2 3.5-3 6.2-6.5 6.2-1.5 0-2.9-.5-4-1.4.2-.1.1-.2-.1-.3z" fill="#17509e"/><path d="M76.9 11.8c-1.8 0-3.4-1-4.1-2.7-.2-.6-.3-1.2-.3-1.9v-1c-.2-1.1-1.2-2-2.3-1.9-1.1 0-2 .9-2 2.1 0 1.6 0 3.2-.1 4.9-.2 3.3-2.9 5.9-6.2 6-2.6.1-5.2.1-7.9 0-4.8-.4-8.3-4.5-8-9.3.3-4.2 3.6-7.6 7.9-8 1.8-.1 3.6-.1 5.4 0 1.1.1 2 1.1 1.9 2.2 0 1.2-1 2.2-2.2 2.2h-4.4c-2.4-.1-4.3 1.8-4.4 4.2-.1 2.4 1.8 4.3 4.2 4.4h7c1.2 0 2.1-1 2.1-2.1V6.8C63.4 3.2 66.3.2 69.9.1c3.3-.1 6.2 2.3 6.6 5.5.1 1.6.2 3.2.1 4.8.3.4.3.9.3 1.4z" fill="#17509e"/><path d="M33.6 11.8c-2.4 0-4.3-1.9-4.4-4.2V6.3c-.2-1.2-1.2-2-2.4-1.8-1.1.1-1.9 1.1-1.9 2.2 0 1.6.1 3.2-.1 4.9-.3 3.3-3 5.9-6.3 5.9-2.6.1-5.2.1-7.9-.1-3.4-.3-6.4-2.7-7.4-6v-.3h4.6c.1 0 .3.1.4.2a4.6 4.6 0 003.6 1.7h6.5c1.2.1 2.2-.8 2.3-2v-.3-4C20.5 3.1 23.4 0 27 0c3.3-.1 6.1 2.3 6.7 5.5.1.4.1.8.1 1.3-.2 1.6-.2 3.3-.2 5z" fill="#e10e17"/><path d="M29.2 10.8c1.2 1.5 3 2.3 4.9 2.2h1.6c1.2 0 2.2-.9 2.2-2.1v-.1-8.4c0-.7.3-1.4.8-1.9.6-.5 1.5-.6 2.3-.3s1.3 1.1 1.3 2c0 3.1.1 6.2-.1 9.3-.3 3.1-2.7 5.5-5.8 5.8-3.6.4-6.8-2.1-7.3-5.7.1-.2.1-.4.1-.8zM3.9 4.5C4.6 3.2 5.7 2.1 7 1.3S9.8.1 11.4.1h4.5C17 0 18 1 18 2.2s-.9 2.2-2.1 2.3H4.1h-.2zM33.7 24.9c0-1.1.9-1.9 2-1.9h.1c1.1 0 1.9.9 1.9 2v.1c0 1.1-1 1.9-2.1 1.9s-1.9-1-1.9-2.1zM33.7 22.7c-1.1 0-2-1-2-2.1s.9-1.9 1.9-2c1.1 0 2 .8 2.1 1.9 0 1.2-.8 2.1-2 2.2zM35.8 20.7c0-1.1.8-1.9 1.9-2h.1c1.1 0 2 .9 2 2s-.9 2-2 2-2-.9-2-2zM7.2 9.2l.3 1.1H.8c-.5 0-.8-.3-.8-.6.1-.4.4-.6.7-.6 2.2.1 4.3.1 6.5.1zM7.4 7.2l-.3 1.1H1.6c-.5 0-.7-.2-.7-.5s.3-.6.7-.6h5.8z" fill="#e10e17"/><path d="M84.9 20l1.6-.6c.2.4.2.4-.3.5-.3.1-.5.2-.8.3.5.6 1.1 1.2 1.7 1.7.3.2.9.1 1.3.1.1 0 .2-.4.2-.6 0-.3.1-.4.4-.3v.7c0 .4-.3.7-.6.7h-.1c-.5 0-1.1.1-1.4-.2-.3.1-.6.2-.9.2-.6 0-1.2-.1-1.7-.1-.4 0-.8.1-1.2.1-.8 0-1-.2-1-1V20c0-.3.1-.4.4-.3v1.8c0 .5.1.6.6.6 1 0 1 0 1-1h.4c.1 1 .1 1 1.1 1 .3 0 .5-.1.8-.1-.1-.2-.3-.5-.4-.7-.5-.3-1.1-.6-1.1-1.3z" fill="#17509e"/><path d="M8.8 5.3c-.3.4-.6.7-.9 1-.1 0-.2.1-.4.1H2.3c-.3 0-.5-.1-.5-.5 0-.3.2-.6.5-.7h.1l6.4.1z" fill="#e10e17"/><path d="M55.8 20.9H57c.2 0 .4.1.6.3.3.3.3.6-.1.9-.7.5-1.6.8-2.5.7-.3 1.1-.6 1.3-1.8 1.2v-.2-.2c1.2-.1 1.2-.2 1.3-.7-.4-.1-.7-.3-1-.5-.1-.1-.1-.5-.1-.7.1-.5.3-.7.8-.7.6 0 .7.2.9 1.4.9.1 1.8-.2 2.4-.8-.2-.1-.4-.2-.6-.2h-.7c-.1 0-.2-.2-.4-.2v-.3zm-1.3 1.4v-.7c-.1-.2-.2-.3-.4-.3-.1 0-.3.2-.3.3-.2.5.1.7.7.7z" fill="#17509e"/><path d="M38.9 26.9c.1.8.1.8-.6 1l-4.7 1.7c-.1 0-.2.1-.3.1-.2-.8-.2-.8.5-1l4.6-1.6c.1-.1.3-.2.5-.2z" fill="#e10e17"/><path d="M75.8 22.3c-.3.2-.6.3-.9.4-.4.1-.9-.2-.9-.7 0-.2 0-.4.1-.5.2-.3.4-.7.6-1l1.2 1.2c.4.6 1.2.7 1.9.4.3-.1.6-.3 1-.5-.2-.3-.2-.3-1.5-.4l-.1-.4h1.3c.2 0 .4.2.6.3.2.3.3.6-.2.8-.5.3-1 .5-1.5.7-.6.3-1.2.1-1.6-.3zm-1-1c-.4.4-.6.7-.3 1 .2.2.5.2.7 0 .3-.4.1-.6-.4-1zM100.5 22.4c-.2.1-.4.2-.7.3-1.1.1-1.4-.1-1.4-1.2v-1.6h.4v2c0 .4.2.5.5.5.7 0 .7 0 .8-1h.4v.7c.1.2.2.3.3.4.1 0 .3 0 .4-.1.1-.2.1-.4 0-.6 0-.3.1-.4.4-.3v.6c0 .3.2.5.5.4.1 0 .3-.3.3-.4v-.7c.2 0 .3 0 .4.1.1.4 0 .9-.2 1.2-.2.2-.5.2-1.1-.1-.2.3-.7.4-1 .1.1-.2 0-.3 0-.3zM67.7 20.8l.2-.3c.1 0 .1.1.2.1.4.3.7.7 1 1.1.3.5 1 .7 1.6.5.5-.2.9-.4 1.3-.6-.4-.5-.9-.3-1.3-.3-.2 0-.4 0-.4-.4h1.4c.3 0 .6.3.6.7 0 .1 0 .2-.1.3-.6.5-1.3.8-2.1.9-.3 0-.7-.1-1.1-.2-.5.4-1.2.1-1.8.2-.1 0-.1-.2-.3-.4h1.3c.2 0 .3-.1.5-.1-.1-.2-.1-.3-.2-.5-.2-.4-.4-.7-.8-1zM5.8 22.4v1.2l-.4.1v-3.5l.6.2c.5-.4.9-.4 1.2 0 .4.6.4 1.3 0 1.8-.3.5-.6.5-1.4.2zm0-1.1v.5c0 .4.2.5.6.5s.6-.3.6-.9-.2-1-.6-1-.6.2-.6.9zM91.2 20.4c.5.5 1 1 1.4 1.5.3.4.8.3 1.2.3.1 0 .2-.2.2-.3v-.6c.3-.1.4 0 .4.3 0 .4.1.9-.4 1-.5.2-1 .2-1.5-.2l-.2-.2c-.2.2-.5.3-.8.5-.4.1-.9-.1-1-.6v-.4c.2-.4.4-.9.7-1.3zm.2.8c-.3.2-.5.4-.4.8.1.2.3.3.4.3.2 0 .3-.1.4-.3.2-.4-.2-.6-.4-.8zM63.8 19.8h.4v2c0 .5.2.6.6.5.1 0 .2-.2.3-.3v-.2c0-.6.3-.9.8-.9s.8.4.8.8c0 .5-.2 1-.7 1-.6 0-1.2 0-1.8-.1-.2-.1-.4-.3-.4-.5-.1-.7 0-1.5 0-2.3zm2.5 2c0-.2-.1-.5-.4-.5s-.4.2-.4.5.1.5.4.5c.3.1.4-.2.4-.5zM95 19.8c.3-.1.4 0 .4.2v1.7c0 .3.1.5.5.5s.4-.1.4-.4.2-.6.4-.8c.3-.2.7-.2.9.1.3.4.4.9.2 1.3-.2.3-.5.5-.8.4-.3 0-.6-.1-.9-.1-.8.1-1.1-.2-1.1-.9v-2zm2.1 2.5c.4 0 .4-.3.4-.6s-.1-.5-.5-.5-.4.3-.4.6.2.5.5.5zM12.1 21c-.1-.2-.2-.5-.3-.6-.2 0-.5 0-.7.1s-.3.1-.5.2c.1-.5.6-.8 1.1-.7.4 0 .8.3.8.8v1.7l-.6-.2v.1c-.3.1-.7.1-1 0-.2-.1-.4-.3-.4-.6s.2-.5.4-.6c.4 0 .8-.1 1.2-.2zm0 .5l-.2-.2c-.3.1-.6.3-.9.4-.1 0 0 .4.1.5.2.1.4.1.7 0 .1-.2.2-.5.3-.7zM45.8 23.6c.7 0 1.3.1 1.5-.8H47c-.8-.1-1-.4-.9-1.2 0-.4.3-.6.7-.6.5 0 .8.1.8.6.1.5.1 1 0 1.6-.2.7-.8 1.1-1.5.9H46c0-.2-.1-.4-.2-.5zm1.4-1.2l.2-.1-.3-.9h-.4c-.1.2-.2.5-.1.6.1.2.3.3.6.4zM15.5 20.1h.5l.5 1.7h.1c.1-.5.3-.9.4-1.4.1-.3.2-.4.6-.3-.4 1-.7 2-1.1 3-.1.2-.4.3-.6.4l-.2-.1.1-.2c.6-.3.6-.4.4-1.1-.3-.6-.5-1.2-.7-2zM2.2 21c-.1-.1-.2-.2-.4-.3-.2-.1-.4-.3-.6-.3s-.4.2-.5.4c-.1.3-.1.7 0 1 .1.2.2.4.4.4s.5-.1.7-.2c.2 0 .3-.1.5-.2-.1.5-.5.9-1.1.9h-.1c-.6-.1-.9-.6-.9-1.3 0-.6.4-1.1 1-1.2.5-.1.9.2 1 .7v.1zM62.8 21.3h.4v.7c0 .4-.3.7-.7.7h-2.2c-.6 0-.8-.2-.9-.8v-.5c.3-.1.4-.1.4.2 0 .7 0 .7.7.7h1.6c.6 0 .6 0 .6-.6.1-.1.1-.2.1-.4zM79.3 23.5c1.5-.1 1.5-.1 1.5-1.5v-.7h.4c0 .1.1.1.1.1v1.3c0 .7-.5 1.3-1.2 1.3h-.4c-.2-.1-.2-.3-.4-.5zM28.1 20.1l.6.2.6-.3v.5c-.8.1-.8.1-.8.9v1.2H28l.1-2.5zM48 23.6c1.5-.2 1.5-.2 1.5-1.6v-.6h.4v1.4c0 .7-.5 1.3-1.1 1.3h-.4c-.1-.2-.2-.4-.4-.5zM50.6 22.3h1.3c.1 0 .3-.1.3-.2s0-.3-.1-.3c-.3-.3-.6-.7-.9-1l.3-.3c.4.3.7.7 1 1.1.2.2.2.5.1.7-.1.2-.4.3-.7.3h-1.1c-.1 0-.2-.1-.4-.2l.2-.1zM24.8 20.1v2.5h-.4v-2.4l.4-.1zM71.7 20c-.2.1-.4.3-.5.3s-.2-.2-.3-.3c.1-.1.2-.2.3-.2s.3.1.5.2zM21.2 22.3c-.2.1-.3.3-.4.3s-.2-.2-.3-.2c.1-.1.2-.3.3-.3s.3.1.4.2zM93.7 20.1c.1.2.3.3.3.4l-.3.3c-.1 0-.3-.2-.3-.3 0-.1.1-.2.3-.4zM56.7 19.7c.1.1.2.3.2.3-.1.1-.2.2-.3.2s-.2-.2-.2-.3c0-.1 0-.3.1-.4l.2.2zM77.5 23.9l.3.3c-.1.1-.2.2-.3.2-.1 0-.2-.1-.3-.2l.3-.3zM83.9 24.2c-.2.1-.3.2-.4.2s-.2-.1-.3-.2l.2-.2c.2 0 .3.1.5.2zM24.7 19c.1.2.2.2.2.3 0 .1-.2.2-.2.2-.1 0-.2-.1-.3-.2l.3-.3zM77.6 23.5c-.2.1-.3.2-.4.2s-.2-.1-.3-.2c.1-.1.2-.2.3-.2 0 0 .1.1.4.2zM61.1 20.5c-.2.1-.3.3-.4.3s-.2-.1-.3-.2l.2-.2s.3 0 .5.1zM61.5 20.9c0-.1-.1-.3-.1-.4s.2-.2.2-.2c.1 0 .2.1.3.2l-.2.3-.2.1zM78.5 23.5c-.2.1-.3.2-.4.2s-.2-.1-.3-.2c.1-.1.2-.2.3-.2s.1.1.4.2zM83.5 23.5c-.2.1-.3.2-.4.2s-.2-.1-.3-.2c.1-.1.2-.2.3-.2.1 0 .2.1.4.2zM88.1 23.6c-.2.1-.3.2-.4.2s-.2-.2-.3-.2c.1-.1.2-.2.3-.2s.2.1.4.2zM88.6 23.3c.1.2.3.3.2.3 0 .1-.1.2-.3.2-.1 0-.2-.1-.3-.2.1-.1.3-.2.4-.3zM84 23.2l.3.3c-.1.1-.2.2-.3.2-.1 0-.2-.1-.2-.2-.1-.1 0-.2.2-.3z" fill="#17509e"/></svg>