<svg xmlns="http://www.w3.org/2000/svg" viewBox="0 0 22 28.6"><g fill="#2e4057"><path d="M19.9 13.006H2.2c-1.2.1-2.2 1-2.2 2.2v11.2c.1 1.2 1 2.2 2.2 2.2h9.2v.1H20c1.1-.1 2.1-1 2.1-2.2v-11.3c-.1-1.2-1-2.2-2.2-2.2zm-17.7 1h17.7c.7.1 1.2.6 1.2 1.2v1.3H1v-1.3c0-.7.5-1.2 1.2-1.2zm-1.2 3.5h20v1.7H1v-1.7zm18.9 10.1H9.5v.1H2.2c-.7-.1-1.2-.6-1.2-1.2v-6.3h20.1v6.2c-.1.7-.6 1.2-1.2 1.2z"/><path d="M5.3 25.006H2.8c-.3 0-.5.2-.5.5s.2.5.5.5h2.5c.3 0 .5-.2.5-.5s-.2-.5-.5-.5zM9.8 25.006H7c-.3 0-.5.2-.5.5s.2.5.5.5h2.8c.2 0 .5-.2.5-.5s-.2-.5-.5-.5z"/></g><path d="M15.6 5.006l-4.3-4.3c0-.1-.1-.2-.3-.3-.4-.1-.6 0-.7.3l-4.2 4.2c-.2.2-.2.5 0 .7.2.2.5.2.7 0l3.4-3.4c0 1.2 0 3.2.1 6 .1 1.3.1 2.5.1 3 0 .3.2.5.5.5s.5-.2.4-.6c0-.4 0-1.6-.1-3 0-1.7-.1-4.6-.1-6.1l3.7 3.7c.1.1.3.1.4.1s.2-.1.3-.1c.3-.2.3-.5.1-.7z" fill="#ffa300"/></svg>