<svg xmlns="http://www.w3.org/2000/svg" viewBox="0 0 20.1 23.4"><path d="M18.1 9.1H2c-1.1 0-2 .9-2 2v10.3c0 1.1.9 2 2 2h16.1c1.1 0 2-.9 2-2V11.1c0-1.1-.9-2-2-2zm1 12.3c0 .5-.4 1-1 1H2c-.5 0-1-.4-1-1V11.1c0-.5.4-1 1-1h16.1c.5 0 1 .4 1 1v10.3z" fill="#2e4057"/><path d="M4.3 21H2.6c-.3 0-.5-.2-.5-.5s.2-.5.5-.5h1.7c.3 0 .5.2.5.5s-.2.5-.5.5zM8.5 21H6.4c-.3 0-.5-.2-.5-.5s.2-.5.5-.5h2.1c.3 0 .5.2.5.5s-.2.5-.5.5zM19.6 15.7H.5c-.3 0-.5-.2-.5-.5v-2.5c0-.3.2-.5.5-.5h19.1c.3 0 .5.2.5.5v2.5c0 .3-.2.5-.5.5zM1 14.7h18.1v-1.5H1v1.5z" fill="#2e4057"/><g fill="#ffa300"><path d="M9.8 0c-2.2 0-4 1.8-4 4s1.8 4 4 4 4-1.8 4-4-1.8-4-4-4zm0 7.3C7.9 7.3 6.4 5.8 6.4 4 6.4 2.2 7.9.6 9.8.6s3.3 1.5 3.3 3.4c0 1.8-1.5 3.3-3.3 3.3z"/><path d="M11.3 3.6h-1.1V2.4c0-.2-.2-.3-.4-.3s-.3.1-.3.3v1.2H8.3c-.2 0-.3.2-.3.3 0 .2.1.4.3.4h1.2v1.2c0 .2 0 .3.2.3s.3-.1.3-.3V4.3h1.2c.3 0 .3-.1.3-.3.2-.2 0-.4-.2-.4z"/></g></svg>