<svg xmlns="http://www.w3.org/2000/svg" viewBox="0 0 21.9 28.5"><g fill="#2e4057"><path d="M4.7 24.979H2.8c-.3 0-.5.2-.5.5s.2.5.5.5h1.9c.3 0 .5-.2.5-.5s-.2-.5-.5-.5zM9.2 24.979H6.9c-.3 0-.5.2-.5.5s.2.5.5.5h2.4c.2 0 .4-.2.4-.5s-.2-.5-.5-.5z"/><path d="M21.9 16.879c0-.1 0-.2-.1-.3v-1.5c0-1.1-.9-2.1-2.1-2.1H2.1c-1.1 0-2.1.9-2.1 2.1v11.3c0 1.1.9 2.1 2.1 2.1h17.7c1.1 0 2.1-1 2-2.2v-6.4c.1-.1.1-.2.1-.3v-2.7zm-20.9.5h19.8v1.7H1v-1.7zm1.1-3.4h17.6c.6 0 1.1.5 1.1 1.1v1.3H1v-1.3c0-.6.5-1.1 1.1-1.1zm17.6 13.5H2.1c-.6 0-1.1-.5-1.1-1.2v-6.2h19.8v6.3c0 .6-.5 1.1-1.1 1.1z"/></g><path d="M15.6 6.479c-.2-.2-.5-.2-.7 0l-3.4 3.4c0-1.2 0-3.1-.1-5.9-.1-1.3-.1-2.5 0-3 0-.3-.2-.5-.5-.5s-.5.2-.5.5c0 .4 0 1.6.1 3 0 1.7.1 4.6.1 6.1l-3.7-3.7c-.2-.2-.5-.2-.7 0-.2.2-.2.5 0 .7l4.3 4.3c0 .1.1.2.3.3.1.1.2.1.2.1.1 0 .2-.1.3-.2l4.4-4.4c.1-.2.1-.5-.1-.7z" fill="#ffa300"/></svg>