<svg xmlns="http://www.w3.org/2000/svg" viewBox="0 0 252 144"><g fill="#2e4057"><path d="M107.8.1c-6.2 4.4-12 9.3-17.4 14.7C78 27.1 68.1 41.7 61.3 57.7c-7.1 16.6-10.7 34.5-10.7 52.6 0 3 2.4 5.3 5.3 5.3s5.4-2.4 5.4-5.3c0-16.7 3.3-33.2 9.8-48.5C77.4 47.1 86.5 33.6 98 22.3 106.9 13.4 117.1 6 128.2.1h-20.4zM33 .1A188.53 188.53 0 003.7 61.4c-.8 2.8.9 5.8 3.8 6.5.5.1.9.2 1.4.2 2.4 0 4.5-1.6 5.2-3.9C20.4 40.8 31.4 19 46.5.1H33zM85 105c-3 0-5.4 2.4-5.4 5.3 0 11.4 1.8 22.8 5.4 33.6h11.4c-4-10.7-6.1-22.1-6.1-33.6 0-2.9-2.4-5.3-5.3-5.3zM44.4 44.9c-2.7-1.2-5.9.1-7 2.8-8.4 19.8-12.8 41.2-12.7 62.7 0 11.3 1.2 22.6 3.5 33.6h11c-2.5-11-3.8-22.3-3.8-33.6 0-20.1 4-40 11.9-58.6 1-2.7-.2-5.8-2.9-6.9z"/></g></svg>