<svg xmlns="http://www.w3.org/2000/svg" viewBox="0 0 19.1 18.1"><path d="M2.5 11.4h1.6c.3 0 .5-.2.5-.5s-.2-.5-.5-.5H2.5c-.3 0-.5.2-.5.5s.2.5.5.5zM6.1 11.4h2c.3 0 .5-.2.5-.5s-.2-.5-.5-.5h-2c-.3 0-.5.2-.5.5s.2.5.5.5z" fill="#ffa300"/><path d="M17.2 0H1.9C.9 0 0 .9 0 1.9v9.6c0 1.1.9 1.9 1.9 1.9h7.7v2.3c0 1.2 1 2.1 2.1 2.1h3.1c1.2 0 2.1-1 2.1-2.1v-2.3h.2c1.1 0 1.9-.9 1.9-1.9V1.9c.1-1-.7-1.9-1.8-1.9zM1 4h17.1v1.3H1V4zm15 11.9c0 .6-.5 1.1-1.1 1.1h-3.1c-.6 0-1.1-.5-1.1-1.1v-4.1h5.4v4.1zm-4.3-5V9.8c0-.7.6-1.3 1.3-1.3h.7c.7 0 1.3.6 1.3 1.3v1.1h-3.3zm6.4.8c0 .5-.4.9-.9.9H17v-.7c0-.5-.4-1-1-1h-.1V9.8c0-1.3-1-2.3-2.3-2.3H13c-1.3 0-2.3 1-2.3 2.3v1.1h-.1c-.5 0-1 .4-1 1v.7H1.9c-.5 0-.9-.4-.9-.9V6.3h17.1v5.4zm0-8.7H1V1.9c0-.5.4-.9.9-.9h15.3c.5 0 .9.4.9.9V3z" fill="#2e4057"/><path d="M12.8 14.6v.9c0 .3.2.5.5.5s.5-.2.5-.5v-.9c.3-.2.5-.5.5-.8 0-.5-.4-.9-1-.9-.5 0-.9.4-.9 1 0 .2.2.5.4.7zm.5-1.3c0 .1 0 .1 0 0z" fill="#2e4057"/></svg>