<svg xmlns="http://www.w3.org/2000/svg" viewBox="0 0 24.2 18.1"><path d="M22.2 2.9H21l-.3-1.6C20.5.6 19.8.1 19.1.2L1.3 3.4C.6 3.6.1 4.3.1 5l2 10.9c.1.4.3.7.6.9.1 0 .1 0 .2.1.3.7 1 1.2 1.9 1.2h17.4c1.1 0 2.1-1 2.1-2.1V5c0-1.1-.9-2.1-2.1-2.1zm-3-2c.4-.1.7.1.8.5l.2 1.3-1.2.2H8.2l11-2zm-14.9 2s-.1.1 0 0zm-3.4 2c0-.4.2-.7.5-.8L3 3.8c-.2.3-.3.7-.3 1.2v.9l-1.6.2-.2-1.2zm.4 1.9l1.4-.2v1.9l-1.1.2-.3-1.9zm.4 2.6l.9-.2v5.2l-.9-5zM23.3 16c0 .6-.5 1.1-1.1 1.1h-8.3L4.8 17c-.6 0-1.1-.5-1.1-1.1V9.8h19.6V16zm0-7.2H3.7V7.2h19.6v1.6zm0-2.6H3.7V4.9c0-.6.5-1.1 1.1-1h17.4c.6 0 1.1.5 1.1 1.1v1.2z" fill="#2e4057"/><path d="M5.5 15.6h1.8c.3 0 .5-.2.5-.5s-.2-.5-.5-.5H5.5c-.3 0-.5.2-.5.5s.2.5.5.5zm4 0h2.3c.3 0 .5-.2.5-.5s-.2-.5-.5-.5H9.5c-.3 0-.5.2-.5.5s.2.5.5.5z" fill="#ffa300"/></svg>