<svg xmlns="http://www.w3.org/2000/svg" viewBox="0 0 28 28" style="enable-background:new 0 0 28 28" xml:space="preserve"><path style="fill:#2e4057" d="M16.9 18.5h-4.7c-.4 0-.8.3-.8.8s.3.8.8.8h4.7c.4 0 .8-.3.8-.8s-.4-.8-.8-.8zM6.2 19.3c0 .4.3.7.7.7l1.5-1.5H7c-.4 0-.8.3-.8.8z"/><path style="fill:#2e4057" d="M26.2 3s0-.1 0 0L2.9 26.2c-.1.1-.3.2-.5.2s-.3-.1-.5-.2l-.1.1c-.3.3-.3.8 0 1.1.1.1.3.2.5.2s.4-.1.5-.2l2.8-2.8c.5.1 1.1.1 1.8.1h13.1c4.5 0 5.9-1.4 5.9-5.9V9.2c0-2-.3-3.4-1-4.4l.8-.8c.3-.3.3-.7 0-1zm-1.9 2.9c.5.7.6 1.7.6 3.3H21l3.3-3.3zm.6 12.9c0 3.7-.7 4.4-4.4 4.4H7.1l12.5-12.5H25v8.1zM3.9 22.4c-.6-.6-.8-1.6-.8-3.6v-8.1h13.2l1.5-1.5H3.1c0-3.6.7-4.3 4.4-4.3h13c.6 0 1.1 0 1.6.1l1.3-1.3c-.8-.2-1.7-.3-2.8-.3h-13c-4.6-.1-6 1.3-6 5.8v9.6c0 2.4.4 3.7 1.2 4.6.1.1.2.2.4.3l1.1-1.1c-.2 0-.3-.1-.4-.2z"/></svg>