<svg xmlns="http://www.w3.org/2000/svg" viewBox="0 0 39.9 26.4"><g fill="#2e4057"><path d="M10.3 22.5h1.8c.4 0 .8-.2.8-.6s-.3-.7-.7-.7h-1.9c-.4 0-.7.4-.7.7s.3.6.7.6zM4.8 22.5h2.8c.4 0 .6-.3.7-.6 0-.4-.3-.7-.7-.7H4.8c-.4 0-.7.3-.7.7 0 .3.3.6.7.6zM37.6 0H7.1C5.8 0 4.8 1 4.8 2.3v.4h1.3v-.4c0-.5.4-1 1-1h30.5c.5 0 1 .4 1 1v17.5c0 .5-.4 1-1 1h-.9v1.3h.9c1.3 0 2.3-1 2.3-2.3V2.3c0-1.3-1-2.3-2.3-2.3z"/><path d="M32.8 4.3H2.3C1 4.3 0 5.3 0 6.6v17.5c0 1.3 1 2.3 2.3 2.3h30.5c1.2 0 2.3-1 2.3-2.3V6.6c0-1.3-1-2.3-2.3-2.3zm1 19.8c0 .6-.5 1-1 1H2.3c-.6 0-1-.5-1-1V14h32.5v10.1zm0-11.4H1.3v-2.3h32.5v2.3zm0-3.6H1.3V6.6c0-.6.5-1 1-1h30.5c.6 0 1 .5 1 1v2.5z"/></g></svg>