<svg xmlns="http://www.w3.org/2000/svg" viewBox="0 0 45 25" style="enable-background:new 0 0 45 25" xml:space="preserve"><path style="fill:#2e4057" d="M30.7 14c-2.4-2.4-2.8-5.2-1.6-8.3-2.5 1.3-4.3 4.2-3.8 7.6.5 3.3 3.2 5.8 6.6 6.1 3.2.3 6-1.6 7.2-4-3.1 1.2-6 1-8.4-1.4z"/><path style="fill:#2e4057" d="M32.5 2C26.7 2 22 6.7 22 12.5S26.7 23 32.5 23 43 18.3 43 12.5 38.3 2 32.5 2zm7.8 13.3c-.5 1.2-1.2 2.2-2.2 3-1 .9-2.1 1.5-3.4 1.9-.9.3-1.9.3-2.8.3-2.1-.2-3.8-1-5.3-2.4-1.3-1.3-2.1-2.8-2.4-4.5-.3-1.7-.1-3.3.6-4.8.6-1.3 1.5-2.5 2.6-3.3.9-.6 1.8-1.1 2.8-1.4.3-.1.5 0 .7.2.1.1.1.4-.1.6-.8.9-1.2 2-1.3 3.2-.1 1.3.1 2.6.8 3.7.7 1.2 1.7 2.1 3 2.6 1.1.5 2.2.6 3.3.5 1.2-.2 2.2-.6 3.1-1.3.1-.1.2-.2.4-.2.3-.1.5.1.6.4v.2c-.1.5-.3.9-.4 1.3z"/><path style="fill:#2e4057" d="M32.5 25h-20C5.6 25 0 19.4 0 12.5S5.6 0 12.5 0h20C39.4 0 45 5.6 45 12.5S39.4 25 32.5 25zm-20-24C6.2 1 1 6.2 1 12.5S6.2 24 12.5 24h20C38.8 24 44 18.8 44 12.5S38.8 1 32.5 1h-20z"/></svg>