<svg xmlns="http://www.w3.org/2000/svg" viewBox="0 0 25.4 25.5"><g fill="#2e4057"><path d="M8.7 0H3.2C1.5 0 0 1.5 0 3.2v5.5c0 1.7 1.5 3.2 3.2 3.2h5.5c1.7 0 3.2-1.5 3.2-3.2V3.2c0-1.7-1.5-3.2-3.2-3.2zm2.4 8.7c0 1.3-1.1 2.4-2.4 2.4H3.2C1.9 11.1.8 10 .8 8.7V3.2C.8 1.9 1.9.8 3.2.8h5.5c1.3 0 2.4 1.1 2.4 2.4v5.5zM22.3 0h-5.5c-1.8 0-3.2 1.4-3.2 3.2v5.5c0 1.7 1.5 3.2 3.2 3.2h5.5c1.7 0 3.2-1.5 3.2-3.2V3.2C25.5 1.5 24 0 22.3 0zm2.4 8.7c0 1.3-1.1 2.4-2.4 2.4h-5.5c-1.3 0-2.4-1.1-2.4-2.4V3.2c0-1.3 1.1-2.4 2.4-2.4h5.5c1.3 0 2.4 1.1 2.4 2.4v5.5zM8.7 13.6H3.2c-1.7 0-3.2 1.5-3.2 3.2v5.5c0 1.7 1.5 3.2 3.2 3.2h5.5c1.7 0 3.2-1.5 3.2-3.2v-5.5c0-1.7-1.5-3.2-3.2-3.2zm2.4 8.7c0 1.3-1.1 2.4-2.4 2.4H3.2c-1.3 0-2.4-1.1-2.4-2.4v-5.5c0-1.3 1.1-2.4 2.4-2.4h5.5c1.3 0 2.4 1.1 2.4 2.4v5.5zM22.3 13.6h-5.5c-1.8 0-3.2 1.4-3.2 3.2v5.5c0 1.7 1.5 3.2 3.2 3.2h5.5c1.7 0 3.2-1.5 3.2-3.2v-5.5c0-1.7-1.5-3.2-3.2-3.2zm2.4 8.7c0 1.3-1.1 2.4-2.4 2.4h-5.5c-1.3 0-2.4-1.1-2.4-2.4v-5.5c0-1.3 1.1-2.4 2.4-2.4h5.5c1.3 0 2.4 1.1 2.4 2.4v5.5z"/></g></svg>