<svg xmlns="http://www.w3.org/2000/svg" viewBox="0 0 25.4 25.7"><path d="M22.3 13.5h-5.5c-1.5 0-2.8 1.3-2.8 2.8v6.6c0 1.5 1.3 2.8 2.8 2.8h5.5c1.5 0 2.8-1.3 2.8-2.8v-6.6c0-1.5-1.3-2.8-2.8-2.8zm-13.4 0H3.8c-.2 0-.5 0-.7.1C1.4 13.6 0 15 0 16.8v5.5c0 1.8 1.4 3.2 3.2 3.2h5.5c1.8 0 3.2-1.4 3.2-3.2v-.1c0-.2.1-.3.1-.5v-5.1c-.1-1.7-1.4-3.1-3.1-3.1zm-5.7-1.6h5.5c1.8 0 3.2-1.4 3.2-3.2V3.2c0-1.8-1.4-3.2-3.2-3.2H3.2C1.4 0 0 1.4 0 3.2v5.5c0 1.7 1.4 3.2 3.2 3.2zM.8 3.2C.8 1.9 1.9.8 3.2.8h5.5c1.3 0 2.4 1.1 2.4 2.4v5.5c0 1.3-1.1 2.4-2.4 2.4H3.2C1.9 11.1.8 10 .8 8.7V3.2zM22.2 0h-5.5c-1.8 0-3.2 1.4-3.2 3.2v5.5c0 1.8 1.4 3.2 3.2 3.2h5.5c1.8 0 3.2-1.4 3.2-3.2V3.2C25.4 1.4 24 0 22.2 0z" fill="#2e4057"/></svg>