<svg xmlns="http://www.w3.org/2000/svg" viewBox="0 0 512 512"><path d="M373.6 146.8V68.4c0-5.5-4.5-10-10-10H148.5c-5.5 0-10 4.5-10 10v407.8c0 3.7 3.9 6.1 7.3 4.5l14-7.1c1.4-.7 3.1-.7 4.6 0l19 9.7c1.4.7 3.1.7 4.6 0l19-9.7c1.4-.7 3.1-.7 4.5 0l19 9.7c1.4.7 3.1.7 4.5 0l19-9.7c1.4-.7 3.1-.7 4.6 0l19 9.7c1.4.7 3.1.7 4.5 0l19-9.7c1.4-.7 3.1-.7 4.5 0l19 9.7c1.4.7 3.1.7 4.5 0l19-9.7c1.4-.7 3.1-.7 4.5 0l14 7.1c3.3 1.7 7.3-.7 7.3-4.5V253.3c29.4 0 53.3-23.9 53.3-53.3-.4-29.4-24.2-53.2-53.6-53.2z" opacity=".1" fill="#2626bc"/><linearGradient id="a" gradientUnits="userSpaceOnUse" x1="-9.013" y1="361.004" x2="466.02" y2="132.715" gradientTransform="matrix(1 0 0 -1 0 514)"><stop offset="0" stop-color="#c6d1ff"/><stop offset=".583" stop-color="#e6d5f4"/><stop offset=".997" stop-color="#ffd9ec"/></linearGradient><path d="M471.5 133.3C406.1 83 342.6 124 271.8 109.5 200.6 94.9 172.2 46.3 91 68.8 19 88.6-24.6 168.3 14.9 235c11.3 19 30.5 33.4 38.3 54.6 12.7 34.3-6.6 60.7-2.8 94.4C66 524.1 280 469.8 358.7 426.2c123.5-68.3 207-220.4 112.8-292.9z" fill="url(#a)"/><path d="M373.5 43.3v407.8c0 3.7-3.9 6.2-7.3 4.5l-14-7.1c-1.4-.7-3.1-.7-4.5 0l-19 9.7c-1.4.7-3.1.7-4.5 0l-19-9.7c-1.4-.7-3.1-.7-4.5 0l-19 9.7c-1.4.7-3.1.7-4.5 0l-19-9.7c-1.4-.7-3.1-.7-4.6 0l-19 9.7c-1.4.7-3.1.7-4.5 0l-19-9.7c-1.4-.7-3.1-.7-4.5 0l-19 9.7c-1.4.7-3.1.7-4.6 0l-19-9.7c-1.4-.7-3.1-.7-4.6 0l-14 7.1c-3.3 1.7-7.3-.7-7.3-4.5V43.3c0-5.5 4.5-10 10-10h215.1c5.9 0 10.4 4.5 10.3 10z" fill="#fff"/><path d="M373.5 144.6v106.5c-29.4 0-53.3-23.9-53.3-53.3s23.9-53.2 53.3-53.2z" fill="#dcfdee"/><path d="M279.5 463.7c-1.6 0-3.1-.4-4.5-1.1l-19-9.7-19 9.7c-2.8 1.5-6.2 1.5-9.1 0l-19-9.7-19 9.7c-2.8 1.5-6.2 1.5-9.1 0l-19-9.7-14 7.1c-3.1 1.6-6.8 1.5-9.8-.4s-4.8-5-4.8-8.5V43.3c0-8.3 6.7-15 15-15h49c2.8 0 5 2.2 5 5s-2.2 5-5 5h-49c-2.8 0-5 2.2-5 5v407.8l14-7.1c2.8-1.5 6.2-1.5 9.1 0l19 9.7 19-9.7c2.8-1.5 6.2-1.5 9.1 0l19 9.7 19-9.7c2.8-1.5 6.2-1.5 9.1 0l19 9.7 19-9.7c2.8-1.5 6.2-1.5 9.1 0l19 9.7 19-9.7c2.8-1.5 6.2-1.5 9.1 0l14 7.1V257.9c0-2.8 2.2-5 5-5s5 2.2 5 5v193.2c0 3.5-1.8 6.7-4.8 8.5-3 1.8-6.6 2-9.8.4l-14-7.1-19 9.7c-2.8 1.5-6.2 1.5-9.1 0l-19-9.7-19 9.7c-1.4.7-2.9 1.1-4.5 1.1z" fill="#2626bc"/><path d="M261 217.9h-86.5c-2.8 0-5-2.2-5-5s2.2-5 5-5H261c2.8 0 5 2.2 5 5s-2.2 5-5 5z" fill="#8399fe"/><path d="M186 197.9h-11.5c-2.8 0-5-2.2-5-5s2.2-5 5-5H186c2.8 0 5 2.2 5 5s-2.2 5-5 5z" fill="#01eca5"/><path d="M281 263.3H174.5c-2.8 0-5-2.2-5-5s2.2-5 5-5H281c2.8 0 5 2.2 5 5s-2.2 5-5 5z" fill="#8399fe"/><path d="M186 243.3h-11.5c-2.8 0-5-2.2-5-5s2.2-5 5-5H186c2.8 0 5 2.2 5 5s-2.2 5-5 5z" fill="#01eca5"/><path d="M271 308.7h-96.5c-2.8 0-5-2.2-5-5s2.2-5 5-5H271c2.8 0 5 2.2 5 5s-2.2 5-5 5z" fill="#8399fe"/><path d="M186 288.7h-11.5c-2.8 0-5-2.2-5-5s2.2-5 5-5H186c2.8 0 5 2.2 5 5s-2.2 5-5 5z" fill="#01eca5"/><path d="M231 354.1h-56.5c-2.8 0-5-2.2-5-5s2.2-5 5-5H231c2.8 0 5 2.2 5 5s-2.2 5-5 5zM276.8 354.1h-21.5c-2.8 0-5-2.2-5-5s2.2-5 5-5h21.5c2.8 0 5 2.2 5 5s-2.3 5-5 5z" fill="#8399fe"/><path d="M186 334.1h-11.5c-2.8 0-5-2.2-5-5s2.2-5 5-5H186c2.8 0 5 2.2 5 5s-2.2 5-5 5z" fill="#01eca5"/><path d="M334.6 217.9h-16.5c-2.8 0-5-2.2-5-5s2.2-5 5-5h16.5c2.8 0 5 2.2 5 5s-2.2 5-5 5z" fill="#8399fe"/><path d="M339.6 212.9c0 2.8-2.2 5-5 5h-10.5c-1.3-3.2-2.3-6.5-3-10h13.4c2.9 0 5.1 2.2 5.1 5z" fill="#6583fe"/><path d="M334.6 263.3h-16.5c-2.8 0-5-2.2-5-5s2.2-5 5-5h16.5c2.8 0 5 2.2 5 5s-2.2 5-5 5zM334.6 308.7h-16.5c-2.8 0-5-2.2-5-5s2.2-5 5-5h16.5c2.8 0 5 2.2 5 5s-2.2 5-5 5zM334.6 354.1h-16.5c-2.8 0-5-2.2-5-5s2.2-5 5-5h16.5c2.8 0 5 2.2 5 5s-2.2 5-5 5z" fill="#8399fe"/><g><path d="M333 334.2c-2.8 0-5-2.2-5-5v-.2c0-2.8 2.2-5 5-5s5 2.2 5 5v.1c0 2.8-2.3 5.1-5 5.1z" fill="#01eca5"/></g><g><path d="M334.6 412h-24.1c-2.8 0-5-2.2-5-5s2.2-5 5-5h24.1c2.8 0 5 2.2 5 5s-2.2 5-5 5z" fill="#8399fe"/></g><g><path d="M208.6 412h-34.1c-2.8 0-5-2.2-5-5s2.2-5 5-5h34.1c2.8 0 5 2.2 5 5s-2.2 5-5 5z" fill="#8399fe"/></g><g><path d="M333 288.7c-2.8 0-5-2.2-5-5v-.1c0-2.8 2.2-5 5-5s5 2.2 5 5v.1c0 2.8-2.3 5-5 5z" fill="#01eca5"/></g><g><path d="M333 243.3c-2.8 0-5-2.2-5-5v-.1c0-2.8 2.2-5 5-5s5 2.2 5 5v.1c0 2.8-2.3 5-5 5z" fill="#01eca5"/></g><g><path d="M333 197.9c-2.8 0-5-2.2-5-5v-.1c0-2.8 2.2-5 5-5s5 2.2 5 5v.1c0 2.8-2.3 5-5 5z" fill="#01eca5"/></g><g><circle cx="373.6" cy="175" r="53.3" fill="#01eca5"/><path d="M378.6 117V43.3c0-8.3-6.7-15-15-15H226.7c-2.8 0-5 2.2-5 5s2.2 5 5 5h136.9c2.8 0 5 2.2 5 5V117c-29.8 2.5-53.3 27.6-53.3 58 0 32.1 26.1 58.3 58.3 58.3s58.3-26.1 58.3-58.3c-.1-30.4-23.6-55.5-53.3-58zm-5 106.3c-26.6 0-48.3-21.7-48.3-48.3s21.7-48.3 48.3-48.3 48.3 21.7 48.3 48.3-21.7 48.3-48.3 48.3z" fill="#2626bc"/><path d="M380.1 170h-1.5v-10.2h9.5c2.8 0 5-2.2 5-5s-2.2-5-5-5h-9.5v-2.5c0-2.8-2.2-5-5-5s-5 2.2-5 5v2.5H367c-8.3 0-15.1 6.8-15.1 15.1S358.7 180 367 180h1.5v10.2H359c-2.8 0-5 2.2-5 5s2.2 5 5 5h9.5v2.5c0 2.8 2.2 5 5 5s5-2.2 5-5v-2.5h1.5c8.3 0 15.1-6.8 15.1-15.1s-6.7-15.1-15-15.1zm-13.1 0c-2.8 0-5.1-2.3-5.1-5.1s2.3-5.1 5.1-5.1h1.5V170H367zm13.1 20.2h-1.5V180h1.5c2.8 0 5.1 2.3 5.1 5.1s-2.3 5.1-5.1 5.1z" fill="#fff"/></g><g><path d="M276.8 158.7h-41.5c-2.8 0-5-2.2-5-5s2.2-5 5-5h41.5c2.8 0 5 2.2 5 5s-2.3 5-5 5z" fill="#8399fe"/></g><g><path d="M304.3 121.8h-96.5c-2.8 0-5-2.2-5-5s2.2-5 5-5h96.5c2.8 0 5 2.2 5 5s-2.3 5-5 5z" fill="#4369fd"/></g><g><path d="M329.3 99.8H182.7c-2.8 0-5-2.2-5-5s2.2-5 5-5h146.5c2.8 0 5 2.2 5 5s-2.2 5-4.9 5z" fill="#4369fd"/></g><g><path d="M186 77.9h-11.5c-2.8 0-5-2.2-5-5s2.2-5 5-5H186c2.8 0 5 2.2 5 5s-2.2 5-5 5z" fill="#01eca5"/></g><path d="M411.2 82.4c-3.7 0-7.4-1.4-10.3-4.2-5.7-5.7-5.7-14.9 0-20.5s14.9-5.7 20.5 0c5.7 5.7 5.7 14.9 0 20.5-2.8 2.8-6.5 4.2-10.2 4.2zm0-19c-1.2 0-2.3.4-3.2 1.3-1.8 1.8-1.8 4.6 0 6.4 1.8 1.8 4.6 1.8 6.4 0 1.8-1.8 1.8-4.6 0-6.4-.9-.9-2.1-1.3-3.2-1.3z" fill="#00eca2"/><path d="M436.3 131.3c-3.7 0-7.4-1.4-10.3-4.2-2.7-2.7-4.2-6.4-4.2-10.3s1.5-7.5 4.2-10.3c5.7-5.7 14.9-5.7 20.5 0 2.7 2.7 4.2 6.4 4.2 10.3 0 3.9-1.5 7.5-4.2 10.3-2.8 2.8-6.5 4.2-10.2 4.2zm0-19c-1.2 0-2.3.4-3.2 1.3-.9.8-1.3 2-1.3 3.2s.5 2.3 1.3 3.2c1.8 1.8 4.6 1.8 6.4 0 .9-.8 1.3-2 1.3-3.2s-.5-2.3-1.3-3.2c-.9-.9-2-1.3-3.2-1.3zM105.4 236.8c-3.7 0-7.4-1.4-10.3-4.2-5.7-5.7-5.7-14.9 0-20.5 5.7-5.7 14.9-5.7 20.5 0 5.7 5.7 5.7 14.9 0 20.5-2.8 2.7-6.5 4.2-10.2 4.2zm0-19c-1.2 0-2.3.4-3.2 1.3-1.8 1.8-1.8 4.6 0 6.4 1.8 1.8 4.6 1.8 6.4 0 1.8-1.8 1.8-4.6 0-6.4-.9-.9-2.1-1.3-3.2-1.3z" fill="#ff7eb8"/><path d="M98.9 281.7c-1.3 0-2.6-.5-3.5-1.5l-6-6-6 6c-2 2-5.1 2-7.1 0s-2-5.1 0-7.1l9.5-9.5c2-2 5.1-2 7.1 0l9.5 9.5c2 2 2 5.1 0 7.1-.9 1-2.2 1.5-3.5 1.5z" fill="#6583fe"/><path d="M426.8 426.5c-1.3 0-2.6-.5-3.5-1.5l-6-6-6 6c-2 2-5.1 2-7.1 0s-2-5.1 0-7.1l9.5-9.5c2-2 5.1-2 7.1 0l9.5 9.5c2 2 2 5.1 0 7.1-.9 1-2.2 1.5-3.5 1.5z" fill="#00eca2"/></svg>