<svg xmlns="http://www.w3.org/2000/svg" viewBox="0 0 154 192.1"><path d="M107.8 151.8c-.9-1.2-1.6-2.6-2.1-4-.9-2.4-2.8-2.6-4.6-2.1-1.3.4-2.8 1.4-3.3 2.6-8.3 19.8-26.1 30-47.1 26.7-22.4-3.4-38.6-26.9-34-49 2.7-13.3 10-23.2 21.8-29.8.9-.6 2.3-1.6 2.3-2.5.2-5 .1-10.1.1-15.5-1.7.5-2.8.8-3.8 1.2C15.3 88.7 2.7 105.1.3 128.6c-2.9 29.3 17.5 56.1 46.4 61.8 2.7.5 5.3 1.1 8 1.6 2.2 0 4.5 0 6.8.1 1.1-.3 2.1-.8 3.2-.9 18.3-2.1 32.1-11.3 42.5-26.3 3.1-4.5 4.1-8.5.6-13.1zM73.6 1c-.9-.3-1.6-.7-2.4-1h-3.7c-1.1.3-2.1.7-3.2 1-8.1 2.1-14.2 10.3-13.7 18.4.4 9.4 8 17.5 16.9 17.9 10.1.5 18.6-6 20-15.3 1.4-9.7-4.4-18.5-13.9-21z" fill="#2e4057"/><path d="M152.5 166.6c-8.1-15.9-16.3-31.8-24.3-47.7-2.4-4.9-6.2-7.1-11.7-7-9.3.1-18.6-.1-27.8.1-3.2 0-3.6-1.5-3.6-4.1 0-2.5.2-4.2 3.6-4.1 8 .2 16 .1 24 0 5.3-.1 8.8-3.6 8.7-8.3-.1-4.7-3.4-7.6-8.8-7.6-7.8 0-15.7-.1-23.6.1-3 .1-3.9-1-3.8-3.9.1-7.5.1-15 0-22.5-.1-7.2-5.3-13.4-12-14.9-11-2.4-20.3 5.1-20.5 16.8-.1 8.7 0 17.5 0 26.2s-.1 17.5-.2 26.1c.2 10.5 7.1 17.4 17.5 17.4 12.5 0 25 .1 37.5-.1 3 0 4.5 1 5.8 3.6 6.6 13.2 13.3 26.3 20 39.4 3.3 6.4 9.2 8.7 14.9 5.9 5.6-2.8 7.5-9.1 4.3-15.4z" fill="#2e4057"/></svg>