<svg xmlns="http://www.w3.org/2000/svg" width="331" height="164"><g><rect data-name="Rectangle 2753" width="331" height="103" rx="16" transform="translate(-.003 61.785)" fill="#e7ebf2"/><g data-name="Subtraction 5" fill="#fff"><path d="M314.997 161.285h-299a15.4 15.4 0 01-10.96-4.54 15.398 15.398 0 01-4.54-10.96V63.708c.331.04.666.06 1 .06 4.136 0 7.5-3.062 7.5-6.827 0-3.764-3.364-6.827-7.5-6.827-.334 0-.669.02-1 .06V15.999c0-4.14 1.613-8.033 4.54-10.96a15.399 15.399 0 0110.96-4.54h299c4.14 0 8.033 1.612 10.96 4.54a15.398 15.398 0 014.54 10.96v34.176c-3.68.447-6.5 3.34-6.5 6.766s2.82 6.32 6.5 6.767v82.079c0 4.14-1.612 8.032-4.54 10.96a15.4 15.4 0 01-10.96 4.539z"/><path d="M314.997 160.785c4.007 0 7.774-1.56 10.607-4.393a14.9 14.9 0 004.393-10.606V64.138c-3.712-.647-6.5-3.657-6.5-7.198 0-3.54 2.788-6.55 6.5-7.198V15.998c0-4.006-1.56-7.773-4.393-10.606A14.902 14.902 0 00314.997.998h-299c-4.006 0-7.773 1.56-10.606 4.394A14.902 14.902 0 00.997 15.998v33.63c.167-.01.334-.015.5-.015 4.412 0 8 3.287 8 7.327s-3.588 7.327-8 7.327c-.166 0-.333-.004-.5-.014v81.533a14.9 14.9 0 004.394 10.606 14.903 14.903 0 0010.607 4.393h299m0 1h-299a15.896 15.896 0 01-11.314-4.686 15.894 15.894 0 01-4.687-11.313V63.122c.488.096.993.145 1.5.145 3.86 0 7-2.838 7-6.327 0-3.488-3.14-6.327-7-6.327a7.77 7.77 0 00-1.5.146v-34.76c0-4.275 1.665-8.293 4.687-11.315A15.896 15.896 0 0115.998-.002h299c4.273 0 8.29 1.664 11.313 4.686a15.895 15.895 0 014.686 11.314V50.63c-3.645.233-6.5 3.004-6.5 6.311s2.856 6.079 6.5 6.311v82.535c0 4.273-1.664 8.29-4.686 11.313a15.896 15.896 0 01-11.314 4.686z" fill="#e7ebf2"/></g><path data-name="Line 188" fill="none" stroke="#eaedf4" stroke-dasharray="6" d="M12.997 57.492h310"/></g></svg>