<svg width="32" height="36" viewBox="0 0 32 36" fill="none" xmlns="http://www.w3.org/2000/svg">
<path fill-rule="evenodd" clip-rule="evenodd" d="M0 18.4416C0 31.2027 1.21595 31.5727 10.4683 34.3883C11.1128 34.5845 11.797 34.7927 12.5217 35.0175C18.6242 36.9109 21.7991 35.8487 23.4223 32.2529C25.1398 32.2377 26.5958 32.1303 27.7766 31.7821C29.148 31.3776 30.1942 30.6341 30.8753 29.3866C31.5026 28.2376 31.7547 26.7718 31.877 25.0585C32 23.3338 32 21.1578 32 18.4843V18.3794C32 15.706 32 13.5311 31.877 11.8081C31.7547 10.0968 31.5026 8.63257 30.8746 7.48543C30.1924 6.23948 29.145 5.49931 27.7745 5.09747C26.5944 4.75148 25.1392 4.64531 23.4222 4.63024C21.7991 1.03451 18.6242 -0.0277193 12.5217 1.8656C11.7968 2.09051 11.1132 2.29853 10.4686 2.49469C1.21597 5.31028 0 5.6803 0 18.4416ZM26.9843 29.1337C26.3393 29.324 25.4773 29.4297 24.2925 29.4713C24.8926 26.6445 25.0435 22.9374 25.0435 18.4416C25.0435 13.9456 24.8925 10.2385 24.2924 7.41167C25.478 7.45284 26.3407 7.55769 26.9864 7.74701C27.768 7.97618 28.1554 8.30376 28.4298 8.80485C28.7582 9.40475 28.9844 10.3668 29.1013 12.0035C29.2166 13.6174 29.2174 15.6952 29.2174 18.4319C29.2174 21.1685 29.2166 23.2476 29.1013 24.8633C28.9844 26.5018 28.7582 27.4671 28.429 28.07C28.1536 28.5744 27.765 28.9035 26.9843 29.1337ZM18.087 19.8229C17.3186 19.8229 16.6957 19.2045 16.6957 18.4416C16.6957 17.6787 17.3186 17.0603 18.087 17.0603C18.8554 17.0603 19.4783 17.6787 19.4783 18.4416C19.4783 19.2045 18.8554 19.8229 18.087 19.8229Z" fill="white"/>
</svg>
