<svg xmlns="http://www.w3.org/2000/svg" viewBox="0 0 26.9 26.9"><g fill="#ffa300"><path d="M7.6 8.6c-.3 0-.5.2-.5.5V12c0 .3.2.5.5.5s.5-.2.5-.5V9.1c0-.3-.2-.5-.5-.5zM19.9 8.6c-.3 0-.5.2-.5.5V12c0 .3.2.5.5.5s.5-.2.5-.5V9.1c0-.3-.2-.5-.5-.5zM12.2 16.4c1.5 0 2.3-.8 2.3-2.3v-5c0-.3-.2-.5-.5-.5s-.5.2-.5.5v5c0 1-.3 1.3-1.3 1.3-.3 0-.5.2-.5.5s.2.5.5.5zM17.5 19.5c-2.4 1.7-5.6 1.7-8.1 0-.2-.2-.5-.1-.7.1-.2.2-.1.5.1.7 1.4 1 3 1.4 4.6 1.4s3.2-.5 4.6-1.4c.2-.2.3-.5.1-.7-.1-.2-.4-.3-.6-.1z"/></g><g fill="#2e4057"><path d="M6.3 0H4.8C1.5 0 0 1.5 0 4.8v1.5c0 .3.2.5.5.5s.5-.2.5-.5V4.8C1 2 2 1 4.8 1h1.5c.3 0 .5-.2.5-.5S6.6 0 6.3 0zM6.3 25.9H4.8c-2.8 0-3.8-1-3.8-3.8v-1.5c0-.3-.2-.5-.5-.5s-.5.2-.5.5v1.5c0 3.3 1.5 4.8 4.8 4.8h1.5c.3 0 .5-.2.5-.5s-.2-.5-.5-.5zM26.4 20.1c-.3 0-.5.2-.5.5v1.5c0 2.8-1 3.8-3.8 3.8h-1.5c-.3 0-.5.2-.5.5s.2.5.5.5h1.5c3.3 0 4.8-1.5 4.8-4.8v-1.5c0-.3-.2-.5-.5-.5zM22.1 0h-1.5c-.3 0-.5.2-.5.5s.2.5.5.5h1.5c2.8 0 3.8 1 3.8 3.8v1.5c0 .3.2.5.5.5s.5-.2.5-.5V4.8c0-3.3-1.5-4.8-4.8-4.8z"/></g></svg>