<svg xmlns="http://www.w3.org/2000/svg" viewBox="0 0 26.5 26.5"><path d="M8.3 14c2 0 4.2-1 4.2.4s-.8 1.4-2.8 1.4-3.8 0-3.8-1.4.4-.4 2.4-.4z" fill="#ffa300"/><g fill="#2e4057"><path d="M8 8.2l.4-.9c-1.7-.8-3.7-.8-5.4 0l.4.9c1.5-.7 3.2-.7 4.6 0zM15.2 8.2l.4-.9c-1.7-.8-3.7-.8-5.4 0l.4.9c1.5-.7 3.2-.7 4.6 0zM13.7 14.1l.4-.8H4.6l.4.8c.4.7 1.1 1.4 1.8 1.8.8.5 1.6.7 2.5.7.4 0 .9-.1 1.3-.2 1.3-.4 2.4-1.2 3.1-2.3zm-6.4.9c-.3-.2-.6-.4-.9-.7h5.8c-.5.5-1.1.9-1.9 1.1-1 .3-2 .1-3-.4z"/><path d="M26.1 6.1c-2.4-.6-4.9-1-7.4-1.1V1.2l-.4-.1C12.4-.4 6.2-.4.3 1.1l-.3.1v9.5c0 3.8 2 7.3 5.3 9.1l2 1.1c.6.3 1.3.5 2 .5h.2c.9 1.4 2.1 2.5 3.6 3.3l2 1.1c.6.3 1.3.5 2 .5s1.4-.2 2-.5l2-1.1c3.3-1.9 5.3-5.3 5.3-9.1V6.2l-.3-.1zM5.8 19c-3-1.7-4.8-4.8-4.8-8.3V2C6.5.7 12.2.7 17.7 2v8.7c0 3.4-1.8 6.6-4.8 8.2l-2 1.1c-.9.5-2.1.5-3 0l-2.1-1zm19.7-3.3c0 3.4-1.8 6.6-4.8 8.2l-2 1.1c-.9.5-2.1.5-3 0l-2-1.1c-1.2-.7-2.2-1.6-3-2.7.3-.1.5-.2.7-.3l2-1.1s.1 0 .1-.1c2.4-.7 5-.7 7.4 0l.3-1c-1.9-.5-3.8-.7-5.8-.4 1.6-1.5 2.7-3.5 3.1-5.6.7.3 1.5.4 2.2.4.9 0 1.8-.2 2.7-.6l-.4-.8c-1.4.6-2.9.7-4.3.1 0-.3.1-.7.1-1.1V6c2.2.1 4.4.4 6.7 1v8.7z"/></g></svg>