<svg xmlns="http://www.w3.org/2000/svg" viewBox="0 0 29.5 29"><path d="M21.9 8.4c1.9.1 3.4 1.7 3.5 3.6-.1 1.8-1.7 3.3-3.5 3.2-1.8.1-3.4-1.4-3.5-3.2 0-1.9 1.6-3.5 3.5-3.6zM7 8.6c1.9 0 3.5 1.8 3.5 3.6S8.9 15.4 7 15.4 3.5 14 3.5 12.2c0-1.7 1.6-3.6 3.5-3.6zM9.6 17.1c1.9 0 3.8 2.2 3.8 4.1 0 1.8-1.9 3.1-3.8 3.1s-3.4-1.5-3.4-3.4v-.1c0-1.9 1.5-3.5 3.4-3.7zM18.8 17.1c2.1.2 3.7 1.9 3.9 4.1 0 1.9-2 3.1-3.9 3.1-1.8.1-3.4-1.4-3.5-3.4v-.1c.1-2 1.6-3.6 3.5-3.7zM14.9 2.8c2 .1 3.6 1.8 3.7 3.9-.1 2-1.8 3.5-3.7 3.4-1.9.1-3.6-1.4-3.7-3.4.1-2.1 1.7-3.8 3.7-3.9z" fill="#ffa300"/><g fill="#2e4057"><path d="M16 14.5c0-.8-.7-1.5-1.5-1.5s-1.5.7-1.5 1.5.7 1.5 1.5 1.5 1.5-.7 1.5-1.5zm-1.5.5c-.3 0-.5-.2-.5-.5s.2-.5.5-.5.5.2.5.5-.2.5-.5.5zM15 10.7c2.3 0 4.1-1.9 4.1-4.1S17.3 2.4 15 2.4s-4.1 1.9-4.1 4.1 1.8 4.2 4.1 4.2zm0-7.3c1.7 0 3.1 1.4 3.1 3.1S16.7 9.7 15 9.7c-1.7 0-3.1-1.4-3.1-3.1s1.4-3.2 3.1-3.2zM10.9 13.3c.3-1 .3-2.2-.2-3.2S9.3 8.4 8.3 8C6 7.4 3.7 8.5 3 10.7c-.3 1-.3 2.2.2 3.2s1.4 1.7 2.4 2.1c.4.1.9.2 1.3.2 1.8-.1 3.4-1.2 4-2.9zM4 11c.4-1.3 1.7-2.2 3-2.2.3 0 .6 0 1 .2l.2-.5-.3.5c.8.3 1.4.8 1.8 1.6.4.7.4 1.6.2 2.4-.3.8-.8 1.4-1.6 1.8-.7.3-1.5.4-2.3.2-1.7-.6-2.6-2.3-2-4z"/><path d="M25.6 13.9c.5-1 .6-2.1.2-3.2-.7-2.2-3-3.4-5.2-2.7-2.2.7-3.4 3-2.7 5.2.3 1 1.1 1.9 2.1 2.4.6.3 1.2.5 1.9.5.4 0 .9-.1 1.3-.2 1-.3 1.9-1.1 2.4-2zM22.9 15c-.8.3-1.6.2-2.4-.2-.7-.4-1.3-1-1.6-1.8-.5-1.6.4-3.4 2-3.9.3-.1.6-.2 1-.2 1.3 0 2.5.8 3 2.2.3.8.2 1.6-.2 2.4-.4.6-1 1.2-1.8 1.5zM12.2 17.4c-1.8-1.3-4.4-.9-5.8.9-1.3 1.8-.9 4.4.9 5.8.7.5 1.6.8 2.4.8 1.3 0 2.5-.6 3.3-1.7 1.5-1.8 1.1-4.4-.8-5.8zm.1 5.2c-1 1.4-3 1.7-4.4.7-1.4-1-1.7-3-.7-4.4.5-.7 1.2-1.1 2-1.2.8-.1 1.7.1 2.3.6.7.5 1.1 1.2 1.2 2 .3.8.1 1.6-.4 2.3zM19.7 16.7c-1.1-.2-2.2.1-3.1.7-1.8 1.3-2.2 3.9-.9 5.8.8 1.1 2.1 1.7 3.3 1.7.8 0 1.7-.3 2.4-.8.9-.6 1.5-1.6 1.6-2.7s-.1-2.2-.7-3.1c-.6-.8-1.5-1.4-2.6-1.6zm2.4 4.6c-.1.8-.6 1.6-1.2 2-1.4 1-3.4.7-4.4-.7l-.4.3.4-.3c-.5-.7-.7-1.5-.6-2.3.1-.8.6-1.6 1.3-2 .7-.5 1.5-.7 2.3-.6.8.1 1.6.6 2 1.2.6.7.8 1.5.6 2.4z"/><path d="M19.8 28c5.4-2.1 9.2-7.4 9.2-13.5C29 6.5 22.5 0 14.5 0S0 6.5 0 14.5 6.5 29 14.5 29c.3 0 .7 0 1-.1v.1h14v-1h-9.7zM1 14.5C1 7.1 7.1 1 14.5 1S28 7.1 28 14.5 21.9 28 14.5 28 1 21.9 1 14.5z"/></g></svg>