<svg xmlns="http://www.w3.org/2000/svg" viewBox="0 0 23 31.3"><path d="M13.7 15.4c-.2-.8-.7-1.5-1.5-1.9-.7-.3-1.5-.4-2.3-.2-1.6.5-2.5 2.2-2.1 3.9 1.1 4.1 5.2 7.7 9.1 10.8.1.1.2.1.3.1.1 0 .3-.1.2-.2.1-.2.1-.5-.1-.7-3.7-2.9-7.6-6.6-8.7-10.3-.3-1.1.4-2.3 1.5-2.6.5-.1 1.1-.1 1.6.2.5.2.9.7 1 1.3.7 2.5 4.3 5.8 7.2 8.1.2.2.6.1.7-.1.2-.2.1-.6-.1-.7-3.9-3.2-6.3-5.9-6.8-7.7z" fill="#ffa300"/><path d="M18.6 13.8C17.3 9.5 12.8 7 8.5 8.2c-2.1.6-3.9 2.1-4.9 4.1-1.1 1.9-1.3 4.2-.7 6.4v.1c.8 2.2-.4 4.6-2.5 5.3-.3.1-.4.4-.3.6 0 .2.2.3.4.3h.2c.2 0 .3 0 .3-.1 2.7-1 4-3.9 3-6.5-.5-1.9-.3-3.8.6-5.5.9-1.7 2.4-3 4.3-3.5H9c3.8-1.1 7.7 1.1 8.8 4.9l.1.2c.1.2.1.2 4.2 3.7.2.1.5.1.7-.1.1-.2.1-.5-.1-.7-1.8-1.7-3.8-3.3-4.1-3.6z" fill="#2e4057"/><path d="M16.2 14.8c-.8-3-4-4.8-7-4-3 .9-4.7 4.1-3.9 7.1 1.4 6.2-.1 7.9-2.9 8.8-.3.1-.3.5-.3.8.1.2.1.3.6.4 3.9-1.3 4.9-4.2 3.7-10-.7-2.5.7-5.1 3.1-6 1.2-.3 2.4-.2 3.4.4 1.2.5 2 1.6 2.3 2.8.2 1 .9 2.4 5.7 6.3.2.2.6.1.7-.1.2-.2.1-.6-.1-.7-4.8-4-5.1-5.2-5.3-5.8z" fill="#2e4057"/><path d="M18.2 23.9c-2.3-1.8-5.9-4.6-6.9-7.8-.1-.3-.4-.4-.6-.3-.3.1-.4.4-.3.6.9 3.5 4.9 6.6 7.2 8.3.6.5 1.1.9 1.4 1.1.1.1.3.2.4.2.1 0 .3 0 .3-.2.2-.2.2-.5 0-.7l-1.5-1.2zM15 28.6c-.8-1-2-2.6-3.5-2.6-.4 0-.8.2-1 .5-1.1 1.1-1 4-1 4.3v.1c0 .3.3.5.5.5h.1c.3 0 .5-.2.5-.5 0-1 .1-2.8.7-3.4.1-.2.2-.2.3-.2 1 0 2 1.4 2.7 2.1.2.3.4.5.6.7.2.2.5.2.7 0 .2-.2.2-.5 0-.7-.2-.4-.4-.6-.6-.8zM8.3 22.3c-.1-.3-.4-.4-.7-.3-.3.1-.4.4-.3.6.5 1.8-.5 6-2.3 6.7-.3.1-.4.4-.3.6.1.2.3.3.5.3h.1c2.4-.7 3.7-5.7 3-7.9z" fill="#2e4057"/><path d="M22.6 13.6c-.8-.3-1.5-1.4-2.2-2.5-1.5-2.5-3.7-5.8-9.5-5.8C4.8 5.3 0 10.2 0 16.3v.1c0 .3.2.5.5.5h.1c.3 0 .5-.3.5-.5-.1-5.5 4.3-9.9 9.8-10 5.3 0 7.1 3 8.6 5.3.8 1.4 1.6 2.5 2.8 2.9.3.1.5-.1.6-.3s-.1-.7-.3-.7z" fill="#2e4057"/><path d="M.5 18.8c-.3 0-.5.2-.5.5.1.6.3 1.2.6 1.8.1.2.2.3.4.3h.2c.3-.1.3-.5.2-.7-.2-.4-.4-.9-.4-1.4v-.1c.1-.2-.2-.4-.5-.4z" fill="#ffa300"/><path d="M.9 7c.3.2.6.1.8-.1.5-1 3.3-3.7 8.5-3.7 5 0 8.6 2.6 9.2 3.6.1.1.3.2.4.2.1 0 .2 0 .3-.1.3-.1.3-.5.2-.7C19.5 4.7 15.6 2 10.2 2 4.5 2 1.4 5 .7 6.2v.1c-.1.2-.1.5.2.7z" fill="#2e4057"/><path d="M4.6 2.3c.3-.1.6-.2.8-.4 1-.4 1.7-.9 4.8-.9 2.1-.1 4.2.2 6.2 1 .2.1.5.2.7.3h.2c.2 0 .4-.2.4-.4.1-.2 0-.5-.2-.6-.2 0-.5-.2-.7-.3-2.1-.8-4.3-1.1-6.6-1C6.8 0 6 .5 4.9 1c-.2.2-.5.3-.7.4-.1 0-.1 0-.2.1-.2.1-.2.4 0 .6.1.2.4.3.6.2z" fill="#2e4057"/><path d="M21.9 11.1c.1.2.3.4.5.4h.2c.3-.1.4-.4.3-.6-.4-.9-.8-1.9-1.4-2.7-.1-.3-.5-.3-.7-.2-.3.1-.3.5-.2.7.6.7 1 1.5 1.3 2.4z" fill="#ffa300"/></svg>