<svg xmlns="http://www.w3.org/2000/svg" viewBox="0 0 64 64"><g fill="#2e4057"><path d="M63.9 36.7L57.7 16H55v2h1.3l5.4 18H2.3l5.4-18H9v-2H6.3L0 36.7V63c0 .6.4 1 1 1h62c.6 0 1-.4 1-1V37c0-.1 0-.2-.1-.3zM62 62H2V38h60v24zM15 6h9.3l6-4H49v12h2V0H29.7l-6 4H13v10h2z"/><path d="M13 18h38v3h2v-5H11v5h2zM9 27h2v-2h42v2h2v-4H9zM57 34v-5H7v5h2v-3h46v3zM21 55h22c2.2 0 4-1.8 4-4v-6H17v6c0 2.2 1.8 4 4 4zm-2-8h26v4c0 1.1-.9 2-2 2H21c-1.1 0-2-.9-2-2v-4zM11 49h2v2h-2zM51 49h2v2h-2z"/><path d="M23 49h18v2H23zM37 6h10v2H37zM17 10h30v2H17z"/></g></svg>