<svg xmlns="http://www.w3.org/2000/svg" viewBox="0 0 50.8 42.8"><g fill-rule="evenodd" clip-rule="evenodd" fill="#2e4057"><path d="M31.8 16.3c5.9-7-4.2-10.9-5-16.3-2.8 3.2-1.1 7.7-.5 10.2-.9-.6-1.5-1.5-1.9-2.5-.6-1.4-.8-3-.6-4.6-2.6.8-2.9 5.2-2.2 8.5-.9-.4-1.8-2.4-1.8-4-1.6 1.1-3.7 4-.2 8.7h12.2zM18.2 18.4h14.7v1.4H18.2zM21.7 23c1.9 1.6 3.2 3.7 3.8 6.1.5-2.4 1.8-4.6 3.7-6.1h1.2v-1.1h-9.6V23h.9z"/><path d="M42.9 35.5c.1 2.4 2.5 2.9 4.4 1.9.3 3.2-2.9 2.8-4.3 1.7-2.8-2.1-1.3-6.6 1.3-7.4 0-9.8-16.2-12.4-17.3-.1-.7 1.1-1.8 1.8-2.9.1-.9-11.9-17.3-10.5-17.2 0 .9.6 1.7 1.4 2.3 2.3 1 2.4.2 5.9-3.5 5.9-1.1-.1-2-1-1.9-2.1-.2-.1-.2-.2-.2-.3.8.3 1.7.4 2.5.3 4.1-1.5.5-7.8-4.6-4-3.4 3.2-.6 8.3 2.9 8.7 4 .3 5.2-1.4 6.3-3.7 1.9.7 4 1 6.1.8.6.5 1 1.3.9 2.2 1.4-.7 1.3-2.4-.2-3.4.7-1.5 1.3-5.2-2.1-5.1.4 2.5-.7 3.1-2.3 3.1-1.5 0-2.7-1.5-3.2-3.4-1.3-9.2 12.2-8.9 11.1.1l.8.8c-2.1 2-2.1 5.2-.1 7.3 2 2.1 5.2 2.1 7.3.1s2.1-5.2.1-7.3l-.1-.1.8-.8c-.7-6.2 4.5-7.7 7.4-6.6 3.5 1 5.5 6.7 1.6 9.6-1 .4-2.1.3-3-.3-.6-.7-.8-1.7-.4-2.5-1.3-.5-4 1.4-2.1 5.1-1.3.7-1.8 3-.3 3.5 0-.9.4-1.7 1-2.2 2 .2 4.1-.1 6.1-.8 2.1 5.9 10.4 4.3 10.7-1.2.3-6-7.8-6.7-7.9-2.2zm-17.5 4.6c-1.3 0-2.3-1-2.3-2.3 0-1.2 1-2.3 2.3-2.3 1.3 0 2.3 1 2.3 2.3s-1 2.3-2.3 2.3z"/></g></svg>