<svg xmlns="http://www.w3.org/2000/svg" viewBox="0 0 16.6 16.6"><g fill="#2e4057"><path d="M15.2 8h-2.7c0-1.3-.2-2.5-.5-3.7h1.8c.1 0 .2-.1.2-.3 0-.1-.1-.3-.3-.3h-1.9c-.2-.8-.6-1.5-1.1-2.2-.1-.1-.2-.1-.4-.1-.1.1-.1.2-.1.4.4.6.7 1.2 1 1.9H8.5V1.3c0-.1-.1-.3-.3-.3s-.2.2-.2.3v2.4H5.3c.2-.7.5-1.3 1-1.9.1-.1.1-.3-.1-.4s-.3 0-.4.2C5.3 2.2 5 3 4.7 3.8H2.8c-.2 0-.3.1-.3.2s.1.3.3.3h1.8C4.2 5.5 4.1 6.8 4 8H1.3c-.1 0-.2.1-.2.3 0 .1.1.3.3.3H4c0 1.3.2 2.5.5 3.7H2.8c-.1 0-.3.1-.3.3 0 .1.1.3.3.3h1.9c.3.7.6 1.4 1.1 2.1.1.1.2.1.4.1.1-.1.1-.2.1-.4-.4-.6-.7-1.2-1-1.9H8v2.4c0 .1.1.3.3.3.1 0 .3-.1.3-.3v-2.4h2.7c-.2.7-.5 1.3-1 1.9-.1.1-.1.3.1.4.1.1.3.1.4-.1.5-.7.8-1.4 1.1-2.2h1.9c.1 0 .3-.1.3-.3 0-.1-.1-.3-.3-.3H12c.3-1.2.5-2.5.5-3.7h2.7c.1 0 .3-.1.3-.3s-.1-.2-.3-.2zM8 12.3H5.1c-.3-1.2-.5-2.5-.5-3.7H8v3.7zM8 8H4.6c0-1.3.2-2.5.5-3.7H8V8zm3.5 4.3h-3V8.5H12c0 1.3-.2 2.6-.5 3.8zM8.5 8V4.3h2.9c.4 1.2.6 2.5.6 3.7H8.5z"/><path d="M14.1 2.4C10.9-.8 5.6-.8 2.4 2.4-.4 5.2-.8 9.5 1.3 12.8l-1 3c0 .1 0 .3.2.3h.2l3-1c3.8 2.5 9 1.5 11.5-2.4 2.1-3.2 1.7-7.5-1.1-10.3zm-1.5 12.3c-1.2.9-2.8 1.3-4.3 1.3-1.6 0-3.1-.5-4.4-1.3-.1 0-.2-.1-.2 0l-2.7.8.9-2.7v-.2C-.5 9.1.4 4.2 3.9 1.8c3.5-2.4 8.4-1.5 10.8 2 2.4 3.6 1.5 8.5-2.1 10.9z"/></g></svg>