<?xml version="1.0" encoding="utf-8"?>
<!-- Generator: Adobe Illustrator 24.0.1, SVG Export Plug-In . SVG Version: 6.00 Build 0)  -->
<svg version="1.1" id="Layer_1" xmlns="http://www.w3.org/2000/svg" xmlns:xlink="http://www.w3.org/1999/xlink" x="0px" y="0px"
	 viewBox="0 0 42.7 36.1" style="enable-background:new 0 0 42.7 36.1;" xml:space="preserve">
<g id="Azadrah" transform="translate(-325.934 -116.774)">
	<path id="Path_2817" style="fill:#FFA300;" d="M346,118.6v-1l2.8,0.2l-0.2,3.2H346V118.6z"/>
	<path id="Path_2816" style="fill:#FFA300;" d="M345.3,140l3.9,0.2l0.3,11.3l-4.4,0.2L345.3,140z"/>
	<path id="Path_23" style="fill:#FFA300;" d="M346,126.6v-1l2.8,0.2l0.2,7.1h-3.3L346,126.6z"/>
	<path id="Path_2814" style="fill:#2E4057;" d="M345.4,125.5l-0.2,7.8h4.2l-0.2-7.8H345.4z M345.9,132.6l0.2-6.5h2.5l0.2,6.5H345.9z
		"/>
	<path id="Path_2815" style="fill:#2E4057;" d="M335.2,116.8l-9.2,36.1h42.7l-9.2-36.1L335.2,116.8z M346.3,118.1h2l0.1,2.7h-2.1
		V118.1z M327.7,151.5l8.5-33.3h1.7l-6.3,33.3H327.7z M345.3,151.5l0.3-10.9h3.3l0.3,10.9H345.3z M349.9,151.5l-0.3-11.6H345
		l-0.3,11.6H333l6.3-33.3h6.3l-0.1,3.4h3.6l-0.1-3.4h6.3l6.3,33.3H349.9z M362.9,151.5l-6.3-33.3h1.7l8.5,33.3H362.9z"/>
</g>
</svg>
