<svg xmlns="http://www.w3.org/2000/svg" viewBox="0 0 25.8 22.8"><path d="M3.577 16.6l-3.6-5h1.5v-.2c0-6.3 5.1-11.4 11.4-11.4v.8c-5.8 0-10.6 4.8-10.6 10.6v1h-.7l2 2.8 1.6-2.8h-.8v-1c0-4.8 3.9-8.7 8.7-8.7 3 0 5.8 1.6 7.3 4.1l-.7.4c-1.4-2.3-4-3.7-6.7-3.7-4.4 0-7.9 3.5-7.9 7.9v.2h1.4l-2.9 5zM19.377 3c-.2-.1-.4-.2-.6-.4-.2-.1-.3-.2-.5-.3l.4-.7c.2.1.4.2.6.4.2.1.3.2.5.3l-.4.7zM17.177 1.7c-.4-.2-.7-.3-1-.4l.2-.8c.4.1.7.2 1.2.4l-.4.8z" fill="#2e4057"/><path d="M14.877 1.1c-.3-.1-.7-.2-.9-.2V.1c.4 0 .9.2 1.1.2l-.2.8zM12.977 22.8V22c5.8 0 10.6-4.8 10.6-10.6v-1h.7l-2-2.7-1.6 2.8h.8v1c0 4.7-3.8 8.6-8.5 8.7-3 0-5.8-1.6-7.4-4.1l.7-.4c1.4 2.3 3.9 3.7 6.7 3.7 4.2-.1 7.7-3.6 7.7-7.9v-.2h-1.4l2.8-5 3.6 4.9h-1.5v.2c.2 6.3-4.9 11.4-11.2 11.4zM7.177 21.3c-.2-.1-.4-.2-.6-.4-.2-.1-.3-.2-.5-.3l.4-.7c.2.1.4.2.6.4.2.1.3.2.5.3l-.4.7zM9.477 22.3c-.4-.1-.7-.2-1.2-.4l.4-.7c.4.2.7.3 1 .4l-.2.7zM11.777 22.8c-.4 0-.9-.1-1.1-.2l.3-.8c.3.1.7.2.9.2v.8z" fill="#2e4057"/><path d="M13.077 15.6c-2.2 0-3.9-1.8-3.9-3.9 0-2.2 1.8-3.9 3.9-3.9s3.9 1.8 3.9 3.9c0 2.1-1.7 3.9-3.9 3.9zm0-7.3c-1.8 0-3.3 1.5-3.3 3.3s1.5 3.3 3.3 3.3 3.3-1.5 3.3-3.3c0-1.8-1.5-3.3-3.3-3.3z" fill="#ffa300"/><path d="M15.277 10.3c-.1-.1-.3-.1-.4 0l-2.2 2.3-1.2-1.2c-.1-.1-.3-.1-.4 0-.1.1-.1.3 0 .4l1.4 1.4c.1.1.3.1.4 0l2.4-2.5c.1-.1.1-.3 0-.4z" fill="#ffa300"/></svg>