<svg xmlns="http://www.w3.org/2000/svg" viewBox="0 0 16.3 16.3"><g fill="#2e4057"><path d="M11.9 0H4.4C2 0 0 2 0 4.4v7.5c0 2.4 2 4.4 4.4 4.4h7.5c2.4 0 4.4-2 4.4-4.4V4.4c0-2.4-2-4.4-4.4-4.4zm3.4 11.9c0 1.9-1.5 3.4-3.5 3.5H4.4c-1.9 0-3.5-1.5-3.5-3.5V4.4C1 2.5 2.5 1 4.4 1h7.5c1.9 0 3.4 1.5 3.5 3.5v7.4z"/><path d="M8.1 3.7c-2.5 0-4.5 2-4.5 4.5s2 4.5 4.5 4.5 4.5-2 4.5-4.5-2-4.5-4.5-4.5zm0 7.9c-1.9 0-3.5-1.6-3.5-3.5s1.6-3.5 3.5-3.5 3.5 1.6 3.5 3.5c0 2-1.5 3.5-3.5 3.5zM12.7 2.1c-.7 0-1.3.6-1.3 1.3s.6 1.3 1.3 1.3S14 4.1 14 3.4c0-.7-.6-1.3-1.3-1.3zm0 1.7c-.2 0-.4-.2-.4-.4s.2-.4.4-.4.4.2.4.4-.2.4-.4.4z"/></g></svg>