<svg xmlns="http://www.w3.org/2000/svg" viewBox="0 0 30.9 24.6"><circle cx="15.4" cy="8.8" r="2.6" fill="#ffa300"/><path d="M15.4 5.6c-1.8 0-3.2 1.4-3.2 3.2 0 1.6 1.2 2.9 2.7 3.1v12.2c0 .2.2.5.5.5s.5-.2.5-.5V11.9c1.5-.2 2.7-1.5 2.7-3.1 0-1.8-1.4-3.2-3.2-3.2zm0 5.4c-1.3 0-2.3-1-2.3-2.3s1-2.3 2.3-2.3c1.3 0 2.3 1 2.3 2.3s-1 2.3-2.3 2.3zM10 4.7c-.2-.1-.5-.1-.6.1-1.6 2.4-1.6 5.5 0 7.9.1.1.2.2.4.2.1 0 .2 0 .2-.1.2-.1.3-.4.1-.6-1.4-2.1-1.4-4.8 0-6.9.1-.2.1-.5-.1-.6zM6.7 3.1c.1-.2.1-.5-.1-.6-.3-.1-.6-.1-.7.1-2.4 3.7-2.4 8.6 0 12.3.1.1.2.2.4.2.1 0 .2 0 .2-.1.2-.1.3-.4.1-.6-2.2-3.4-2.2-7.8.1-11.3zM3.1.2c-.2-.1-.5 0-.6.2-3.3 5.1-3.3 11.7 0 16.8.1.1.2.2.4.2.1 0 .2 0 .2-.1.2-.1.3-.4.1-.6C.1 11.9.1 5.7 3.2.9c.2-.2.1-.5-.1-.7zM20.9 4.7c-.2.1-.3.4-.1.6 1.4 2.1 1.4 4.8 0 6.9-.1.2-.1.5.1.6.1.1.2.1.2.1.1 0 .3-.1.4-.2 1.6-2.4 1.6-5.5 0-7.9-.1-.1-.4-.2-.6-.1zM24.3 2.5c-.2.1-.3.4-.1.6 2.2 3.4 2.2 7.9 0 11.3-.1.2-.1.5.1.6.1 0 .2.1.2.1.1 0 .3-.1.4-.2 2.4-3.7 2.4-8.6 0-12.3-.1-.1-.3-.2-.6-.1zM28.4.4c-.1-.2-.4-.3-.6-.1-.2.1-.3.4-.1.6 3.1 4.8 3.1 11 0 15.8-.1.2-.1.5.1.6.1 0 .2.1.2.1.1 0 .3-.1.4-.2 3.3-5.1 3.3-11.7 0-16.8z" fill="#2e4057"/></svg>