<svg xmlns="http://www.w3.org/2000/svg" viewBox="0 0 2166.6 1802.4"><ellipse cx="1083.3" cy="447.9" rx="1083.3" ry="447.9" fill="#005c87"/><path d="M1811.7 210.2V560l-67.1 4.8-7.2-347.4 74.3-7.2zm-174.9 435.6v-7.2l40.7-40.7h7.2l40.7 40.7v7.2l-40.7 40.7h-7.2l-40.7-40.7zm-88.6 0v-7.2l40.7-40.7h7.2l40.7 40.7v7.2l-40.7 40.7h-7.2l-40.7-40.7zm24-176.8h12c9.6 0 17.3-.6 23.3-1.7s10.5-2.5 13.9-4.1 5.6-3.4 6.7-5.3c1.1-1.9 1.7-3.8 1.7-5.8 0-6.1-.7-16.8-2.1-32.1s-3.9-37.4-7.4-66.1l71.9-12c1.3 9 2.5 18.4 3.6 28.5s2.1 19.7 3.1 29 1.7 17.7 2.2 25.4.7 13.6.7 17.7c0 22-3.2 40.7-9.6 56.1-6.4 15.3-15.1 27.7-26.1 37.1-11 9.4-23.7 16.2-38.1 20.4-15 4.2-30.4 6.3-46 6.2h-9.6c-10.2 0-19.1-1.3-26.6-3.8s-14.1-7-19.9-13.4c-3.5 46.6-19.3 82-47.2 106.1s-66.2 36.8-114.8 38.1l-16.8-79.1c21.1-4.8 38.4-9.8 52-15.1 13.6-5.3 24.4-10.6 32.6-16s13.9-10.8 17.3-16c3.4-5.3 5.3-10.3 6-15.1 0-9.6-1.8-27.1-5.3-52.5s-9-57.4-16.3-96.1l71.9-19.2c4.2 19.8 8 35.5 11.5 47.2 3.5 11.6 7.6 20.6 12.2 26.8s10.3 10.2 17 12c6.5 1.9 15.3 2.8 26.2 2.8zm-189.3-258.8V560l-67.1 4.8-7.2-347.4 74.3-7.2zm-117.4 48v7.2l-43.1 43.1h-7.2l-43.1-43.1v-7.2l43.1-43.1h7.2l43.1 43.1zm-122.2 304.2c-6.7 0-13.6-.4-20.8-1.2-7.2-.8-14.2-2.5-21.1-5-6.9-2.6-13.3-6.2-19.4-11-6.3-5.1-11.6-11.5-15.3-18.7-6.1 9.6-14.4 18-24.9 25.1-10.5 7.2-23 10.8-37.4 10.8-5.4 0-11.2-.6-17.2-1.9-6.1-1.3-12.1-3.3-18.2-6s-11.8-6.1-17.3-10.3c-5.4-4.1-10.2-9.3-14.4-15.3-9.6 14.4-20.1 23.5-31.6 27.5s-23.3 6-35.5 6c-18.2 0-32.5-3.3-42.9-9.8-10.4-6.6-19.3-15.2-26.6-26.1-8.3 12.1-18.9 21.2-31.6 27.1-12.8 5.9-29.4 8.9-49.8 8.9h-9.6c-10.9 0-20.2-1.3-28-3.8s-14.5-6.9-19.9-12.9v12c0 21.7-4.5 41.3-13.4 58.7s-21.3 32.2-36.9 44.3c-15.6 12.1-34 21.6-54.9 28.3-20.9 6.7-43.4 10.1-67.3 10.1-47 0-82.3-10.9-105.9-32.8-23.6-21.9-35.5-53.3-35.5-94.1 0-11.8 1.9-28.8 5.7-51 3.8-22.2 12.3-50.7 25.4-85.5l57.5 16.8c-3.5 14.4-6.4 27.1-8.6 38.1s-4 20.6-5.3 28.8c-2 12-2.9 24.1-2.9 36.2 0 7.4 1.3 14.1 3.8 20.1 2.6 6.1 6.8 11.3 12.7 15.8 5.9 4.5 13.6 8 23 10.5 9.4 2.6 21 3.8 34.7 3.8 16.3 0 30.7-1.4 43.1-4.1 12.5-2.7 22.9-6.1 31.4-10.3 8.5-4.2 14.9-8.8 19.4-13.9s6.7-10.1 6.7-14.9l-7.2-345 74.3-7.2v208.4c0 10.2 1.1 18.6 3.4 25.1 2.2 6.5 5.5 11.7 9.8 15.3s9.3 6.3 15.1 7.7 12.3 2.2 19.6 2.2h9.6c11.5 0 20.8-1.1 27.8-3.4 7-2.2 12.6-6.3 16.8-12.2 4.1-5.9 6.9-14.1 8.4-24.7 1.5-10.5 2.1-24.3 2.1-41.2h64.7V421c0 5.9-.1 11.6-.2 17s-.4 10.2-.7 14.4c4.2 7.4 9.4 12 15.8 13.9 6.4 1.9 12.6 2.9 18.7 2.9 6.7 0 12.3-1.2 16.8-3.6 4.5-2.4 8.1-6.7 11-12.9s5-14.5 6.2-24.9 1.9-23.7 1.9-40h64.7v34.5c0 6.1-.1 12-.2 17.7-.1 5.8-.4 10.7-.7 14.9 5.4 6.1 11 10 16.8 11.7 5.8 1.7 11.7 2.6 17.7 2.6 5.8 0 10.5-1 14.1-2.9 3.7-1.9 6.5-6 8.6-12.2s3.6-15.3 4.5-27.3 1.4-28.2 1.4-48.6h64.7V430c0 15 3.3 25.3 9.8 30.9 6.6 5.6 17.6 8.4 33.3 8.4h12c9.6 0 17.3-.6 23.2-1.7 5.9-1.1 10.5-2.5 13.9-4.1s5.6-3.4 6.7-5.3c1.1-1.9 1.7-3.8 1.7-5.8 0-6.1-.7-16.8-2.1-32.1s-3.9-37.4-7.4-66.1l71.9-12c1.3 9 2.5 18.4 3.6 28.5s2.1 19.7 3.1 29 1.7 17.7 2.2 25.4.7 13.6.7 17.7c0 22-3.2 40.7-9.6 56.1-6.4 15.3-15.1 27.7-26.1 37.1-11 9.4-23.7 16.2-38.1 20.4-15 4.2-30.4 6.3-46 6.2h-9.5v-.2z" fill="#fff"/><path d="M1361.8 1488.5l28.8-134.4H985.5l-27.2 134.4h134.9l-45.6 217.9h153.1l45.5-217.9h115.6zm-420.7-134.4H740.3l-120.6 261.1-20.6-261.1H384.6L250 1802.4h147.5l87.7-289.3 20.3 289.3h114.3l168.1-310.1-80.7 310.1h141l92.9-448.3zm998.7 0h-141l-74.2 280.2-149.6-280.2h-133.7l-93.3 448.3h141.1l53.4-264.7 135.3 264.7h147.7l114.3-448.3z" fill="#005c87"/><path d="M1041.1 1737.9l-14 64h153.3l13.8-64h-153.1z" fill="#c21906"/></svg>