<svg xmlns="http://www.w3.org/2000/svg" viewBox="0 0 10.4 7.5"><path d="M0 6.4c0 .6.5 1.1 1.2 1.1h8.1c.6 0 1.2-.5 1.2-1.2V5.2H0v1.2z" fill="#da0001"/><path d="M0 5.2h10.4V2.3H0v2.9z" fill="#eee"/><path d="M10.4 2.3V1.2C10.4.5 9.9 0 9.2 0h-8C.5 0 0 .5 0 1.2v1.2l10.4-.1z" fill="#239f40"/><path d="M10.4 5.497H0v-.3h10.4v.3zM5.573 2.866c.5.3.7 1 .4 1.5 0 .1-.1.1-.1.2.4-.2.6-.8.4-1.2-.2-.3-.4-.4-.7-.5M4.773 2.866c-.5.3-.7 1-.4 1.5 0 .1.1.1.1.2-.4-.3-.5-.8-.3-1.2.1-.3.3-.4.6-.5M5.873 4.666c-.2 0-.5 0-.7-.1.1.1.1.1.1.2.2 0 .4 0 .6-.1M4.473 4.666c.2 0 .5 0 .7-.1 0 .1 0 .1-.1.2-.2 0-.4 0-.6-.1M4.873 2.666c0 .1.2.1.3.1.1.1.2 0 .3 0-.1.1-.3.1-.4 0-.1 0-.1 0-.2-.1"/><path d="M5.973 3.766c0-.3-.1-.6-.4-.8.3.5.2 1.2-.2 1.5v-1.5l-.2-.1-.1.1v1.5c-.5-.4-.6-1.1-.2-1.5-.3.2-.4.4-.4.8s.2.8.6 1v.1l.1.1.1-.1v-.2c.4-.1.6-.5.7-.9"/><g><path d="M10.4 2.321H0v-.3h10.4v.3z"/></g></svg>