<svg xmlns="http://www.w3.org/2000/svg" viewBox="0 0 63 63"><path d="M63 0H0v42.7h63V0z" fill="#fc0"/><path d="M1.2 22c0-6.6 13.5-12 30.3-12s30.3 5.3 30.3 12c0 6.6-13.5 12-30.3 12S1.2 28.7 1.2 22z" fill="#006189"/><path d="M63 44.5H0V63h63V44.5z" fill="#fc0"/><path d="M19.4 26.7h-.6c-.4 0-.8-.2-1.1-.6 0 1-.2 1.8-.7 2.6-.7 1.2-1.9 1.9-3.6 1.9-1.3 0-2.4-.3-3.2-.9-.8-.5-1.2-1.5-1.2-2.8 0-.6.1-1.4.4-2.2.3-1 .6-1.5 1-1.5.3 0 .5.3.5.9 0 .1 0 .3-.1.6 0 .3-.1.4-.1.6 0 1.2 1 1.7 3.1 1.7 1.6 0 2.3-.6 2.3-1.6v-.2l-.6-8.8c0-.1 0-.2.1-.2l2.6-1.6c.1 0 .1-.1.1 0v7.8c0 .6.3.9.8.9h.3v3.4z" fill="#fff"/><path d="M29.1 26.7h-.6c-.6 0-1.1-.3-1.6-1-.5.7-1 1-1.5 1-.3 0-.6-.1-.9-.3-.2-.2-.4-.4-.6-.7-.5.7-1 1.1-1.4 1.1-.6 0-1.1-.4-1.5-1.1-.5.8-1 1.1-1.6 1.1h-.7v-3.7h.6c.4 0 .7-.2.9-.5.1-.3.2-.6.2-.9.1-.4.3-.6.6-.6s.5.2.6.5c0 .1.1.4.2.9.1.3.4.5.8.5.3 0 .6-.2.7-.5 0-.2.1-.4.2-.9.1-.3.3-.5.6-.5s.4.2.5.5c0 .2.1.4.2.9.1.3.3.5.7.5.3 0 .6-.2.7-.5 0-.3.1-.6.2-.9.1-.3.3-.4.6-.4.2 0 .4.2.5.5 0 .1.1.4.2.9.1.3.4.5.7.5h.6l.1 3.6z" fill="#fff"/><path d="M32.8 22.5c0 1.5-.2 2.6-.7 3.2-.5.7-1.4 1.1-2.8 1.1h-.7v-3.7h1.9c.3 0 .5-.1.5-.3 0-.1 0-.2-.1-.3-.3-.4-.8-.9-1.3-1.3-.1-.1-.1-.2 0-.3l1.6-2.2.2-.2.2.2c.8.9 1.2 2.2 1.2 3.8zm-1-6c.1.1.1.1 0 .2l-1.1 1.1c-.1.1-.2.1-.2 0l-1.1-1.1c-.1-.1-.1-.2 0-.3l1-1.1c.1-.1.2-.1.3 0l1.1 1.2zM37.8 22.5c0 .5-.1 1.1-.2 1.8-.1.8-.3 1.4-.5 1.8-.2.5-.4.7-.7.7-.2 0-.4-.3-.6-.9-.2-.8-.7-3.7-1.4-8.5l2.5-2.7c.1-.2.2-.3.3-.3.1 0 .1.1.1.2.2 1.1.4 2.4.4 3.9.1.5.1 1.9.1 4zM45.4 26.7H45c-.2 0-.4-.1-.7-.2v.7c0 .6-.2 1.3-.5 2-.3.6-.6 1.1-1 1.5-.1.1-.3.2-.5.2h-3.9c-.4 0-.7-.2-.7-.6 0-.2.1-.3.3-.4.7-.3 1.6-.9 2.7-1.6 1.4-.9 2.1-1.6 2.1-2 0-.3-.6-1.1-1.9-2.2l1.3-2.7c.1-.2.2-.2.3-.1.5.5.9.9 1.1 1 .4.3.9.6 1.3.6h.3l.2 3.8z" fill="#fff"/><path d="M48.8 29.2c.1.1.1.1 0 .2l-1 .9c-.1.1-.1.1-.2 0l-1-.9-1 .9c-.1.1-.1.1-.2 0l-1-.9c-.1-.1-.1-.1 0-.2l.9-.9c.1-.1.2-.1.2 0l1 .9.9-.9c.1-.1.2-.1.2 0l1.2.9zm.2-6.7c0 1.5-.2 2.6-.7 3.2-.5.7-1.4 1.1-2.8 1.1h-.7V23h1.9c.3 0 .5-.1.5-.3 0-.1 0-.2-.1-.3-.3-.4-.8-.9-1.3-1.3-.1-.1-.1-.2 0-.3l1.6-2.2.2-.2.2.2c.8 1.1 1.2 2.3 1.2 3.9zM54 22.5c0 .5-.1 1.1-.2 1.8-.1.8-.3 1.4-.5 1.8-.2.5-.4.7-.7.7-.2 0-.4-.3-.6-.9-.2-.8-.7-3.7-1.4-8.5l2.5-2.7c.1-.2.2-.3.3-.3.1 0 .1.1.1.2.2 1.1.4 2.4.4 3.9.1.5.1 1.9.1 4z" fill="#fff"/><path d="M14 51.5l-2.1 8.3H8.1l3-12.2h5.3l.6 8.5 4.8-8.5h5.6l-3 12.2h-4l2.3-8.7-4.9 8.7h-3.3l-.5-8.3zM38.7 59.9l3-12.2h3.8l3.8 7.8 2-7.8H55l-3.1 12.2H48l-3.8-7.8-2 7.8h-3.5z" fill-rule="evenodd" clip-rule="evenodd" fill="#006189"/><path d="M33.8 58.1h-3.7l-.4 1.8h3.7l.4-1.8z" fill="#db0e15"/><path d="M28.8 47.6L28 51h3.8l-1.6 6.4H34l1.6-6.4h3.9l.8-3.3H28.8z" fill-rule="evenodd" clip-rule="evenodd" fill="#006189"/></svg>