<svg xmlns="http://www.w3.org/2000/svg" viewBox="0 0 391.7 389.2"><g fill="#2e4057"><path d="M161 364.2c-1.2-13.7-.6-28.3-8.3-40.3-10.1-19.3-30.3-30-42.4-47.7-4.7-6.4-8.2-13.6-11.3-20.9 15 21 32.3 40.7 52.7 56.7 3.8-17.2.7-35.6-6.7-51.5-6.8-14-20.3-23.1-34.4-28.8-13.6-5.5-26.2-12.9-39.5-18.9-2 23.3 8.1 45.9 21.5 64.4 11.8 16.6 32.6 23.6 44 40.6 9.7 11.7 11.1 27.6 9.1 42.2-.7 9.9-2.8 19.6-6.1 28.9 8.7.1 17.3.1 26 .1-.3-1.3-.7-4-.9-5.4-2-6.3-3.2-12.8-3.7-19.4z"/><path d="M207.4 243.1c-12.4 5.1-26 9.4-35.3 19.7-11.9 11.2-16.7 27.7-17 43.6l3.1-1.5c4.5-15.8 15.5-29 30.2-36.4-15.9 16-33.7 35.1-30.8 59.7l3.1-1.6c3.9-15.8 19.5-22.2 32.2-29.6 23.2-13.2 37.6-38.8 40.6-64.9-9.4 2.1-17.5 7.2-26.1 11z"/></g><g fill="#ffa300"><path d="M45.9 292.9c-12.9 4.7-24.7 11.6-37.3 16.9-3.2 1.9-9 2.8-8.3 7.7-1 23.8.6 47.7.8 71.5 27.7-.3 55.4 0 83.1-.1 6-13.1 14-25.1 19.5-38.4-24.3-13-46.3-31.9-57.8-57.6zM41.3 284.7c-3.3-13.4-7.4-26.7-7.4-40.6-.8-14.3 3-28.2 6.7-41.9-12.6-5.6-25.9-9.5-38.8-14.3-1.1 36.3-.8 72.7-.1 108.9C15 293 28 288.3 41.3 284.7zM43.9 193.4c11.2-21.8 27.2-41.7 48.9-53.6 2.8-2.3 9.9-4 7.1-8.9C80.5 88.3 59.7 46.3 40.6 3.6l-2.5-2.5C25.9-.5 13.4.2 1.1.3c.2 57.2.1 114.4 0 171.6 14.2 7.3 28.4 14.6 42.8 21.5zM100.9 386l-.7 2.9c13.1.1 26.3 0 39.4 0 3.3-9.3 5.4-19 6.1-28.9-11.3-.9-22.5-3.1-33.2-6.4-3.8 10.8-8.2 21.5-11.6 32.4zM391.7.3c-36.6-.7-73.1.9-109.7-.2-4.4.5-10.9-1.5-13.2 3.5-21.5 42.3-44.3 84-66.1 126-3.5 4.3 2.4 6.2 5.2 7.9 22.6 11.5 40.2 31.1 51.9 53.3 43.1-19.2 85.2-40.5 128.3-59.6 4-1.8 3.2-6.7 3.6-10.2.1-40.3-.5-80.5 0-120.7zM390.8 359.1c-.7-.6-2.1-1.9-2.8-2.5-42.8-21.5-84.6-45.1-127.5-66.5-11.5 25.1-31.5 46.4-56.7 58 3.9 13 11 24.7 16.2 37.2.4.9 1.2 2.5 1.6 3.4 56.6 0 113.2.1 169.8 0-.1-9.8.3-19.7-.6-29.6zM195.5 122.3C209.5 81.4 225.2 41 239 0 182.8.9 126.5-.3 70.2.6l.5 3c9.3 32.4 20 64.5 29.6 96.9 3.4 10.3 5.8 20.9 10.6 30.7 24.9-9.8 52.8-9.7 78.2-2.4 4.2 2.1 5-4 6.4-6.5zM263.5 199.4c9.6 26.7 9.1 55.9 1.2 82.8 41.3 14.3 82.2 29.8 123.6 44.1l2.8.9c1-55.9.3-111.8.2-167.7-42.5 13.4-85.3 26.1-127.8 39.9zM161.2 360.9l-.2 3.3c.5 6.6 1.7 13.1 3.7 19.4.6 1.3 1.7 3.9 2.3 5.2 13 .4 26.1-.2 39.1.5-3.6-12.3-6.8-24.7-11.3-36.6-11 3.8-22.4 5.5-33.6 8.2z"/></g></svg>