<svg xmlns="http://www.w3.org/2000/svg" viewBox="0 0 45 25" style="enable-background:new 0 0 45 25" xml:space="preserve"><path style="fill:#2e4057" d="M32.5 24.9h-20C5.6 24.9 0 19.3 0 12.4S5.6-.1 12.5-.1h20C39.4-.1 45 5.5 45 12.4s-5.6 12.5-12.5 12.5zm-20-24C6.2.9 1 6.1 1 12.4s5.2 11.5 11.5 11.5h20c6.3 0 11.5-5.2 11.5-11.5S38.8.9 32.5.9h-20z"/><circle style="fill:#2e4057" cx="12.4" cy="12.4" r="2.5"/><path style="fill:#2e4057" d="M12.4 1.9C6.6 1.9 1.9 6.6 1.9 12.4s4.7 10.5 10.5 10.5 10.5-4.7 10.5-10.5S18.2 1.9 12.4 1.9zm2.8 7L17 7.1c.2-.2.5-.2.7 0 .2.2.2.5.1.7L16 9.6l-.1.1c-.2.2-.5.2-.7-.1-.2-.2-.2-.5 0-.7zm-3.3-3.5c0-.3.2-.5.5-.5s.5.2.5.5v2.5c0 .3-.2.5-.5.5s-.5-.2-.5-.5V5.4zM7.1 7.1c.2-.2.5-.2.7 0l1.8 1.8c.2.2.2.5 0 .7-.2.2-.5.2-.7 0L7.1 7.8c-.2-.2-.2-.5 0-.7zm-2.2 5.3c0-.3.2-.5.5-.5h2.5c.3 0 .5.2.5.5s-.2.5-.5.5H5.4c-.3 0-.5-.2-.5-.5zM9.6 16l-1.8 1.8-.1.1c-.2.2-.5.2-.7-.1-.2-.2-.2-.5.1-.7l1.8-1.8c.2-.2.5-.2.7 0 .1.1.2.5 0 .7zm3.3 3.4c0 .3-.2.5-.5.5s-.5-.2-.5-.5v-2.5c0-.3.2-.5.5-.5s.5.2.5.5v2.5zm-.5-3.5c-1.9 0-3.5-1.6-3.5-3.5s1.6-3.5 3.5-3.5 3.5 1.6 3.5 3.5c0 2-1.6 3.5-3.5 3.5zm5.3 1.8c-.2.2-.5.2-.7 0L15.2 16c-.2-.2-.2-.5 0-.7.2-.2.5-.2.7-.1l1.8 1.8c.2.2.2.5 0 .7zm1.7-4.8h-2.5c-.3 0-.5-.2-.5-.5s.2-.5.5-.5h2.5c.3 0 .5.2.5.5s-.2.5-.5.5z"/></svg>