<svg xmlns="http://www.w3.org/2000/svg" viewBox="0 0 17.2 17.2"><g fill="#2e4057"><path d="M12.1 5.3H9.4V2.6c0-.5-.4-.9-.9-.9-.2.1-.5.2-.7.5L6.5 5c-.1.3-.2.5-.2.8H4.5c-.1 0-.3.1-.3.3V10c0 .1.1.3.3.3h1.9c.2.4.6.6 1 .6h3.7c.5 0 1-.4 1.1-.9l.7-3.3c.2-.7-.2-1.3-.8-1.4zM6.3 9.8H4.8V6.3h1.5v3.5zm6.2-3.3l-.7 3.3c-.1.3-.3.5-.6.5H7.4c-.4 0-.7-.3-.7-.7V5.9c0-.3.1-.5.2-.7l1.3-2.8c.1-.2.3-.2.5-.1.1.1.2.2.2.3v2.9c0 .1.1.3.3.3h2.6c.4 0 .7.3.7.7 0-.1 0 0 0 0z"/><path d="M15.1 0h-13C1 0 0 1 0 2.1V11c0 1.2 1 2.1 2.1 2.2h2.5V17c0 .1.1.3.3.3.1 0 .1 0 .2-.1l3.1-3.9h6.9c1.2 0 2.1-1 2.1-2.1V2.1c0-1.1-.9-2.1-2.1-2.1zm0 12.7H8c-.1 0-.2 0-.2.1l-2.7 3.4V13c0-.1-.1-.3-.3-.3H2.1c-.9 0-1.6-.7-1.6-1.6v-9c0-.9.7-1.6 1.6-1.6H15c.9 0 1.6.7 1.6 1.6V11c.1 1-.6 1.7-1.5 1.7z"/></g></svg>