<svg xmlns="http://www.w3.org/2000/svg" viewBox="0 0 22 23" style="enable-background:new 0 0 22 23" xml:space="preserve"><path style="fill:#2e4057" d="M17.5 10.6c-.4 0-.8-.3-.8-.8V7.7c0-3.5-1-5.8-5.8-5.8S5.1 4.2 5.1 7.7v2.2c0 .4-.3.8-.8.8s-.8-.3-.8-.8V7.7c0-3.1.8-7.2 7.2-7.2 6.5 0 7.2 4.1 7.2 7.2v2.2c.3.3 0 .7-.4.7zM11 14.4c-1.1 0-2 .9-2 2s.9 2 2 2 2-.9 2-2-.9-2-2-2z"/><path style="fill:#2e4057" d="M16.4 9.8H5.6C1.3 9.8.2 10.9.2 15.2v2.2c0 4.3 1.1 5.4 5.4 5.4h10.8c4.3 0 5.4-1.1 5.4-5.4v-2.2c0-4.3-1.1-5.4-5.4-5.4zm-5.4 10c-1.9 0-3.5-1.6-3.5-3.5s1.6-3.5 3.5-3.5 3.5 1.6 3.5 3.5-1.6 3.5-3.5 3.5z"/></svg>