<svg xmlns="http://www.w3.org/2000/svg" viewBox="0 0 214.4 217.6"><g fill="#2e4057"><path d="M196 112.9V106c6.1-.1 12.1-.4 18.2-.4.4-22.3.2-44.6.1-66.9-12-.3-24 0-36-.1-.5-12.8.1-25.7-.3-38.5-15.3-.3-30.5 0-45.8-.1-7.2 0-14.4-.3-21.6.3-.2 6.7-.1 13.5-.1 20.2h-7.3c-.1-6.7-.1-13.3-.2-20C97.7.2 92.5-.1 87.2 0 70.3.1 53.3-.2 36.4.1c-.1 12.9.3 25.7-.2 38.6-12.1.1-24.1-.2-36.1.1C0 61.2 0 83.6.1 106c6.1 0 12.2 0 18.3.1-.1 2.6-.1 5.1-.2 7.6-6 0-12.1 0-18.1.1C0 135.9 0 158 0 180.1c11.7.2 23.5-.1 35.2.1.5 12.5-.2 24.9.4 37.3 22.7.1 45.5.2 68.2 0 .1-6.2 0-12.5.2-18.7h6.9c0 6.3-.1 12.6.3 18.8 22.2-.1 44.4 0 66.6-.1.5-12.4-.2-24.9.3-37.3 12.1-.1 24.1.2 36.1-.1.2-22.4.2-44.7 0-67-6.1 0-12.1 0-18.2-.2zm15.3 62.7c-12.5 1.1-24.9.1-37.4.6 0 12.4.3 24.7-.1 37.1-11.2.3-22.4 0-33.6.1-8.3 0-16.7.2-25-.5-.1-6.2.1-12.4-.6-18.6-5 .6-10.1.6-15.2.6-.1 6.2-.1 12.3-.2 18.4-19.6.2-39.3.2-59 0-.3-12.4.1-24.7-.2-37.1-12-.3-24.1.2-36.1-.4-.6-19.3-.2-38.6-.2-57.9 6.1-.4 12.2-.3 18.3-.3.2-5.2.2-10.4.1-15.6-4.4-.3-10.7 1.3-15-.1H3.5C3.7 88 3.6 74 3.6 60c-.1-5.9-.2-11.8.5-17.7 12-.1 23.9-.2 35.9.1.3-12.8-.1-25.5.2-38.3C59.8 4 79.4 4 99 4.1c0 6.7 0 13.4.2 19.9 5.3.1 10.6.1 15.9.3.2-6.8.1-13.6.2-20.4 16-.2 32 0 48-.1 3.6 0 7.2.2 10.8.7 0 12.8-.2 25.5.1 38.3 12.3.2 24.6-.1 36.9.2.4 19.3.3 38.7.1 58-6.3.3-12.6.5-18.8.1-.5 5.5-.5 11-.2 16.4 6.2-.6 12.4-.5 18.6-.3.8 8.6.4 17.1.5 25.7 0 10.9.1 21.8 0 32.7z"/><path d="M7 99.7c0 1.3 0 1.3.1 2.2 0-.7 0-1.5-.1-2.2z"/><path d="M25.2 99.5c.1 6.1.1 12.1.2 18.2 11.2 0 22.5.2 33.7 0 .5-6.3.2-12.6-.5-18.8-.4-11.5.2-23.1-.2-34.6-12-.1-24 .3-35.9-.2-.1-6.1 0-12.2-.2-18.3-5.4-.4-10.8-.4-16.2-.1-.1 11.4-.2 22.9.1 34.3 12.5.3 25.1-.2 37.6.3-.1 6.2-.1 12.5.1 18.8 4.6.6 10.6-1.6 14.1 2.4-5.9 1-11.9.1-17.8 0-.1-6-.1-12-.2-18-11.1.1-22.1 0-33.2 0 .1 5.4.1 10.8.2 16.2 6-.8 12.2-.5 18.2-.2z"/><path d="M62.2 61.4c5.3.2 10.6.2 15.9-.3.2-17.3.1-34.7.1-52-11.6-.1-23.3-.1-34.9 0-.2 10-.1 20-.2 29.9 0 2.1 0 4.2-.6 6.2-5.6 1.3-11.5 1-17.3 1.1-.2 5-.2 10-.1 15 11 .4 22.1 0 33.1.3.2-12.2-.1-24.4.1-36.6h3.5c-.2 12.2-.5 24.3.4 36.4zM96.1 61.7c.2-17.5.2-35 0-52.5-5-.2-10-.2-15-.1-.1 17.5-.3 35 .1 52.5 5 .1 10 .1 14.9.1zM115.3 61.6c.2-6.4.1-12.8.4-19.2 5.9-.3 11.8-.3 17.6.2.3-11.2.2-22.3.1-33.5-5.1-.1-10.1-.1-15.1 0-.1 6.1-.1 12.2-.1 18.3-6.2.2-12.4.2-18.6.2-.4 11.3-.2 22.7-.1 34.1 5.3 0 10.5 0 15.8-.1z"/><path d="M118.2 46.4c-.2 5.1-.2 10.1 0 15.2 11.3-.1 22.6.1 33.9-.1.4-12.1-.5-24.3.4-36.4 6 0 11.9.1 17.9-.2.4-5.3.4-10.6.1-15.8-11.3 0-22.6-.2-33.9.1 0 12.2.3 24.5-.3 36.7-6 .3-12.1.5-18.1.5z"/><path d="M154.8 27.6c-.3 11.1-.1 22.3 0 33.4 12.4.3 24.9-.1 37.4.2-.1 1.2-.1 2.4-.1 3.6-12.4.2-24.7-.1-37.1.2-.3 4.8-.3 9.7-.1 14.5 17.5.2 35.1.1 52.6 0 .1-11 .3-22.1-.1-33.1-12.2-.1-24.4.2-36.5-.1-.1-6.3-.1-12.5-.2-18.7-5.3-.2-10.6-.2-15.9 0zM150.9 118.8c.9-5 .8-10.3.4-15.4-2.1-14.9-12.3-28.4-26.2-34.2-8.6-3.8-18.4-4.4-27.5-2.6C84 69.8 71.7 79.3 66.5 92.4c-5.6 12.9-4.5 28.4 2.9 40.4 5.3 8.6 13.4 15.7 23.1 18.8 10.6 3.8 22.7 3.4 32.9-1.3 12.9-5.6 22.4-17.9 25.5-31.5zm-34.4 25.3c-2.9 2.6-5.8 6.3-10.1 5.8-3.9-.1-6.4-3.5-8.8-6.1-3.9.9-8.5 2.7-12.2.2-2.8-2.6-3.5-6.6-4.6-10.1-3.4-1.4-7.9-2.4-9.4-6.2-.7-3.4.3-6.9.9-10.2-2.5-3-6.2-6-5.6-10.3.9-3.4 3.8-5.7 6.1-8.2-.7-3.4-2.1-7.2 0-10.4 1.7-3.3 5.8-4 9.1-5 1.4-3.4 2.4-7.3 5.6-9.4 2-1.4 4.5-.9 6.8-.9-3.2 2.2-8.7 3.1-9.1 7.8-.8 3.1 1.8 5.3 3.8 7.2 2.8 2.5 5.3 5.3 8.5 7.4 1.8-.2 3.5-1 5.2-1.5-1.2-7.1-2.4-14.9-8.5-19.6 4.5.1 7.4-3.6 11.4-5.2 4.6-1.4 8.3 2.3 11.2 5.3 3.6-.8 7.5-2.2 11-.3 3.5 2 4.3 6.3 5.4 9.9 3.4 1.2 7.8 1.8 9.8 5.2 2 3.6.7 7.7-.4 11.4 2.4 2.6 5.7 5.2 5.8 9.1 0 3.9-3.4 6.6-5.8 9.3.3 3.3 1.2 6.7.2 10-1.7 3.9-6.3 4.9-9.9 6.1-1.1 3.4-2 7.7-5.5 9.6-3.5 1.8-7.4-.1-10.9-.9z"/><path d="M139 120.2c-5-2.3-10.6-2.8-15.9-4-1.1 1.7-2.2 3.3-3.4 5.1 3.5 4 7 8.1 11.6 10.7 1.5 1 3.5 1 5.2.4 5.4-.9 6.3-9.1 2.5-12.2zM139.1 103.3c-5.2.4-10 2.7-15 4-.1 2-.3 4-.5 6 5 2.1 10.3 4.1 15.8 4 2.6 0 4.7-2.2 5.8-4.4 2.1-4-1.3-10.2-6.1-9.6zM189.2 102.1c-11.3-.1-22.6-.2-33.9 0-.2 5-.1 10 0 15 6.4.2 12.7.1 19 .2.2 6.2.1 12.5.2 18.7 11 .2 22 .1 33 .1.3-5.2.3-10.4-.1-15.6-6.1 0-12.1 0-18.1-.1-.1-6.1-.1-12.2-.1-18.3zM59.1 136c.2-5.2-.1-10.4-.3-15.5-17.5 0-35.1.1-52.6 0-.3 5.1-.3 10.4-.1 15.6 17.7-.1 35.3.1 53-.1zM154.7 84c-.1 5-.1 9.9 0 14.9 17.6-.3 35.2.4 52.8.2.2-5.1.2-10.2 0-15.3-17.6-.1-35.2-.4-52.8.2zM120.1 100c1.3 1.8 2.5 3.6 3.8 5.4 4.6-1.6 9.5-2.4 13.8-4.8 3.1-1.7 5.4-5.5 4-9-1.3-4.7-8.2-5.7-11.6-2.6-3.5 3.4-6.5 7.4-10 11zM95.5 97.8c-3.6-3.8-7-7.9-11.3-10.9-3.3-2.2-7 .7-10 2.1v8.8c5.8 2 11.8 3.5 17.7 4.9 1.2-1.6 2.4-3.3 3.6-4.9zM93.2 119.8c-.4-2.2-1.7-4-2.7-6-4.7 1.3-9.6 2.1-14 4.2-4.1 1.7-4.7 7.7-2.3 11 2.5 2.4 7 3.3 9.7.6 3.3-3 6.6-6.2 9.3-9.8zM102 123.4c8.4 3.8 19.7-2.8 19.5-12.4 1.3-9.9-9.7-18.1-18.9-14.6-5.6 2.1-9.9 7.6-10 13.7.3 5.7 4 11.2 9.4 13.3zM90.3 111.6c.2-2.2.5-4.3.8-6.5-4.9-1.7-9.8-3.6-15-3.9-2.6-.2-4.8 1.6-6.2 3.6-2.7 4.1.3 10.7 5.4 10.6 5.2-.5 10-2.6 15-3.8zM118.8 97.9c3.9-3.8 8.1-7.7 10.7-12.6 1.8-3-.4-6.2-1.4-9.1-3 0-6.3-.7-9.2.5-4 4.8-5.1 11.2-6.9 17 2.2 1.4 4.5 2.8 6.8 4.2zM109.6 94.1c1.5-5.3 4-10.5 4.6-16.1.5-3.9-3.4-6.9-7-6.9-3.7 0-7.4 3.6-6.4 7.4 1.1 4.5 2.4 8.8 3.9 13.1.6 2.1 3.2 2 4.9 2.5zM95 121.9c-3.2 2.7-6.4 5.5-9.1 8.8-2.5 3-2.8 7.9-.2 10.8 3 3.4 9.3 2.2 11.1-1.8 2.2-4.5 3-9.4 4.1-14.2-2-1.2-3.9-2.4-5.9-3.6zM103.4 126.4c-2 5.8-4.4 12-2.7 18.1 2.5 5.7 12.2 4.3 12.9-1.9.3-5.6-2.4-10.7-3.8-15.9-2.1-.1-4.3-.2-6.4-.3zM43.9 191.7c4.8.1 9.6.1 14.4.1.2-11.3.2-22.7 0-34-12.2-.2-24.3.1-36.4-.1.4-1 .9-2.1 1.3-3.1 11.7-.1 23.3 0 35 0 .3-5.1.3-10.2 0-15.3-17.1 0-34.2-.1-51.4.1-.4 11.2-.6 22.4-.7 33.4 12.6.2 25.1-.3 37.7.2-.1 6.2-.1 12.5.1 18.7zM129.3 134c-3.4-3.9-7.6-7.1-11.1-11-2 1.1-4 2.2-6.1 3.3 1.7 5.7 2.3 12.7 7.2 16.6 5.2 4.3 13.3-3.5 10-8.9z"/><path d="M170.9 138.4c-.1-5.9-.1-11.9-.2-17.8-5.1-.2-10.3-.2-15.4-.1-.1 11.4-.2 22.7 0 34.1 12.2.2 24.5-.3 36.7.2 0 6.1 0 12.2.1 18.3 5.4 0 10.7.1 16.1-.2.5-11.3.4-22.7.1-34-12.5-1-25 0-37.4-.5zM117.6 157.8c-.6 10.4-.3 20.8 0 31.3-.2 7.1-.8 14.3.3 21.4 5.4-.2 10.7-.2 16.1-.4 0-17.5.1-34.9-.1-52.4-5.4.1-10.9.1-16.3.1zM96.7 173.4c.5-5.1.5-10.3.3-15.5-11.5-.1-23-.2-34.5.1-.1 12 .2 24-.2 35.9-6.3.1-12.5.2-18.8.2V210c11.4.2 22.8.3 34.2-.1.1-12-.2-24 .1-36 6.3 0 12.6 0 18.9-.5z"/><path d="M99.1 158c-.1 6 .1 12 .1 18-6 .1-12 .1-18.1.2-.3 11.3-.2 22.6-.1 33.9 5.1.2 10.1.2 15.1.1 0-6 0-12 .1-18 6.2.1 12.5.1 18.7-.3.3-11.3.1-22.6.1-33.9-5.3-.2-10.6-.2-15.9 0zM155.2 157.9c-.1 12.1.1 24.1-.1 36.2l-2.4-.4c0-11.9.3-23.9-.1-35.8-5.2-.2-10.5-.2-15.7 0-.3 17.4-.3 34.8 0 52.1 11.4.2 22.9.2 34.3 0 .1-12 0-24.1.1-36.1 5.5-.2 11 .4 16.5-.3.3-.2.9-.8 1.2-1 .7-4.8.2-9.8.2-14.7-11.4-.2-22.7-.1-34 0z"/></g></svg>