<svg xmlns="http://www.w3.org/2000/svg" viewBox="0 0 214.4 217.6"><g fill="#015320"><path d="M36.4.1C53.3-.2 70.3.1 87.2 0c5.3-.1 10.5.2 15.8.5.1 6.7.1 13.3.2 20h7.3c0-6.7-.1-13.5.1-20.2 7.2-.6 14.4-.3 21.6-.3 15.3.1 30.5-.2 45.8.1.4 12.8-.2 25.7.3 38.5 12 .1 24-.2 36 .1.1 22.3.3 44.6-.1 66.9-6.1 0-12.1.3-18.2.4v6.9c6.1.2 12.1.2 18.2.2.2 22.3.2 44.6 0 67-12 .3-24 0-36.1.1-.5 12.4.2 24.9-.3 37.3-22.2.1-44.4 0-66.6.1-.4-6.2-.3-12.5-.3-18.8H104c-.2 6.2-.1 12.5-.2 18.7-22.7.2-45.5.1-68.2 0-.6-12.4.1-24.8-.4-37.3-11.7-.2-23.5.1-35.2-.1 0-22.1 0-44.2.1-66.3 6-.1 12.1-.1 18.1-.1.1-2.5.1-5 .2-7.6-6.1-.1-12.2-.1-18.3-.1C0 83.6 0 61.2.1 38.8c12-.3 24 0 36.1-.1.5-12.9.1-25.7.2-38.6m3.8 4c-.3 12.8.1 25.5-.2 38.3-12-.3-23.9-.2-35.9-.1-.7 5.9-.6 11.8-.5 17.7 0 14 .1 28-.1 41.9h3.6c-.2-6.1-.2-12.3-.3-18.4 11.1 0 22.1.1 33.2 0 .1 6 .1 12 .2 18 5.9.1 11.9 1 17.8 0-3.5-4-9.5-1.8-14.1-2.4-.2-6.3-.2-12.6-.1-18.8-12.5-.5-25.1 0-37.6-.3-.3-11.4-.2-22.9-.1-34.3 5.4-.3 10.8-.3 16.2.1.2 6.1.1 12.2.2 18.3 11.9.5 23.9.1 35.9.2.4 11.5-.2 23.1.2 34.6.7 6.2 1 12.5.5 18.8-11.2.2-22.5 0-33.7 0-.1-6.1-.1-12.1-.2-18.2-6-.3-12.2-.6-18.2.2 0 1.3 0 1.3.1 2.2 4.3 1.4 10.6-.2 15 .1.1 5.2.1 10.4-.1 15.6-6.1 0-12.2-.1-18.3.3 0 19.3-.4 38.6.2 57.9 12 .6 24.1.1 36.1.4.3 12.4-.1 24.7.2 37.1 19.7.2 39.4.2 59 0 .1-6.1.1-12.2.2-18.4 5.1 0 10.2 0 15.2-.6.7 6.2.5 12.4.6 18.6 8.3.7 16.7.5 25 .5 11.2-.1 22.4.2 33.6-.1.4-12.4.1-24.7.1-37.1 12.5-.5 24.9.5 37.4-.6.1-10.9 0-21.8 0-32.7-.1-8.6.3-17.1-.5-25.7-6.2-.2-12.4-.3-18.6.3-.3-5.4-.3-10.9.2-16.4 6.2.4 12.5.2 18.8-.1.2-19.3.3-38.7-.1-58-12.3-.3-24.6 0-36.9-.2-.3-12.8-.1-25.5-.1-38.3-3.6-.5-7.2-.7-10.8-.7-16 .1-32-.1-48 .1-.1 6.8 0 13.6-.2 20.4-5.3-.2-10.6-.2-15.9-.3-.2-6.5-.2-13.2-.2-19.9-19.6-.1-39.2-.1-58.8 0z"/><path d="M43.3 9.1c11.6-.1 23.3-.1 34.9 0 0 17.3.1 34.7-.1 52-5.3.5-10.6.5-15.9.3-.9-12.1-.6-24.2-.4-36.4h-3.5c-.2 12.2.1 24.4-.1 36.6-11-.3-22.1.1-33.1-.3-.1-5-.1-10 .1-15 5.8-.1 11.7.2 17.3-1.1.6-2 .6-4.1.6-6.2.1-9.9 0-19.9.2-29.9zM81.1 9.1c5-.1 10-.1 15 .1.2 17.5.2 35 0 52.5-4.9 0-9.9 0-14.9-.1-.4-17.5-.2-35-.1-52.5zM118.3 9.1c5-.1 10-.1 15.1 0 .1 11.2.2 22.3-.1 33.5-5.8-.5-11.7-.5-17.6-.2-.3 6.4-.2 12.8-.4 19.2-5.3.1-10.5.1-15.8.1-.1-11.4-.3-22.8.1-34.1 6.2 0 12.4 0 18.6-.2 0-6.1 0-12.2.1-18.3z"/><path d="M136.6 9.2c11.3-.3 22.6-.1 33.9-.1.3 5.2.3 10.5-.1 15.8-6 .3-11.9.2-17.9.2-.9 12.1 0 24.3-.4 36.4-11.3.2-22.6 0-33.9.1-.2-5.1-.2-10.1 0-15.2 6 0 12.1-.2 18.1-.5.6-12.2.3-24.5.3-36.7z"/><path d="M154.8 27.6c5.3-.2 10.6-.2 15.9 0 .1 6.2.1 12.4.2 18.7 12.1.3 24.3 0 36.5.1.4 11 .2 22.1.1 33.1-17.5.1-35.1.2-52.6 0-.2-4.8-.2-9.7.1-14.5 12.4-.3 24.7 0 37.1-.2 0-1.2 0-2.4.1-3.6-12.5-.3-25 .1-37.4-.2-.1-11.1-.3-22.3 0-33.4zM97.6 66.6c9.1-1.8 18.9-1.2 27.5 2.6 13.9 5.8 24.1 19.3 26.2 34.2.4 5.1.5 10.4-.4 15.4-3.1 13.6-12.6 25.9-25.5 31.5-10.2 4.7-22.3 5.1-32.9 1.3-9.7-3.1-17.8-10.2-23.1-18.8-7.4-12-8.5-27.5-2.9-40.4C71.7 79.3 84 69.8 97.6 66.6m-3.4 8c6.1 4.7 7.3 12.5 8.5 19.6-1.7.5-3.4 1.3-5.2 1.5-3.2-2.1-5.7-4.9-8.5-7.4-2-1.9-4.6-4.1-3.8-7.2.4-4.7 5.9-5.6 9.1-7.8-2.3 0-4.8-.5-6.8.9-3.2 2.1-4.2 6-5.6 9.4-3.3 1-7.4 1.7-9.1 5-2.1 3.2-.7 7 0 10.4-2.3 2.5-5.2 4.8-6.1 8.2-.6 4.3 3.1 7.3 5.6 10.3-.6 3.3-1.6 6.8-.9 10.2 1.5 3.8 6 4.8 9.4 6.2 1.1 3.5 1.8 7.5 4.6 10.1 3.7 2.5 8.3.7 12.2-.2 2.4 2.6 4.9 6 8.8 6.1 4.3.5 7.2-3.2 10.1-5.8 3.5.8 7.4 2.7 10.9.9 3.5-1.9 4.4-6.2 5.5-9.6 3.6-1.2 8.2-2.2 9.9-6.1 1-3.3.1-6.7-.2-10 2.4-2.7 5.8-5.4 5.8-9.3-.1-3.9-3.4-6.5-5.8-9.1 1.1-3.7 2.4-7.8.4-11.4-2-3.4-6.4-4-9.8-5.2-1.1-3.6-1.9-7.9-5.4-9.9-3.5-1.9-7.4-.5-11 .3-2.9-3-6.6-6.7-11.2-5.3-4 1.6-6.9 5.3-11.4 5.2z"/><path d="M100.8 78.5c-1-3.8 2.7-7.4 6.4-7.4 3.6 0 7.5 3 7 6.9-.6 5.6-3.1 10.8-4.6 16.1-1.7-.5-4.3-.4-4.9-2.5-1.5-4.3-2.8-8.6-3.9-13.1zM118.9 76.7c2.9-1.2 6.2-.5 9.2-.5 1 2.9 3.2 6.1 1.4 9.1-2.6 4.9-6.8 8.8-10.7 12.6-2.3-1.4-4.6-2.8-6.8-4.2 1.8-5.8 2.9-12.2 6.9-17zM154.7 84c17.6-.6 35.2-.3 52.8-.2.2 5.1.2 10.2 0 15.3-17.6.2-35.2-.5-52.8-.2-.1-5-.1-9.9 0-14.9zM74.2 89c3-1.4 6.7-4.3 10-2.1 4.3 3 7.7 7.1 11.3 10.9-1.2 1.6-2.4 3.3-3.6 4.9-5.9-1.4-11.9-2.9-17.7-4.9V89zM130.1 89c3.4-3.1 10.3-2.1 11.6 2.6 1.4 3.5-.9 7.3-4 9-4.3 2.4-9.2 3.2-13.8 4.8-1.3-1.8-2.5-3.6-3.8-5.4 3.5-3.6 6.5-7.6 10-11zM102.6 96.4c9.2-3.5 20.2 4.7 18.9 14.6.2 9.6-11.1 16.2-19.5 12.4-5.4-2.1-9.1-7.6-9.4-13.3.1-6.1 4.4-11.6 10-13.7zM69.9 104.8c1.4-2 3.6-3.8 6.2-3.6 5.2.3 10.1 2.2 15 3.9-.3 2.2-.6 4.3-.8 6.5-5 1.2-9.8 3.3-15 3.8-5.1.1-8.1-6.5-5.4-10.6zM155.3 102.1c11.3-.2 22.6-.1 33.9 0 0 6.1 0 12.2.1 18.3 6 .1 12 .1 18.1.1.4 5.2.4 10.4.1 15.6-11 0-22 .1-33-.1-.1-6.2 0-12.5-.2-18.7-6.3-.1-12.6 0-19-.2-.1-5-.2-10 0-15zM124.1 107.3c5-1.3 9.8-3.6 15-4 4.8-.6 8.2 5.6 6.1 9.6-1.1 2.2-3.2 4.4-5.8 4.4-5.5.1-10.8-1.9-15.8-4 .2-2 .4-4 .5-6zM76.5 118c4.4-2.1 9.3-2.9 14-4.2 1 2 2.3 3.8 2.7 6-2.7 3.6-6 6.8-9.3 9.8-2.7 2.7-7.2 1.8-9.7-.6-2.4-3.3-1.8-9.3 2.3-11zM123.1 116.2c5.3 1.2 10.9 1.7 15.9 4 3.8 3.1 2.9 11.3-2.5 12.2-1.7.6-3.7.6-5.2-.4-4.6-2.6-8.1-6.7-11.6-10.7 1.2-1.8 2.3-3.4 3.4-5.1zM6.2 120.5c17.5.1 35.1 0 52.6 0 .2 5.1.5 10.3.3 15.5-17.7.2-35.3 0-53 .1-.2-5.2-.2-10.5.1-15.6z"/><path d="M155.3 120.5c5.1-.1 10.3-.1 15.4.1.1 5.9.1 11.9.2 17.8 12.4.5 24.9-.5 37.4.5.3 11.3.4 22.7-.1 34-5.4.3-10.7.2-16.1.2-.1-6.1-.1-12.2-.1-18.3-12.2-.5-24.5 0-36.7-.2-.2-11.4-.1-22.7 0-34.1zM85.9 130.7c2.7-3.3 5.9-6.1 9.1-8.8 2 1.2 3.9 2.4 5.9 3.6-1.1 4.8-1.9 9.7-4.1 14.2-1.8 4-8.1 5.2-11.1 1.8-2.6-2.9-2.3-7.8.2-10.8zM112.1 126.3c2.1-1.1 4.1-2.2 6.1-3.3 3.5 3.9 7.7 7.1 11.1 11 3.3 5.4-4.8 13.2-10 8.9-4.9-3.9-5.5-10.9-7.2-16.6zM103.4 126.4c2.1.1 4.3.2 6.4.3 1.4 5.2 4.1 10.3 3.8 15.9-.7 6.2-10.4 7.6-12.9 1.9-1.7-6.1.7-12.3 2.7-18.1zM6.8 139.4c17.2-.2 34.3-.1 51.4-.1.3 5.1.3 10.2 0 15.3-11.7 0-23.3-.1-35 0-.4 1-.9 2.1-1.3 3.1 12.1.2 24.2-.1 36.4.1.2 11.3.2 22.7 0 34-4.8 0-9.6 0-14.4-.1-.2-6.2-.2-12.5-.1-18.7-12.6-.5-25.1 0-37.7-.2.1-11 .3-22.2.7-33.4zM117.6 157.8c5.4 0 10.9 0 16.3-.1.2 17.5.1 34.9.1 52.4-5.4.2-10.7.2-16.1.4-1.1-7.1-.5-14.3-.3-21.4-.3-10.5-.6-20.9 0-31.3z"/><path d="M62.5 158c11.5-.3 23-.2 34.5-.1.2 5.2.2 10.4-.3 15.5-6.3.5-12.6.5-18.9.5-.3 12 0 24-.1 36-11.4.4-22.8.3-34.2.1v-15.9c6.3 0 12.5-.1 18.8-.2.4-11.9.1-23.9.2-35.9z"/><path d="M99.1 158c5.3-.2 10.6-.2 15.9 0 0 11.3.2 22.6-.1 33.9-6.2.4-12.5.4-18.7.3-.1 6-.1 12-.1 18-5 .1-10 .1-15.1-.1-.1-11.3-.2-22.6.1-33.9 6.1-.1 12.1-.1 18.1-.2 0-6-.2-12-.1-18zM136.9 157.9c5.2-.2 10.5-.2 15.7 0 .4 11.9.1 23.9.1 35.8l2.4.4c.2-12.1 0-24.1.1-36.2 11.3-.1 22.6-.2 34 0 0 4.9.5 9.9-.2 14.7-.3.2-.9.8-1.2 1-5.5.7-11 .1-16.5.3-.1 12 0 24.1-.1 36.1-11.4.2-22.9.2-34.3 0-.3-17.3-.3-34.7 0-52.1z"/></g></svg>