<svg xmlns="http://www.w3.org/2000/svg" viewBox="0 0 2183 2500"><path d="M1968.1 12.6c41-7.1 83.2-11.5 124.6-5.2 26.3 4.2 53.6 14 70.8 35.4 15.1 18.3 19.5 43.1 17.6 66.3-2.9 34.3-15.8 66.7-30.9 97.3-24.8 49.2-56.6 94.4-90.5 137.7-48.2 61.1-101.3 118.1-156.7 172.7-74.4 73.4-153.1 142.2-234.3 208-6.1 4.8-12.2 9.8-18.3 14.7h-19.3c62.2-50.1 122.6-102.6 179.9-158.3 50-48.7 97.8-99.8 140.8-154.8 25.5-32.9 49.4-67.1 68.9-104 13.5-26 25.2-53.4 29.6-82.6 3-21 1.1-44.1-11.7-61.8-13.2-18.6-35.6-27.9-57.3-31.9-38.7-6.9-78.4-2-116.8 5-80.6 15.9-158 44.6-233.4 76.7-148.8 64.3-290.2 144.8-426.1 232.9-126.9 82.8-249 172.9-364 271.5-67.2 57.7-132 118.4-192.1 183.6-44.1 48.1-86.1 98.6-120.8 154-19.4 31.6-37.2 65-45.8 101.4-5.2 22.8-6.1 48.5 6.2 69.4 11.1 19.1 31.9 30.1 52.8 35 38.2 8.8 77.8 4.5 116-1.9 73.1-13.3 143.5-38 212.2-65.8 43.6-17.8 86.5-37.4 128.9-58.1 0 5.7 0 11.4.1 17.1-74.4 38.9-150.4 74.9-228.2 106.5-73.8 29.7-149.3 56-227.2 72.1-43.2 8.6-87.6 14.5-131.7 10-26.5-3-54-10.3-74-28.9-15.7-14.2-24.1-35.2-25.2-56.2-1.8-30.9 7.5-61.2 19.1-89.5 13.6-32.4 31.4-62.9 50.6-92.3 6.3-9.2 12.5-18.5 19-27.6 47-65.5 100.6-125.9 156.8-183.6 121-123.5 254-234.7 392.4-338.2 130.9-97.4 267.1-187.8 408.3-269.6 81.6-47.2 164.9-91.4 250.2-131.4 69.9-32.7 141.3-62.6 214.5-87.2 47.3-15.8 95.7-29.6 145-38.4z" fill="#2e4057"/><path d="M1668.8 724.8c43.4-3.7 87.1-4.6 130.7-4.6 54 .5 108.2 3.4 161.6 12.4 37.4 6.6 74.9 15.8 108.8 33.3 22.5 11.9 44.3 28.7 54.5 52.8 9.5 21.9 6.6 47.1-2.5 68.7-12.7 30.1-34.1 55.6-56.8 78.7-38.8 38.6-83.3 70.9-129.2 100.6-98.8 63.4-204.8 114.8-312.7 160.9-166.1 70.4-337.8 127.2-512 174-184.9 49.2-373.1 87.5-563.6 107.1-104.5 10.3-210 15.8-314.8 6.7-51.8-5-104.2-13-152.5-33.1-26.4-11.4-52.8-27.3-67.5-52.9-12.8-21.8-12.1-49.1-3.1-72.2 12.5-32.8 35.7-60.2 60.2-84.8 53.5-52.3 116.5-93.8 180.8-131.7 48.8-28.9 99.6-54.1 150.2-79.7-6.5 9.1-12.7 18.3-19 27.6-47.8 28.2-94.9 58.2-137.1 94.6-24.4 21.3-47.8 44.7-64.2 73-10.8 18.8-18.2 41.3-12.9 63 4.5 19.7 19.2 35.4 35.7 46.3 25.4 16.7 55 25.5 84.5 32 54.8 11.6 111 14.2 166.9 14.5 107.6-.7 214.9-12.6 321.1-29.8 173.9-28.6 345.3-71.8 512.9-126.4 147.5-48.8 292.9-106.1 429.3-181 56.3-31.4 111.4-65.7 160.3-107.9 24.7-21.8 48.4-45.7 64.4-74.7 10.3-18.8 16.7-41.2 10.6-62.4-5.8-21.1-22.8-36.8-41-47.7-29-16.9-62-25.4-94.8-31.4-55-9.8-111.1-11.6-166.9-11.1 5.9-5 11.9-10 18.1-14.8z" fill="#2e4057"/><g fill="#2e4057"><path d="M1488.9 1889.6c25.2-11.7 50.5-23.3 75.7-34.9v414.4c-25.2 11.7-50.4 23.4-75.7 35-.1-138.1-.1-276.3 0-414.5zm-803.7 0c25.2-10.8 50.3-21.6 75.5-32.3.1 141.5 0 283.1.1 424.6.8 16.4-4.9 33.1-15.9 45.3-7.5 8.5-17.5 14.3-27.8 18.7-81.3 37.4-162.3 75.5-243.5 113.2-25.9 11-54 18.2-82.3 16.8-20.2-.9-40.8-8.2-55-23-15.6-15.8-22.5-37.6-26.8-58.8-5.9-31.8-4.8-66.1 10.1-95.3 11.6-23.2 32.1-41.1 55.4-51.9 77-36.1 154-72.3 231.1-108.3-.1 27.7.2 55.4-.1 83.1-70.7 33.6-141.3 67.5-211.9 101.2-11.4 5.2-22.3 12.6-28.9 23.5-7.9 12.6-8.1 29.6-.4 42.3 6.9 10.8 20.7 14 32.8 14.1 11.1-.3 22.5-1.6 33-5.7 85.1-39.9 170.1-80 255.2-119.9-.2-129.3-.5-258.5-.6-387.6zm390.6 0c25.1-11.2 50.3-22.2 75.5-33.3.1 137.8-.2 275.6.2 413.3-25 11.5-50.4 22.2-75.6 33.4-.1-137.8-.1-275.6-.1-413.4z"/><path d="M1738.3 1869.7c36.4 22.2 71.7 46.2 105 72.7 20.5 16.7 40.7 34.2 57.3 54.9 6.9 8.9 13.4 18.4 16.9 29.2 2.9 8.1 1.6 16.8 1.8 25.3-.3 8.9.6 17.8-.5 26.6-4 13.4-15.8 22.6-27.4 29.3-39.7 20-79 41-118.6 61.3-.2 14.8 0 29.5-.1 44.3 52.6-24.6 105.2-49.2 157.8-73.7.1 27.8 0 55.7.1 83.6-196.7 92-393.4 183.8-590.1 275.6-.1-28 0-55.9 0-83.9 132.4-61.7 264.7-123.7 397.3-185.1.5-15.5-.1-31 .3-46.5-23 8.1-47.2 16.4-71.9 13.3-15.1-1.6-29.7-9.9-37.2-23.4-11.2-19.5-11.3-43.2-8.3-65 1.5-20 12.9-37.2 23.4-53.6 27.5-40.3 60.3-76.6 94.1-111.6.1-24.3 0-48.8.1-73.3zm33.5 137.9v99.6c20.3-8.3 40.7-17.5 57.4-31.9 7.3-6.7 14.7-15.2 15-25.7-.7-10.9-8.7-19.7-17.7-25-16.6-9.9-35.8-14.1-54.7-17zm-94.5 88.8c-5 5.8-9.2 12.9-9.8 20.7 0 8.1 8.7 11.5 15.5 12.3 18.6 2.1 37.2-2.1 55.2-6.2-.1-29.2-.4-58.5-.3-87.7-20.2 20.1-40.3 40.6-60.6 60.9zm-865.6-2.4c13-22.7 36.8-39.5 63-42.5 31.3-2.3 63.2 5.8 90 22.2 46.4 28.4 73.9 79.1 88.3 130.2 3.5 25.8-1.1 53.7-15.9 75.5-10.2 14.9-25.7 25.4-42.5 31.5-77.7 35.9-155.1 72.1-232.8 108.1-.1-28.1 0-56.1 0-84.1 79-36.9 158-73.7 237-110.6 0-10.1-.1-20.1-.5-30.1-23.6 13.9-48.3 25.8-73.6 36.3-26.1 10.4-53.2 19.8-81.6 21-14.9.5-31.8-2.6-41.6-14.9-9.4-11.5-9.8-27.1-9.3-41.3-1.8-34.5 1.8-70.9 19.5-101.3zm56.8 32.5c-11 2.2-21.4 9.1-26.1 19.5-5.1 11.1-3.9 23.8-1 35.4 31.6-11.9 63-24.4 94.6-36.3-3.1-8.8-10.4-15.6-19.2-18.5-15.6-5.5-32.6-3.5-48.3-.1z"/><path d="M1275.4 2088.3c36.3 22.1 71.5 46.1 104.7 72.6 21.2 17.2 42 35.2 58.9 56.8 9.4 12.4 18.4 26.9 17.5 43.2-.4 11.9.7 23.9-.6 35.7-4.2 14.6-17.4 24.3-30.2 31.2-50.2 24.4-100.2 49.2-150.4 73.5-22.4 9-46.6 16.4-71 14-16.7-1.4-32.6-11.2-39.9-26.5-11-22.3-9.2-48.2-5.2-72 5.2-19.3 16.7-36 27.8-52.3 26.5-36.8 56.8-70.6 88.4-103.1-.1-24.3-.1-48.7 0-73.1zm-1.6 164.1c-21.3 18-42.9 36.6-58 60.4-4.9 8.4-10.7 19.8-4.3 28.9 3.8 7 12.7 8.1 19.9 7.6 18.3-1.6 35.4-8.6 52.2-15.5 39.5-17 76.9-38.4 113.6-60.7-14.4-27.6-38.6-48.9-65-64.9-19.9 14.1-39.5 28.7-58.4 44.2z"/></g></svg>