<svg xmlns="http://www.w3.org/2000/svg" xmlns:xlink="http://www.w3.org/1999/xlink" viewBox="0 0 61 69"><defs><path id="a" d="M0 0h61v69H0z"/></defs><clipPath id="b"><use xlink:href="#a" overflow="visible"/></clipPath><g clip-path="url(#b)" fill-rule="evenodd" clip-rule="evenodd"><path d="M19.2 52.1c.6-.3 1.2-.5 1.9-.8.1 3.2 0 6.5.1 9.7 0 1.6-.5 3.4-2.1 4.3-1.4.7-3 1.3-4.5 1.9-1.6.8-3.8 2-5.5.5-1-1.9-.4-4.8 1.6-5.9 2-1 4.1-1.9 6.3-2.6v2.1c-1.9 1-3.8 1.8-5.7 2.8-.6.3-1.1.9-1.3 1.5 0 1.7 2.4.8 3.2.4 1.6-.9 3.4-1.6 5-2.5.8-.3 1-1.1 1-1.8.1-3.2 0-6.4 0-9.6zM30.2 52c.6-.3 1.2-.6 1.9-.8.1 3.9 0 7.8 0 11.7-.6.3-1.2.6-1.9.8 0-3.8.1-7.7 0-11.7zM41.8 52.1c.6-.3 1.2-.5 1.9-.8v11.4c-.6.3-1.3.6-1.9.8 0-3.8-.1-7.6 0-11.4z" fill="#070204"/><path d="M46.7 59.1c.2-1.1 1-2 1.8-2.8.1.8 0 1.6 0 2.5-.5.2-1.1.4-1.8.3zm3.1-3.6c.7.3 1.4.6 2.1 1-.6.6-1.3 1.3-2 1.8-.1-.9-.1-1.9-.1-2.8zm-1-4.2c-.2.7-.3 1.4-.4 2.2-1.4 1.3-2.8 2.9-3.3 4.8-.2.8-.2 1.7.5 2.3.9.4 2 .3 2.9 0v1.2c-3.6 1.7-7.3 3.4-10.9 5.1V69l16.2-7.5c.1-.9.1-1.9 0-2.8-1.1.5-2.2 1.1-3.3 1.6-.3.2-.7.2-1 0 1-1.1 2.9-1.2 3.6-2.7.3-1 .4-2.3-.4-3-1.2-1-2.4-2.4-3.9-3.3zM24.1 56.6c1.5-.5 2.9.4 4 1.4 1.3 1.2 1.9 3.1 1.2 4.7-.3.8-1.2 1.1-2 1.5-2 .9-4 1.9-6 2.7v-2.1c2-1 4-1.9 6-2.8.4-.2.8-.4 1.1-.7-.1-.2-.2-.5-.4-.7-1.5.4-2.7 1.3-4.2 1.6-.6.2-1.3-.2-1.5-.9-.4-1.6 0-3.9 1.8-4.7zm-.6 3.6c1-.3 2-.8 3-1.3-.5-.2-1.2-.6-1.7-.3-.8.3-1.1 1-1.3 1.6z" fill="#070204"/><path d="M33.3 65c.8-1.7 2.4-2.8 3.7-4.1.7.6 1.4 1.3 2 1.9-1.4.9-3 1.7-4.6 2.2-.3.2-.7.1-1.1 0zm2.6-7.4c-.2.7-.3 1.4-.4 2.1-1.5 1.5-3.3 3.3-3.4 5.6-.1 1.2 1.2 2.1 2.3 1.8 1.4-.4 2.8-1.1 4.1-1.8.8-.4 1.7-.9 1.9-1.8.1-.8.2-1.9-.5-2.5-1.3-1.2-2.5-2.5-4-3.4z" fill="#070204"/><path d="M28.4 31.5c-2.9 1.1-5.5 2.6-8.8 3.2-7.1 1.9-9-.9-2.4-8.5C26.8 16.4 38.7 9.5 49.1 5c6.2-2.2 9.7-1.4 7.6 3.3-2.5 4.9-7.1 8.3-10.5 12 .1.1.2.1.3.2 3.9-3.6 9-7.4 12.3-12.4C63 2 61.7-2.3 49.9 1.6c-7 2.3-13.8 6.1-21 11-5.2 3.6-10.4 7.6-15.1 13.2-9 10.5-4.6 13.6 3.1 11.3 4.4-1.4 8.6-3 11.5-5.6z" fill="#faa41a"/><path d="M10.8 29.6l-.2.3c-1.1.9-2.1 1.6-3.5 2.7-4.5 3.5-3.2 6.6 6.9 6.6 12.3-.8 24.4-5 34.2-9.7 6.3-3.6 8.1-6.2 5.5-7.9-2.3-1.3-4.8-1.1-7.2-1.2.2-.2.4-.3.6-.5 2.5-.1 12.2-.1 12.7 3.1.3 1.9-1.7 4.9-9.5 8.7-5.7 2.8-11.8 5.2-17.9 6.9-7.6 2.2-15.2 3.4-22.1 3.4-14.3-.4-11.1-5.3-5.8-9.1 2.4-1.7 4.5-2.7 6.3-3.3z" fill="#fff"/></g></svg>