<svg xmlns="http://www.w3.org/2000/svg" id="Group_3295" width="64.146" height="46.969" viewBox="0 0 64.146 46.969">
    <defs>
        <style>
            .cls-1{fill:#d1d4df}.cls-2{fill:#f0f3f8}
        </style>
    </defs>
    <path id="Path_5517" d="M.289 0H12l-.02 35.246-11.77-.123z" class="cls-1" transform="translate(34 7)"/>
    <path id="Path_4712" d="M517.329 408.343a1.324 1.324 0 0 1-1.323 1.323h-8.585a1.324 1.324 0 0 1-1.323-1.323V376.4a1.324 1.324 0 0 1 1.323-1.323h8.585a1.324 1.324 0 0 1 1.323 1.323v3.78h1.889v-3.78a3.216 3.216 0 0 0-3.212-3.212h-8.585a3.216 3.216 0 0 0-3.212 3.212v31.938a3.216 3.216 0 0 0 3.212 3.212h8.585a3.216 3.216 0 0 0 3.212-3.212v-5.89h-1.889z" class="cls-2" transform="translate(-471.446 -367.577)"/>
    <path id="Path_5516" d="M.289 0H12l-.02 35.246-11.77-.123z" class="cls-1" transform="translate(18 7)"/>
    <path id="Rectangle_2963" d="M0 0H1.89V9.534H0z" class="cls-2" transform="translate(45.883 18.975)"/>
    <path id="Path_4713" d="M416.034 373.192h-8.585a3.216 3.216 0 0 0-3.212 3.212v3.78h1.89V376.4a1.324 1.324 0 0 1 1.323-1.323h8.585a1.324 1.324 0 0 1 1.323 1.323v31.938a1.324 1.324 0 0 1-1.323 1.323h-8.585a1.324 1.324 0 0 1-1.323-1.323v-5.89h-1.89v5.89a3.216 3.216 0 0 0 3.212 3.212h8.585a3.216 3.216 0 0 0 3.212-3.212V376.4a3.216 3.216 0 0 0-3.212-3.208z" class="cls-2" transform="translate(-387.863 -367.577)"/>
    <path id="Rectangle_2964" d="M0 0H1.89V9.534H0z" class="cls-2" transform="translate(16.374 18.975)"/>
    <path id="Path_4714" d="M325.424 371.361v-1.455a.567.567 0 0 0-.567-.567h-5.8v-13.313h5.8a.567.567 0 0 0 .567-.567V354a.567.567 0 0 0-.567-.567h-5.8v-12.225a2.274 2.274 0 0 0-2.267-2.267h-10.16a2.274 2.274 0 0 0-2.267 2.267v44.7h14.694v-13.981h5.8a.567.567 0 0 0 .567-.566z" class="cls-2" transform="translate(-304.363 -338.941)"/>
    <path id="Path_4715" d="M585.964 338.941H575.8a2.274 2.274 0 0 0-2.267 2.267v12.229h-5.8a.567.567 0 0 0-.567.567v1.455a.567.567 0 0 0 .567.567h5.8v13.313h-5.8a.567.567 0 0 0-.567.567v1.455a.567.567 0 0 0 .567.567h5.8v13.982h14.694v-44.7a2.274 2.274 0 0 0-2.263-2.269zm-1.382 13.218a1.282 1.282 0 0 1-1.278 1.279h-4.839a1.282 1.282 0 0 1-1.279-1.279v-7.92a1.282 1.282 0 0 1 1.279-1.279h4.835a1.282 1.282 0 0 1 1.278 1.279z" class="cls-2" transform="translate(-524.085 -338.941)"/>
    <path id="Rectangle_2965" d="M0 0H4.684V0.863H0z" class="cls-2" transform="translate(54.457 6.238)"/>
    <path id="Rectangle_2966" d="M0 0H4.684V3.944H0z" class="cls-2" transform="translate(54.457 8.58)"/>
    <path id="Path_4716" d="M436.418 440.436q-.743.812-1.42 1.675t-1.292 1.776a16.662 16.662 0 0 0-1.122 1.909 16.666 16.666 0 0 0 1.59-1.542q.743-.812 1.419-1.676t1.292-1.776a16.9 16.9 0 0 0 1.123-1.909 16.853 16.853 0 0 0-1.59 1.543z" class="cls-2" transform="translate(-411.562 -422.507)"/>
    <path id="Path_4717" d="M531.665 453.455q-.743.812-1.42 1.675t-1.293 1.776a16.671 16.671 0 0 0-1.122 1.909 16.674 16.674 0 0 0 1.59-1.542q.743-.812 1.419-1.676t1.292-1.776a16.9 16.9 0 0 0 1.123-1.909 16.877 16.877 0 0 0-1.589 1.543z" class="cls-2" transform="translate(-491.194 -433.391)"/>
    <path id="Path_4718" d="M531.665 486.538q-.743.811-1.42 1.675t-1.293 1.775a16.674 16.674 0 0 0-1.122 1.909 16.667 16.667 0 0 0 1.59-1.542q.743-.811 1.419-1.676t1.292-1.776a16.9 16.9 0 0 0 1.123-1.909 16.869 16.869 0 0 0-1.589 1.544z" class="cls-2" transform="translate(-491.194 -461.051)"/>
    <path id="Path_4719" d="M436.418 474.207q-.743.812-1.42 1.675t-1.292 1.776a16.662 16.662 0 0 0-1.122 1.909 16.667 16.667 0 0 0 1.59-1.542q.743-.811 1.419-1.676t1.292-1.776a16.9 16.9 0 0 0 1.123-1.909 16.853 16.853 0 0 0-1.59 1.543z" class="cls-2" transform="translate(-411.562 -450.741)"/>
</svg>
