<svg xmlns="http://www.w3.org/2000/svg" viewBox="0 0 24 38.7"><g fill="none" stroke="#2e4057" stroke-width="1.3" stroke-miterlimit="10"><path d="M9.561 31.496h-1.6M6.361 31.496h-1.7M12.861 31.496h-1.7M16.061 31.496h-1.6M19.361 31.496h-1.6"/></g><g fill="#ffa300"><path d="M19.5 22.3c-.3 0-.5.3-.4.6.1.6-.3 1.1-.9 1.2h-.3c-.3 0-.5.2-.6.4 0 .3.2.5.4.6h.6c1.1-.1 1.9-1.2 1.8-2.3-.1-.3-.4-.5-.6-.5zM19.3 10.1c-.4-.3-1-.5-1.5-.4-.3 0-.5.3-.4.6s.3.5.6.4c.3 0 .5 0 .8.2.2.2.4.4.4.7v.3c0 .3.2.5.4.6h.1c.2 0 .5-.2.5-.4v-.5c-.2-.7-.5-1.2-.9-1.5zM5 12.5c.4-.1.5-.3.5-.6-.1-.3 0-.6.2-.8.2-.2.4-.4.7-.4h.3c.3 0 .5-.2.5-.5s-.2-.5-.5-.5h-.6c-.5.1-1 .4-1.3.9s-.4 1-.3 1.5c0 .2.2.4.5.4zM6.6 24c-.6.1-1.1-.3-1.2-.9v-.3c0-.3-.1-.5-.4-.6-.3 0-.5.1-.6.4v.6c.1 1 1 1.8 2 1.8h.3c.3 0 .5-.3.4-.6 0-.2-.2-.4-.5-.4zM11 13c0 .1.1.2.2.2h.2c.1 0 .2-.1.2-.2v-.3h1.7c.1 0 .2-.1.2-.2v-.2c0-.1-.1-.2-.2-.2h-2.1c-.1 0-.2.1-.2.2v.7zM12.3 13.2h-.6c-.1 0-.2.1-.2.2v.2c0 .1.1.2.2.2h.6c.1 0 .2-.1.2-.2v-.2c0-.2-.1-.2-.2-.2zM13.3 13.6h-.2c-.1 0-.1.1-.1.1v.3c0 .1.1.1.1.1h.2c.1 0 .1-.1.1-.1v-.2c.1-.1 0-.2-.1-.2zM12.8 14.1h-.2c-.1 0-.1.1-.1.1v.2c0 .1.1.1.1.1h.2c.1 0 .1-.1.1-.1v-.2c.1 0 0-.1-.1-.1zM13.3 14.6h-.2c-.1 0-.2.1-.2.2V16c0 .1.1.2.2.2h.2c.1 0 .2-.1.2-.2v-1.1c-.1-.2-.1-.3-.2-.3z"/><path d="M11.2 15.6h.2c.1 0 .2-.1.2-.2v-.3h.3c.1 0 .2-.1.2-.2v-.6c0-.1-.1-.2-.2-.2h-.3v-.3c0-.1-.1-.2-.2-.2h-.2c-.1 0-.2.1-.2.2v1.6c0 .2.1.2.2.2zM10.1 16.6h.2c.1 0 .1-.1.1-.1v-.2c0-.1-.1-.1-.1-.1h-.2c-.1 0-.1.1-.1.1v.2l.1.1zM10.5 16.7v.3c0 .1.1.1.1.1h.2c.1 0 .1-.1.1-.1v-.2c0-.1-.1-.1-.1-.1h-.2c0-.1-.1 0-.1 0zM13.4 16.6h-.9v-1.3c0-.1-.1-.2-.2-.2h-.2c-.1 0-.2.1-.2.2v.7c0 .1-.1.1-.1.1h-.2c-.1 0-.2.1-.2.2v.2c0 .1.1.2.2.2h.4v.3c0 .1.1.2.2.2h.8v.8c0 .1.1.2.2.2h.2c.1 0 .2-.1.2-.2v-.3h.3c.1 0 .2-.1.2-.2v-.6c0-.1-.1-.2-.2-.2l-.5-.1zM9.2 17.6h.2c.1 0 .1-.1.1-.1v-.2c0-.1-.1-.1-.1-.1h-.2c-.1 0-.1.1-.1.1v.2c-.1 0 0 .1.1.1zM10 17.2v.2c0 .1.1.1.1.1h.2c.1 0 .1-.1.1-.1v-.2c0-.1-.1-.1-.1-.1h-.2l-.1.1zM11 17.2v.2c0 .1.1.1.1.1h.2c.1 0 .1-.1.1-.1v-.2c0-.1-.1-.1-.1-.1h-.2c-.1 0-.1.1-.1.1zM7.2 18.1h.2c.1 0 .2-.1.2-.2v-.8h1.2c.2 0 .2-.1.2-.2v-.6c0-.1-.1-.2-.2-.2h-.1c-.1 0-.2.1-.2.2v.2c0 .1-.1.1-.1.1H7.2c-.1 0-.2.1-.2.2v1.1c0 .1.1.2.2.2zM8.2 18.1h.2c.1 0 .1-.1.1-.1v-.2c0-.1-.1-.1-.1-.1h-.2c-.1 0-.1.1-.1.1v.2c-.1 0 0 .1.1.1zM8.7 18.6h.2c.1 0 .1-.1.1-.2v-.2c0-.1-.1-.1-.1-.1h-.2c-.1 0-.1.1-.1.1v.2c-.1.1 0 .2.1.2zM11 18.6v.3c0 .1.1.2.2.2h.2c.1 0 .2-.1.2-.2v-.6c0-.1-.1-.2-.2-.2H10v-.3c0-.1-.1-.2-.2-.2h-.1c-.1 0-.2.1-.2.2v.6c0 .1.1.2.2.2H11z"/><path d="M13.9 18.4v-.2c0-.1-.1-.1-.1-.1h-.2c-.1 0-.1.1-.1.1v.2c0 .1.1.1.1.1h.2c.1.1.1 0 .1-.1zM13 19.6h.3c.1 0 .2-.1.2-.2v-.6c0-.1-.1-.2-.2-.2H13v-.3c0-.1-.1-.2-.2-.2h-.3v-.3c0-.1-.1-.2-.2-.2h-.2c-.1 0-.2.1-.2.2v1.1c0 .1-.1.1-.1.1h-.2c-.1 0-.2.1-.2.2v.6c0 .1.1.2.2.2h.2c.1 0 .2-.1.2-.2v-.3h.5l.5.1zM14.3 19.1h-.2c-.1 0-.1.1-.1.1v.2c0 .1.1.1.1.1h.2c.1 0 .1-.1.1-.1v-.2c0-.1 0-.1-.1-.1zM14.4 19.9c0 .1.1.1.1.1h.2c.1 0 .1-.1.1-.1v-.2c0-.1-.1-.1-.1-.1h-.2c-.1 0-.1.1-.1.1v.2z"/><path d="M17.4 21.4V19.2c0-.1-.1-.2-.2-.2h-.3v-.3c0-.1-.1-.2-.2-.2h-.2c-.1 0-.2.1-.2.2v.2c0 .1-.1.1-.1.1h-.4v-.5h.3c.1 0 .2-.1.2-.2V18h.5v.3c0 .1.1.2.2.2h.2c.1 0 .2-.1.2-.2v-.6c0-.1-.1-.2-.2-.2h-.3V17h.3c.1 0 .2-.1.2-.2v-.6c0-.1-.1-.2-.2-.2h-.6c-.1 0-.2.1-.2.2v.8c0 .1-.1.1-.1.1h-.4v-.8c0-.1-.1-.2-.2-.2h-1.1c-.1 0-.2.1-.2.2V18.9c0 .1.1.2.2.2h.3v.3c0 .1.1.2.2.2h.3v.3c0 .1.1.2.2.2h1.3v.5h-.8c-.1 0-.2.1-.2.2v1.5c0 .1.1.2.2.2h.6c.1 0 .2-.1.2-.2v-.2c0-.1-.1-.2-.2-.2h-.3V21h.5v.3c0 .1.1.2.2.2h.2l.1-.1zm-2-3.3v.5h-.5v-.5h.5zm0-1h-.5v-.5h.5v.5zM12 21.5v-.8c0-.1-.1-.2-.2-.2h-.6c-.1 0-.2.1-.2.2v.2c0 .1.1.2.2.2h.3v.8c0 .1.1.2.2.2h.2c.1 0 .2-.1.2-.2v-.4zM15.2 21.5h-1.8V21h.3c.1 0 .2-.1.2-.2v-.3h.3c.1 0 .2-.1.2-.2v-.2c0-.1-.1-.2-.2-.2h-.6c-.1 0-.2.1-.2.2v.2c0 .1-.1.1-.1.1h-.2c-.1 0-.2.1-.2.2v1.7c0 .1.1.2.2.2h.2c.1 0 .2-.1.2-.2V22H15v.3c0 .1.1.2.2.2h.2c.1 0 .2-.1.2-.2v-.6c-.2-.1-.3-.2-.4-.2z"/><path d="M12.3 22h-.2c-.1 0-.1.1-.1.1v.2c0 .1.1.1.1.1h.2c.1 0 .1-.1.1-.1v-.2c.1 0 0-.1-.1-.1zM7 14.5c0 1 .2 1.2 1.2 1.2h1.1c1 0 1.2-.2 1.2-1.2v-1.1c0-1-.2-1.2-1.2-1.2h-1c-1 0-1.2.2-1.2 1.2v1.1zm.6-1.1c0-.5.1-.6.1-.6s.1-.1.6-.1h1.1c.5 0 .6.1.6.1s.1.1.1.6v1.1c0 .5-.1.6-.1.6s-.1.1-.6.1H8.3c-.5 0-.6-.1-.6-.1s-.1-.1-.1-.6v-1.1z"/><path d="M8.6 14.7h.5c.4 0 .5-.1.5-.5v-.5c0-.4-.1-.5-.5-.5h-.5c-.4 0-.5.1-.5.5v.5c0 .4.1.5.5.5zM15.1 15.7h1.1c1 0 1.2-.2 1.2-1.2v-1.1c0-1-.2-1.2-1.2-1.2h-1.1c-1 0-1.2.2-1.2 1.2v1.1c0 1 .2 1.2 1.2 1.2zm-.7-2.3c0-.5.1-.6.1-.6s.1-.1.6-.1h1.1c.5 0 .6.1.6.1s.1.1.1.6v1.1c0 .5-.1.6-.1.6s-.1.1-.6.1h-1.1c-.5 0-.6-.1-.6-.1s-.1-.1-.1-.6v-1.1z"/><path d="M15.4 14.7h.5c.4 0 .5-.1.5-.5v-.5c0-.4-.1-.5-.5-.5h-.5c-.4 0-.5.1-.5.5v.5c0 .4.1.5.5.5zM9.1 20h-.5c-.4 0-.5.1-.5.5v.5c0 .4.1.5.5.5h.5c.4 0 .5-.1.5-.5v-.5c0-.4-.1-.5-.5-.5z"/><path d="M9.4 19H8.3c-1 0-1.2.2-1.2 1.2v1.1c0 1 .2 1.2 1.2 1.2h1.1c1 0 1.2-.2 1.2-1.2v-1.1c0-1-.2-1.2-1.2-1.2zm.7 2.3c0 .5-.1.6-.1.6s-.2.1-.6.1H8.3c-.5 0-.6-.1-.6-.1s-.1-.1-.1-.6v-1.1c0-.5.1-.6.1-.6s.1-.1.6-.1h1.1c.5 0 .6.1.6.1s.1.1.1.6v1.1z"/></g><path d="M15.3.6V1c0 1.8-1.5 3.2-3.2 3.2S8.8 2.9 8.8 1.1V.6H2.3C1.4.6.7 1.3.7 2.2c0 0 0 0 0 0v27.6l1.2 1.6L.7 33v3.2c0 .9.7 1.6 1.6 1.6 0 0 0 0 0 0h19.5c.9 0 1.6-.7 1.6-1.6 0 0 0 0 0 0V33l-1.6-1.6 1.6-1.6V2.3c0-.9-.7-1.6-1.6-1.6 0 0 0 0 0 0h-6.5z" fill="none" stroke="#2e4057" stroke-width="1.3" stroke-linejoin="round"/></svg>