<svg xmlns="http://www.w3.org/2000/svg" viewBox="0 0 324 324"><g fill="#2e4057"><path d="M92.5 53.8L105 21.6h156.1l47.5 259.3s6 22.5-7 32l-271 .1s-14.6 0-14.2-19.9V240c.8-8.6 3-16.9 6.4-24.8L89 65.8l115.6.2v28.4l-101.6.3-59.4 133.9s-2.8 8.7 5.7 8.7c8.1 0 85.2.2 85.2.2s9 0 9 8.4c-.1 5.6.2 11.2.7 16.7 0 0 .8 4.9 8.5 4.9 10.6 0 103.5-.1 103.5-.1s19.9.8 15-22.6L244.4 71.2s-1.1-17.5-12.6-17.5l-139.3.1z"/><path d="M246.2 177.3c-1.5-5.5-4.9-9.1-10.2-10.2h-68.2c-5.6 0-10.2 4.6-10.2 10.2v65c0 5.6 4.6 10.2 10.2 10.2h78.4c5.6 0 10.2-4.6 10.2-10.2l-10.2-65z"/></g></svg>