<?xml version="1.0" encoding="utf-8"?>
<!-- Generator: Adobe Illustrator 21.0.0, SVG Export Plug-In . SVG Version: 6.00 Build 0)  -->
<svg version="1.1" id="Layer_1" xmlns="http://www.w3.org/2000/svg" xmlns:xlink="http://www.w3.org/1999/xlink" x="0px" y="0px"
	 viewBox="0 0 154.4 63.5" style="enable-background:new 0 0 154.4 63.5;" xml:space="preserve">
<style type="text/css">
	.st0{fill:#66CBE2;}
	.st1{fill:#469FC1;}
	.st2{fill:#B2BDCE;}
	.st3{fill:#E2E7EF;}
	.st4{fill:#50547C;}
	.st5{fill:#3F4164;}
	.st6{fill:#5A628C;}
	.st7{fill:#31344C;}
	.st8{fill:#FFFFFF;}
	.st9{fill:#FF648D;}
	.st10{fill:#FFEC7B;}
</style>
<g id="Group_2954">
	<g id="Group_2724" transform="translate(130.014 4.081)">
		<g id="Group_2723">
			<g id="Group_2722">
				<g id="Group_2721">
					<path id="Path_3236" class="st0" d="M-47.7,0.9c-0.2,0-0.5-0.2-0.5-0.4S-48,0-47.8,0c0,0,0,0,0.1,0c0.2,0,0.5,0.2,0.5,0.4
						S-47.4,0.9-47.7,0.9C-47.7,0.9-47.7,0.9-47.7,0.9z"/>
				</g>
			</g>
		</g>
	</g>
	<g id="Group_2727" transform="translate(117.492 .177)">
		<g id="Group_2726">
			<g id="Group_2725">
				<path id="Path_3237" class="st1" d="M-34,10.4l-0.4-1c0,0,0,0,0,0c0,0,0-0.1,0-0.1V9.2V9c0,0,0,0,0-0.1c0,0,0,0,0-0.1
					c0,0,0,0,0-0.1c0,0,0,0,0-0.1c0,0,0,0,0,0s0,0,0,0c0,0,0-0.1,0-0.1c0,0,0,0,0,0c0,0,0,0,0-0.1c0,0,0,0,0-0.1c0,0,0,0,0-0.1
					c0,0,0,0,0-0.1c0,0,0,0,0,0c0,0,0-0.1-0.1-0.1c0,0,0,0,0,0c0,0-0.1-0.1-0.1-0.1c0,0,0,0,0,0C-34.9,8-34.9,7.9-35,7.9
					c-0.1-0.1-0.3-0.3-0.5-0.3c-0.1-0.1-0.2-0.1-0.4-0.2c0.1-0.1,0.2-0.2,0.2-0.4c0-0.2-0.2-0.4-0.5-0.4V4.7c0.4,0,0.7-0.3,0.7-0.7
					V3.6c0.2-0.2,0.4-0.4,0.4-0.7c0-0.2-0.1-0.3-0.1-0.5c0-0.1-0.1-0.2-0.2-0.3l0.1-0.1c0.2-0.1,0.2-0.4,0.1-0.6c0,0,0,0,0,0
					c-0.2-0.2-0.4-0.2-0.6,0C-36,1.1-36.3,1-36.6,1h-0.6c-0.2-0.3-0.6-0.5-1-0.5h-1.1c-0.5,0.1-0.9,0.4-1.2,0.8
					c0-0.3,0.2-0.6,0.4-0.9c0.3-0.2,0.6-0.4,1-0.4H-40c-0.4,0-0.7,0.1-1,0.4c-0.3,0.2-0.4,0.6-0.4,0.9c0,0.7,0.6,1.2,1.2,1.3
					c0,0,0.1,0,0.1,0v2c0,0.5,0.5,1,1,0.9h0.5v1.4c-0.2,0-0.3,0.2-0.4,0.3l-0.4,0.1c-0.2,0.1-0.3,0.3-0.2,0.5c0,0,0,0,0,0
					c0.1,0.1,0.1,0.2,0.3,0.2c-0.3,0.4-0.4,0.9-0.3,1.3l0,0.2l-2,1.6l-1.2,0.5c-0.3-0.2-0.7-0.4-1-0.4c-0.1,0-0.2,0-0.2,0l-0.1,0
					c0,0,0-0.1,0-0.2c0-0.2-0.2-0.4-0.5-0.4c0,0,0,0,0,0h0c-0.1-0.1-0.2-0.2-0.4-0.2H-45c-0.4,0-0.8,0.1-1.1,0.2
					c-1.2,0.4-2,1.6-2.1,2.9c0,0.5,0.1,1,0.4,1.5c0,0,0,0,0,0h4.7c0.6,0,1.1,0,1.7-0.1c0.1,0,0.2,0,0.3,0c0.1,0,0.1,0,0.2,0l0.1,0
					c0,0,0.1,0,0.1,0l0.1,0l0.3-0.1c0,0,0.1,0,0.1,0c0,0,0,0,0.1,0c0.1,0,0.1,0,0.2,0c0,0,0.1,0,0.1,0l0.1,0l0.1,0
					c0.1,0,0.1,0,0.2-0.1c0,0,0.1,0,0.1,0s0.1,0,0.2-0.1s0.1,0,0.2-0.1l0.1,0c0.1,0,0.2-0.1,0.3-0.1l0.1,0c0.1,0,0.2-0.1,0.4-0.2
					c0.1,0,0.2-0.1,0.2-0.1s0.1-0.1,0.2-0.1c0.1,0,0.2-0.1,0.3-0.1c0.1-0.1,0.2-0.1,0.3-0.2l0,0l0.2-0.1c0.1,0,0.1-0.1,0.2-0.1
					c0.1,0,0.1-0.1,0.2-0.1s0.1-0.1,0.2-0.1c0.1-0.1,0.2-0.2,0.3-0.2c0,0,0.1,0,0.1-0.1c0,0,0.1-0.1,0.1-0.1l0.1-0.1l0,0l0,0
					c0,0,0.1,0,0.1-0.1c0.1-0.1,0.1-0.1,0.2-0.2l0.1-0.1c0.1-0.1,0.2-0.2,0.3-0.3s0.2-0.2,0.3-0.3l0,0c0.1-0.1,0.1-0.1,0.2-0.2
					c0,0,0,0,0,0l0.1-0.1c0,0,0,0,0,0l0,0c0,0,0,0,0,0c0.1-0.1,0.1-0.2,0.2-0.2s0.1-0.2,0.2-0.3L-34,10.4z M-45,14.3
					c0-0.1,0.1-0.2,0.1-0.2c0.2,0.1,0.3,0.1,0.5,0.2c0,0,0.1,0.1,0.1,0.1l-0.6,0.2c-0.1,0-0.1,0-0.2,0l-0.1,0
					C-45,14.4-45,14.4-45,14.3L-45,14.3z M-46.6,14.8L-46.6,14.8c-0.1-0.3-0.2-0.6-0.2-0.9c0-0.6,0.3-1.2,0.7-1.6
					c0.2-0.2,0.4-0.3,0.7-0.4c0.1,0,0.2-0.1,0.2-0.1c-0.1,0.1-0.1,0.1-0.2,0.2c-0.3,0.4-0.3,0.9-0.1,1.3c-0.2,0.4-0.4,0.8-0.5,1.2
					C-46.2,14.6-46.4,14.7-46.6,14.8L-46.6,14.8z"/>
			</g>
		</g>
	</g>
	<g id="Group_2730" transform="translate(114.165 9.019)">
		<g id="Group_2729">
			<g id="Group_2728">
				<path id="Path_3238" class="st1" d="M-48.2,6.4h8.4V5.1c-0.1-3-2.6-5.2-5.6-5.1l-0.1,0.2C-46.5,2.2-47.4,4.3-48.2,6.4z"/>
			</g>
		</g>
	</g>
	<g id="Group_2733" transform="translate(146.587 3.286)">
		<g id="Group_2732">
			<g id="Group_2731">
				<path id="Path_3239" class="st1" d="M-45.4,9.6c0.2,0,0.3,0,0.5-0.1c0.6-0.2,1-0.8,0.8-1.4c0,0,0-0.1,0-0.1l-1.2-2.8l3.1-3.1
					c0.4-0.4,0.4-1.1,0-1.6c0,0-0.1-0.1-0.1-0.1c-0.5-0.4-1.3-0.4-1.8,0.1l-3.6,3.7c-0.3,0.3-0.4,0.8-0.2,1.2l1.5,3.5
					C-46.4,9.3-45.9,9.6-45.4,9.6L-45.4,9.6z"/>
			</g>
		</g>
	</g>
	<g id="Group_2736" transform="translate(164.027 10.463)">
		<g id="Group_2735">
			<g id="Group_2734">
				<path id="Path_3240" class="st1" d="M-46.9,4.5c0,0,0.1,0,0.1,0l4.7-0.5c0.3,0,0.6-0.2,0.8-0.4l1.6-1.6c0.4-0.4,0.5-1.1,0-1.6
					c0,0-0.1-0.1-0.1-0.1c-0.5-0.4-1.3-0.4-1.8,0.1l-1.3,1.3L-47,2.1c-0.7,0-1.2,0.6-1.2,1.3c0,0,0,0,0,0C-48.1,4-47.5,4.5-46.9,4.5
					z"/>
			</g>
		</g>
	</g>
	<g id="Group_2738" transform="translate(.195)">
		<g id="Group_2737">
			<path class="st2" d="M153.6,46.1c0-0.1-0.1-0.2-0.1-0.3l0-0.1c-0.2-0.7-0.5-1.4-0.7-2.1c-0.1-0.1-0.1-0.3-0.2-0.4
				c-0.8-2.1-1.7-4.2-2.8-6.2c-4.4-8.5-10.7-15.8-18.4-21.5c-0.2-0.1-0.4-0.3-0.6-0.4c-2.9-2.1-5.9-3.9-9-5.6
				c-0.5-0.2-1-0.5-1.4-0.7c-0.2-0.1-0.4-0.2-0.7-0.3c-0.3-0.1-0.6-0.3-0.9-0.4c-3.2-1.5-6.6-2.7-10-3.7c-3.8-1.1-7.7-1.8-11.6-2.3
				c-1.8-0.2-3.6-0.3-5.4-0.4c-0.9,0-1.8-0.1-2.8-0.1H0v61.9h139.3c4.7,0.1,9.1-2,12-5.7c0.8-1.1,1.5-2.3,2-3.6
				c0.1-0.2,0.2-0.5,0.2-0.7l0-0.1c0.1-0.2,0.1-0.5,0.2-0.7c0.1-0.2,0.1-0.5,0.1-0.7c0.1-0.5,0.1-1,0.1-1.6v-0.1
				C154.2,48.9,154,47.5,153.6,46.1z"/>
			<path class="st3" d="M153.6,44.5c0-0.1-0.1-0.2-0.1-0.3l0-0.1c-0.2-0.7-0.5-1.4-0.7-2.1c-0.1-0.1-0.1-0.3-0.2-0.4
				c-0.8-2.1-1.7-4.2-2.8-6.2c-4.4-8.5-10.7-15.8-18.4-21.5c-0.2-0.1-0.4-0.3-0.6-0.4c-2.9-2.1-5.9-3.9-9-5.6
				c-0.5-0.2-1-0.5-1.4-0.7c-0.2-0.1-0.4-0.2-0.7-0.3c-0.3-0.1-0.6-0.3-0.9-0.4c-3.2-1.5-6.6-2.7-10-3.7c-3.8-1.1-7.7-1.8-11.6-2.3
				c-1.8-0.2-3.6-0.3-5.4-0.4C90.8,0,89.8,0,88.9,0H-0.2C-0.1,0.5,0,1,0,1.5v60.4h139.3c4.7,0.1,9.1-2,12-5.7c0.8-1.1,1.5-2.3,2-3.6
				c0.1-0.2,0.2-0.5,0.2-0.7l0-0.1c0.1-0.2,0.1-0.5,0.2-0.7c0.1-0.2,0.1-0.5,0.1-0.7c0.1-0.5,0.1-1,0.1-1.6v-0.1
				C154.2,47.2,154,45.9,153.6,44.5z"/>
		</g>
	</g>
	<g id="Group_2741" transform="translate(184.096 30.21)">
		<g id="Group_2740">
			<g id="Group_2739">
				<path id="Path_3242" class="st4" d="M-47.7,0.9c0.2,0,0.5-0.2,0.5-0.4S-47.4,0-47.6,0c0,0,0,0-0.1,0c-0.2,0-0.5,0.2-0.5,0.4
					S-48,0.9-47.7,0.9C-47.7,0.9-47.7,0.9-47.7,0.9z"/>
			</g>
		</g>
	</g>
	<g id="Group_2742" transform="translate(.132 13.848)">
		<path class="st4" d="M106.2,22.2L106.2,22.2l-1.3-1.7l-1.5-2.1l-3.2-4.4l-3.4-4.6L96.4,9l-1.6-2.1c-0.3-0.4-0.6-0.8-0.9-1.1
			c-1.9-2.1-4.2-3.7-6.8-4.6C85.1,0.4,82.9,0,80.7,0H0.1v27.7h103c0.2,0,0.3,0,0.5,0c0.3,0,0.5-0.1,0.8-0.2c1.2-0.4,2.2-1.4,2.4-2.7
			C107,23.9,106.8,23,106.2,22.2z"/>
	</g>
	<g id="Group_2750" transform="translate(145.398 27.887)">
		<g id="Group_2749">
			<path id="Path_3247" class="st5" d="M-38.4,10.8c-0.3,1.3-1.2,2.3-2.4,2.7c-0.3,0.1-0.5,0.1-0.8,0.2h-6.5l0.8-3.4
				c0.3-1.3,1.5-2.2,2.8-2.2V7.5c-0.7-0.2-1.1-0.8-1.1-1.5V5.3c-0.4,0-0.7-0.3-0.7-0.7c0-0.3,0.2-0.6,0.5-0.6V3.3
				c-0.4-0.4-0.4-1.1,0-1.5c-0.3-0.1-0.4-0.4-0.5-0.7c0-0.5,0.4-1,0.9-1c0,0,0,0,0,0l0.4,0l3.2,4.4l1.5,2.1
				c-0.2,0.5-0.6,0.9-1.1,1.1V8c1.3,0,2.5,0.9,2.8,2.2L-38.4,10.8z"/>
		</g>
	</g>
	<g id="Group_2755" transform="translate(93.133 19.948)">
		<g id="Group_2752">
			<g id="Group_2751">
				<path id="Path_3248" class="st5" d="M-34,10.5l0.1-0.2c0.2-0.2,0.1-0.5-0.1-0.6c0,0,0,0,0,0c-0.1-0.1-0.2-0.1-0.3-0.1
					c0-0.2,0-0.4-0.2-0.5c-0.2-0.2-0.6-0.1-0.7,0.1l-0.1,0.2l0.2-1.5c0-0.2-0.1-0.4-0.2-0.4l0-0.3c0-0.1-0.1-0.2-0.2-0.2
					c0,0,0,0,0,0c-0.1,0-0.2,0.1-0.2,0.1l0,0.3c-0.2,0-0.3,0.2-0.3,0.4l-0.2,1.7c0,0,0,0-0.1,0c-0.1-0.1-0.3-0.2-0.5-0.1
					c-0.3,0.1-0.4,0.3-0.4,0.6c0,0,0,0,0,0l0,0.1c-0.1,0.1-0.1,0.1-0.2,0.2c-0.2-1-1-1.8-2.1-1.9c0,0-0.1,0-0.1-0.1
					c0-0.1,0-0.2,0-0.3c0-0.3-0.2-0.6-0.4-0.8V6.5c0.3-0.1,0.5-0.3,0.7-0.5c0.2-0.2,0.4-0.5,0.5-0.7c0.1-0.2,0.1-0.4,0.1-0.6V3.7
					c0-0.3-0.1-0.6-0.2-0.8c0.3-0.3,0.4-0.6,0.4-1c0,0,0-0.1,0-0.1s0-0.1,0-0.1c0-0.9-0.8-1.6-1.7-1.6c-0.4,0-0.7,0.1-1,0.3
					c-0.1,0-0.1,0-0.2,0h-1.4c-0.8,0-1.4,0.6-1.5,1.3v0c-0.4,0.1-0.6,0.4-0.7,0.8v0.3c-0.2,0.2-0.3,0.5-0.3,0.9
					c0,0.7,0.5,1.2,1.1,1.3c0,0.6,0.4,1.1,0.8,1.4V7c-0.4,0.2-0.6,0.5-0.6,0.9v0c-0.9,0.3-1.6,1.1-1.7,2l0,0.5l-0.9,1.1
					c0,0-0.1,0.1-0.1,0.1c-0.1,0.1-0.1,0.2-0.2,0.3h-1c-0.2,0-0.3,0.1-0.4,0.3c0,0,0,0,0,0.1l0.5,2.6l-0.2,0.8
					c-0.1,0.3,0,0.6,0.1,0.8c0.2,0.5,0.7,0.9,1.3,0.9c0.3,0,0.5-0.1,0.8-0.2c0.2,0.2,0.4,0.5,0.7,0.6c0,0,0,0,0,0l-0.1,3.6h3.1
					l0-0.8l0.1-2l0.4,2.8h3.1l-0.4-3.2c0.6-0.4,1-1,1-1.7l0.3-2.8c0,0,0,0,0,0c0.1,0,0.1-0.1,0.2-0.1l1.8-1.3
					c0.1-0.1,0.2-0.2,0.3-0.3c0,0,0,0,0,0c0.2-0.1,0.4-0.1,0.5-0.3c0.1,0,0.1-0.1,0.2-0.2l0.6-0.5c0.2-0.2,0.2-0.4,0.1-0.6
					C-33.9,10.6-33.9,10.5-34,10.5C-33.9,10.5-33.9,10.5-34,10.5L-34,10.5z"/>
			</g>
		</g>
		<g id="Group_2754" transform="translate(17.092 6.73)">
			<g id="Group_2753">
				<path id="Rectangle_2865" class="st5" d="M-48.2,0h0.5v0.3h-0.5V0z"/>
			</g>
		</g>
	</g>
	<g id="Group_2757" transform="translate(85.044 29.027)">
		<g id="Group_2756">
			<path id="Path_3249" class="st5" d="M-47.5,9.5c0.3-1.1,1.2-1.9,2.3-2V6.6c-0.7-0.3-1.2-0.9-1.4-1.6c-0.4-0.1-0.7-0.5-0.7-0.9
				c0-0.1,0-0.3,0.1-0.4c-0.2-0.2-0.3-0.6-0.3-0.9c0-0.8,0.7-1.5,1.6-1.4h0.1C-45.7,0.6-45,0-44.2,0l1.8,0c0.9,0,1.7,0.7,1.8,1.6
				c0.5,0.2,0.8,0.7,0.8,1.2c0,0.4-0.2,0.8-0.5,1.1c0,0.1,0,0.1,0,0.2c0,1.2-0.8,2.2-1.9,2.7v0.7h0c1.3,0,2.4,0.8,2.7,2l0.7,3h-9.3
				L-47.5,9.5z"/>
		</g>
	</g>
	<g id="Group_2759" transform="translate(106.95 29.027)">
		<g id="Group_2758">
			<path id="Path_3250" class="st5" d="M-39.5,9.5c-0.3-1.1-1.2-1.9-2.3-2V6.6c0.7-0.3,1.2-0.9,1.4-1.6c0.4-0.1,0.7-0.5,0.7-0.9
				c0-0.1,0-0.3-0.1-0.4c0.2-0.2,0.3-0.6,0.3-0.9c0-0.8-0.7-1.5-1.6-1.4h-0.1C-41.3,0.6-42,0-42.9,0l-1.8,0c-0.9,0-1.7,0.7-1.8,1.6
				c-0.5,0.2-0.8,0.7-0.8,1.2c0,0.4,0.2,0.8,0.5,1.1c0,0.1,0,0.1,0,0.2c0,1.2,0.8,2.2,1.9,2.7v0.7h0c-1.3,0-2.4,0.8-2.7,2l-0.7,3
				h9.3L-39.5,9.5z"/>
		</g>
	</g>
	<g id="Group_2761" transform="translate(67.026 27.603)">
		<g id="Group_2760">
			<path id="Path_3251" class="st5" d="M-47.4,10.5c0.3-1.3,1.5-2.2,2.8-2.2V7.8c-0.6-0.2-1-0.7-1.1-1.3c0-0.1,0-0.1,0-0.2V5.6
				c-0.4,0-0.7-0.3-0.7-0.7c0-0.3,0.2-0.6,0.5-0.6V3.2c-0.3-0.2-0.4-0.6-0.3-0.9c0.1-0.4,0.4-0.8,0.8-1c0-0.1-0.1-0.2-0.1-0.3
				c0.1-0.3,0.3-0.5,0.6-0.5l0.2,0c0.2-0.4,0.6-0.6,1.1-0.6l3.2,0.3c0.5,0,0.9,0.5,0.9,1c0,0,0,0,0,0c0,0.3-0.2,0.6-0.5,0.7
				c0.4,0.4,0.4,1.1,0,1.5v0.8c0.3,0.1,0.5,0.3,0.5,0.6c0,0.4-0.3,0.7-0.7,0.7v0.7c0,0.7-0.5,1.3-1.1,1.5v0.5c1.3,0.1,2.4,1,2.8,2.2
				l0.8,3.4h-10.4L-47.4,10.5z"/>
		</g>
	</g>
	<g id="Group_2763" transform="translate(77.594 27.139)">
		<g id="Group_2762">
			<path id="Path_3252" class="st5" d="M-39.5,9.5c-0.3-1.1-1.2-1.9-2.3-2V6.6c0.7-0.3,1.2-0.9,1.4-1.6c0.4-0.1,0.7-0.5,0.7-0.9
				c0-0.1,0-0.3-0.1-0.4c0.2-0.2,0.3-0.6,0.3-0.9c0-0.8-0.7-1.5-1.6-1.4h-0.1C-41.3,0.6-42,0-42.9,0l-1.8,0c-0.9,0-1.7,0.7-1.8,1.6
				c-0.5,0.2-0.8,0.7-0.8,1.2c0,0.4,0.2,0.8,0.5,1.1c0,0.1,0,0.1,0,0.2c0,1.2,0.8,2.2,1.9,2.7v0.7h0c-1.3,0-2.4,0.8-2.7,2l-0.7,4.7
				h9.3L-39.5,9.5z"/>
		</g>
	</g>
	<g id="Group_2768" transform="translate(73.764 15.839)">
		<g id="Group_2765" transform="translate(1.755)">
			<g id="Group_2764">
				<path id="Path_3253" class="st5" d="M-46.1,4.8c-0.1,0-0.2-0.1-0.3-0.2l-1.8-4.2c-0.1-0.1,0-0.3,0.2-0.4c0,0,0,0,0,0
					c0.2-0.1,0.3,0,0.4,0.2l1.8,4.2c0.1,0.1,0,0.3-0.2,0.4c0,0,0,0,0,0C-46,4.8-46.1,4.8-46.1,4.8z"/>
			</g>
		</g>
		<g id="Group_2767">
			<g id="Group_2766">
				<path id="Path_3254" class="st5" d="M-47.8,4.8c0,0-0.1,0-0.1,0c-0.2,0-0.2-0.2-0.2-0.4c0,0,0,0,0,0l1.8-4.2
					C-46.3,0-46.1,0-46,0c0.2,0,0.2,0.2,0.2,0.4c0,0,0,0,0,0l-1.8,4.2C-47.6,4.7-47.7,4.8-47.8,4.8L-47.8,4.8z"/>
			</g>
		</g>
	</g>
	<g id="Group_2770" transform="translate(71.706 22.987)">
		<g id="Group_2769">
			<path id="Path_3255" class="st5" d="M-47.9,11.9L-47.9,11.9L-47.9,11.9l-0.1-0.1l0,0l0,0l0,0l0,0l0,0l0,0c0,0,0,0,0-0.1l0,0
				c0,0,0,0,0-0.1s0,0,0,0v-0.1v-0.1v0c0,0,0,0,0-0.1s0,0,0,0v0c0,0,0,0,0-0.1s0,0,0,0v0c0,0,0,0,0,0l0,0c0,0,0,0,0,0l0,0l0-0.1l0,0
				c0,0,0,0,0-0.1v0l1.4-2c-1.1-0.8-1.2-2.4-0.4-3.4c0.1-0.2,0.3-0.3,0.5-0.5C-46.8,4.5-47,4.1-47,3.6c0-0.8,0.5-1.4,1.3-1.6
				c0-0.1-0.1-0.3-0.1-0.4c0-0.9,0.8-1.6,1.7-1.5c0.5,0,0.9,0.2,1.2,0.5c0.2,0.1,0.3,0.2,0.4,0.4c0.3-0.4,0.8-0.7,1.4-0.7
				c0.9,0,1.6,0.7,1.7,1.5c0,0.1,0,0.1,0,0.2c0,0,0,0.1,0,0.1c0.7,0.3,1.1,0.9,1.1,1.6c0,0.4-0.1,0.7-0.3,1c0.4,0.5,0.7,1.1,0.7,1.7
				c0,0.5-0.2,1-0.4,1.4c0.1,0.1,0.3,0.2,0.3,0.4l1.6,3.4l0,0.1l0,0l0,0c0,0,0,0,0,0.1v0c0,0,0,0.1,0,0.1V12c0,0,0,0,0,0.1s0,0,0,0
				s0,0,0,0.1l0,0l0,0.1l0,0l0,0l0,0l0,0l0,0l0,0c0,0,0,0,0,0l0,0l0,0l0,0l0,0l0,0l0,0l-0.1,0l0,0l-0.1,0l0,0l-0.1,0l0,0l0,0l-0.1,0
				l-1.1,0.2l0,0v2h-7.4v-2.7l-0.2,0l-1.3-0.2h0l-0.1,0l0,0c0,0-0.1,0-0.1,0l0,0l-0.1,0l0,0l0,0l0,0h0l0,0l-0.1,0l0,0l0,0
				L-47.9,11.9L-47.9,11.9L-47.9,11.9z"/>
		</g>
	</g>
	<g id="Group_2772" transform="translate(134.391 27.604)">
		<g id="Group_2771">
			<path id="Path_3256" class="st5" d="M-37.1,10.6v0.1l0,0.1c0,0,0,0,0,0s0,0,0,0l0,0l0,0c0,0,0,0,0,0l0,0c0,0,0,0,0,0c0,0,0,0,0,0
				c0,0,0,0,0,0c0,0,0,0,0,0c0,0,0,0,0,0c0,0,0,0,0,0s0,0,0,0l0,0c0,0,0,0,0,0c0,0,0,0,0,0c0,0,0,0-0.1,0l0,0l0,0c0,0,0,0,0,0
				c0,0,0,0,0,0l0,0c0,0,0,0-0.1,0l0,0c0,0-0.1,0-0.1,0c0,0,0,0,0,0c0,0,0,0-0.1,0c0,0,0,0,0,0l-1.2,0.2l-0.2,0V14h-6.9l-0.1-1.6
				c0,0,0,0,0,0l-1-0.2l-0.1,0l0,0l0,0l-0.1,0l0,0c0,0,0,0-0.1,0c0,0,0,0,0,0l-0.1,0c0,0,0,0,0,0c0,0-0.1,0-0.1-0.1c0,0,0,0,0,0l0,0
				l0,0c0,0,0,0,0,0c0,0,0,0,0,0c0,0,0,0,0,0c0,0,0,0,0,0l0,0c0,0,0,0,0,0l0,0c0,0,0,0,0,0l0,0c0,0,0,0,0-0.1c0,0,0,0,0,0
				c0,0,0,0,0,0c0,0,0,0,0,0c0,0,0,0,0,0c0,0,0,0,0-0.1v0c0,0,0,0,0-0.1v0c0,0,0,0,0-0.1c0,0,0,0,0,0c0,0,0,0,0,0l0-0.1l1.5-3.2
				c0.1-0.1,0.2-0.3,0.3-0.4c-0.6-0.9-0.5-2.1,0.2-2.9c-0.2-0.3-0.3-0.6-0.3-0.9c0-0.7,0.4-1.3,1-1.5c0,0,0-0.1,0-0.1
				c0-0.1,0-0.1,0-0.2c0-0.8,0.7-1.5,1.6-1.5c0.5,0,1,0.2,1.3,0.7c0.1-0.1,0.2-0.2,0.4-0.3c0.3-0.3,0.7-0.5,1.2-0.5
				c0.8,0,1.5,0.6,1.6,1.5c0,0.1,0,0.3-0.1,0.4c0.7,0.2,1.2,0.8,1.2,1.5c0,0.4-0.2,0.9-0.5,1.2c1,0.7,1.3,2.2,0.5,3.2
				c-0.1,0.2-0.3,0.3-0.4,0.5l1.4,1.9c0,0,0,0,0,0c0,0,0,0,0,0.1l0,0c0,0,0,0,0,0l0,0c0,0,0,0,0,0c0,0,0,0,0,0c0,0,0,0,0,0
				c0,0,0,0,0,0c0,0,0,0,0,0c0,0,0,0,0,0c0,0,0,0,0,0v0C-37.1,10.5-37.1,10.5-37.1,10.6C-37.1,10.6-37.1,10.6-37.1,10.6z"/>
		</g>
	</g>
	<g id="Group_2774" transform="translate(115.473 20.694)">
		<g id="Group_2773">
			<path id="Path_3257" class="st5" d="M-40.9,9.6l0.5,3.9c0,0.1,0,0.1,0,0.2c0.7,0.6,1.1,1.4,1.1,2.3v4.8h-8.9v-3.7h0.4v-1
				c-0.3-0.4-0.2-1,0.2-1.3c0-0.1,0.1-0.2,0.2-0.2c0.3-0.3,0.7-0.4,1.1-0.4c0.2-0.1,0.4,0,0.5,0.1c0.2-0.3,0.4-0.5,0.7-0.7
				c-0.1-0.2-0.1-0.3-0.1-0.5c-0.2,0.1-0.5,0.2-0.8,0.2c-0.7,0.1-1.4-0.4-1.4-1.1c-0.1-0.7,0.4-1.4,1.1-1.4c0.1,0,0.2,0,0.3,0
				c0.1,0,0.1,0,0.2,0c-0.3-0.3-0.5-0.6-0.5-1c0,0,0-0.1,0-0.1c0,0,0,0-0.1,0c-0.7-0.2-1.2-0.8-1.3-1.6c-0.1-0.8,0.4-1.6,1.1-1.9
				c-0.2-0.3-0.4-0.7-0.4-1c0-0.3,0-0.5,0.1-0.8c-0.3-0.2-0.5-0.6-0.6-1v0c0-0.1-0.1-0.2-0.1-0.3c-0.1-0.6,0.3-1.2,0.9-1.4
				c0-0.2,0.1-0.3,0.2-0.4c0.1-0.4,0.4-0.7,0.7-0.8c0.5-0.4,1.2-0.4,1.7,0.1c0.1-0.1,0.3-0.2,0.5-0.2c0.5-0.1,1,0.3,1.1,0.8
				c0,0,0,0,0,0.1c0.7,0.1,1.2,0.6,1.3,1.3c1,0,1.8,0.7,1.9,1.6c0,0.4-0.1,0.8-0.3,1.2c1,0.7,1.2,2,0.6,2.9
				c-0.2,0.3-0.4,0.5-0.7,0.7C-39.9,9.2-40.3,9.5-40.9,9.6L-40.9,9.6z"/>
		</g>
	</g>
	<g id="Group_2776" transform="translate(87.76 19.516)">
		<g id="Group_2775">
			<path id="Path_3258" class="st5" d="M-46.9,12.2c-0.2,0-0.4-0.1-0.6-0.1c-0.6-0.3-0.8-0.9-0.6-1.5c0,0,0-0.1,0.1-0.1l2.9-4.8
				l0.4-4.6c0.1-0.7,0.7-1.2,1.4-1.1c0.7,0,1.2,0.6,1.2,1.3c0,0,0,0,0,0l-0.5,4.8c0,0.2-0.1,0.3-0.2,0.5l-3,5
				C-46,12-46.4,12.2-46.9,12.2L-46.9,12.2z"/>
		</g>
	</g>
	<g id="Group_2778" transform="translate(100.975 19.516)">
		<g id="Group_2777">
			<path id="Path_3259" class="st5" d="M-46.9,12.2c-0.2,0-0.4-0.1-0.6-0.1c-0.6-0.3-0.8-0.9-0.6-1.5c0,0,0-0.1,0.1-0.1l2.9-4.8
				l0.4-4.6c0.1-0.7,0.7-1.2,1.4-1.1c0.7,0,1.2,0.6,1.2,1.3c0,0,0,0,0,0l-0.5,4.8c0,0.2-0.1,0.3-0.2,0.5l-3,5
				C-46,12-46.4,12.2-46.9,12.2L-46.9,12.2z"/>
		</g>
	</g>
	<g id="Group_2780" transform="translate(81.086 21.965)">
		<g id="Group_2779">
			<path id="Path_3260" class="st5" d="M-47.5,9.5c0.3-1.1,1.2-1.9,2.3-2V6.6c-0.7-0.3-1.2-0.9-1.4-1.6c-0.4-0.1-0.7-0.5-0.7-0.9
				c0-0.1,0-0.3,0.1-0.4c-0.2-0.2-0.3-0.6-0.3-0.9c0-0.8,0.7-1.5,1.6-1.4h0.1C-45.8,0.5-45,0-44.2,0l1.8,0c0.9,0,1.7,0.7,1.8,1.6
				c0.5,0.2,0.8,0.7,0.8,1.2c0,0.4-0.2,0.8-0.5,1.1c0,0.1,0,0.1,0,0.2c0,1.2-0.8,2.2-1.9,2.7v0.7h0c1.3,0,2.4,0.8,2.7,2l0.7,7.8
				h-9.3L-47.5,9.5z"/>
		</g>
	</g>
	<g id="Group_2782" transform="translate(126.288 21.965)">
		<g id="Group_2781">
			<path id="Path_3261" class="st5" d="M-47.5,9.5c0.3-1.1,1.2-1.9,2.3-2V6.6c-0.7-0.3-1.2-0.9-1.4-1.6c-0.4-0.1-0.7-0.5-0.7-0.9
				c0-0.1,0-0.3,0.1-0.4c-0.2-0.2-0.3-0.6-0.3-0.9c0-0.8,0.7-1.5,1.6-1.4h0.1C-45.7,0.6-45,0-44.2,0l1.8,0c0.9,0,1.7,0.7,1.8,1.6
				c0.5,0.2,0.8,0.7,0.8,1.2c0,0.4-0.2,0.8-0.5,1.1c0,0.1,0,0.1,0,0.2c0,1.2-0.8,2.2-1.9,2.7v0.7h0c1.3,0,2.4,0.8,2.7,2l0.7,9.8
				h-9.3L-47.5,9.5z"/>
		</g>
	</g>
	<g id="Group_2784" transform="translate(71.329 20.902)">
		<g id="Group_2783">
			<path id="Path_3262" class="st5" d="M-46.2,9.2l-2-1.5l2.8-3.2l0.4-4.5l2.6,0.2l-0.5,5.2L-46.2,9.2z"/>
		</g>
	</g>
	<g id="Group_2786" transform="translate(73.795 18.719)">
		<g id="Group_2785">
			<path id="Path_3331" class="st5" d="M-46.5,0.4c0.9-0.2,1.8,0.3,2.1,1.2c0.2,0.9-0.4,1.7-1.3,1.9c0,0,0,0-0.1,0
				c-0.9,0.2-1.8-0.3-2.1-1.2C-48,1.4-47.4,0.5-46.5,0.4C-46.5,0.4-46.5,0.4-46.5,0.4z"/>
		</g>
	</g>
	<g id="Group_2788" transform="translate(90.169 17.968)">
		<g id="Group_2787">
			<path id="Path_3332" class="st5" d="M-47,1.2c0.7-0.6,1.8-0.6,2.5,0c0.6,0.6,0.7,1.5,0.1,2.1c0,0-0.1,0.1-0.1,0.1
				c-0.7,0.6-1.8,0.6-2.5,0C-47.7,3-47.7,2-47.2,1.4C-47.1,1.3-47.1,1.3-47,1.2z"/>
		</g>
	</g>
	<g id="Group_2793" transform="translate(90.476 15.839)">
		<g id="Group_2790" transform="translate(1.755)">
			<g id="Group_2789">
				<path id="Path_3263" class="st5" d="M-46.1,4.8c-0.1,0-0.2-0.1-0.3-0.2l-1.8-4.2c-0.1-0.1,0-0.3,0.2-0.4c0,0,0,0,0,0
					c0.2-0.1,0.3,0,0.4,0.2l1.8,4.2c0.1,0.1,0,0.3-0.2,0.4c0,0,0,0,0,0C-46,4.8-46.1,4.8-46.1,4.8z"/>
			</g>
		</g>
		<g id="Group_2792">
			<g id="Group_2791">
				<path id="Path_3264" class="st5" d="M-47.8,4.8c0,0-0.1,0-0.1,0c-0.2,0-0.2-0.2-0.2-0.4c0,0,0,0,0,0l1.8-4.2
					C-46.3,0-46.1,0-46,0c0.2,0,0.2,0.2,0.2,0.4c0,0,0,0,0,0l-1.8,4.2C-47.6,4.7-47.7,4.8-47.8,4.8z"/>
			</g>
		</g>
	</g>
	<g id="Group_2795" transform="translate(103.46 18.016)">
		<g id="Group_2794">
			<path id="Path_3333" class="st5" d="M-47.3,1.4c0.6-0.7,1.6-0.9,2.4-0.4c0.7,0.4,1,1.4,0.6,2.1c0,0.1-0.1,0.1-0.1,0.1
				C-45,4-46,4.2-46.8,3.7c-0.7-0.4-1-1.4-0.6-2.1C-47.3,1.5-47.3,1.5-47.3,1.4z"/>
		</g>
	</g>
	<g id="Group_2797" transform="translate(123.658 19.991)">
		<g id="Group_2796">
			<path id="Path_3265" class="st5" d="M-43.3,12.2c-0.5,0-0.9-0.2-1.1-0.6l-3.1-5c-0.1-0.1-0.1-0.3-0.2-0.5l-0.5-4.8
				c0-0.7,0.5-1.2,1.2-1.3c0,0,0,0,0,0c0.7-0.1,1.3,0.4,1.4,1.1l0.5,4.6l2.9,4.8c0.3,0.5,0.2,1.2-0.4,1.6c0,0-0.1,0-0.1,0.1
				C-42.9,12.2-43.1,12.2-43.3,12.2L-43.3,12.2z"/>
		</g>
	</g>
	<g id="Group_2799" transform="translate(123.129 19.222)">
		<g id="Group_2798">
			<ellipse id="Ellipse_542" class="st5" cx="-46.4" cy="1.6" rx="1.8" ry="1.6"/>
		</g>
	</g>
	<g id="Group_2804" transform="translate(103.733 15.839)">
		<g id="Group_2801" transform="translate(1.755)">
			<g id="Group_2800">
				<path id="Path_3266" class="st5" d="M-46.1,4.8c-0.1,0-0.2-0.1-0.3-0.2l-1.8-4.2c-0.1-0.1,0-0.3,0.2-0.4c0,0,0,0,0,0
					c0.2-0.1,0.3,0,0.4,0.2l1.8,4.2c0.1,0.1,0,0.3-0.2,0.4c0,0,0,0,0,0C-46,4.8-46.1,4.8-46.1,4.8z"/>
			</g>
		</g>
		<g id="Group_2803">
			<g id="Group_2802">
				<path id="Path_3267" class="st5" d="M-47.8,4.8c0,0-0.1,0-0.1,0c-0.2,0-0.2-0.2-0.2-0.4c0,0,0,0,0,0l1.8-4.2
					C-46.3,0-46.1,0-46,0c0.2,0,0.2,0.2,0.2,0.4c0,0,0,0,0,0l-1.8,4.2C-47.6,4.7-47.7,4.8-47.8,4.8L-47.8,4.8z"/>
			</g>
		</g>
	</g>
	<g id="Group_2809" transform="translate(122.834 15.839)">
		<g id="Group_2806" transform="translate(1.755)">
			<g id="Group_2805">
				<path id="Path_3268" class="st5" d="M-46.1,4.8c-0.1,0-0.2-0.1-0.3-0.2l-1.8-4.2c-0.1-0.1,0-0.3,0.2-0.4c0,0,0,0,0,0
					c0.2-0.1,0.3,0,0.4,0.2l1.8,4.2c0.1,0.1,0,0.3-0.2,0.4c0,0,0,0,0,0C-46,4.8-46.1,4.8-46.1,4.8z"/>
			</g>
		</g>
		<g id="Group_2808">
			<g id="Group_2807">
				<path id="Path_3269" class="st5" d="M-47.8,4.8c0,0-0.1,0-0.1,0c-0.2,0-0.2-0.2-0.2-0.4c0,0,0,0,0,0l1.8-4.2
					C-46.3,0-46.1,0-46,0c0.2,0,0.2,0.2,0.2,0.4c0,0,0,0,0,0l-1.8,4.2C-47.6,4.7-47.7,4.8-47.8,4.8z"/>
			</g>
		</g>
	</g>
	<g id="Group_2814" transform="translate(72.687 13.849)">
		<g id="Group_2813">
			<g id="Group_2812">
				<path id="Path_3271" class="st6" d="M-32.2,0l-9.3,27.7h-6.7L-38.9,0H-32.2z"/>
			</g>
		</g>
	</g>
	<g id="Group_2817" transform="translate(103.602 13.849)">
		<g id="Group_2816">
			<g id="Group_2815">
				<path id="Path_3272" class="st6" d="M-32.2,0l-9.3,27.7h-6.7L-38.9,0H-32.2z"/>
			</g>
		</g>
	</g>
	<g id="Group_2820" transform="translate(94.019 13.849)">
		<g id="Group_2819">
			<g id="Group_2818">
				<path id="Path_3273" class="st6" d="M-34.9,0l-9.3,27.7h-4L-38.9,0H-34.9z"/>
			</g>
		</g>
	</g>
	<g id="Group_2842" transform="translate(126.522 15.005)">
		<g id="Group_2841">
			<g id="Group_2840">
				<path id="Path_3281" class="st6" d="M-32.4,4.6l-7.3,21.9h-8.4L-39.3,0C-36.6,1-34.3,2.6-32.4,4.6L-32.4,4.6z"/>
			</g>
		</g>
	</g>
	<g id="Group_2843" transform="translate(168.312 13.849)">
		<path id="Path_3282" class="st4" d="M-15.6,27.7H-26c-0.6,0-1.1,0-1.7-0.1c-2.7-0.4-5.2-1.7-7-3.7c0,0,0,0-0.1-0.1
			c-0.1-0.2-0.3-0.3-0.4-0.5c0,0-0.1-0.1-0.1-0.1l-5.2-7l-5.7-7.6l-1-1.4c-2.3-3,0-7.1,3.9-7.3c0.1,0,0.1,0,0.2,0h6.3
			c0.5,0.3,0.9,0.7,1.3,1c2.3,1.8,4.4,3.7,6.4,5.8c2.1,2.2,4.1,4.5,5.9,7c0.9,1.3,1.8,2.7,2.7,4c0.7,1.1,1.3,2.3,1.9,3.4l0.1,0.2
			C-17.3,23.5-16.4,25.6-15.6,27.7C-15.6,27.7-15.6,27.7-15.6,27.7L-15.6,27.7z"/>
	</g>
	<g id="Group_2846" transform="translate(.131 22.854)">
		<g id="Group_2844" transform="translate(0 .442)">
		</g>
		<g id="Group_2845">
			<rect x="0.1" y="0" class="st7" width="96.7" height="0.9"/>
		</g>
	</g>
	<g id="Group_2847" transform="translate(145.626 13.976)">
		<path id="Path_3284" class="st4" d="M-19.3,27.7c-3.4,0-6.8-0.8-9.9-2.3c-1.2-0.6-2.3-1.3-3.3-2c-1.2-0.9-2.2-1.8-3.2-2.9
			c-0.3-0.4-0.7-0.8-1-1.2l-1.2-1.6l-2.8-3.8l-7-9.5c-0.9-1.3-0.5-3,0.7-3.9c0.5-0.4,1.2-0.5,1.8-0.5c2.9,0,5.9,0.6,8.6,1.7
			c0.4,0.2,0.8,0.4,1.2,0.6c0.8,0.4,1.5,0.8,2.2,1.2c2.1,1.3,3.9,3,5.3,5l0.2,0.2l2.8,3.8l5.7,7.7l2.4,3.2c0.9,1.3,0.5,3-0.7,3.9
			C-18.1,27.6-18.7,27.8-19.3,27.7L-19.3,27.7z"/>
	</g>
	<g id="Group_2850" transform="translate(.196 50.255)">
		<g id="Group_2848" transform="translate(0 .737)">
		</g>
	</g>
	<g id="Group_2852" transform="translate(67.588 50.256)">
		<g id="Group_2851">
			<path id="Path_3286" class="st8" d="M86.6,0c0,0.2-0.1,0.5-0.1,0.7c-0.1,0.2-0.1,0.5-0.2,0.7H-47.4c-0.4,0-0.8-0.3-0.8-0.7
				c0-0.4,0.3-0.8,0.7-0.8c0,0,0.1,0,0.1,0H86.5C86.5,0,86.6,0,86.6,0L86.6,0z"/>
		</g>
	</g>
	<g id="Group_2853" transform="translate(.175 13.406)">
		<path class="st7" d="M106.6,22.4L106.6,22.4L95.2,7.1c-0.3-0.4-0.6-0.8-0.9-1.1c-1.9-2.1-4.3-3.8-7-4.8C85.2,0.4,82.9,0,80.7,0H0
			v0.9h80.6c2.1,0,4.3,0.4,6.3,1.1c2.5,0.9,4.8,2.5,6.6,4.5c0.3,0.3,0.6,0.7,0.9,1.1l1.4,1.9l0.3,0.4l0.3,0.4l3.3,4.4l6,8.1l0,0.1
			c0.4,0.5,0.6,1.1,0.6,1.7c0,0.2,0,0.4-0.1,0.6c-0.2,1.1-1.1,2-2.1,2.3c-0.2,0.1-0.5,0.1-0.7,0.2c-0.2,0-0.3,0-0.5,0H0v0.9h103
			c0.2,0,0.4,0,0.6,0c0.3,0,0.6-0.1,0.9-0.2c0.7-0.2,1.3-0.6,1.8-1.2c0.5-0.5,0.8-1.2,0.9-1.8C107.5,24.3,107.2,23.3,106.6,22.4z"/>
	</g>
	<g id="Group_2855" transform="translate(.175 6.394)">
		<g id="Group_2854">
			<path class="st8" d="M121.8,1.5c-0.5-0.2-1-0.5-1.4-0.7c-0.2-0.1-0.4-0.2-0.7-0.3c-0.3-0.1-0.6-0.3-0.9-0.4H0v1.5h121.5
				C121.6,1.5,121.7,1.5,121.8,1.5L121.8,1.5z"/>
		</g>
	</g>
	<g id="Group_2856" transform="translate(28.036 13.848)">
		<path class="st8" d="M-11.3,0h-16.5v44.9h16.5c2.1,0.1,3.8-1.5,3.9-3.6V3.6C-7.5,1.5-9.2-0.1-11.3,0z"/>
	</g>
	<g id="Group_2859" transform="translate(28.516 54.917)">
		<g id="Group_2857" transform="translate(0 .737)">
		</g>
		<g id="Group_2858">
			<rect x="-28.3" y="0" class="st9" width="20" height="1.5"/>
		</g>
	</g>
	<g id="Group_2860" transform="translate(27.555 13.406)">
		<path class="st7" d="M-10.8,0h-16.5v0.9h16.5C-9,0.8-7.5,2.2-7.4,4.1v37.6c-0.1,1.8-1.6,3.2-3.5,3.2h-16.5v0.9h16.5
			c2.3,0.1,4.3-1.7,4.4-4.1V4.1C-6.5,1.7-8.5-0.1-10.8,0z"/>
	</g>
	<g id="Group_2862" transform="translate(52.577 18.438)">
		<path id="Path_3293" class="st4" d="M-36,2.9v17.9c-0.1,1.7-1.5,3-3.2,2.9H-45c-0.5,0-1-0.1-1.5-0.3c-1-0.5-1.7-1.5-1.7-2.6V2.9
			c0.1-1.7,1.5-3,3.2-2.9h5.8c0.2,0,0.3,0,0.5,0C-37.2,0.2-36,1.4-36,2.9L-36,2.9z"/>
	</g>
	<g id="Group_2866" transform="translate(54.017 24.49)">
		<g id="Group_2865">
			<path id="Path_3295" class="st5" d="M-47.5,9.5c0.3-1.1,1.2-1.9,2.3-2V6.6c-0.7-0.3-1.2-0.9-1.4-1.6c-0.4-0.1-0.7-0.5-0.7-0.9
				c0-0.1,0-0.3,0.1-0.4c-0.2-0.2-0.3-0.6-0.3-0.9c0-0.8,0.7-1.5,1.6-1.4h0.1C-45.7,0.6-45,0-44.2,0l1.8,0c0.9,0,1.7,0.7,1.8,1.6
				c0.5,0.2,0.8,0.7,0.8,1.2c0,0.4-0.2,0.8-0.5,1.1c0,0.1,0,0.1,0,0.2c0,1.2-0.8,2.2-1.9,2.7v0.7h0c1.3,0,2.4,0.8,2.7,2l0.7,7.8
				h-9.3L-47.5,9.5z"/>
		</g>
	</g>
	<g id="Group_2868" transform="translate(181.309 26.307)">
		<g id="Group_2867">
			<path id="Path_3296" class="st5" d="M-37,10.6h-0.2c-0.2,0-0.3,0.1-0.4,0.2h0c-0.2,0-0.5,0.2-0.5,0.4c0,0,0,0,0,0
				c0,0.1,0,0.1,0,0.2l-0.1,0c-0.1,0-0.2,0-0.2,0c-0.4,0-0.7,0.1-1,0.4l-1.2-0.5l-2-1.6l0-0.2c0.1-0.5,0-0.9-0.3-1.3
				c0.1,0,0.2-0.1,0.3-0.2c0.1-0.2,0-0.4-0.2-0.5c0,0,0,0,0,0l-0.4-0.1c0-0.2-0.2-0.3-0.4-0.3V5.5h0.5c0.5,0,1-0.4,1-0.9v-2l0.1,0
				c0.7,0,1.2-0.6,1.2-1.3c0-0.3-0.1-0.7-0.4-0.9C-41.2,0.1-41.6,0-42,0h-0.8c0.4,0,0.7,0.1,1,0.4c0.2,0.2,0.4,0.5,0.4,0.9
				C-41.5,1.1-41.6,1-41.6,1c-0.2-0.3-0.6-0.5-1-0.5h-1.1c-0.4,0-0.8,0.2-1,0.5h-0.6c-0.3,0-0.6,0.1-0.8,0.4c-0.2-0.1-0.4-0.1-0.6,0
				c-0.2,0.2-0.2,0.4,0,0.6c0,0,0,0,0,0l0.1,0.1c-0.1,0.1-0.2,0.2-0.2,0.3C-46.9,2.5-47,2.7-47,2.9c0,0.3,0.1,0.6,0.4,0.7V4
				c0,0.4,0.3,0.7,0.7,0.7v1.9c-0.2,0-0.4,0.1-0.5,0.4c0,0.1,0,0.3,0.2,0.4c-0.1,0-0.2,0.1-0.4,0.2c-0.2,0.1-0.3,0.2-0.5,0.3
				c-0.1,0.1-0.1,0.2-0.2,0.2c0,0,0,0,0,0c0,0-0.1,0.1-0.1,0.1c0,0,0,0,0,0c0,0-0.1,0.1-0.1,0.1c0,0,0,0,0,0s0,0,0,0.1
				c0,0,0,0,0,0.1c0,0,0,0,0,0c0,0,0,0,0,0.1l0,0c0,0,0,0.1,0,0.1v0c0,0,0,0,0,0s0,0,0,0.1s0,0,0,0.1c0,0,0,0,0,0.1c0,0,0,0,0,0.1
				v0.1c0,0,0,0,0,0.1v0c0,0,0,0.1,0,0.1c0,0,0,0,0,0l-0.6,1.6c0.1,0.2,0.3,0.3,0.4,0.5c0,0,0,0,0.1,0.1c1.8,2,4.3,3.3,7,3.7
				c0.6,0.1,1.1,0.1,1.7,0.1h4.7c0,0,0,0,0,0c0.3-0.5,0.4-1,0.4-1.5C-33.9,12-35.3,10.6-37,10.6L-37,10.6z M-35.9,12.4
				c0.5,0.4,0.7,1,0.7,1.6c0,0.3-0.1,0.6-0.2,0.9c-0.2-0.1-0.4-0.2-0.6-0.3c-0.1-0.4-0.2-0.8-0.5-1.2c0.1-0.2,0.1-0.4,0.1-0.5
				c0-0.4-0.2-0.7-0.4-1C-36.5,11.9-36.2,12.1-35.9,12.4L-35.9,12.4z M-37.8,14.4c0,0,0.1-0.1,0.1-0.1c0.2,0,0.4-0.1,0.5-0.2
				c0,0.1,0.1,0.1,0.1,0.2c0,0.1,0.1,0.2,0.1,0.2l-0.1,0c-0.1,0-0.1,0-0.2,0L-37.8,14.4z"/>
		</g>
	</g>
	<g id="Group_2873" transform="translate(192.432 35.147)">
		<g id="Group_2872">
			<path id="Path_3298" class="st5" d="M-39.7,6.4h-8.4V0h5.6l0.1,0.2C-41.4,2.2-40.5,4.3-39.7,6.4L-39.7,6.4z"/>
		</g>
	</g>
	<g id="Group_2875" transform="translate(158.086 21.965)">
		<g id="Group_2874">
			<path id="Path_3299" class="st5" d="M-39.4,18.4c-0.8-0.3-1.5-0.6-2.3-1c-1.2-0.6-2.3-1.3-3.3-2c-1.2-0.9-2.2-1.8-3.2-2.9l0.2-3
				c0.1-0.6,0.5-1.1,0.9-1.4c0.4-0.3,0.9-0.5,1.4-0.6V6.6c-0.7-0.3-1.2-0.9-1.4-1.6c-0.4-0.1-0.7-0.5-0.7-0.9c0-0.1,0-0.3,0.1-0.4
				C-47.9,3.4-48,3.1-48,2.8c0-0.8,0.7-1.5,1.6-1.4h0.1c0.2-0.8,0.9-1.4,1.8-1.4l1.8,0c0.9,0,1.7,0.7,1.8,1.6
				c0.5,0.2,0.8,0.7,0.8,1.2c0,0.4-0.2,0.8-0.5,1.1c0,0.1,0,0.1,0,0.2c0,1.2-0.8,2.2-1.9,2.7v0.7h0c1.3,0,2.4,0.8,2.7,2L-39.4,18.4z
				"/>
		</g>
	</g>
	<g id="Group_2877" transform="translate(154.978 19.991)">
		<g id="Group_2876">
			<path id="Path_3300" class="st5" d="M-43.3,12.2c-0.5,0-0.9-0.2-1.1-0.6l-3.1-5c-0.1-0.1-0.1-0.3-0.2-0.5l-0.5-4.8
				c0-0.7,0.5-1.2,1.2-1.3c0,0,0,0,0,0c0.7-0.1,1.3,0.4,1.4,1.1l0.4,4.6l2.9,4.8c0.3,0.5,0.2,1.2-0.4,1.6c0,0-0.1,0-0.1,0.1
				C-42.9,12.2-43.1,12.2-43.3,12.2z"/>
		</g>
	</g>
	<g id="Group_2879" transform="translate(162.26 29.415)">
		<g id="Group_2878">
			<path id="Path_3301" class="st5" d="M-44.7,9.6c-0.2,0-0.3,0-0.5-0.1c-0.6-0.2-1-0.8-0.8-1.4c0,0,0-0.1,0-0.1l1.2-2.8L-47.8,2
				c-0.4-0.4-0.4-1.1,0-1.6c0,0,0.1-0.1,0.1-0.1c0.5-0.4,1.3-0.4,1.8,0.1l3.6,3.7c0.3,0.3,0.4,0.8,0.2,1.2l-1.5,3.5
				C-43.7,9.3-44.2,9.6-44.7,9.6z"/>
		</g>
	</g>
	<g id="Group_2881" transform="translate(154.448 19.222)">
		<g id="Group_2880">
			<ellipse id="Ellipse_544" class="st5" cx="-46.4" cy="1.6" rx="1.8" ry="1.6"/>
		</g>
	</g>
	<g id="Group_2886" transform="translate(154.153 15.839)">
		<g id="Group_2883" transform="translate(1.755)">
			<g id="Group_2882">
				<path id="Path_3302" class="st5" d="M-46.1,4.8c-0.1,0-0.2-0.1-0.3-0.2l-1.8-4.2c-0.1-0.1,0-0.3,0.2-0.4c0,0,0,0,0,0
					c0.2-0.1,0.3,0,0.4,0.2l1.8,4.2c0.1,0.1,0,0.3-0.2,0.4c0,0,0,0,0,0C-46,4.8-46.1,4.8-46.1,4.8L-46.1,4.8z"/>
			</g>
		</g>
		<g id="Group_2885">
			<g id="Group_2884">
				<path id="Path_3303" class="st5" d="M-47.8,4.8c0,0-0.1,0-0.1,0c-0.2,0-0.2-0.2-0.2-0.4c0,0,0,0,0,0l1.8-4.2
					C-46.3,0-46.1,0-46,0c0.2,0,0.2,0.2,0.2,0.4c0,0,0,0,0,0l-1.8,4.2C-47.6,4.7-47.7,4.8-47.8,4.8z"/>
			</g>
		</g>
	</g>
	<g id="Group_2889" transform="translate(54.264 18.473)">
		<g id="Group_2888">
			<g id="Group_2887">
				<path id="Path_3304" class="st6" d="M-37.7,2.9V4l-6.6,19.7h-2.4c-0.5,0-1-0.1-1.5-0.3L-40.3,0C-38.9,0.2-37.7,1.4-37.7,2.9z"/>
			</g>
		</g>
	</g>
	<g id="Group_2893" transform="translate(50.539 44.895)">
		<g id="Group_2892">
			<ellipse id="Ellipse_546" class="st4" cx="-46.7" cy="1.4" rx="1.5" ry="1.4"/>
		</g>
	</g>
	<g id="Group_2896" transform="translate(47.953 13.848)">
		<g id="Group_2894" transform="translate(.481)">
		</g>
		<g id="Group_2895">
			<rect x="-47.7" y="0" class="st7" width="0.5" height="44.9"/>
		</g>
	</g>
	<g id="Group_2899" transform="translate(93.54 13.749)">
		<g id="Group_2897" transform="translate(.481)">
		</g>
		<g id="Group_2898">
			<path id="Rectangle_2870" class="st7" d="M-48.2,0h1v27.7h-1V0z"/>
		</g>
	</g>
	<g id="Group_2902" transform="translate(121.823 13.849)">
		<g id="Group_2900" transform="translate(.481)">
		</g>
		<g id="Group_2901">
			<path id="Rectangle_2871" class="st7" d="M-48.2,0h1v27.7h-1V0z"/>
		</g>
	</g>
	<g id="Group_2905" transform="translate(11.197 16.453)">
		<g id="Group_2903" transform="translate(.481 .442)">
		</g>
	</g>
	<g id="Group_2909" transform="translate(79.261 16.453)">
		<g id="Group_2907" transform="translate(.481 .442)">
		</g>
		<g id="Group_2908">
			<path id="Path_3312" class="st7" d="M-43.8,0.9h-3.8c-0.2,0-0.5-0.2-0.5-0.4c0-0.2,0.2-0.5,0.4-0.5c0,0,0.1,0,0.1,0h3.8
				c0.2,0,0.5,0.2,0.5,0.4C-43.3,0.6-43.5,0.9-43.8,0.9C-43.8,0.9-43.8,0.9-43.8,0.9L-43.8,0.9z"/>
		</g>
	</g>
	<g id="Group_2910" transform="translate(52.062 17.964)">
		<path id="Path_3313" class="st7" d="M-38.6,24.7h-5.8c-0.6,0-1.2-0.1-1.7-0.4c-1.2-0.5-1.9-1.7-2-3V3.4c0.1-2,1.7-3.5,3.7-3.4h5.8
			c0.2,0,0.4,0,0.6,0c1.7,0.2,3.1,1.6,3.1,3.4v17.9C-35,23.2-36.7,24.8-38.6,24.7L-38.6,24.7z M-44.5,0.9c-1.4-0.1-2.6,1-2.7,2.5
			v17.9c0,0.9,0.6,1.8,1.4,2.2c0.4,0.2,0.8,0.3,1.3,0.3h5.8c1.4,0.1,2.6-1,2.7-2.5V3.4c0-1.3-1-2.3-2.2-2.4c-0.1,0-0.3,0-0.4,0
			L-44.5,0.9z"/>
	</g>
	<g id="Group_2913" transform="translate(106.331 16.453)">
		<g id="Group_2911" transform="translate(.481 .442)">
		</g>
		<g id="Group_2912">
			<path id="Path_3315" class="st7" d="M-43.8,0.9h-3.8c-0.2,0-0.5-0.2-0.5-0.4S-48,0-47.8,0c0,0,0.1,0,0.1,0h3.8
				c0.2,0,0.5,0.2,0.5,0.4S-43.5,0.9-43.8,0.9C-43.8,0.9-43.8,0.9-43.8,0.9z"/>
		</g>
	</g>
	<g id="Group_2920" transform="translate(133.63 45.096)">
		<g id="Group_2916">
			<g id="Group_2914" transform="translate(0 .442)">
			</g>
			<g id="Group_2915">
				<path id="Rectangle_2872" class="st10" d="M-48.2,0h3.9v0.9h-3.9V0z"/>
			</g>
		</g>
		<g id="Group_2919" transform="translate(0 2.1)">
			<g id="Group_2917" transform="translate(0 .442)">
			</g>
			<g id="Group_2918">
				<path id="Rectangle_2873" class="st10" d="M-48.2,0h2.6v0.9h-2.6V0z"/>
			</g>
		</g>
	</g>
	<g id="Group_2927" transform="translate(7.852 45.096)">
		<g id="Group_2923">
			<g id="Group_2921" transform="translate(0 .442)">
			</g>
		</g>
		<g id="Group_2926" transform="translate(0 2.1)">
			<g id="Group_2924" transform="translate(0 .442)">
			</g>
		</g>
	</g>
	<g id="Group_2931" transform="translate(153.169 15.671)">
		<g id="Group_2930">
			<path id="Path_3321" class="st6" d="M-40.7,1.8L-45.4,16l-2.8-3.8L-44.1,0c0.4,0.2,0.8,0.4,1.2,0.6C-42.1,0.9-41.4,1.3-40.7,1.8
				L-40.7,1.8z"/>
		</g>
	</g>
	<g id="Group_2933" transform="translate(161.255 22.663)">
		<g id="Group_2932">
			<path id="Path_3322" class="st6" d="M-40.5,3.8l-4.3,13c-1.2-0.6-2.3-1.3-3.3-2L-43.2,0L-40.5,3.8z"/>
		</g>
	</g>
	<g id="Group_2934" transform="translate(145.142 13.534)">
		<path id="Path_3323" class="st7" d="M-18.8,28.6c-3.5,0-7-0.8-10.1-2.3c-1.2-0.6-2.3-1.3-3.4-2.1c-1.2-0.9-2.3-1.9-3.2-3
			c-0.3-0.4-0.7-0.8-1-1.3l-3.9-5.3l-7-9.5c-0.7-1-0.8-2.3-0.2-3.3c0.6-1.1,1.8-1.7,3.1-1.7c3,0,6,0.6,8.8,1.7
			c0.4,0.2,0.8,0.3,1.3,0.6c0.8,0.4,1.5,0.8,2.2,1.3c2.1,1.4,4,3.1,5.5,5.1l0.2,0.2l10.8,14.7c0.7,1,0.8,2.3,0.2,3.3
			C-16.4,28-17.6,28.6-18.8,28.6L-18.8,28.6z M-36.9,18l1.1,1.5c0.3,0.4,0.6,0.8,1,1.2c0.9,1.1,2,2,3.1,2.9c1,0.8,2.1,1.4,3.3,2
			c3,1.5,6.3,2.2,9.7,2.2c0.9,0,1.8-0.5,2.2-1.2c0.5-0.8,0.4-1.7-0.1-2.4l-11-14.9c-1.4-1.9-3.2-3.6-5.2-4.9
			c-0.7-0.4-1.4-0.8-2.1-1.2c-0.4-0.2-0.8-0.4-1.2-0.5c-2.7-1.1-5.5-1.7-8.4-1.7c-0.9,0-1.8,0.5-2.3,1.2c-0.5,0.8-0.4,1.7,0.1,2.4
			L-36.9,18z"/>
	</g>
	<g id="Group_2937" transform="translate(188.788 27.686)">
		<g id="Group_2936">
			<g id="Group_2935">
				<path id="Path_3324" class="st6" d="M-40.9,4l-3.3,9.8h-2.3c-0.6,0-1.1,0-1.7-0.1L-43.6,0C-42.6,1.3-41.7,2.7-40.9,4L-40.9,4z"
					/>
			</g>
		</g>
	</g>
	<g id="Group_2939" transform="translate(175.955 14.875)">
		<g id="Group_2938">
			<path id="Path_3325" class="st6" d="M-36.6,5.8l-5.7,17.1c-0.2-0.2-0.4-0.5-0.6-0.7l-5.2-7L-43.1,0C-40.8,1.8-38.6,3.7-36.6,5.8z
				"/>
		</g>
	</g>
	<g id="Group_2948" transform="translate(142.133 36.592)">
		<g id="Group_2947">
			<path id="Path_3328" class="st5" d="M-40.6,4.5c0,0-0.1,0-0.1,0L-45.4,4c-0.3,0-0.6-0.2-0.8-0.4L-47.8,2c-0.4-0.4-0.5-1.1,0-1.6
				c0,0,0.1-0.1,0.1-0.1c0.5-0.4,1.3-0.4,1.8,0.1l1.3,1.3l4.2,0.4c0.7,0,1.2,0.6,1.2,1.3c0,0,0,0,0,0C-39.4,4-39.9,4.5-40.6,4.5z"/>
		</g>
	</g>
	<g id="Group_2949" transform="translate(167.828 13.406)">
		<path id="Path_3329" class="st7" d="M-15.1,28.2c-0.1-0.1-0.1-0.3-0.2-0.4h-10.2c-0.5,0-1.1,0-1.6-0.1c-2.6-0.3-5-1.6-6.7-3.5
			c0,0,0,0,0,0l0,0c-0.1-0.1-0.3-0.3-0.4-0.5c0,0-0.1-0.1-0.1-0.1l-12-15.9c-1-1.2-1.1-2.9-0.3-4.3c0.8-1.4,2.3-2.3,3.9-2.3h0
			c0.1,0,0.1,0,0.2,0h6.9c-0.2-0.1-0.4-0.3-0.6-0.4s-0.4-0.3-0.6-0.4h-5.7c-0.1,0-0.2,0-0.2,0c-2,0-3.8,1.1-4.7,2.8
			c-0.9,1.6-0.8,3.7,0.4,5.2l12,15.9c0,0.1,0.1,0.1,0.1,0.2c0.1,0.2,0.3,0.4,0.4,0.5l0,0l0,0c1.9,2.1,4.5,3.4,7.3,3.8
			c0.6,0.1,1.2,0.1,1.8,0.1h10.6C-15,28.4-15,28.3-15.1,28.2L-15.1,28.2z M-35.5,0.9h-0.2c0.1,0.1,0.2,0.2,0.4,0.3
			C-35.3,1.1-35.4,0.9-35.5,0.9z"/>
	</g>
</g>
</svg>
