<svg xmlns="http://www.w3.org/2000/svg" viewBox="0 0 34.9 32"><g stroke="#2e4057" stroke-linecap="round" stroke-linejoin="round"><path d="M10.9 18.2h21.3c1.2 0 2.2-1 2.2-2.2 0 0 0 0 0 0V2.7c0-1.2-1-2.2-2.2-2.2 0 0 0 0 0 0H7.1c-1.2 0-2.2 1-2.2 2.2 0 0 0 0 0 0v12.1M24.1 9.6c.5-.6.5-1.5 0-2.1M26 11.7c1.6-1.8 1.6-4.4 0-6.2M28 13.8c2.7-2.9 2.7-7.4 0-10.3" fill="none"/><path d="M7.7 2.5h6v6h-6v-6z" fill="#ffa300"/><path d="M2 31.5V30C1 26.1.5 22.2.5 18.2.5 17 1.7 15.4 3 14M9.3 31.5V31c0-.6.2-1.2.6-1.6 1-1.3 1.6-2.8 1.7-4.4 0-1.1-.4-4.6-.6-6.2-.1-.5 0-1 .1-1.5l.8-2.3c.5-1.4 0-2.9-1.2-3.8-.5-.4-1.3-.3-1.7.2-.1.1-.1.1-.1.2l-1.6 3.3c-.5 1.1-.8 2.3-.8 3.5v.9c0 1.4-.4 2.8-1.1 4.1L5 24" fill="none"/><path d="M14 18.2l.2 1.9c0 .3-.1.6-.2.8-.2.2-.5.3-.7.3h-.4c-.6 0-1.2-.2-1.7-.6" fill="none"/></g></svg>