<svg xmlns="http://www.w3.org/2000/svg" viewBox="0 0 30.6 27.4"><path d="M25 .4c2.8-.2 5.1 1.9 5.1 3.7-.1 5-3.7 5.2-4.7 5.2-1.8 0-4.3-2.2-4.3-4S22.5.6 25 .4z" fill="#ffa300"/><path d="M30.2 7c.5-1.2.6-2.5.1-3.7C29.9 2 29 1 27.8.5c-2.2-1-4.9-.3-6.2 1.7l-.7-.4-.4.7.7.4c-.6 1.3-.6 2.7 0 4l-5.7 12.4v.1l.3.1-.2.4c-.4.7-.2 1.6.4 2.1l-2 3.4c-.6 1.1-1.9 1.5-3 .9-.5-.3-.9-.7-1-1.3-.2-.5-.1-1.1.2-1.6l1.6-3c.9-1.7.3-3.7-1.4-4.6l-.5-.3c-1.6-.9-3.7-.3-4.6 1.3l-1.6 3c-.6 1.1-2 1.5-3.1.9H.4l-.4.6.1.1c1.5.8 3.4.3 4.2-1.2l1.6-3c.7-1.3 2.3-1.7 3.6-1l.5.3c1.3.7 1.7 2.3 1 3.6l-1.6 3c-.8 1.4-.3 3.2 1.1 3.9.4.2.9.4 1.4.4.3 0 .6 0 .8-.1.8-.2 1.4-.7 1.8-1.4l1.9-3.4c.8.2 1.6-.1 2-.8l.2-.3.3.2L26.2 10c1.4-.2 2.6-1 3.4-2.2l.5.3.4-.7-.3-.4zm-8.7-2.1c0-.6.1-1.1.3-1.6l7.2 4c-.8 1.1-2.1 1.8-3.4 1.8-1.1 0-2.2-.4-2.9-1.2-.8-.8-1.2-1.9-1.2-3zm.1 2.9c.9 1.2 2.3 2 3.8 2.1l-6.6 10.5-2.4-1.3 5.2-11.3zm-3.5 13.1l-.2.3c-.3.5-.8.6-1.3.4-.2-.1-.4-.3-.5-.6-.1-.2 0-.5.1-.7l.2-.4 1.7 1zM29.5 6.6l-7.2-4C23.6.7 26.1.2 28 1.4c1.6 1.1 2.3 3.3 1.5 5.2z" fill="#2e4057"/><path d="M19.7 18.6l.9-1.7c.3-.5.1-1.1-.4-1.4l-.5-.3c-.5-.3-1.1-.1-1.3.3l-1 1.8c-.3.5-.1 1.1.4 1.4l.5.3c.2.1.3.1.5.1h.3c.2-.1.5-.2.6-.5zm-.3-2.6l.5.3c.1.1.1.2.1.3l-1 1.6c-.1.1-.2.1-.3.1l-.5-.3c-.1-.1-.1-.2-.1-.3L19 16c.1 0 .3-.1.4 0zM20.3 14.8c.2.1.3.1.5.1h.3c.3-.1.5-.3.6-.5.3-.5.1-1.1-.4-1.4-.5-.3-1.1-.1-1.4.4v.1c-.1.2-.2.5-.1.8 0 .1.2.3.5.5zm.7-.8c-.1.1-.2.2-.3.1-.1-.1-.2-.2-.1-.3 0-.1.1-.1.1-.1h.2c.1 0 .1.2.1.3zM21.4 12.6c.2.1.3.1.5.1h.3c.3-.1.5-.3.6-.5.1-.2.2-.5.1-.8-.1-.3-.3-.5-.5-.6-.5-.3-1.1-.1-1.4.4-.1.2-.2.5-.1.8s.3.5.5.6zm.8-.8c-.1.1-.2.2-.3.1-.1-.1-.2-.2-.1-.3 0-.1.1-.1.2-.1s.1 0 .2.1c0 0 .1.1.1.2-.1-.1-.1 0-.1 0z" fill="#293241"/></svg>