<svg xmlns="http://www.w3.org/2000/svg" viewBox="0 0 27.8 35.7"><path d="M17.4 4.4l-3.3-1.3L11 4 8.8 6.9l-.6 1.9L19 8.6l.2-1.2-1.8-3z" fill="#ffa300"/><path d="M27.7 18.2c-.1-.1-.2-.2-.4-.2h-1.6v-1.1c0-1.6-1.2-2.9-2.8-3.1V11c0-.1-.1-.3-.2-.3l-1.6-1.9c-.2-.3-.6-.4-1-.4h-.5c-.3-1.2-1.4-5.2-5.4-5.5V.4c0-.2-.2-.4-.4-.4s-.4.2-.4.4v2.4C9.4 3.1 8.3 7 8 8.3h-.4c-.4 0-.7.2-1 .5L5 10.7c-.1.1-.2.2-.2.3v2.7c-1.6.2-2.8 1.5-2.8 3.1v1.1H.4c-.2 0-.3.1-.4.2s-.1.3 0 .4L9.6 32l-.5 3.3c0 .2.1.4.4.5h.1c.2 0 .4-.2.4-.4l.4-3h7l.4 3c0 .2.2.4.4.4h.1c.2 0 .4-.2.4-.5l-.5-3.3 9.5-13.4c.1-.1.1-.3 0-.4zm-13.8-4.5h-1.2v-2.2h2.4v2.2h-1.2zm-8.2-2.3H8v2.2H5.7v-2.2zm3.2 0h2.9v2.2H8.9v-2.2zm7.1 0h2.9v2.2H16v-2.2zm3.7 0h2.4v2.2h-2.4v-2.2zm-5.8-7.7c3.6 0 4.7 3.4 5 4.7H9c.2-1.3 1.3-4.7 4.9-4.7zM7.2 9.3c.1-.1.2-.1.3-.2h12.6c.1 0 .2.1.3.1l1 1.3H6.2l1-1.2zm-2 5.2h17.2c1.3 0 2.3 1 2.3 2.3v1.1h-22v-1.1c.2-1.3 1.3-2.3 2.5-2.3zM20 21.4L17.9 19l.1-.2h3.9L20 21.4zm-5.9 1.4l-.2.3-.2-.3-2.9-4H17l-2.9 4zm-8.2-4h3.9l.1.2-2.1 2.5-1.9-2.7zm11.6 12.7h-7.2L1.2 18.8h3.6l3.8 5.3c.1.1.2.2.3.2s.2 0 .2-.1c.2-.1.2-.4.1-.6l-1-1.4 2.1-2.5 2.4 3.4-3.2 4.6c-.1.2-.1.5.1.6.1.1.2.1.2.1.1 0 .3-.1.3-.2l3-4.3.2.3.1.1c.1 0 .1.1.2.1s.2 0 .2-.1l.1-.1.2-.3 3 4.3c.1.1.2.2.3.2.1 0 .2 0 .2-.1.2-.1.2-.4.1-.6L15 23l2.4-3.4 2.1 2.5-1 1.4c-.1.2-.1.5.1.6.1.1.2.1.2.1.1 0 .3-.1.3-.2l3.8-5.3h3.6l-9 12.8z" fill="#2e4057"/></svg>