<svg xmlns="http://www.w3.org/2000/svg" viewBox="0 0 19.6 33.3"><circle cx="9.8" cy="29" r="2" fill="#ffa300"/><g fill="#2e4057"><path d="M16.8 0H2.7C1.1.2-.1 1.6 0 3.3V30c-.1 1.6 1.1 3.1 2.8 3.3h14.1c1.6-.2 2.9-1.6 2.7-3.3V3.2c.2-1.6-1.1-3-2.8-3.2zm2 30.1c.1 1.2-.8 2.2-1.9 2.4h-14c-1.2-.1-2.1-1.2-2-2.4V3.2C.8 2 1.6 1 2.8.9h14c1.2.1 2.1 1.1 2 2.4v26.8z"/><path d="M8.4 2.4h2.8c.2 0 .4-.2.4-.4s-.2-.4-.4-.4H8.4c-.2 0-.4.2-.4.4s.2.4.4.4zM9.8 26.5c-1.3 0-2.4 1.1-2.4 2.4s1.1 2.4 2.4 2.4 2.4-1.1 2.4-2.4-1.1-2.4-2.4-2.4zm0 4c-.9 0-1.6-.7-1.6-1.6s.7-1.6 1.6-1.6 1.6.7 1.6 1.6-.7 1.6-1.6 1.6z"/></g></svg>