<svg xmlns="http://www.w3.org/2000/svg" viewBox="0 0 73.7 84.9"><linearGradient id="a" gradientUnits="userSpaceOnUse" x1="37.044" y1="2.81" x2="37.044" y2="84.89"><stop offset="0" stop-color="#ffa300"/><stop offset="1" stop-color="#ffa300" stop-opacity="0"/></linearGradient><path d="M71.3 84.9H2.8v-73c0-5 4.1-9.1 9.1-9.1h49.4c5.6 0 10.1 4.5 10.1 10.1v72z" fill="url(#a)"/><linearGradient id="b" gradientUnits="userSpaceOnUse" x1="36.825" y1="0" x2="36.825" y2="84.89"><stop offset="0" stop-color="#2e4057"/><stop offset="1" stop-color="#2e4057" stop-opacity="0"/></linearGradient><path d="M73 34.2V10.3C73 4.6 68.4 0 62.7 0H11C5.3 0 .7 4.6.7 10.3v9.6c-.4 0-.7.3-.7.7v4.1c0 .4.3.7.7.7v5.2c-.4 0-.7.3-.7.7v9.3c0 .4.3.7.7.7V44c-.4 0-.7.3-.7.6v9.3c0 .4.3.7.7.7v30.3h4V11.2c0-3.8 3.1-6.9 6.8-6.9H18c.5 0 .8.4.9.8v.5c0 2.1 1.7 3.8 3.8 3.8h28.7c1.9 0 3.4-1.5 3.4-3.4v-.8c0-.5.4-.9.9-.9h6.5c3.8 0 6.9 3.1 6.9 6.9v73.7H73V51c.4 0 .7-.3.7-.7V34.9c0-.4-.4-.7-.7-.7zM40.9 6.4h-8.1c-.3 0-.5-.2-.5-.5s.2-.5.5-.5h8.1c.3 0 .5.2.5.5 0 .2-.2.5-.5.5zm3.9.5c-.6 0-1-.5-1-1s.5-1 1-1 1 .5 1 1-.4 1-1 1z" fill="url(#b)"/><path d="M36.565 24.628c-4.7 0-8.6 3.8-8.6 8.5s3.8 8.6 8.5 8.6 8.6-3.8 8.6-8.5c0-4.8-3.8-8.6-8.5-8.6z" fill="#2e4057"/><path d="M40.865 31.328l-4.6 4.6c-.3.3-.7.3-1 0l-2.3-2.3c-.3-.3-.3-.7 0-1 .3-.3.7-.3 1 0l1.8 1.8 4.1-4.1c.3-.3.7-.3 1 0s.3.8 0 1z" fill="#ffa300"/></svg>