<svg xmlns="http://www.w3.org/2000/svg" viewBox="0 0 19.6 33.3"><g fill="#2e4057"><path d="M2.725 33.325c-1.7-.2-2.9-1.6-2.8-3.3v-26.8c-.1-1.6 1.1-3.1 2.7-3.2h14.1c1.7.2 2.9 1.6 2.8 3.3v26.8c.1 1.6-1.1 3.1-2.7 3.3l-14.1-.1zm14.1-32.5h-14c-1.1.1-2 1.2-1.9 2.4v26.9c-.1 1.2.8 2.3 2 2.4h14c1.1-.1 2-1.2 1.9-2.4v-26.8c0-1.3-.8-2.4-2-2.5z"/><path d="M11.225 2.425h-2.8c-.3 0-.5-.2-.5-.4s.2-.5.5-.5h2.8c.2 0 .4.2.4.4s-.2.5-.4.5zM9.825 31.425c-1.4 0-2.4-1.1-2.4-2.5s1.1-2.4 2.4-2.4 2.4 1.1 2.4 2.4-1.1 2.5-2.4 2.5zm0-4c-.9 0-1.6.7-1.6 1.6s.7 1.6 1.6 1.6 1.6-.7 1.6-1.6-.7-1.6-1.6-1.6z"/></g><path d="M9.8 10.2c-2.5 0-4.5 2-4.5 4.5s2 4.5 4.5 4.5 4.5-2 4.5-4.5-2-4.5-4.5-4.5zm2.3 3.5l-2.4 2.4c-.1.1-.4.1-.5 0L8 14.9c-.1-.1-.1-.4 0-.5.1-.1.4-.1.5 0l1 1 2.2-2.2c.1-.1.4-.1.5 0 .1.1.1.3-.1.5z" fill="#ffa300"/></svg>