<svg xmlns="http://www.w3.org/2000/svg" viewBox="0 0 46.4 46.4"><g fill="#2e4057"><path d="M15.6 18.6l11 .3-3.1 6.8h6.4l3.3-7.1 12.8.2C44 6.9 32.4-.5 22.2 0l1.1 2.8c3.6 0 6.2 2.2 6.1 5.9h-11c-.4-2.8-1.6-5.4-3.5-7.4l-2.1 1.2C20.4 13.2 12.9 26 0 23.2v2.6h12l3.6-7.2z"/><path d="M10.7 3.3L8.5 5.1c5.4 7.6-.3 15.3-8.1 13.1l-.3 3.1c10.4 2.8 18.9-9 10.6-18z"/><path d="M6.9 6.6L5 8.5c2.7 3.5-.4 6.4-3 4.9l-1 2.5c5.2 2.3 11.2-3.5 5.9-9.3zM34.4 20.4l-3.6 7.2-11-.3 3.1-6.8h-6.4l-3.3 7.1H.5C2.4 39.5 14 46.9 24.1 46.3L23 43.5c-3.6 0-6.2-2.2-6.1-5.9h11c.4 2.8 1.6 5.4 3.5 7.4l2.1-1.2C26 33.1 33.5 20.2 46.4 23v-2.6h-12z"/><path d="M39.6 39.7l1.8-2c-2.8-3.4.4-6.3 3-4.8l1.1-2.5c-5.2-2.3-11.2 3.5-5.9 9.3z"/><path d="M35.7 43.1l2.2-1.8c-5.5-7.6.3-15.3 8.1-13.1l.3-3.1c-10.4-2.8-18.9 9-10.6 18z"/></g></svg>