<?xml version="1.0" encoding="utf-8"?>
<!-- Generator: Adobe Illustrator 25.0.1, SVG Export Plug-In . SVG Version: 6.00 Build 0)  -->
<svg version="1.1" id="Layer_1" xmlns="http://www.w3.org/2000/svg" xmlns:xlink="http://www.w3.org/1999/xlink" x="0px" y="0px"
	 viewBox="0 0 26 24" style="enable-background:new 0 0 26 24;" xml:space="preserve">
<path style="fill:#2E4057;" d="M5.9,2.2C4.4,3.5,3.5,5.4,3.3,7.7C0.6,8,0,9.3,0,13.1c0,3.8,0.6,5.1,3.3,5.4c0,0,0,0.1,0,0.1
	c0,3,2.4,5.5,5.4,5.5h1.1c0.6,0,1.1-0.5,1.1-1.1c0-0.6-0.5-1.1-1.1-1.1H8.7c-1.8,0-3.3-1.5-3.3-3.3l0,0c3.6-0.1,4.3-1.2,4.3-5.4
	c0-4.3-0.8-5.3-4.3-5.4c0.2-1.7,0.8-3,1.8-3.8c1.2-1,3.1-1.7,5.7-1.7c2.6,0,4.5,0.6,5.7,1.6c1,0.9,1.7,2.1,1.9,3.8
	c-3.5,0.1-4.3,1.2-4.3,5.4c0,4.5,0.9,5.5,4.9,5.5s4.9-1,4.9-5.5c0-3.8-0.6-5.1-3.3-5.4c-0.2-2.3-1.1-4.2-2.6-5.5
	C18.3,0.7,15.8,0,13,0C10.1,0,7.6,0.7,5.9,2.2z"/>
</svg>
