<svg xmlns="http://www.w3.org/2000/svg" viewBox="0 0 27 15.9"><g fill="#2e4057"><path d="M25.4 2.3h-1.7v.9h1.7c.4 0 .7.3.7.7v8.5c0 .4-.3.7-.7.7h-1.7v.9h1.7c.9 0 1.6-.7 1.6-1.6V3.8c0-.8-.7-1.5-1.6-1.5zM21.4 13H1.6c-.4 0-.7-.3-.7-.7V3.8c0-.4.3-.7.7-.7h19.8v-.8H1.6C.7 2.3 0 3 0 3.8v8.5c0 .9.7 1.6 1.6 1.6h19.8V13z"/><path d="M22.9.9h1.6V0h-4v.9H22V15h-1.5v.9h4V15h-1.6z"/></g><g fill="#ffa300"><path d="M7 6.8l-1.6.9V5.5h-.9v2.2L2.6 7l-.3.9 1.9.6L3 9.8l.6.6L5 9l1.4 1.4.6-.6-1.3-1.3 1.8-.8zM13.3 6.8l-1.6.9V5.5h-.9v2.2L8.6 7l-.3.9 2.1.7-1.2 1.2.6.6L11.2 9l1.4 1.4.6-.6L12 8.5l1.7-.8zM19.9 7.7l-.4-.9-1.6.9V5.5H17v2.2L15.7 7l-.5.9 1.4.7-1.2 1.2.7.6L17.4 9l1.4 1.4.7-.6-1.3-1.3z"/></g></svg>