<?xml version="1.0" encoding="utf-8"?>
<!-- Generator: Adobe Illustrator 24.0.1, SVG Export Plug-In . SVG Version: 6.00 Build 0)  -->
<svg version="1.1" id="Layer_1" xmlns="http://www.w3.org/2000/svg" xmlns:xlink="http://www.w3.org/1999/xlink" x="0px" y="0px"
	 viewBox="0 0 37.5 40.5" style="enable-background:new 0 0 37.5 40.5;" xml:space="preserve">
<g id="Jarime" transform="translate(-212.25 -48.25)">
	<path id="Path_2826" style="fill:#FFA300;" d="M231,54.9v-1l13.1,2.1l-0.3,5.3l-11.6,0.2l0.8-2.9L231,54.9z"/>
	<g id="Path_2818">
		<path style="fill:#2E4057;" d="M243.9,62.5H231c-0.3,0-0.5-0.2-0.7-0.4c-0.1-0.3-0.1-0.6,0.1-0.8l2.1-2.7c-1.6-1.2-3.1-4-3-5.5
			c0-0.2,0.1-0.4,0.3-0.5c0.2-0.1,0.4-0.2,0.6-0.1l14.6,2.6c0.2,0,0.4,0.2,0.5,0.4c0.1,0.2,0.1,0.4,0.1,0.6l-0.9,2.5v3.3
			C244.7,62.2,244.3,62.5,243.9,62.5z M232.5,61h10.6v-2.6c0-0.1,0-0.2,0-0.2l0.6-1.8l-12.7-2.3c0.5,1.4,1.9,3.3,2.7,3.6
			c0.2,0.1,0.4,0.2,0.5,0.5s0,0.5-0.1,0.7L232.5,61z"/>
	</g>
	<g id="Line_189">
		<rect x="233" y="57.2" style="fill:#2E4057;" width="11" height="1.5"/>
	</g>
	<g id="Path_2819">
		<path style="fill:#2E4057;" d="M238.1,70.3c-1.5,0-3-0.6-4.1-1.6c-1.3-1.1-2-2.7-2-4.4l0-2.4h1.5v2.4c0,1.3,0.6,2.5,1.5,3.4
			c0.9,0.9,2.2,1.3,3.5,1.2c2.5-0.1,4.5-2.1,4.6-4.6v-2.4h1.5v2.4c-0.1,3.3-2.7,5.9-6,6C238.4,70.3,238.3,70.3,238.1,70.3z"/>
	</g>
	<g id="Path_2820">
		<path style="fill:#2E4057;" d="M248.9,88.2c-0.4,0-0.8-0.3-0.8-0.8v-9.4c0-2.4-2-4.3-4.4-4.3h-11.1c-2.4,0-4.4,2-4.4,4.3v9.4
			c0,0.4-0.3,0.8-0.8,0.8s-0.8-0.3-0.8-0.8v-9.4c0-3.2,2.6-5.8,5.9-5.8h11.1c3.2,0,5.9,2.6,5.9,5.8v9.4
			C249.7,87.9,249.3,88.2,248.9,88.2z"/>
	</g>
	<g id="Line_190">
		<path style="fill:#2E4057;" d="M232,88.8c-0.4,0-0.8-0.3-0.8-0.8v-8c0-0.4,0.3-0.8,0.8-0.8s0.8,0.3,0.8,0.8v8
			C232.8,88.4,232.4,88.8,232,88.8z"/>
	</g>
	<g id="Line_191">
		<path style="fill:#2E4057;" d="M245,88.8c-0.4,0-0.8-0.3-0.8-0.8v-8c0-0.4,0.3-0.8,0.8-0.8s0.8,0.3,0.8,0.8v8
			C245.8,88.4,245.4,88.8,245,88.8z"/>
	</g>
	<g id="Path_2821">
		<path style="fill:#2E4057;" d="M244.7,88.3h-12c-0.3,0-0.5-0.2-0.7-0.4c-0.1-0.2-0.1-0.5,0.1-0.8l10.3-14.6l1.2,0.9l-9.5,13.4
			h10.6V88.3z"/>
	</g>
	<g id="Path_2822">
		<path style="fill:#FFA300;" d="M221.6,75.5c-0.2,0-0.4-0.1-0.5-0.2l-1.7-1.7c-0.3-0.3-0.3-0.8,0-1.1s0.8-0.3,1.1,0l1.1,1.1
			l2.9-3.6c0.3-0.3,0.7-0.4,1.1-0.1c0.3,0.3,0.4,0.7,0.1,1.1l-3.4,4.3C222.1,75.3,221.9,75.4,221.6,75.5
			C221.6,75.5,221.6,75.5,221.6,75.5z"/>
	</g>
	<g id="Path_2823">
		<path style="fill:#FFA300;" d="M221.6,67.8c-0.2,0-0.4-0.1-0.5-0.2l-1.7-1.7c-0.3-0.3-0.3-0.8,0-1.1s0.8-0.3,1.1,0l1.1,1.1
			l2.9-3.6c0.3-0.3,0.7-0.4,1.1-0.1c0.3,0.3,0.4,0.7,0.1,1.1l-3.4,4.3C222.1,67.6,221.9,67.7,221.6,67.8
			C221.6,67.7,221.6,67.8,221.6,67.8z"/>
	</g>
	<g id="Path_2824">
		<g>
			<path style="fill:#FFA300;" d="M221.6,60c-0.2,0-0.4-0.1-0.5-0.2l-1.7-1.7c-0.3-0.3-0.3-0.8,0-1.1s0.8-0.3,1.1,0l1.1,1.1l2.9-3.6
				c0.3-0.3,0.7-0.4,1.1-0.1c0.3,0.3,0.4,0.7,0.1,1.1l-3.4,4.3C222.1,59.9,221.9,60,221.6,60C221.6,60,221.6,60,221.6,60z"/>
		</g>
	</g>
	<g id="Path_2825">
		<polygon style="fill:#2E4057;" points="225,82.3 212.2,82.3 212.2,48.2 234.3,48.2 234.3,51.6 232.8,51.6 232.8,49.8 213.8,49.8 
			213.8,80.8 225,80.8 		"/>
	</g>
</g>
</svg>
