<svg xmlns="http://www.w3.org/2000/svg" xmlns:xlink="http://www.w3.org/1999/xlink" viewBox="0 0 125 91" style="enable-background:new 0 0 125 91" xml:space="preserve"><path style="fill:#2e4057" d="M104.2 90.3H21c-11 0-20-9-20-20V26.9c0-11 9-20 20-20h83.2c11 0 20 9 20 20v43.4c0 11.1-9 20-20 20z"/><path style="fill:#c5cfde" d="M104.2 54.2c-3 0-5.5-2.5-5.5-5.5v-27c0-3.5-1.7-6.4-3.8-6.4h-.5c-2.1 0-5.6 2.9-5.6 6.4H72v22.6H61.3v9.9h42.9z"/><path style="fill:#e6ecf2" d="M95.3 15.3H60.1c-2.9 0-5.2 2.9-5.2 6.4v50.2c0 3.5-1.3 6.4-3.6 6.4h35.4c2.4 0 4.3-2.9 4.3-6.4V21.7c-.1-3.6 1.4-6.4 4.3-6.4z"/><path style="opacity:.59;fill:#d4dfea;fill-opacity:.54;enable-background:new" d="M91.1 15.4H55.9c-2.9 0-5.2 2.9-5.2 6.4V72c0 3.5-1.3 6.4-3.6 6.4h35.4c2.4 0 4.3-2.9 4.3-6.4V21.8c-.1-3.6 1.5-6.4 4.3-6.4z"/><path style="fill:#f0f4f8" d="M82.2 71.8V11c0-3.5-2.1-6.4-4.6-6.4H77c-2.5 0-6.7 2.9-6.7 6.4h-20v22.6H37.6v38.2c0 3.5 2.9 6.4 6.4 6.4h43c-3.6 0-4.8-2.8-4.8-6.4z"/><path style="fill:#fff" d="M78.1 4.6H34.4C30.9 4.6 28 7.5 28 11v59.5h44.6V11c0-3.5 2-6.4 5.5-6.4z"/><defs><path id="a" d="M49.3 55.5h19.3v13.2H49.3z"/></defs><clipPath id="b"><use xlink:href="#a" style="overflow:visible"/></clipPath><g style="clip-path:url(#b)"><path style="fill:#e2e7ed" d="M51.5 57.7h-2.1v8.8h2.1v-8.8zM56.9 57.7h-2.1v8.8h2.1v-8.8zM60.1 57.7H58v8.8h2.1v-8.8zM68.6 57.7h-3.2v8.8h3.2v-8.8zM53.6 57.7h-1v8.8h1v-8.8zM62.2 57.7h-1v8.8h1v-8.8zM64.4 57.7h-1v8.8h1v-8.8z"/></g><path style="fill:#e2e7ed" d="M48.1 22.1H33.5c-.4 0-.8-.3-.8-.8 0-.4.3-.8.8-.8h14.6c.4 0 .8.3.8.8 0 .4-.4.8-.8.8zM66.6 22.1h-5.5c-.4 0-.8-.3-.8-.8 0-.4.3-.8.8-.8h5.5c.4 0 .8.3.8.8 0 .4-.3.8-.8.8zM66.6 25.5h-5.5c-.4 0-.8-.3-.8-.8 0-.4.3-.8.8-.8h5.5c.4 0 .8.3.8.8s-.3.8-.8.8zM66.6 28.9h-5.5c-.4 0-.8-.3-.8-.8 0-.4.3-.8.8-.8h5.5c.4 0 .8.3.8.8s-.3.8-.8.8zM66.6 35.8h-5.5c-.4 0-.8-.3-.8-.8 0-.4.3-.8.8-.8h5.5c.4 0 .8.3.8.8s-.3.8-.8.8zM66.6 39.2h-5.5c-.4 0-.8-.3-.8-.8s.3-.8.8-.8h5.5c.4 0 .8.3.8.8s-.3.8-.8.8zM42.4 25.5h-8.9c-.4 0-.8-.3-.8-.8 0-.4.3-.8.8-.8h8.9c.4 0 .8.3.8.8s-.3.8-.8.8zM44.6 28.9H33.5c-.4 0-.8-.3-.8-.8 0-.4.3-.8.8-.8h11.1c.4 0 .8.3.8.8s-.4.8-.8.8zM45.7 35.8H33.5c-.4 0-.8-.3-.8-.8 0-.4.3-.8.8-.8h12.2c.4 0 .8.3.8.8s-.4.8-.8.8zM47.1 39.2H33.5c-.4 0-.8-.3-.8-.8s.3-.8.8-.8h13.6c.4 0 .8.3.8.8s-.4.8-.8.8zM46.7 43.7h-14V50h14v-6.3z"/><g><linearGradient id="c" gradientUnits="userSpaceOnUse" x1="16.218" y1="54.608" x2="32.393" y2="29.961" gradientTransform="matrix(1 0 0 -1 0 92)"><stop offset="0" style="stop-color:#ffac2c"/><stop offset="1" style="stop-color:#ffb52c"/></linearGradient><path style="fill:url(#c)" d="M24.4 37.2c7 0 12.7 5.7 12.7 12.7 0 7-5.7 12.7-12.7 12.7-7 0-12.7-5.7-12.7-12.7 0-7 5.7-12.7 12.7-12.7z"/></g><g><defs><path id="d" d="M16 42h16.3v16.3H16z"/></defs><clipPath id="e"><use xlink:href="#d" style="overflow:visible"/></clipPath><g style="clip-path:url(#e)"><path style="fill:#455a64" d="M18.5 54c-.2 0-.4-.2-.4-.4v-7.1c0-.2.2-.4.4-.4s.4.2.4.4v7.1c-.1.3-.2.4-.4.4zM19.9 52.6c-.2 0-.4-.2-.4-.4v-5.7c0-.2.2-.4.4-.4s.4.2.4.4v5.7c-.1.3-.2.4-.4.4zM21.3 52.6c-.2 0-.4-.2-.4-.4v-5.7c0-.2.2-.4.4-.4s.4.2.4.4v5.7c0 .3-.2.4-.4.4zM22.7 52.6c-.2 0-.4-.2-.4-.4v-5.7c0-.2.2-.4.4-.4s.4.2.4.4v5.7c0 .3-.2.4-.4.4zM24.1 54c-.2 0-.4-.2-.4-.4v-7.1c0-.2.2-.4.4-.4s.4.2.4.4v7.1c0 .3-.2.4-.4.4zM25.5 52.6c-.2 0-.4-.2-.4-.4v-5.7c0-.2.2-.4.4-.4s.4.2.4.4v5.7c0 .3-.2.4-.4.4zM27 52.6c-.2 0-.4-.2-.4-.4v-5.7c0-.2.2-.4.4-.4s.4.2.4.4v5.7c-.1.3-.2.4-.4.4zM28.4 52.6c-.2 0-.4-.2-.4-.4v-5.7c0-.2.2-.4.4-.4s.4.2.4.4v5.7c-.1.3-.2.4-.4.4zM29.8 54c-.2 0-.4-.2-.4-.4v-7.1c0-.2.2-.4.4-.4s.4.2.4.4v7.1c-.1.3-.2.4-.4.4zM19.9 54h-.1s-.1 0-.1-.1c-.1-.1-.1-.3 0-.5l.1-.1c.1-.1.3 0 .4.1.1.1.1.4 0 .5-.1.1-.2.1-.3.1zM21.3 54h-.1s-.1 0-.1-.1c-.1-.1-.1-.3 0-.5l.1-.1c.1-.1.3 0 .4.1l.1.1v.3s0 .1-.1.1c-.1.1-.2.1-.3.1zM22.7 54h-.1s-.1 0-.1-.1c-.1-.1-.1-.3 0-.5l.1-.1c.1-.1.3 0 .4.1l.1.1v.3s0 .1-.1.1c-.1.1-.2.1-.3.1zM25.5 54c-.2 0-.4-.2-.3-.4 0-.1 0-.2.1-.2.1-.1.4-.1.5 0l.1.1v.3s0 .1-.1.1c-.1.1-.2.1-.3.1zM27 54c-.2 0-.4-.2-.3-.4 0-.1 0-.2.1-.2.1-.1.4-.1.5 0 .1.1.1.4 0 .5-.2.1-.2.1-.3.1zM28.4 54c-.1 0-.2 0-.2-.1l-.1-.1v-.3s0-.1.1-.1c.1-.1.4-.1.5 0 .1.1.1.4 0 .5-.1.1-.2.1-.3.1z"/><path style="fill:#2196f3" d="M16.4 47c-.2 0-.4-.2-.4-.4v-2.1c0-.2.2-.4.4-.4h2.1c.2 0 .4.2.4.4s-.2.4-.4.4h-1.8v1.8c0 .1-.2.3-.3.3zM18.5 56.1h-2.1c-.2 0-.4-.2-.4-.4v-2.1c0-.2.2-.4.4-.4s.4.2.4.4v1.8h1.8c.2 0 .4.2.4.4-.2.2-.3.3-.5.3zM31.9 47c-.2 0-.4-.2-.4-.4v-1.8h-1.8c-.2 0-.4-.2-.4-.4s.2-.4.4-.4h2.1c.2 0 .4.2.4.4v2.1c.1.3-.1.5-.3.5zM31.9 56.1h-2.1c-.2 0-.4-.2-.4-.4s.2-.4.4-.4h1.8v-1.8c0-.2.2-.4.4-.4s.4.2.4.4v2.1c-.1.4-.3.5-.5.5z"/><path style="fill:#fff" d="M18.5 54c-.2 0-.4-.2-.4-.4v-7.1c0-.2.2-.4.4-.4s.4.2.4.4v7.1c-.1.3-.2.4-.4.4zM19.9 52.6c-.2 0-.4-.2-.4-.4v-5.7c0-.2.2-.4.4-.4s.4.2.4.4v5.7c-.1.3-.2.4-.4.4zM21.3 52.6c-.2 0-.4-.2-.4-.4v-5.7c0-.2.2-.4.4-.4s.4.2.4.4v5.7c0 .3-.2.4-.4.4zM22.7 52.6c-.2 0-.4-.2-.4-.4v-5.7c0-.2.2-.4.4-.4s.4.2.4.4v5.7c0 .3-.2.4-.4.4zM24.1 54c-.2 0-.4-.2-.4-.4v-7.1c0-.2.2-.4.4-.4s.4.2.4.4v7.1c0 .3-.2.4-.4.4zM25.5 52.6c-.2 0-.4-.2-.4-.4v-5.7c0-.2.2-.4.4-.4s.4.2.4.4v5.7c0 .3-.2.4-.4.4zM27 52.6c-.2 0-.4-.2-.4-.4v-5.7c0-.2.2-.4.4-.4s.4.2.4.4v5.7c-.1.3-.2.4-.4.4zM28.4 52.6c-.2 0-.4-.2-.4-.4v-5.7c0-.2.2-.4.4-.4s.4.2.4.4v5.7c-.1.3-.2.4-.4.4zM29.8 54c-.2 0-.4-.2-.4-.4v-7.1c0-.2.2-.4.4-.4s.4.2.4.4v7.1c-.1.3-.2.4-.4.4zM19.9 54h-.1s-.1 0-.1-.1c-.1-.1-.1-.3 0-.5l.1-.1h.3s.1 0 .1.1c.1.1.1.4 0 .5-.1.1-.2.1-.3.1zM21.3 54c-.2 0-.4-.2-.3-.4 0-.1 0-.2.1-.2.1-.1.3-.1.4-.1 0 0 .1 0 .1.1.1.1.1.4 0 .5-.1.1-.2.1-.3.1zM22.7 54c-.2 0-.4-.2-.3-.4 0-.1 0-.2.1-.2l.1-.1c.1-.1.3 0 .4.1.1.1.1.4 0 .5-.1.1-.2.1-.3.1zM25.5 54h-.1s-.1 0-.1-.1c-.1-.1-.1-.3 0-.5l.1-.1h.3s.1 0 .1.1c.1.1.1.4 0 .5-.1.1-.2.1-.3.1zM27 54h-.1s-.1 0-.1-.1c-.1-.1-.1-.3 0-.5.1-.1.4-.1.5 0 .1.1.1.3 0 .5l-.1.1H27zM28.4 54h-.1s-.1 0-.1-.1c-.1-.1-.1-.2-.1-.2v-.1s0-.1.1-.1l.1-.1c.1-.1.3 0 .4.1l.1.1v.1c-.1.2-.2.3-.4.3zM16.4 47c-.2 0-.4-.2-.4-.4v-2.1c0-.2.2-.4.4-.4h2.1c.2 0 .4.2.4.4s-.2.4-.4.4h-1.8v1.8c0 .1-.2.3-.3.3zM18.5 56.1h-2.1c-.2 0-.4-.2-.4-.4v-2.1c0-.2.2-.4.4-.4s.4.2.4.4v1.8h1.8c.2 0 .4.2.4.4-.2.2-.3.3-.5.3zM31.9 47c-.2 0-.4-.2-.4-.4v-1.8h-1.8c-.2 0-.4-.2-.4-.4s.2-.4.4-.4h2.1c.2 0 .4.2.4.4v2.1c.1.3-.1.5-.3.5zM31.9 56.1h-2.1c-.2 0-.4-.2-.4-.4s.2-.4.4-.4h1.8v-1.8c0-.2.2-.4.4-.4s.4.2.4.4v2.1c-.1.4-.3.5-.5.5z"/></g></g></svg>