<svg xmlns="http://www.w3.org/2000/svg" viewBox="0 0 23.6 23.6"><g fill="#2e4057"><path d="M7.3 0h-7C.1 0 0 .1 0 .3v7c0 .2.1.3.3.3h7c.2 0 .3-.1.3-.3v-7c.1-.2-.1-.3-.3-.3zM7 7H.7V.7H7V7zM23.2 0h-7c-.2 0-.3.1-.3.3v7c0 .2.1.3.3.3h7c.2 0 .3-.1.3-.3v-7c0-.2-.1-.3-.3-.3zm-.3 7h-6.3V.7h6.3V7zM7.3 15.9h-7c-.2 0-.3.1-.3.3v7c0 .2.1.3.3.3h7c.2 0 .3-.1.3-.3v-7c.1-.2-.1-.3-.3-.3zm-.3 7H.7v-6.3H7v6.3zM7.3 9H.8c-.2 0-.3.1-.3.3s.1.3.3.3H7v.7c0 .2.1.3.3.3s.3-.1.3-.3v-1c.1-.2-.1-.3-.3-.3zM.3 14.5h6.5c.2 0 .3-.1.3-.3s-.1-.3-.3-.3H.7v-.7c0-.2-.1-.3-.3-.3s-.4.1-.4.3v1c0 .2.1.3.3.3zM23.2 15.9c-.2 0-.3.1-.3.3v6.7h-1.7c-.2 0-.3.1-.3.3s.1.3.3.3h2c.2 0 .3-.1.3-.3v-7c0-.2-.1-.3-.3-.3zM10.3 15.9h-1c-.2 0-.3.1-.3.3v6.5c0 .2.1.3.3.3s.3-.1.3-.3v-6.2h.7c.2 0 .3-.1.3-.3s-.1-.3-.3-.3zM18.2 22.9h-5.9c-.2 0-.3.1-.3.3s.1.3.3.3h5.9c.2 0 .3-.1.3-.3s-.1-.3-.3-.3zM14.5 21.2c0-.2-.1-.3-.3-.3h-2.9c-.2 0-.3.1-.3.3s.1.3.3.3h2.9c.2 0 .3-.1.3-.3z"/><path d="M18.2 21.5h3c.2 0 .3-.1.3-.3s-.1-.3-.3-.3h-3c-.2 0-.3.1-.3.3s.1.3.3.3zM18.2 16.5h2c.2 0 .3-.1.3-.3s-.1-.3-.3-.3h-2c-.2 0-.3.1-.3.3s.1.3.3.3zM16.2 16.5c.2 0 .3-.1.3-.3s-.1-.3-.3-.3h-1c-.2 0-.3.1-.3.3s.1.3.3.3h1zM13.3 15.9h-1c-.2 0-.3.1-.3.3s.1.3.3.3h1c.2 0 .3-.1.3-.3s-.1-.3-.3-.3zM17.9 19.2c0 .2.1.3.3.3s.3-.1.3-.3v-1c0-.2-.1-.3-.3-.3s-.3.1-.3.3v1zM21.5 19.2v-1c0-.2-.1-.3-.3-.3s-.3.1-.3.3v1c0 .2.1.3.3.3s.3-.1.3-.3zM11 18.2v1c0 .2.1.3.3.3s.3-.1.3-.3v-1c0-.2-.1-.3-.3-.3s-.3.1-.3.3zM14.2 17.9c-.2 0-.3.1-.3.3v1c0 .2.1.3.3.3s.3-.1.3-.3v-1c0-.2-.1-.3-.3-.3zM2.3 11.7c.2 0 .3-.1.3-.3s-.1-.4-.3-.4h-1c-.2 0-.3.1-.3.3s.1.3.3.3h1zM5.3 12.7c.2 0 .3-.1.3-.3s-.1-.4-.3-.4h-1c-.2 0-.3.1-.3.3s.1.3.3.3h1zM23.2 13.9h-3.7c0-.1.1-.1.1-.2v-1.4c0-.2-.1-.3-.3-.3s-.3.1-.3.3v1.4c0 .1 0 .1.1.2h-3.7c-.2 0-.3.1-.3.3s.1.3.3.3h8c.2 0 .3-.1.3-.3s-.3-.3-.5-.3zM23.2 9h-8c-.2 0-.3.1-.3.3s.1.3.3.3h8c.2 0 .3-.1.3-.3s-.1-.3-.3-.3zM9.3.7h4.6v5.7c0 .2.1.3.3.3s.3-.1.3-.3v-6c0-.2-.1-.3-.3-.3H9.3C9.1 0 9 .1 9 .3s.1.4.3.4zM9.3 7.7c.2 0 .3-.1.3-.3v-5c.1-.3-.1-.4-.3-.4s-.3.1-.3.3v5c0 .2.1.4.3.4z"/><path d="M11.3 2c-.2 0-.3.1-.3.3v1c0 .2.1.3.3.3s.3-.1.3-.3v-1c.1-.2-.1-.3-.3-.3zM12.7 6.3v-1c0-.2-.1-.3-.3-.3s-.4.1-.4.3v1c0 .2.1.3.3.3s.4-.1.4-.3zM23.2 11c-.2 0-.3.1-.3.3v1c0 .2.1.3.3.3s.3-.1.3-.3v-1c0-.2-.1-.3-.3-.3zM15.2 12.7c.2 0 .3-.1.3-.3v-1c0-.2-.1-.3-.3-.3s-.3.1-.3.3v1c0 .1.1.3.3.3zM17.5 12.3v-1c0-.2-.1-.3-.3-.3s-.3.1-.3.3v1c0 .2.1.3.3.3s.3-.1.3-.3zM9.3 14.5c.2 0 .3-.1.3-.3v-3.6c.1 0 .1.1.2.1h1.5c.2 0 .3-.1.3-.3s-.1-.4-.3-.4H9.8c-.1 0-.1 0-.2.1v-.8c.1-.2-.1-.3-.3-.3s-.3.1-.3.3v4.9c0 .2.1.3.3.3zM13.7 8.3c0-.2-.1-.3-.3-.3s-.4.1-.4.3V12c-.1 0-.1-.1-.2-.1h-1.5c-.2 0-.3.1-.3.3s.1.3.3.3h1.5c.1 0 .1 0 .2-.1v.7c0 .2.1.3.3.3s.3-.1.3-.3V8.3zM2.3 5.7h3c.2 0 .3-.1.3-.3v-3c.1-.3-.1-.4-.3-.4h-3c-.2 0-.3.1-.3.3v3c0 .2.1.4.3.4zM18.2 5.7h3c.2 0 .3-.1.3-.3v-3c0-.2-.1-.3-.3-.3h-3c-.2 0-.3.1-.3.3v3c0 .1.1.3.3.3zM2.3 21.5h3c.2 0 .3-.1.3-.3v-3c0-.2-.1-.3-.3-.3h-3c-.2 0-.3.1-.3.3v3c0 .2.1.3.3.3z"/></g></svg>