<svg xmlns="http://www.w3.org/2000/svg" viewBox="0 0 57.2 57.2"><path fill="none" d="M1 1h16.8v16.8H1z"/><path d="M17.8 17.8H1V1h16.8v16.8zM3 15.8h12.8V3H3v12.8z" fill="#cdd2dc"/><path fill="none" d="M39.39 1h16.8v16.8h-16.8z"/><path d="M56.19 17.8h-16.8V1h16.8v16.8zm-14.8-2h12.8V3h-12.8v12.8z" fill="#cdd2dc"/><path fill="none" d="M1 39.39h16.8v16.8H1z"/><path d="M17.8 56.19H1v-16.8h16.8v16.8zm-14.8-2h12.8v-12.8H3v12.8zM18.8 25h-2v-1.4H2.2v-2h16.6zM16.6 35.6H0v-3.4h2v1.4h14.6zM57.2 57.2h-5.8v-2h3.8V39.4h2zM23.6 55h-2V38.4H25v2h-1.4zM29.8 55.2h14.4v2H29.8zM27.4 50.4h7.2v2h-7.2zM44.2 50.4h7.2v2h-7.2zM44.2 38.4H49v2h-4.8zM37 38.4h2.4v2H37zM29.8 38.4h2.4v2h-2.4zM43.2 44.2h2v2.4h-2zM50.4 44.2h2v2.4h-2zM26.4 44.2h2v2.4h-2zM33.6 44.2h2v2.4h-2zM3.4 26.4h2.4v2H3.4zM10.6 28.8H13v2h-2.4zM37 33.6h19.2v2H37zM37 21.6h19.2v2H37zM22.6 0h12v2h-12zM21.6 5.8h2v12h-2zM26.4 5.8h2v2.4h-2zM28.8 13h2v2.4h-2z" fill="#cdd2dc"/><path fill="#cdd2dc" d="M33.6 1h2v14.4h-2zM45.6 29.8h2v3.6h-2zM55.2 27.4h2v2.4h-2zM36 27.4h2v2.4h-2zM40.8 27.4h2v2.4h-2zM21.6 22.6h2v12h-2zM23.8 24h3.6v2h-3.6zM31.2 20.2h2v12h-2zM27.4 28.8H31v2h-3.6z"/><path fill="none" d="M5.799 5.799h7.2v7.2h-7.2z"/><path d="M12.999 12.999h-7.2v-7.2h7.2v7.2zm-5.2-2h3.2v-3.2h-3.2v3.2z" fill="#cdd2dc"/><g><path fill="none" d="M44.189 5.799h7.2v7.2h-7.2z"/><path d="M51.389 12.999h-7.2v-7.2h7.2v7.2zm-5.2-2h3.2v-3.2h-3.2v3.2z" fill="#cdd2dc"/></g><g><path fill="none" d="M5.799 44.189h7.2v7.2h-7.2z"/><path d="M12.999 51.389h-7.2v-7.2h7.2v7.2zm-5.2-2h3.2v-3.2h-3.2v3.2z" fill="#cdd2dc"/></g><g><path d="M28.515 18.217c6.6 0 12 5.4 12 12s-5.4 12-12 12-12-5.4-12-12 5.4-12 12-12z" fill="#f43452"/><path d="M28.515 42.217c-6.6 0-12-5.4-12-12s5.4-12 12-12 12 5.4 12 12-5.4 12-12 12zm0-23c-6.1 0-11 4.9-11 11s4.9 11 11 11 11-4.9 11-11-4.9-11-11-11z" fill="#eff3f6"/></g><g><path d="M29.4 30.8l3.8-3.8c.2-.2.2-.7 0-.9-.2-.2-.7-.2-.9 0l-3.8 3.8-3.8-3.8c-.2-.2-.7-.2-.9 0-.2.2-.2.7 0 .9l3.8 3.8-3.8 3.8c-.2.2-.2.7 0 .9s.7.2.9 0l3.8-3.8 3.8 3.8c.2.2.7.2.9 0s.2-.7 0-.9l-3.8-3.8z" fill="#fff"/></g></svg>