<svg xmlns="http://www.w3.org/2000/svg" viewBox="0 0 26.3 26.3"><g fill="#2e4057"><path d="M8.1 0H.3C.1 0 0 .1 0 .3v7.8c0 .2.1.3.3.3h7.8c.2 0 .3-.1.3-.3V.3c.1-.2-.1-.3-.3-.3zm-.3 7.8H.7V.7h7.1v7.1zM25.9 0h-7.8c-.2 0-.3.1-.3.3v7.8c0 .2.1.3.3.3h7.8c.2 0 .3-.1.3-.3V.3c0-.2-.1-.3-.3-.3zm-.3 7.8h-7.1V.7h7.1v7.1zM8.1 17.8H.3c-.2 0-.3.1-.3.3v7.8c0 .2.1.3.3.3h7.8c.2 0 .3-.1.3-.3v-7.8c.1-.2-.1-.3-.3-.3zm-.3 7.8H.7v-7.1h7.1v7.1zM8.1 10H.9c-.2 0-.3.1-.3.3s.1.3.3.3h6.9v.8c0 .2.1.3.3.3s.3-.1.3-.3v-1.1c.1-.2-.1-.3-.3-.3zM.3 16.3h7.2c.2 0 .3-.1.3-.3s-.1-.3-.3-.3H.7v-.8c0-.2-.1-.3-.3-.3s-.4 0-.4.2v1.1c0 .2.1.4.3.4zM25.9 17.8c-.2 0-.3.1-.3.3v7.5h-1.9c-.2 0-.3.1-.3.3s.1.3.3.3h2.2c.2 0 .3-.1.3-.3v-7.8c0-.2-.1-.3-.3-.3zM11.4 17.9h-1.1c-.2 0-.3.1-.3.3v7.2c0 .2.1.3.3.3s.3-.1.3-.3v-6.9h.8c.2 0 .3-.1.3-.3s-.1-.3-.3-.3zM20.3 25.6h-6.6c-.2 0-.3.1-.3.3s.1.3.3.3h6.6c.2 0 .3-.1.3-.3s-.1-.3-.3-.3zM16.2 23.7c0-.2-.1-.3-.3-.3h-3.3c-.2 0-.3.1-.3.3s.1.3.3.3h3.3c.2 0 .3-.1.3-.3z"/><path d="M20.3 24h3.4c.2 0 .3-.1.3-.3s-.1-.3-.3-.3h-3.4c-.2 0-.3.1-.3.3s.1.3.3.3zM20.3 18.5h2.3c.2 0 .3-.1.3-.3s-.1-.3-.3-.3h-2.3c-.2 0-.3.1-.3.3s.1.3.3.3zM18.1 18.5c.2 0 .3-.1.3-.3s-.1-.3-.3-.3H17c-.2 0-.3.1-.3.3s.1.3.3.3h1.1zM14.8 17.8h-1.1c-.2 0-.3.1-.3.3s.1.3.3.3h1.1c.2 0 .3-.1.3-.3s-.1-.3-.3-.3zM20 21.5c0 .2.1.3.3.3s.3-.1.3-.3v-1.2c0-.2-.1-.3-.3-.3s-.3.1-.3.3v1.2zM24 21.5v-1.2c0-.2-.1-.3-.3-.3s-.3.1-.3.3v1.2c0 .2.1.3.3.3s.3-.1.3-.3zM12.3 20.3v1.2c0 .2.1.3.3.3s.3-.1.3-.3v-1.2c0-.2-.1-.3-.3-.3s-.3.1-.3.3zM15.9 20c-.2 0-.3.1-.3.3v1.2c0 .2.1.3.3.3s.3-.1.3-.3v-1.2c0-.2-.1-.3-.3-.3zM2.5 13c.2 0 .3-.1.3-.3s-.1-.3-.3-.3H1.4c-.2 0-.3.1-.3.3s.1.3.3.3h1.1zM5.9 14c.2 0 .3-.1.3-.3s-.1-.3-.3-.3H4.8c-.2 0-.3.1-.3.3s.1.3.3.3h1.1zM25.9 15.6h-4.3c.1-.1.2-.1.2-.3v-1.6c0-.2-.1-.3-.3-.3s-.3.1-.3.3v1.6c0 .1.1.2.2.3H17c-.2 0-.3.1-.3.3s.1.3.3.3h8.9c.2 0 .3-.1.3-.3s-.1-.3-.3-.3zM25.9 10H17c-.2 0-.3.1-.3.3s.1.3.3.3h8.9c.2 0 .3-.1.3-.3s-.1-.3-.3-.3zM10.3.7h5.3V7c0 .2.1.3.3.3s.3-.1.3-.3V.3c0-.2-.1-.3-.3-.3h-5.6c-.2 0-.3.1-.3.3s.1.4.3.4zM10.3 8.5c.2 0 .3-.1.3-.3V2.5c0-.2-.1-.3-.3-.3s-.3.1-.3.3v5.6c0 .2.1.4.3.4z"/><path d="M12.6 2.2c-.2 0-.3.1-.3.3v1.1c0 .2.1.3.3.3s.4-.1.4-.3V2.5c0-.2-.2-.3-.4-.3zM14 7V5.9c0-.2-.1-.3-.3-.3s-.3.1-.3.3V7c0 .2.1.3.3.3s.3-.1.3-.3zM25.9 12.3c-.2 0-.3.1-.3.3v1.1c0 .2.1.3.3.3s.3-.1.3-.3v-1.1c0-.2-.1-.3-.3-.3zM17 14c.2 0 .3-.1.3-.3v-1.1c0-.2-.1-.3-.3-.3s-.3.1-.3.3v1.1c0 .2.1.3.3.3zM19.5 13.7v-1.1c0-.2-.1-.3-.3-.3s-.3.1-.3.3v1.1c0 .2.1.3.3.3s.3-.1.3-.3zM10.3 16.3c.2 0 .3-.1.3-.3v-4.4c.1.1.1.2.3.2h1.7c.2 0 .3-.1.3-.3s-.1-.3-.3-.3h-1.7c-.1 0-.2.1-.3.2v-1c0-.2-.1-.3-.3-.3s-.3 0-.3.2v5.6c0 .2.1.4.3.4zM15.2 9.2c0-.2-.1-.3-.3-.3s-.4.1-.4.3v4.4c-.1-.1-.1-.2-.3-.2h-1.6c-.2 0-.3.1-.3.3s.1.3.3.3h1.6c.1 0 .2-.1.3-.2v1c0 .2.1.3.3.3s.3-.1.3-.3V9.2zM2.5 6.2h3.3c.2 0 .4-.2.4-.4V2.5c0-.2-.1-.3-.3-.3H2.5c-.2 0-.3.1-.3.3v3.3c0 .2.1.4.3.4zm.4-3.3h2.6v2.6H2.9V2.9zM20.3 6.2h3.3c.2 0 .4-.2.4-.4V2.5c0-.2-.1-.3-.3-.3h-3.3c-.2 0-.3.1-.3.3v3.3c-.1.2 0 .4.2.4zm.4-3.3h2.6v2.6h-2.6V2.9zM2.5 24h3.3c.2 0 .3-.1.3-.3v-3.3c.1-.3-.1-.4-.3-.4H2.5c-.2 0-.3.1-.3.3v3.3c0 .2.1.4.3.4zm.4-3.3h2.6v2.6H2.9v-2.6z"/></g></svg>