<svg xmlns="http://www.w3.org/2000/svg" viewBox="0 0 25.4 25.4"><path d="M12.7 0C5.7 0 0 5.7 0 12.7c0 7 5.7 12.7 12.7 12.7 7 0 12.7-5.7 12.7-12.7C25.3 5.7 19.7 0 12.7 0zm0 24.5C6.2 24.5.9 19.2.9 12.7S6.2.9 12.7.9c6.5 0 11.8 5.3 11.8 11.8 0 6.5-5.3 11.8-11.8 11.8z" fill="#2e4057"/><path d="M12.7 5.6c-2.1 0-3.8 1.7-3.8 3.8v1.1c0 .2.2.4.4.4s.4-.2.4-.4V9.3c0-1.6 1.3-2.9 2.9-2.9 1.6 0 2.9 1.3 2.9 2.9v.8c0 .8-.3 1.5-.9 2.1l-1.4 1.4c-.7.7-1.1 1.7-1.1 2.7v.8c0 .2.2.4.4.4s.4-.2.4-.4v-.8c0-.8.3-1.5.9-2.1l1.4-1.4c.7-.7 1.1-1.7 1.1-2.7v-.8c.2-2-1.5-3.7-3.6-3.7zM12.7 18.9c-.5 0-1 .4-1 1 0 .5.4 1 1 1 .5 0 1-.4 1-1 0-.5-.5-1-1-1zm-.1 1c0-.1.1-.1.1-.1.1 0 .1.1.1.1 0 .1-.2.1-.2 0z" fill="#ffa300"/></svg>