<svg xmlns="http://www.w3.org/2000/svg" viewBox="0 0 17 20" style="enable-background:new 0 0 17 20" xml:space="preserve"><path style="fill:#2e4057" d="M12.3 0H4.7C.9 0 0 1 0 5v11.3c0 2.7 1.5 3.3 3.2 1.4.8-.9 2.1-.8 2.8.1l1 1.4c.8 1.1 2.1 1.1 2.9 0l1-1.4c.7-1 2-1 2.8-.1 1.8 1.9 3.2 1.3 3.2-1.4V5c.1-4-.8-5-4.6-5zM4.6 10c-.6 0-1-.4-1-1s.4-1 1-1 1 .4 1 1-.4 1-1 1zm0-4c-.6 0-1-.4-1-1s.4-1 1-1 1 .4 1 1-.4 1-1 1zm8.3 3.8H7.4c-.4 0-.8-.4-.8-.8s.4-.8.8-.8h5.5c.4 0 .8.3.8.8s-.4.8-.8.8zm0-4H7.4c-.4 0-.8-.4-.8-.8s.4-.8.8-.8h5.5c.4 0 .8.3.8.8s-.4.8-.8.8z"/></svg>