<svg xmlns="http://www.w3.org/2000/svg" viewBox="0 0 17.1 21.8"><path d="M5.705 17.091c.2 0 .4-.2.4-.4v-7.2c0-.2-.2-.4-.4-.3-.2 0-.3.2-.3.3v7.2c-.1.2.1.4.3.4zM8.505 17.791c.2 0 .4-.2.4-.4v-8.7c0-.2-.1-.4-.3-.4-.2 0-.4.1-.4.3v8.7c0 .4.1.5.3.5zM11.405 17.091c.2 0 .4-.2.4-.4v-7.2c0-.2-.1-.4-.3-.4s-.4.1-.4.3v7.2c-.1.3.1.5.3.5z" fill="#ffa300"/><path d="M17.105 1.291c-.1-.7-.7-1.2-1.4-1.2h-.3l-4.6 1c0-.2-.1-.4-.2-.5-.1-.2-.3-.4-.5-.5-1.4 0-2.7.3-4 .9-.2.2-.3.4-.3.7 0 .2 0 .4.1.6l-4.8 1c-.8.2-1.3 1-1.1 1.8.1.5.5 1 1 1.1l1.6 13.8c.2 1.6 1 1.9 1.7 1.9h8.6c.7 0 1.5-.3 1.7-1.9l1.6-14c0-.2-.1-.3-.3-.3h-11.3l11.4-2.4c.4-.1.7-.3.9-.7.2-.5.3-.9.2-1.3zm-10.6 0c1.1-.4 2.2-.7 3.4-.7.1 0 .2.2.3.6l-3.7.8c-.1-.4-.1-.6 0-.7zm9 4.8l-1.6 13.7c-.2 1.2-.7 1.4-1.1 1.4h-8.6c-.4 0-.9-.1-1.1-1.4l-1.6-13.7h14zm.9-4c-.1.2-.3.3-.5.4l-14.1 3h-.5-.1c-.3-.1-.6-.4-.6-.7-.1-.5.2-1 .7-1.1l14.2-3h.2c.4 0 .8.3.9.8 0 .2-.1.4-.2.6z" fill="#223041"/></svg>