<svg xmlns="http://www.w3.org/2000/svg" viewBox="0 0 23 24"><path d="M22 11c-.6 0-1 .5-1 1 0 3.7-.9 6.1-2.3 7.6S15 22 11.5 22s-5.8-.9-7.2-2.4c-.4-.4-.8-1-1.1-1.6H7c.6 0 1-.4 1-1s-.4-1-1-1H1c-.6 0-1 .4-1 1v6c0 .6.4 1 1 1s1-.4 1-1v-3.1c1.9 2.7 5 4.1 9.5 4.1C19.2 24 23 20 23 12c0-.6-.4-1-1-1zM22 0c-.6 0-1 .4-1 1v3.1C19.1 1.4 16 0 11.5 0 3.8 0 0 4 0 12c0 .5.4 1 1 1 .5 0 1-.5 1-1 0-3.7.9-6.1 2.3-7.6S8 2 11.5 2s5.8.9 7.2 2.4c.4.4.8 1 1.1 1.6H16c-.6 0-1 .4-1 1s.4 1 1 1h6c.6 0 1-.4 1-1V1c0-.6-.4-1-1-1z" fill="#2e4057"/></svg>