<svg xmlns="http://www.w3.org/2000/svg" viewBox="0 0 124 89" style="enable-background:new 0 0 124 89" xml:space="preserve"><path style="fill:#2e4057" d="M103.6 83.5H20.4c-11 0-20-9-20-20V20.1c0-11 9-20 20-20h83.2c11 0 20 9 20 20v43.4c0 11-9 20-20 20z"/><path style="fill-rule:evenodd;clip-rule:evenodd;fill:#fff" d="M54.2 8.2c-2.8 0-5 2.2-5 5v61.1h1.5l2.8-4.9c.2-.3.7-.3.9 0l2.8 4.9h1l2.8-4.9c.2-.3.7-.3.9 0l2.8 4.9h1l2.8-4.9c.2-.3.7-.3.9 0l2.8 4.9h1l2.8-4.9c.2-.3.7-.3.9 0l2.8 4.9h1l2.8-4.9c.2-.3.7-.3.9 0l2.8 4.9h1l2.8-4.9c.2-.3.7-.3.9 0l2.8 4.9h1l2.8-4.9c.2-.3.7-.3.9 0l2.4 4.2V13.2c0-2.8-2.2-5-5-5H54.2z"/><path style="fill:#c5ccde" d="M59.4 25.8h16.7c1.2 0 2.1.9 2.1 2.1 0 1.2-.9 2.1-2.1 2.1H59.4c-1.2 0-2.1-.9-2.1-2.1 0-1.2.9-2.1 2.1-2.1zM84.5 25.8h8.4c1.2 0 2.1.9 2.1 2.1 0 1.2-.9 2.1-2.1 2.1h-8.4c-1.2 0-2.1-.9-2.1-2.1 0-1.2.9-2.1 2.1-2.1zM86.5 15.3h6.3c1.2 0 2.1.9 2.1 2.1 0 1.2-.9 2.1-2.1 2.1h-6.3c-1.2 0-2.1-.9-2.1-2.1.1-1.1 1-2.1 2.1-2.1zM59.4 36.2h16.7c1.2 0 2.1.9 2.1 2.1 0 1.2-.9 2.1-2.1 2.1H59.4c-1.2 0-2.1-.9-2.1-2.1 0-1.1.9-2.1 2.1-2.1zM59.4 48.8h16.7c1.2 0 2.1.9 2.1 2.1 0 1.2-.9 2.1-2.1 2.1H59.4c-1.2 0-2.1-.9-2.1-2.1 0-1.2.9-2.1 2.1-2.1zM59.4 59.2h16.7c1.2 0 2.1.9 2.1 2.1 0 1.2-.9 2.1-2.1 2.1H59.4c-1.2 0-2.1-.9-2.1-2.1 0-1.1.9-2.1 2.1-2.1zM59.4 15.3h20.9c1.2 0 2.1.9 2.1 2.1 0 1.2-.9 2.1-2.1 2.1H59.4c-1.2 0-2.1-.9-2.1-2.1 0-1.1.9-2.1 2.1-2.1z"/><path style="fill:#c4cbde" d="M82.6 49.4c-.2.3-.3.5-.4.8-.1.3-.1.6-.1.9 0 .2.1.4.2.6.1.2.3.3.4.5l.6.3c.2.1.4.1.6.1.2 0 .4 0 .6-.1l.6-.3c.2-.1.3-.3.4-.6.1-.2.2-.5.2-.8V47.9c0-.4 0-.7-.1-1.1 0-.4 0-.8-.1-1.3 0-.5-.1-.9-.1-1.4l1.1-.2c0 .5 0 .9.1 1.4 0 .5 0 .9.1 1.3v4c0 .4 0 .7-.1 1-.1.3-.2.5-.3.8-.1.2-.3.4-.5.6-.2.2-.4.3-.6.4-.2.1-.4.2-.6.2-.2 0-.4.1-.6.1-.2 0-.4 0-.6-.1-.2 0-.4-.1-.6-.2l-.6-.3c-.2-.1-.4-.3-.5-.5-.1-.2-.3-.4-.3-.7-.1-.2-.1-.5-.1-.8v-.6c0-.2.1-.4.1-.6s.1-.4.2-.5c.1-.2.2-.3.3-.5l.7.5zm7.6 1.5H90c-.6 0-1-.1-1.3-.4-.3-.3-.5-.7-.5-1.3V45.4c0-.2 0-.4-.1-.6 0-.2 0-.3-.1-.5l1.1-.3c0 .2.1.4.1.6 0 .2 0 .5.1.8V49.6c0 .1.1.1.1.2.1.1.1.1.2.1h.5v1zm-.2-1.1h1.3c.2 0 .3-.1.4-.1.1-.1.2-.1.3-.2.1-.1.1-.2.1-.4v-.3c0-.1-.1-.3-.1-.5-.1-.2-.1-.3-.2-.5s-.1-.3-.2-.5l1-.5c.1.2.1.3.2.5s.1.4.2.6c.1.2.1.4.1.6 0 .2.1.4.1.6 0 .3-.1.6-.2.9-.1.2-.3.4-.5.6-.2.1-.5.3-.8.3-.3.1-.6.1-.9.1H90v-1.2zm1.6 2.4-.7.7-.7-.7.7-.7.7.7zm1.7 0-.7.7-.7-.7.7-.7.7.7zm3.5-4.2c.1.2.1.4.2.6.1.2.1.4.2.6.1.2.1.4.1.6v.6c0 .3 0 .5-.1.8-.1.2-.2.5-.3.7-.1.2-.3.5-.5.7l-.6.6c-.2.2-.5.4-.7.5-.3.2-.5.3-.8.4l-.5-1 .6-.3c.2-.1.4-.3.6-.4.2-.1.4-.3.5-.4.2-.2.3-.3.4-.5.1-.2.2-.3.3-.5.1-.2.1-.3.1-.5s0-.3-.1-.5c0-.2-.1-.4-.1-.5-.1-.2-.1-.4-.2-.5-.1-.2-.1-.3-.1-.4l1-.6z"/><linearGradient id="a" gradientUnits="userSpaceOnUse" x1="15.72" y1="65.364" x2="58.93" y2="39.438" gradientTransform="matrix(1 0 0 -1 0 90)"><stop offset="0" style="stop-color:#ffab2c"/><stop offset="1" style="stop-color:#ffb72c"/></linearGradient><path style="fill:url(#a)" d="M20.6 21.4h33.9c3.3 0 6 2.7 6 6V48c0 3.3-2.7 6-6 6H20.6c-3.3 0-6-2.7-6-6V27.4c0-3.3 2.7-6 6-6z"/><path style="fill:#dd9717" d="M20.3 38.7h35c1.7 0 3 1.3 3 3v3.7c0 1.7-1.3 3-3 3h-35c-1.7 0-3-1.3-3-3v-3.7c0-1.6 1.3-3 3-3z"/><path style="fill:#9f6f1a" d="M14.6 28.6h45.9v6.1H14.6zM21 41.8h11.2c.8 0 1.5.7 1.5 1.5s-.7 1.5-1.5 1.5H21c-.8 0-1.5-.7-1.5-1.5s.7-1.5 1.5-1.5zM49.8 41.8h5c.8 0 1.5.7 1.5 1.5s-.7 1.5-1.5 1.5h-5c-.8 0-1.5-.7-1.5-1.5-.1-.8.6-1.5 1.5-1.5z"/></svg>