<svg xmlns="http://www.w3.org/2000/svg" viewBox="0 0 26.1 26.1"><g fill="#2e4057"><path d="M14.1 0c-.5 0-.9.4-.9.9V12c0 .5.4.9.9.9h11.1c.5 0 .9-.4.9-.9-.3-6.5-5.4-11.7-12-12z"/><path d="M12.1 13.8c-.2-.2-.3-.5-.3-.8V2c0-.5-.4-.9-.9-.9-6.1.3-11 6-10.9 12.7v.2c.2 3.4 1.7 6.5 4.2 8.8 2.3 2.1 5.3 3.2 8.4 3.2h.8c1.9.1 4-.6 5.6-1.9.4-.4.4-1 .1-1.3l-7-9zm6.3 9.7c-1.5 1.2-3.3 1.8-5 1.7-3.2.2-6.2-.9-8.6-3-2.4-2.1-3.8-5-4-8.2v-.2C.8 7.6 5.3 2.2 10.9 1.9c.1 0 .1.1.1.1v11c0 .6.2 1.1.5 1.4l7 9s0 .1-.1.1z"/><path d="M25.1 14.3h-9.2c-.5 0-1 .5-1 1 0 .1 0 .5.2.7l6 7.4c.2.2.4.3.7.3.2 0 .5-.1.7-.2l.1-.1c2.1-2.2 3.3-5 3.5-8.1.1-.6-.4-1-1-1zm-3 8.5c-.1.1-.2.1-.3.1l-6-7.4v-.1c0-.1.1-.2.2-.2h9.2s.2 0 .2.1c-.3 2.8-1.4 5.5-3.3 7.5z"/></g></svg>