<svg xmlns="http://www.w3.org/2000/svg" viewBox="0 0 18.4 18.3"><g fill-rule="evenodd" clip-rule="evenodd" fill="#2e4057"><path d="M9.2 0C4.1 0 0 4.1 0 9.2c0 5 4.1 9.1 9.1 9.1 5.1 0 9.2-4 9.2-9.1S14.3 0 9.2 0zm-.9 16.2c-3.9-.1-7-3.2-7-7.1.1-3.9 3.2-7 7.1-7 3.8 0 7 3.1 7 7.1-.1 3.9-3.2 7-7.1 7z"/><path d="M8.4 2.3c-3.8-.1-6.8 3-6.8 6.8 0 3.7 3 6.8 6.8 6.8 3.7 0 6.8-3.1 6.8-6.8 0-3.7-3-6.8-6.8-6.8zm1.2 11.6C6.9 14 4.7 12 4.5 9.3c-.1-2.7 1.9-4.9 4.6-5.1 2.8-.1 5.1 2.1 5.1 4.9 0 2.5-2 4.7-4.6 4.8z"/></g></svg>