<svg xmlns="http://www.w3.org/2000/svg" viewBox="0 0 148 68"><path d="M115.7 0C133.5 0 148 15.2 148 34s-14.5 34-32.2 34C98 68 83.6 52.8 83.6 34c-.1-18.8 14.3-34 32.1-34zm-2.8 7.6c13.5 0 24.5 11.7 24.5 26.1 0 14.4-10.9 26.1-24.5 26.1-13.5 0-24.5-11.7-24.5-26.1 0-14.4 10.9-26.1 24.5-26.1z" fill-rule="evenodd" clip-rule="evenodd" fill="#9c0e74"/><linearGradient id="a" gradientUnits="userSpaceOnUse" x1="89.081" y1="36.286" x2="136.937" y2="36.286" gradientTransform="matrix(1 0 0 -1 0 70)"><stop offset="0" stop-color="#740655"/><stop offset=".478" stop-color="#9c0e74"/><stop offset="1" stop-color="#9c0e74"/></linearGradient><path d="M113 8.4c13.2 0 23.9 11.4 23.9 25.4 0 14-10.7 25.4-23.9 25.4S89.1 47.9 89.1 33.8c0-14.1 10.7-25.4 23.9-25.4zm2.5 7.1c9.9 0 17.9 8.1 17.9 18s-8 17.9-17.9 17.9-17.9-8-17.9-17.9c0-10 8-18 17.9-18z" fill-rule="evenodd" clip-rule="evenodd" fill="url(#a)"/><path d="M61.9 16.4c.1-2.1 1.4-2.9 2.6-2.9h1.8c-.1 4.9.1 9.7 0 14.6-.2 4.2-3.6 8-7.4 8.6 0-1.5.1-3.3 0-4.8 1.4-1.3 2.6-2.3 2.9-4.5 0-3.5.1-7.5.1-11zM45.7 16.8c0-2.4 1.2-3.3 2.7-3.2h1.9v7.1c-.1 3.5-3.1 6.8-6.2 7.4-4 .6-7.1-.6-8.4-2.1-1.1 1-2.4 2.1-4.5 2.2-2.2 0-4.5.1-6.7.1-1.5 0-2.7-.2-3.8-.6 0 .6 0 1.8-.1 2.7-.5 3.1-2.9 6.2-6.7 6.3l-6.7.1c-3.7 0-7.1-3.5-7.2-8.5v-6.4c0-1.6 1.2-2.8 2.5-2.8h1.9V28c0 2.5 2 4.1 3.5 4h4.4c2.3-.2 3.8-1.7 3.8-3.9-.1-7.9.1-15.3 0-23.2 0-1.9 1.3-3.1 2.6-3.1h1.9v17.6c.1 2.3 1.4 3.9 3.4 4.1h5.9c2 0 3.4-1.7 3.4-3V16c0-1.4 1.5-2.5 2.5-2.5.5 0 1.4-.1 2-.1v6.2c.1 2.2 1.4 3.5 2.4 3.7h2.3c1.7-.1 3-1.6 3.1-3 .1-1.5.1-3.5.1-3.5zM53.7 4.5c.1-2 1.4-2.9 2.6-2.9h1.8c-.1 4.8.1 21.6.1 26.4h-4.6c0-3.4.1-20.1.1-23.5z" fill-rule="evenodd" clip-rule="evenodd" fill="#2e4057"/><path d="M33.5 9.4l4.4-.1V4.4h-1.7c-1.6 0-2.7.8-2.7 2.7v2.3zM48.5 31.7h-4.4v4.9h1.7c1.6 0 2.7-.8 2.7-2.7v-2.2zM43 31.7h-4.4v4.9h1.7c1.6 0 2.7-.8 2.7-2.7v-2.2zM28 9.4l4.4-.1V4.4h-1.7c-1.6 0-2.7.8-2.7 2.7v2.3zM13.6 47.7h3v-3.4h-1.1c-1.1 0-1.8.6-1.8 1.8v1.6zM0 62.3h3v-7.6c1.5-.1 2.3.4 2.8 1.3 1.5 2.3 1.9 4.4 2.2 6.3h3.6c-1.1-4.2-1.8-7-4.5-8.9 1.8 0 3.2-2.1 3.3-4.1.1-2.2-1.1-4.7-4.1-4.8h-4C.8 44.5.1 45.4 0 47v15.3zM3 52v-4.7h2.2c1.3 0 2 1 2.1 2.3 0 1.1-.5 2.3-2 2.4H3zM25.6 61.2C24 63 21.8 63 20 60.9c-1.5-1.8-1.4-7.1-.5-9.2 1.5-3.9 5.1-2.5 6.1-1.1.9-1.5 1.9-1.2 3.2-1.2v14.1c.1 2.9-1.8 4.5-4.9 4.4-1.6-.1-3.4-.8-4.8-1.5.3-.8.6-1.7.9-2.6.9.4 1.8.8 2.7 1.1 1.4.4 2.9.4 3-1.7v-2zm-1.8-9.1c1 0 1.9 1.7 1.9 3.9 0 2.1-.9 3.9-1.9 3.9-1 0-1.9-1.7-1.9-3.9 0-2.1.9-3.9 1.9-3.9zM48.1 62.4h-3.2V47.5l-4 .1v-3h9.3c1.8 0 1.8 1.4 1.8 2.9h-4l.1 14.9zM54.6 56.8H61c0-1.4.1-3.7-.8-5.4-.9-1.4-2.4-2.1-4-2-1.5.1-2.9.6-3.9 2.3-1.1 2.7-1 5.6-.2 8.1.7 1.7 2.2 2.7 4 2.9 1.6.2 3.4-.3 4.9-1.1-.4-1-.7-1.8-1-2.7-2.4 1.3-5.4 1.6-5.4-2.1zm0-2h3.3c0-1.2 0-2.8-1.6-2.9-1.6 0-1.8 1.7-1.7 2.9zM31.7 45.8c0-1.4 1-2.2 1.8-2.2h1.2v7c1.8-1.8 5.9-2.1 6.1 2.2v9.5h-2.9v-9c0-2.4-3.2-1.3-3.2.7v8.4h-3.1c.1-2.5.1-14.2.1-16.6zM13.6 50.8c.1-1 1-1.5 1.8-1.5h1.2v13.1h-3c.1-1.8 0-9.9 0-11.6zM63.2 45.7c0-1.4 1-2.2 1.8-2.2h1.2v18.8h-3V45.7z" fill-rule="evenodd" clip-rule="evenodd" fill="#2e4057"/></svg>