<svg xmlns="http://www.w3.org/2000/svg" viewBox="0 0 85 42"><path d="M64.4 0C75.2 0 84 9.3 84 20.7c0 11.4-8.8 20.7-19.6 20.7s-19.6-9.3-19.6-20.7C44.8 9.3 53.6 0 64.4 0zm-1.7 4.7c8.2 0 14.9 7.1 14.9 15.9s-6.7 15.9-14.9 15.9-14.9-7.1-14.9-15.9S54.4 4.7 62.7 4.7z" fill-rule="evenodd" clip-rule="evenodd" fill="#fff"/><linearGradient id="a" gradientUnits="userSpaceOnUse" x1="48.194" y1="23.49" x2="77.308" y2="23.49" gradientTransform="matrix(1 0 0 -1 0 44)"><stop offset="0" stop-color="#fff"/><stop offset=".478" stop-color="#fff"/><stop offset="1" stop-color="#fff"/></linearGradient><path d="M62.7 5.1c8 0 14.6 6.9 14.6 15.4s-6.5 15.4-14.6 15.4c-8 0-14.5-6.9-14.5-15.4S54.7 5.1 62.7 5.1zm1.6 4.3c6 0 10.9 4.9 10.9 10.9s-4.9 10.9-10.9 10.9-10.9-4.9-10.9-10.9S58.3 9.4 64.3 9.4z" fill-rule="evenodd" clip-rule="evenodd" fill="url(#a)"/><path d="M37.6 9.8c0-1.3.8-1.8 1.6-1.8h1.1c0 3 .1 5.9 0 8.9-.1 2.5-2.2 4.9-4.5 5.2v-2.9c.8-.8 1.6-1.4 1.8-2.7V9.8zM27.8 10c0-1.4.7-2 1.6-2h1.1v4.3c-.1 2.1-1.9 4.2-3.8 4.5-2.4.4-4.3-.4-5.1-1.3-.7.6-1.5 1.3-2.7 1.3-1.4 0-2.7 0-4.1.1-.9 0-1.6-.1-2.3-.3v1.6c-.3 1.9-1.8 3.8-4.1 3.8H4.3c-2.2.1-4.3-2-4.3-5.1V13c0-1 .7-1.7 1.5-1.7h1.2v5.4c0 1.5 1.2 2.5 2.1 2.4h2.7c1.4-.1 2.3-1.1 2.3-2.4-.1-4.8 0-9.3 0-14.1 0-1.2.8-1.9 1.6-1.9h1.2v10.7c0 1.4.8 2.4 2.1 2.5h3.6c1.2 0 2-1.1 2.1-1.8V9.3c0-.9.9-1.6 1.5-1.5h1.2v3.8c0 1.3.8 2.1 1.4 2.2h1.4c1 0 1.8-1 1.9-1.8v-2zM32.7 2.5c0-1.2.8-1.7 1.6-1.7h1.1c0 2.9.1 13.1 0 16h-2.8c0-2.1.1-12.2.1-14.3z" fill-rule="evenodd" clip-rule="evenodd" fill="#fff"/><path d="M20.4 5.5h2.7v-3h-1c-1 0-1.7.5-1.6 1.6v1.4zM29.5 19.1h-2.7v3h1c1 0 1.6-.5 1.6-1.6l.1-1.4zM26.2 19.1h-2.7v3h1c1 0 1.6-.5 1.6-1.6v-1.4zM17.1 5.5h2.7v-3h-1c-1 0-1.7.5-1.6 1.6v1.4zM8.3 28.8h1.8v-2.1h-.7c-.7 0-1.1.3-1.1 1.1v1zM0 37.7h1.8V33c.9-.1 1.4.2 1.7.8.9 1.4 1.1 2.7 1.3 3.9H7c-.7-2.6-1.1-4.2-2.7-5.4 1.1 0 1.9-1.3 2-2.5.1-1.4-.7-2.8-2.5-2.9H1.4c-.9 0-1.3.5-1.4 1.6v9.2zm1.8-6.3v-2.9h1.3c.8 0 1.2.6 1.3 1.4 0 .7-.3 1.4-1.2 1.5H1.8zM15.6 37c-1 1.1-2.3 1.1-3.4-.2-.9-1.1-.8-4.3-.3-5.6.9-2.3 3.1-1.6 3.7-.7.5-.9 1.2-.8 1.9-.8v8.6c0 1.8-1.1 2.8-3 2.7-1-.1-2-.5-2.9-.9.2-.5.4-1 .6-1.6.5.2 1.1.5 1.6.7.9.2 1.8.2 1.8-1.1V37zm-1.1-5.5c.6 0 1.2 1.1 1.2 2.3 0 1.3-.5 2.3-1.2 2.3-.6 0-1.1-1-1.1-2.3-.1-1.3.5-2.3 1.1-2.3zM29.3 37.7h-1.9v-9H25v-1.8h5.7c1.1 0 1.1.9 1.1 1.7h-2.5v9.1zM33.2 34.3h3.9c0-.8.1-2.3-.5-3.3-.6-.9-1.5-1.3-2.4-1.2-.9.1-1.8.4-2.3 1.4-.7 1.6-.6 3.4-.1 4.9.4 1 1.3 1.6 2.4 1.8 1 .1 2.1-.2 3-.7-.2-.6-.4-1.1-.6-1.7-1.6.9-3.4 1.1-3.4-1.2zm0-1.2h2c0-.7 0-1.7-1-1.7-.9 0-1 1-1 1.7zM19.3 27.6c0-.9.6-1.3 1.1-1.3h.7v4.3c1.1-1.1 3.6-1.3 3.7 1.3v5.8H23v-5.5c0-1.5-1.9-.8-1.9.4v5.1h-1.9c.1-1.5.1-8.6.1-10.1zM8.3 30.7c0-.6.6-.9 1.1-.9h.7v8H8.3v-7.1zM38.5 27.6c0-.9.6-1.3 1.1-1.3h.7v11.4h-1.8V27.6z" fill-rule="evenodd" clip-rule="evenodd" fill="#fff"/></svg>