<svg xmlns="http://www.w3.org/2000/svg" viewBox="0 0 18.4 18.3"><g transform="translate(-308.081 -348.003)"><path d="M317.3 348c5.1 0 9.1 4.1 9.1 9.2s-4.1 9.1-9.2 9.1c-5 0-9.1-4.1-9.1-9.1 0-5.1 4.1-9.2 9.2-9.2zm-.8 2.1c-3.9 0-7 3.1-7.1 7 0 3.9 3.1 7 7 7.1 3.9 0 7-3.1 7.1-7 0-4-3.2-7.1-7-7.1z" fill-rule="evenodd" clip-rule="evenodd" fill="#85015a"/><linearGradient id="a" gradientUnits="userSpaceOnUse" x1="271.01" y1="404.574" x2="272.01" y2="404.574" gradientTransform="matrix(13.654 0 0 -13.654 -3390.708 5881.133)"><stop offset="0" stop-color="#880262"/><stop offset=".48" stop-color="#a83686"/><stop offset="1" stop-color="#ca9fbb"/></linearGradient><path d="M316.5 350.3c3.8 0 6.8 3.1 6.8 6.8s-3.1 6.8-6.8 6.8c-3.8 0-6.8-3.1-6.8-6.8 0-3.8 3-6.9 6.8-6.8zm.7 1.9c-2.7.2-4.7 2.4-4.6 5.1.2 2.7 2.4 4.7 5.1 4.6 2.6-.1 4.6-2.3 4.6-4.8 0-2.8-2.3-5-5.1-4.9z" fill-rule="evenodd" clip-rule="evenodd" fill="url(#a)"/></g></svg>