<svg xmlns="http://www.w3.org/2000/svg" viewBox="0 0 178 74" style="enable-background:new 0 0 178 74" xml:space="preserve"><path style="fill:#2e4057" d="M144 11c.7-1.2 1.3-2.3 2-3.5-.7-.5-1.3-1-2-1.5-.7.5-1.3 1-2 1.5.7 1.1 1.3 2.3 2 3.5zM154 9.1c-.5-.7-1.1-1.4-1.6-2.1l-2.4.9c.3 1.4.7 2.8 1.1 4.1.9-1 1.9-1.9 2.9-2.9zM160.7 10c-1.2.1-2.3 0-3.5.1-.1 2-.2 4-.2 5.9 1.7-.8 3.3-1.7 5-2.5-.4-1.2-.8-2.4-1.3-3.5z"/><path style="fill:#2e4057" d="M149 14.2c-1.5-1-3.1-2-4.6-3.1-.1-.1-.3-.2-.5-.1-1.6 1-3.3 2.1-4.9 3.2 1.7 2.6 3.3 5.2 5.1 7.8 1.6-2.6 3.3-5.2 4.9-7.8zM127.1 20.1 134 24v-8.6c-1.7-.1-3.3-.3-5-.3-.6 1.5-1.3 3.1-1.9 4.6-.1.1-.2.3 0 .4zM168 21.5v-4.1c-1.2-.5-2.4-1-3.6-1.4l-2.4 6c2-.2 4-.4 6-.5zM122.8 29.9c1.4 0 2.8.1 4.2.1-1.1-2.3-2.3-4.7-3.4-7-1.5.6-3.1 1.2-4.6 1.8 0 1.6.1 3.3.1 4.9 1.2.1 2.5.1 3.7.2zM165 29.2c1.9.6 3.7 1.2 5.6 1.8.5-1.2.9-2.3 1.4-3.4-.9-.9-1.9-1.7-2.8-2.6l-4.2 4.2zM154 42.2h-2.6V28.8h-3.6c-.4-1-1-1.8-1.9-2.4-1.3-1-2.9-1.3-4.5-1.3-1.8 0-3.6.5-5 1.7-1.3 1.1-1.8 2.8-1.9 4.5 1.3.1 2.6.3 4 .4.1-.8.2-1.7.7-2.3.5-.6 1.2-.9 1.9-.9.8-.1 1.7.1 2.3.8.6.6.7 1.6.6 2.4-.1 1.1-.8 2.1-1.6 2.9-2.1 2.3-4.6 4.2-6.5 6.7-1.1 1.4-1.7 3.1-1.9 4.8h13.4v4.1h3.9v-4.3h2.6c.1-1.3.1-2.5.1-3.7zm-6-.2h-8c.4-.6 1-1.1 1.5-1.6 1.4-1.2 3-2.4 4.3-3.6.8-.8 1.5-1.7 2.1-2.7.1 2.6.1 5.2.1 7.9zM124 38.3c-1.9-1.4-3.9-2.9-5.8-4.3-1.1 1-2.1 2.1-3.2 3.1l2.1 3.9 6.9-2.7zM171.2 35c-2.1.9-4.1 1.8-6.2 2.7 1.7 1.5 3.4 2.9 5.1 4.3 1-1 1.9-2.1 2.9-3.1l-1.8-3.9zM117.4 45c-.4 1.2-.9 2.3-1.4 3.5.9.8 1.9 1.7 2.8 2.5 1.4-1.4 2.8-2.8 4.2-4.3-1.9-.5-3.8-1.1-5.6-1.7zM161 46c1.2 2.3 2.3 4.7 3.5 7 1.5-.6 3-1.3 4.5-1.9 0-1.7-.1-3.3-.2-5-2.6 0-5.2-.1-7.8-.1zM2.8 29H9c.8 0 1.5-.3 2.2-.6 1.7.9 3.8.9 5.6.1 1.1.7 2.4.6 3.7.5 1-.1 2-.6 2.3-1.7.2-1-.1-2.1-.4-3.1-.6.1-1.3.3-1.9.4.2.7.4 1.4.2 2.1-.9.1-1.9.2-2.8-.2-.5-.6-.4-1.4-.5-2-.7.1-1.3.3-2 .5.1.5.2 1 .2 1.6-1 .4-2.5.6-3.1-.5-.7-1-1.3-2-2-3 .8-.7 1.7-1.4 2.5-2.2-.5-.5-.9-1.1-1.4-1.6-1.3 1.1-2.6 2.3-3.8 3.4.8 1.3 1.9 2.4 2.3 3.8-.2.4-.7.3-1.1.3H3.8c-.4 0-.9 0-1.3-.3v-1.2c-.7-.1-1.4-.2-2-.4-.2 1-.6 2.1 0 3.1.3.9 1.4 1 2.3 1zM30.5 31.4c.3.6.5 1.3 1 1.8.9-.4 1.7-.8 2.5-1.3 1.1-.6 2.1-1.8 2-3.1 1.2.5 2.6.3 3.7-.3.4.2.8.4 1.2.5 1.5.2 3 .1 4.3-.6.7.4 1.5.6 2.3.7.8 0 1.6-.1 2.3-.5.6-.3 1.2-.9 1.1-1.6 0-2.3-.6-4.4-1-6.6l-2.1.3c.3 1.8.8 3.5.8 5.3.1.8-1.1 1.2-1.7.8-1.2-1-1.8-2.4-2.6-3.7.8-.8 1.7-1.4 2.4-2.2-.4-.6-.8-1.1-1.3-1.6-1.3 1.1-2.6 2.3-3.9 3.4.7 1 1.5 2 2.1 3.1.2.3.3.6.3.9-.9.2-1.9.2-2.8 0-.9-.3-.7-1.5-.9-2.2-.7.1-1.3.3-2 .5.1.5.1 1 .2 1.6-.7.3-1.5.4-2.2.1-.5-.3-.6-.9-.9-1.4-.6.2-1.3.5-1.9.7.3.9.9 1.9.6 2.9-.7 1.5-2.3 1.9-3.5 2.5zM54.5 20.4h-2.1v8.7h2.1v-8.7zM76.9 20.4H75v1.9h1.9v-1.9zM83.6 20.4h-2.1v8.7h2.1v-8.7zM22.1 20.8h-1.8v1.9h1.8v-1.9zM38.6 21.2h-1.8V23h1.8v-1.8z"/><path style="fill:#2e4057" d="M40.9 21.2h-1.8V23h1.8v-1.8zM64.5 21.2h-1.9v1.9h1.9v-1.9zM67 21.2h-1.9v1.9H67v-1.9zM88.8 29c1.1-.1 2.2-1.1 2.1-2.2-.1-1.8-1.4-3.2-2.2-4.6-.6.4-1.2.8-1.8 1.1.7 1.1 1.4 2.2 1.9 3.4-1.2.6-2.5.3-3.7.2v2.2c1.2-.1 2.4 0 3.7-.1zM73.1 22.9c-.2.7-.4 1.5-.7 2.3.7.2 1.3.4 2 .5 0-.1.1-.3.1-.4.8.2 1.7.4 2.5.6-1.7.7-3.4 1-5.2 1-1-.1-.8-1.4-1-2.1-.7.1-1.4.2-2.1.4 0 .5.2 1 0 1.4-.5.4-1.1.4-1.6.4h-4.8c-.5 0-1-.1-1.3-.5 0-.4.1-.8.2-1.3l-2.1-.3c-.1.9-.5 1.7-.2 2.6.3 1.1 1.6 1.7 2.6 1.7h7c.7 0 1.3-.2 1.9-.5.4.3.9.5 1.5.5 1.1.1 2.2 0 3.3-.2 1.3-.3 2.3-1.3 3.5-1.8.3-.2.8-.2 1-.6 0-.6 0-1.2-.1-1.9-2.1-.7-4.3-1.3-6.5-1.8zM24.7 33c1-.4 2-.9 2.9-1.5.9-.6 1.7-1.4 1.8-2.6v-3.7c-.1-1.1-1-2.2-2.1-2.1-1.2.3-2.1 1.3-2.8 2.2-.7.8-.7 2.2.2 2.9.8.6 1.8.6 2.8.8-1 .9-2.3 1.4-3.5 2 .1.8.4 1.4.7 2zm.9-6.2c.5-.6 1.1-1.1 1.8-1.4v2c-.5-.2-1.2-.3-1.8-.6zM91.9 31.4c.3.6.6 1.2.9 1.9 1.1-.6 2.3-1.1 3.3-1.8.8-.6 1.4-1.6 1.3-2.6 1.4.3 3.2.5 4.2-.7.9-1.1.3-2.6 0-3.8-.7.1-1.3.2-2 .4.1.6.3 1.2.3 1.8-.6.5-1.4.3-2.1.3-.8 0-.9-.9-1.2-1.5-.6.2-1.3.5-1.9.7.4 1 1.1 2.2.5 3.2-.8 1.1-2.2 1.5-3.3 2.1zM153.1 56.7c-.1 1.3-.1 2.5-.1 3.8 1.9.2 3.7.4 5.6.5l2.4-4.8-7.8-4.2c-.1 1.6-.1 3.1-.1 4.7zM139 61.4c1.6 1.2 3.2 2.3 4.8 3.5.1.2.3 0 .4-.1l4.8-3.3c-1.7-2.9-3.3-5.7-5-8.5-1.7 2.8-3.4 5.6-5 8.4zM120.1 54.3c0 1.1-.1 2.3-.1 3.4 1.2.4 2.3.9 3.5 1.3.8-1.7 1.7-3.3 2.5-5-2 .1-4 .2-5.9.3zM16 30.9h-1.8v1.8H16v-1.8zM18.3 30.9h-1.8v1.8h1.8v-1.8zM98.6 30.9v1.8h1.8v-1.8h-1.8zM100.9 30.9v1.8h1.8v-1.8h-1.8zM99.7 33.3v1.8h1.8v-1.9c-.6 0-1.2 0-1.8.1zM19.9 37.3H17v2.9h2.9v-2.9zM36.1 43.7c.8 1.2 1.7 2.3 2.5 3.5.5.7 1 1.4 1.2 2.3-1 .7-2.3.4-3.4.5-.9 0-2 .1-2.5-.8-.4-.9-.4-1.9-.6-2.8-1 .3-2 .5-3.1.7.1.7.3 1.4.3 2.1 0 .4-.6.5-.9.6-1.2.3-2.6.2-3.2-.8-.4-.9-.5-1.9-.7-2.8l-3 .9c.2.7.5 1.5.5 2.2-.3.9-1.5.7-2.2.4-.1-.8 0-1.5.2-2.2l-3.3-.6c-.1.9-.2 1.9-.8 2.7-.4.6-1.2.3-1.6-.2-.6-.8-.6-1.8-.9-2.7-1.1.3-2.2.5-3.3.8l1.8 7.2c-1.4.5-2.7 1.1-4.1 1.6-1.2.3-2.5.7-3.7.2-.4-.2-.8-.5-1.1-.9-.3-.4-.4-.9-.4-1.3-.1-2.2.9-4.2 1.4-6.2C4 47.7 3 47.4 1.9 47c-.8 2.7-2 5.5-1.7 8.4.1 2.3 2 4.2 4.2 4.6 1.7.3 3.3 0 4.9-.5 2.5-.7 4.8-1.7 7.2-2.6l-.9-3.9c.6.2 1.2.3 1.8.1.6-.1 1.2-.4 1.6-.8.4.3.8.7 1.3.8 1.7.4 3.4.1 4.9-.7.7.3 1.4.7 2.2.8 1.7.2 3.5.1 5.1-.8.8.4 1.7.9 2.7.9 1.9 0 3.9.3 5.6-.6 1.3-.6 2.3-1.9 2.2-3.4-.2-2.1-1.7-3.6-2.8-5.2l4-3.3c-.7-.8-1.4-1.6-2.1-2.3-2 1.7-4 3.4-6 5.2zM76.4 44.6c-1.3-.6-2.9 0-3.8 1.1-.8 1-1.4 2.1-2.1 3.1-.4.5-.9 1-1.5 1.1-.6.1-1.1.1-1.7 0V39.8h-3.2v12.9c1.7.2 3.4.5 5.1.4.9 0 1.8-.6 2.4-1.2 1.2.8 2.3 2 3.8 2.1 1.7.2 3.5-1.4 3.4-3.2-.1-1.5-.5-2.8-.9-4.2-.3-.8-.7-1.6-1.5-2zm-.6 6.7c-1-.4-1.8-1-2.7-1.5.5-.8 1-1.6 1.8-2.2.4.3.5.7.7 1.2.2.7.4 1.6.2 2.5zM98 46.6c.2.9.6 1.8.6 2.7-.6.8-1.8.9-2.5.4-.1-.7.2-1.5.2-2.2-1-.2-2-.4-3-.5-.2.9-.2 1.9-.7 2.6-.3.5-1.1.6-1.4.1-.6-.8-.6-1.8-.8-2.7-1 .2-2.1.4-3.1.6.2.7.6 1.7-.2 2.2-.9.4-1.9.2-2.8.2V39.9h-3.2v12.9c1.6.2 3.3.4 4.9.4 1.3 0 2.8-.2 3.6-1.3.7.8 1.7 1.4 2.8 1.3.8 0 1.6-.4 2.2-1 1 1.1 2.7 1.1 4 .9 1.5-.3 3.1-1.4 3.3-3 .1-1.4-.5-2.8-.7-4.2-1.1.2-2.1.5-3.2.7z"/><path style="fill:#2e4057" d="M17.9 41.1H15V44h2.9v-2.9zM21.9 41.1H19V44h2.9v-2.9zM126 62.6c.4.8.8 1.6 1.1 2.4 1.2 0 2.3 0 3.5.1.2-1.3.3-2.7.4-4-1.7.4-3.3 1-5 1.5zM54.4 45.3h-2.9v3h2.9v-3z"/><path style="fill:#2e4057" d="M56.2 46.2c.6 2.5 1.2 4.9 1.8 7.4-2.1.7-4.1 1.6-6.3 1.8-1.3.1-2.8-.6-3-2-.2-2.3.8-4.4 1.4-6.6-1-.3-2.1-.5-3.1-.8-.7 2.4-1.8 4.8-1.8 7.3 0 .8.2 1.6.5 2.3.3.7.9 1.4 1.5 1.9 1.4 1.2 3.4 1.4 5.2 1.1 3.2-.6 6.2-1.9 9.3-3-.8-3.3-1.6-6.7-2.3-10-1.1.1-2.2.3-3.2.6zM134 66.6c.5.8 1.1 1.6 1.6 2.4.8-.3 1.6-.7 2.4-1.1-.4-1.6-.8-3.3-1.2-4.9-.9 1.2-1.8 2.4-2.8 3.6zM142 67.8c.7.4 1.3.8 2 1.2.7-.4 1.3-.8 2-1.2-.6-1-1.3-1.9-2-2.8-.7.9-1.3 1.9-2 2.8zM31.2 59v-2.8h-2.7V59h2.7zM34.9 59v-2.8h-2.8V59h2.8zM44.6 63.7c0 .9.6 1.6.8 2.4.5 1.8.4 3.7-.1 5.5-.2.8-.6 1.5-.7 2.3 1.6-1.4 2.3-3.7 2.1-5.8-.2-1.6-1-3.2-2.1-4.4zM2.1 63.7c-2.8 2.7-2.8 7.7 0 10.3-.1-.9-.6-1.7-.8-2.5-.4-1.6-.4-3.3 0-4.9.2-1.1.7-1.9.8-2.9zM15.7 68.9c.8.3 1.7.1 2.6.3-1 .5-2.2.6-3.3.6v-3.7h-1.1c0 1.6-.1 3.2 0 4.8 1.1.1 2.2.1 3.3 0 1-.3 1.8-1 2.7-1.3v-1.1c-1.3-.3-2.6-.7-3.9-.9-.1.4-.2.9-.3 1.3z"/><path style="fill:#2e4057" d="M18.3 67.2v-1.1h-1.1v1.1h1.1zM42.4 68.6c.1.4.2.7.2 1.1-.3 0-.6.1-.9.1 0-.3 0-.6.1-.9-.4-.1-.7-.1-1.1-.2-.1.4-.2.7-.3 1.1-.2 0-.3 0-.5-.1-.1-.3-.2-.7-.3-1l-1.1.2c0 .3 0 .5.1.8-.5.1-1.1.2-1.6.3 0-.7-.1-1.3-.3-1.9-.4.1-.8.2-1.1.2l.3 1.5c-.4 0-.8.1-1.3.1v-3.7h-1.2V71H36c0 .4 0 .7.1 1.1.1.3.3.7.6.9.3-.2.6-.5.9-.7-.1-.2-.2-.3-.2-.5v-.6c.7-.1 1.4-.1 2-.4.3.2.6.3.9.3.3 0 .6 0 .9-.2.8.3 1.8.4 2.4-.3.5-.6.1-1.4 0-2.1l-1.2.1zM12 67.7c-1.4-.1-2.6.9-3.7 1.7-.1-.2-.1-.5-.2-.7l-1.2.3c.2.9.5 1.8.6 2.7-.8.3-1.6.6-2.4.7-.5 0-1-.3-1-.9 0-.8.3-1.5.5-2.3-.2-.2-.6-.3-1-.4-.3 1-.8 2.1-.6 3.2.2 1 1.3 1.6 2.2 1.5 1.3-.2 2.5-.7 3.7-1.1-.1-.5-.2-1-.3-1.4 1 .1 2 .1 3 0 1.6-.2 2-2.9.4-3.3zm-2.4 2.1c.7-.4 1.3-.8 2.1-.9v.9M32 68.2c-.2-.5-.9-.4-1.3-.3-.7.4-.9 1.3-1.6 1.8-.8.2-1.6 0-2.3-.4-.2.3-.5.7-.4 1.1.4.3.8.5 1.3.7-.9.5-2.2 1.1-3.1.4-.7-.7-.1-1.7.2-2.5-.4-.1-.7-.3-1.1-.4-.4.9-.7 1.9-.4 2.9.3.9 1.3 1.5 2.2 1.5 1.2.1 2.2-.4 3.2-1 0-.3-.1-.6-.1-.9.5-.1 1-.2 1.5-.4.4.2.7.4 1 .6.7.3 1.6-.5 1.5-1.3-.1-.6-.3-1.2-.6-1.8zm-.4 2.1c-.4-.2-.7-.4-1.1-.6.2-.3.5-.6.8-.8"/></svg>