<svg xmlns="http://www.w3.org/2000/svg" viewBox="0 0 219 138" style="enable-background:new 0 0 219 138" xml:space="preserve"><path style="fill:#e5bfb2" d="M158.5 2.8c1.3-.9 2.7-1.8 4-2.8 1.3.9 2.6 1.9 3.9 2.8l-3.9 6.6c-1.3-2.2-2.7-4.4-4-6.6"/><path style="fill:#d09ca0" d="M173.3 3.5c1.7-.6 3.5-1.2 5.2-1.7 1.1 1.4 2.3 2.8 3.4 4.3-2.1 2-4.2 4-6.3 5.9-.8-2.9-1.5-5.7-2.3-8.5"/><path style="fill:#a26769" d="M188.1 8.9c2.1-.1 4.1 0 6.2-.1.8 1.9 1.5 3.9 2.3 5.9-3 1.4-5.9 2.8-8.9 4.2.1-3.4.2-6.7.4-10z"/><path style="fill:#000153" d="M162.3 10c.3-.3.6.1.9.2 2.9 2.1 5.8 4.1 8.7 6.2L162.6 32c-3.2-5.2-6.3-10.4-9.5-15.6 3.1-2.2 6.1-4.3 9.2-6.4"/><path style="fill:#15159f" d="M133.2 17.7c3.4.1 6.9.4 10.3.7 0 5.5 0 11 .1 16.5l-14.3-7.5c-.5-.1-.2-.6-.1-.9 1.4-2.9 2.7-5.8 4-8.8"/><path style="fill:#8d4b41" d="M202 20.1c2.2.8 4.3 1.6 6.5 2.4v6.9c-3.6.3-7.2.6-10.9.9 1.5-3.4 3-6.8 4.4-10.2z"/><path style="fill:#0a07e8" d="M114.6 36.6c2.9-1.1 5.8-2.3 8.7-3.4 2.1 4.5 4.3 8.9 6.4 13.4-2.6 0-5.2-.2-7.8-.3-2.4-.2-4.7-.1-7.1-.3-.1-3.1-.2-6.3-.2-9.4"/><path style="fill:#7e3633" d="m203.7 45.2 8.4-8.4c1.8 1.7 3.7 3.4 5.5 5.1-.9 2.3-1.9 4.6-2.8 6.9-3.6-1.1-7.3-2.4-11.1-3.6"/><path style="fill:#6d7170" d="M148.1 40.8c2.6-2.3 6.2-3.3 9.6-3.3 3.1 0 6.3.7 8.7 2.6 1.6 1.3 2.8 2.9 3.6 4.8h7.1v26.4h5.1v6.9h-5.1v8.4h-7.6v-8.1h-26.1c.4-3.4 1.7-6.7 3.8-9.4 3.7-4.9 8.5-8.6 12.6-13.1 1.5-1.6 2.8-3.5 3-5.7.2-1.6-.1-3.5-1.2-4.7-1.1-1.3-2.9-1.7-4.5-1.6-1.4.1-2.8.6-3.7 1.8-1 1.3-1.3 3-1.4 4.6-2.6-.3-5.1-.5-7.7-.8.3-3.2 1.3-6.6 3.8-8.8"/><path style="fill:#3a39eb" d="M106.2 59.6c1.9-2 3.8-4.1 5.7-6.1l10.2 8.4c-4.1 1.7-8.2 3.5-12.3 5.2-1.1-2.4-2.4-5-3.6-7.5z"/><path style="fill:#fff" d="M165.7 60.4c1.5-1.7 2.8-3.6 3.8-5.7.1 5.5 0 11 0 16.5h-14.3c.8-1.2 1.7-2.4 2.8-3.3 2.5-2.6 5.3-4.9 7.7-7.5z"/><path style="fill:#682321" d="M203.5 62.4c4-1.7 7.9-3.4 11.9-5 1.2 2.5 2.4 4.9 3.6 7.4-1.9 1.9-3.7 3.9-5.6 5.9-3.2-2.9-6.6-5.5-9.9-8.3"/><path style="fill:#4035fe" d="M110.2 75.4c3.8 1.1 7.5 2.3 11.2 3.5-2.8 2.8-5.6 5.6-8.4 8.5-1.8-1.7-3.7-3.3-5.5-5 .9-2.4 1.8-4.7 2.7-7"/><path style="fill:#551517" d="M195.4 77.9c4.9 0 9.9.2 14.8.3.1 3.1.2 6.3.3 9.4-2.9 1.2-5.7 2.4-8.5 3.5l-6.6-13.2z"/><path style="fill:#890100" d="M7.6 86.7c1.3-1.1 2.6-2.3 3.8-3.4.5.5.9 1.1 1.4 1.6-.8.7-1.7 1.4-2.5 2.2.7 1 1.3 2 2 3 .6 1.1 2.1.9 3.1.5 0-.5-.1-1-.2-1.6.7-.2 1.3-.3 2-.5.2.7.1 1.5.5 2 .8.4 1.9.3 2.8.2.2-.7 0-1.4-.2-2.1.7-.1 1.3-.3 1.9-.4.3 1 .6 2 .4 3.1-.2 1-1.3 1.6-2.3 1.7-1.2 0-2.6.2-3.7-.5-1.7.8-3.9.8-5.6-.1-.5.3-1.2.7-2 .6H2.8c-.9 0-2-.2-2.5-1-.5-.9-.2-2.1 0-3.1.7.1 1.4.3 2 .4v1.2c.3.4.8.3 1.3.3h5.2c.4 0 .9 0 1.1-.3-.4-1.4-1.5-2.5-2.3-3.8M41.5 86.7c1.3-1.1 2.6-2.2 3.9-3.4.5.5.9 1 1.3 1.6-.7.8-1.6 1.4-2.4 2.2.8 1.3 1.4 2.7 2.6 3.7.6.3 1.8 0 1.7-.8 0-1.8-.5-3.5-.8-5.3l2.1-.3c.4 2.2 1 4.4 1 6.6 0 .7-.5 1.4-1.1 1.6-.7.3-1.5.5-2.3.5-.8 0-1.6-.3-2.3-.7-1.3.7-2.8.8-4.3.6-.4-.1-.8-.3-1.2-.5-1.1.6-2.5.8-3.7.3.1 1.4-.9 2.5-2 3.1-.8.5-1.7.9-2.5 1.3-.4-.5-.7-1.2-1-1.8 1.2-.7 2.8-1.1 3.4-2.4.3-1-.3-2-.6-2.9.6-.2 1.3-.5 1.9-.7.3.5.4 1.1.9 1.4.7.2 1.5.2 2.2-.1 0-.5-.1-1.1-.2-1.6.7-.2 1.3-.3 2-.5.2.8 0 1.9.9 2.2.9.2 1.9.2 2.8 0 0-.3-.1-.6-.3-.9-.6-1.1-1.3-2.1-2-3.2M52.4 84.4h2.1v8.7h-2.1v-8.7zM75 84.4h1.9v1.9H75v-1.9M81.6 84.4h2.1v8.7h-2.1v-8.7M20.3 84.8h1.8v1.9h-1.8v-1.9M36.7 85.2h1.8V87h-1.8v-1.8"/><path style="fill:#890100" d="M39.1 85.2h1.8V87h-1.8v-1.8zM62.6 85.2h1.9v1.9h-1.9v-1.9M65.2 85.2h1.9v1.9h-1.9v-1.9M86.8 87.3c.6-.4 1.2-.8 1.8-1.1.9 1.5 2.1 2.9 2.2 4.6.1 1.2-1 2.1-2.1 2.2-1.2.1-2.5 0-3.7.1v-2.2c1.2.1 2.5.3 3.7-.2-.5-1.2-1.2-2.3-1.9-3.4M73.1 86.9c2.2.5 4.4 1.1 6.6 1.6.1.6.1 1.2.1 1.9-.2.3-.7.4-1 .6-1.2.5-2.2 1.5-3.5 1.8-1.2.2-2.3.3-3.4.2-.5 0-1-.3-1.5-.5-.6.3-1.2.5-1.9.5h-7c-1.1 0-2.3-.6-2.6-1.7-.2-.9.1-1.7.2-2.6l2.1.3c-.1.4-.2.8-.2 1.3.2.5.8.5 1.3.5h4.8c.6 0 1.2 0 1.6-.4.2-.5 0-1 0-1.4.7-.1 1.4-.2 2.1-.4.1.7 0 2 1 2.1 1.8.1 3.6-.2 5.2-1-.8-.2-1.7-.4-2.5-.6 0 .1-.1.3-.1.4-.7-.2-1.3-.4-2-.5.2-.6.4-1.3.7-2.1M24.4 89.5c.7-.9 1.6-1.9 2.8-2.2 1.2-.1 2.1 1 2.1 2.1.1 1.2 0 2.4 0 3.7 0 1.1-.9 2-1.8 2.6-.9.5-1.9 1-2.9 1.5l-.9-1.8c1.2-.6 2.5-1.1 3.5-2-.9-.2-2-.2-2.8-.8-.8-.9-.7-2.3 0-3.1zM99.6 88.7c.7-.1 1.3-.3 2-.4.3 1.2.9 2.7 0 3.8-1 1.1-2.8 1-4.2.7.1 1-.5 2-1.3 2.6-1 .8-2.2 1.2-3.3 1.8-.3-.6-.6-1.2-.9-1.9 1.1-.6 2.5-1 3.3-2.1.6-1.1-.1-2.2-.5-3.2.6-.2 1.3-.5 1.9-.7.3.5.4 1.4 1.2 1.5.7 0 1.5.2 2.1-.3 0-.6-.2-1.2-.3-1.8"/><path style="fill:#fff" d="M25.6 90.8c.5-.6 1.1-1.1 1.8-1.4v2c-.5-.2-1.2-.3-1.8-.6z"/><path style="fill:#43050a" d="M181.2 98.4c.1-3 0-5.9.2-8.9 4.6 2.6 9.3 5.2 14 7.8-1.5 3-2.9 6-4.4 9.1-3.3-.2-6.6-.6-10-.9.1-2.4 0-4.7.2-7.1"/><path style="fill:#580002" d="M152.9 107.9c3.1-5.3 6.4-10.6 9.6-15.9 3.2 5.4 6.5 10.7 9.6 16.1-3.1 2.1-6.2 4.2-9.2 6.3-.2.1-.5.5-.8.2-3-2.4-6.2-4.5-9.2-6.7"/><path style="fill:#4e45f6" d="M116.8 94.7c3.4-.2 6.9-.3 10.3-.5-1.4 3.2-2.9 6.3-4.3 9.5-2-.8-4-1.6-6.1-2.4 0-2.3.1-4.5.1-6.6z"/><path style="fill:#890100" d="M14.2 94.9H16v1.8h-1.8v-1.8M16.5 96.8V95h1.8v1.8h-1.8M98.5 94.9h1.8v1.8h-1.8c0-.5.1-1.2 0-1.8M100.9 94.9h1.8v1.8h-1.8v-1.8M99.7 97.3h1.8v1.9h-1.8v-1.9"/><path style="fill:#002b98" d="M17 101.3h2.9v2.9H17v-2.9zM36.1 107.7c2-1.7 4-3.5 6.1-5.2.7.8 1.4 1.6 2.1 2.3l-4 3.3c1.1 1.7 2.6 3.2 2.8 5.2.2 1.5-.9 2.8-2.2 3.4-1.7.9-3.7.5-5.6.6-1 0-1.9-.4-2.7-.9-1.5.9-3.4 1-5.1.8-.8-.1-1.5-.5-2.2-.8-1.5.8-3.2 1.1-4.9.7-.5-.1-.9-.4-1.3-.8-.5.4-1 .7-1.6.8-.6.1-1.2.1-1.8-.1.3 1.3.7 2.6.9 3.9-2.4.8-4.8 1.9-7.2 2.6-1.6.5-3.3.7-4.9.5-2.2-.4-4.1-2.3-4.2-4.6-.3-2.9.9-5.6 1.7-8.4 1 .4 2 .8 3.1 1.1-.5 2.1-1.5 4-1.4 6.2 0 .5.2 1 .4 1.3.3.4.7.7 1.1.9 1.2.5 2.5.1 3.7-.2 1.4-.4 2.7-1 4.1-1.6l-1.8-7.2c1.1-.3 2.2-.6 3.3-.8.3.9.4 1.9.9 2.7.3.5 1.2.8 1.6.2.6-.8.6-1.8.8-2.7 1.1.2 2.2.3 3.3.6-.2.7-.3 1.5-.2 2.2.7.3 1.9.5 2.2-.4 0-.8-.3-1.5-.5-2.2l3-.9c.3.9.3 1.9.7 2.8.6 1.1 2 1.1 3.1.9.3-.1.9-.2.9-.6 0-.7-.2-1.4-.3-2.1 1-.2 2-.5 3.1-.7.2.9.2 1.9.6 2.8.5.9 1.6.8 2.5.8 1.2 0 2.4.2 3.4-.5-.2-.9-.7-1.6-1.2-2.3-.6-1.3-1.5-2.5-2.3-3.6M64.1 103.9h3.2V114c.6.1 1.1.1 1.7 0 .6-.2 1.1-.6 1.5-1.1.8-1 1.4-2.1 2.1-3.1.9-1.1 2.4-1.7 3.8-1.1.8.3 1.2 1.2 1.4 2 .4 1.4.8 2.8.9 4.2.1 1.8-1.6 3.4-3.4 3.2-1.5-.1-2.6-1.3-3.8-2.1-.6.7-1.5 1.2-2.4 1.2-1.7.1-3.4-.2-5.1-.4l.1-12.9M81 103.9h3.2V114c.9 0 1.9.2 2.8-.2.8-.4.4-1.5.2-2.2 1-.2 2.1-.4 3.1-.6.2.9.2 1.9.8 2.7.3.5 1.1.4 1.4-.1.5-.8.5-1.8.7-2.6 1 .2 2 .4 3 .5-.1.7-.4 1.5-.2 2.2.8.5 2 .4 2.5-.4 0-.9-.4-1.8-.6-2.7 1-.2 2.1-.5 3.1-.7.3 1.4.8 2.7.7 4.2-.2 1.7-1.8 2.7-3.3 3-1.4.3-3 .3-4-.9-.6.5-1.3 1-2.2 1-1.1.1-2.1-.5-2.8-1.3-.9 1.1-2.3 1.3-3.6 1.3-1.7 0-3.3-.3-4.9-.4.1-4.3.1-8.6.1-12.9"/><path style="fill:#002b98" d="M15 105.1h2.9v2.9H15v-2.9zM19 105.1h2.9v2.9H19v-2.9"/><path style="fill:#6861eb" d="M128.6 109.5c2.9-1.3 5.9-2.6 8.8-3.9-.2 3.3-.4 6.5-.7 9.8-2-.1-4.1-.1-6.1-.1-.6-2-1.4-3.9-2-5.8"/><path style="fill:#002b98" d="M51.5 112.2v-3h2.9v2.9h-2.9z"/><path style="fill:#002b98" d="M56.2 110.2c1-.2 2.1-.5 3.1-.6.7 3.3 1.5 6.7 2.3 10-3.1 1.1-6.1 2.4-9.3 3-1.8.3-3.7.1-5.2-1.1-.6-.5-1.2-1.1-1.5-1.9-.3-.7-.5-1.5-.5-2.3-.1-2.6 1-4.9 1.8-7.3 1 .3 2.1.5 3.1.8-.6 2.1-1.6 4.3-1.4 6.6.2 1.4 1.7 2.2 3 2 2.2-.2 4.3-1.1 6.3-1.8-.5-2.5-1.1-5-1.7-7.4"/><path style="fill:#f7f7f7" d="M73.1 113.7c.5-.8 1-1.6 1.8-2.2.4.3.5.7.7 1.2.2.8.5 1.7.2 2.6-.9-.4-1.8-1-2.7-1.6"/><path style="fill:#8d81ff" d="M143.2 118.4c2.1-2 4.1-4.1 6.2-6.1.8 2.8 1.7 5.6 2.5 8.4-1.7.6-3.4 1.3-5.2 1.9-1.2-1.5-2.4-2.8-3.5-4.2z"/><path style="fill:#b4a6fe" d="M159 121.4c1.2-1.9 2.3-3.9 3.6-5.7 1.1 2 2.3 3.9 3.4 5.9-1.2.8-2.4 1.6-3.5 2.4-1.2-1-2.3-1.8-3.5-2.6z"/><path style="fill:#002b98" d="M28.5 120.2h2.7v2.8h-2.7v-2.8M32.1 120.2h2.8v2.8h-2.8v-2.8M45.3 130.1c-.2-.8-.7-1.6-.8-2.4 1.1 1.2 2 2.8 2 4.5.2 2.1-.5 4.4-2.1 5.8.2-.8.5-1.5.7-2.3.6-1.9.7-3.8.2-5.6zM2.1 138c-2.8-2.7-2.8-7.7 0-10.3-.2 1-.6 1.9-.8 2.9-.4 1.6-.4 3.3 0 4.9.2.8.7 1.6.8 2.5zM13.9 130.1H15v3.7c1.1 0 2.3 0 3.3-.6-.8-.2-1.7 0-2.6-.3.1-.4.2-.9.4-1.3 1.3.2 2.6.6 3.9.9v1.1c-.9.3-1.7 1.1-2.7 1.3-1.1.1-2.2.1-3.3 0-.3-1.6-.2-3.2-.1-4.8"/><path style="fill:#002b98" d="M17.2 130.1h1.1v1.1h-1.1v-1.1M33.4 134.9v-4.8h1.2v3.7c.4 0 .8 0 1.3-.1l-.3-1.5c.4-.1.8-.2 1.1-.2.2.6.3 1.3.3 1.9.5-.1 1.1-.2 1.6-.3 0-.3 0-.5-.1-.8l1.1-.2c.1.3.2.7.3 1 .2 0 .3 0 .5.1.1-.4.2-.7.3-1.1.4.1.7.1 1.1.2 0 .3 0 .6-.1.9.3 0 .6-.1.9-.1-.1-.4-.2-.8-.2-1.1l1.1-.3c.1.7.5 1.5 0 2.1-.6.7-1.6.6-2.4.3-.3.1-.6.2-.9.2s-.6-.1-.9-.3c-.6.3-1.3.4-2 .4v.6c0 .2.1.4.2.5-.3.2-.6.5-.9.7-.3-.3-.4-.6-.6-.9-.1-.3-.1-.7-.1-1.1-.8.3-1.7.3-2.5.2zM8.3 133.4c1.1-.8 2.2-1.9 3.7-1.7 1.6.4 1.2 3.2-.4 3.3-1 .1-2 .1-3 0 .1.5.2 1 .3 1.4-1.2.4-2.4 1-3.7 1.1-1 .1-2-.5-2.2-1.5-.2-1.1.3-2.2.6-3.2l1.2.3c-.2.7-.6 1.5-.5 2.3 0 .5.5.9 1 .9.8-.1 1.6-.4 2.4-.7l-.6-2.7 1.2-.3c-.1.3 0 .5 0 .8M30.7 131.9c.4-.1 1.1-.2 1.3.3.2.6.4 1.2.5 1.8.2.8-.7 1.5-1.5 1.3-.4-.2-.7-.4-1-.6-.5.2-1 .3-1.5.4 0 .3.1.6.1.9-.9.6-2 1.1-3.2 1-1 0-1.9-.5-2.2-1.5-.3-1 0-2 .4-2.9.4.1.8.3 1.1.4-.3.7-.9 1.8-.2 2.5 1 .7 2.2.1 3.1-.4-.4-.2-.9-.5-1.3-.7-.1-.4.3-.7.4-1.1.7.4 1.5.7 2.3.4.8-.5 1-1.4 1.7-1.8"/><path style="fill:#fff" d="M9.6 133.8c.7-.4 1.3-.8 2.1-.9v.9H9.6zM30.5 133.7c.2-.3.5-.6.8-.8.1.5.2 1 .3 1.4-.4-.2-.8-.4-1.1-.6z"/></svg>