<svg xmlns="http://www.w3.org/2000/svg" viewBox="0 0 26 28" style="enable-background:new 0 0 26 28" xml:space="preserve"><path style="fill:#2e4057" d="M10.6 14c0 1.3 1.1 2.3 2.4 2.3s2.4-1 2.4-2.3-1.1-2.3-2.4-2.3-2.4 1-2.4 2.3z"/><path style="fill-rule:evenodd;clip-rule:evenodd;fill:#2e4057" d="M16.5 2.8c-.7-3.8-6.3-3.8-7 0-.4 2.1-2.6 3.4-4.7 2.7-3.7-1.3-6.5 3.4-3.5 5.9 1.7 1.4 1.7 3.9 0 5.3-3 2.5-.2 7.2 3.5 5.9 2.1-.7 4.3.5 4.7 2.6.7 3.8 6.3 3.8 7 0 .4-2.1 2.6-3.3 4.7-2.6 3.7 1.3 6.5-3.4 3.5-5.9-1.7-1.4-1.7-3.9 0-5.3 3-2.5.2-7.2-3.5-5.9-2.1.7-4.3-.6-4.7-2.7zM8.3 14c0 2.6 2.1 4.7 4.7 4.7s4.7-2.1 4.7-4.7-2.1-4.7-4.7-4.7-4.7 2.1-4.7 4.7z"/></svg>