<svg xmlns="http://www.w3.org/2000/svg" viewBox="0 0 57.8 57.8"><g fill="#095701"><path d="M56.8 39.3c0-1.3-.1-4-2.3-5.1.5-3.3-1.2-4.8-2.5-5.4 1.3-.6 3-2.1 2.5-5.4 2.2-1 2.3-3.8 2.3-5.1 0-.6.4-1.2.9-1.5-.6.2-1.3 0-1.7-.4-.9-.9-2.9-2.8-5.2-1.9-2-2.7-4.2-2.5-5.6-2.1.5-1.3.6-3.6-2.1-5.6.8-2.3-1.1-4.3-1.9-5.2-.4-.5-.6-1.1-.4-1.7-.3.6-.9.9-1.5.9-1.3 0-4 .1-5.1 2.3-3.3-.5-4.8 1.2-5.4 2.5-.6-1.3-2.1-3-5.4-2.5-.9-2.1-3.7-2.1-5-2.1-.6 0-1.2-.4-1.5-.9.2.6 0 1.3-.4 1.7-.9.9-2.8 2.9-1.9 5.2-2.7 2-2.5 4.2-2.1 5.6-1.3-.5-3.6-.6-5.6 2.1-2.3-.8-4.3 1.1-5.2 1.9-.4.4-1.1.5-1.7.3.6.3.9.9.9 1.5 0 1.3.1 4 2.3 5.1-.5 3.3 1.2 4.8 2.5 5.4-1.3.6-3 2.1-2.5 5.4-2.2 1-2.2 3.8-2.2 5 0 .6-.4 1.2-.9 1.5.6-.2 1.3 0 1.7.4.9.9 2.9 2.8 5.2 2 2 2.7 4.2 2.5 5.6 2.1-.5 1.3-.6 3.6 2.1 5.6-.8 2.3 1.1 4.3 1.9 5.2.4.5.6 1.1.4 1.7.3-.6.9-.9 1.5-.9 1.3 0 4-.1 5.1-2.3 3.3.5 4.8-1.2 5.4-2.5.6 1.3 2.1 3 5.4 2.5 1 2.2 3.8 2.3 5.1 2.3.6 0 1.2.4 1.5.9-.2-.6 0-1.3.4-1.7.9-.9 2.8-2.9 1.9-5.2 2.7-2 2.5-4.2 2.1-5.6 1.3.5 3.6.6 5.6-2.1 2.3.8 4.3-1.1 5.2-1.9.5-.4 1.1-.6 1.7-.4-.7-.3-1-.9-1.1-1.6zm-7.3-22.8l.5.8 1-.4c1.3-.6 2.1-.1 3.5 1.2l.2.1v.2c0 1.9-.3 2.8-1.6 3.3l-1 .4.2.9c.2.9.8 3.1-1.3 4-1.8.8-2.7-.3-4.1-2.2-.7-1-1.6-1.8-2.6-2.4.3-1.1.3-2.3.1-3.5-.3-2.3-.5-3.7 1.4-4.5 2.1-.7 3.3 1.3 3.7 2.1zM30.7 6.8c.9-2.1 3.1-1.5 4-1.3l.9.2.4-1c.6-1.3 1.4-1.6 3.3-1.6h.2l.1.1c1.3 1.4 1.8 2.2 1.2 3.5l-.4 1 .8.5c.8.4 2.8 1.6 1.9 3.7-.8 1.8-2.1 1.7-4.5 1.4-1.2-.2-2.3-.1-3.5.1-.6-1-1.4-1.9-2.4-2.6-1.7-1.3-2.7-2.1-2-4zM16.5 8.2l.8-.5-.4-1c-.6-1.3-.1-2.1 1.2-3.5l.1-.2h.2c1.9 0 2.8.3 3.3 1.6l.4 1 .9-.2c.9-.2 3.1-.8 4 1.3.8 1.8-.3 2.7-2.2 4.1-1 .7-1.8 1.6-2.4 2.6-1.1-.3-2.3-.3-3.5-.1-2.3.3-3.7.5-4.5-1.4-.7-2 1.3-3.2 2.1-3.7zM4.7 21.7c-1.3-.6-1.6-1.4-1.6-3.3v-.2l.1-.2c1.4-1.3 2.2-1.8 3.5-1.2l1 .4.5-.8c.4-.8 1.6-2.8 3.7-1.9 1.8.8 1.7 2.1 1.4 4.5-.2 1.2-.1 2.3.1 3.5-1 .6-1.9 1.4-2.6 2.4-1.4 1.9-2.3 2.9-4.1 2.2-2.1-.9-1.5-3.1-1.3-4l.2-.9-.9-.5zm3.5 19.6l-.5-.8-1 .4c-1.3.6-2.1.1-3.5-1.2l-.1-.1v-.2c0-1.9.3-2.8 1.6-3.3l1-.4-.2-.9c-.2-.9-.8-3.1 1.3-4 1.9-.8 2.7.2 4.2 2.1.7 1 1.6 1.8 2.6 2.4-.3 1.1-.3 2.3-.1 3.5.3 2.3.5 3.7-1.4 4.5-2.2.8-3.4-1.2-3.9-2zM27.1 51c-.9 2.1-3.1 1.5-4 1.3l-.9-.2-.4 1c-.6 1.3-1.4 1.6-3.3 1.6h-.2l-.3-.1c-1.3-1.4-1.8-2.2-1.2-3.5l.4-1-.8-.5c-.8-.4-2.8-1.6-1.9-3.7.8-1.8 2.1-1.7 4.5-1.4 1.2.2 2.3.1 3.5-.1.6 1 1.4 1.9 2.4 2.6 1.9 1.2 2.9 2.1 2.2 4zm1.8-3.1c-.7-1.2-1.8-2.1-2.7-2.7-1.9-1.4-2.6-3.4-2-4.8-.6 1.4-2.5 2.3-4.8 2-1.1-.2-2.6-.4-3.9 0 .4-1.3.2-2.8 0-3.9-.3-2.3.6-4.2 2-4.8-1.4.6-3.4-.1-4.8-2-.7-.9-1.6-2.1-2.8-2.7 1.2-.7 2.1-1.8 2.7-2.7 1.4-1.9 3.4-2.6 4.8-2-1.4-.6-2.3-2.5-2-4.8.2-1.1.4-2.6 0-3.9 1.3.4 2.8.2 3.9 0 2.3-.3 4.2.6 4.8 2-.6-1.4.1-3.4 2-4.8.9-.7 2.1-1.6 2.7-2.8.7 1.2 1.8 2.1 2.7 2.7 1.9 1.4 2.6 3.4 2 4.8.6-1.4 2.5-2.3 4.8-2 1.1.2 2.6.4 3.9 0-.4 1.3-.2 2.8 0 3.9.3 2.3-.6 4.2-2 4.8 1.4-.6 3.4.1 4.8 2 .7.9 1.6 2.1 2.8 2.7-1.2.7-2.1 1.8-2.8 2.7-1.4 1.9-3.4 2.6-4.8 2 1.4.6 2.3 2.5 2 4.8-.2 1.1-.4 2.6 0 3.9-1.3-.4-2.8-.2-3.9 0-2.3.3-4.2-.6-4.8-2 .6 1.4-.1 3.4-2 4.8-.8.7-1.9 1.6-2.6 2.8zm12.4 1.6l-.8.5.4 1c.6 1.3.1 2.1-1.2 3.5l-.1.1h-.2c-1.9 0-2.8-.3-3.3-1.6l-.4-1-.9.2c-.9.2-3.1.8-4-1.3-.8-1.8.3-2.7 2.2-4.1 1-.7 1.8-1.6 2.4-2.6 1.1.3 2.3.3 3.5.1 2.3-.3 3.7-.5 4.5 1.4.7 2.2-1.3 3.4-2.1 3.8zm13.3-9.8c-1.4 1.3-2.2 1.8-3.5 1.2l-1-.4-.5.8c-.4.8-1.6 2.8-3.7 1.9-1.8-.8-1.7-2.1-1.4-4.5.2-1.2.1-2.3-.1-3.5 1-.6 1.9-1.4 2.6-2.4 1.4-1.9 2.3-2.9 4.1-2.2 2.1.9 1.5 3.1 1.3 4l-.2.9 1 .4c1.3.6 1.6 1.4 1.6 3.3v.2l-.2.3z"/><path d="M20.6 28.6c.7 0 1.5-.2 2.1-.5.6-.3 1.2-.6 1.8-1.1.5-.4.8-.7.8-.8.1-.2.1-.5.1-.7 0-.3-.1-.5-.3-.6-.4-.1-.8-.2-1.3-.3-.4 0-.7-.2-1-.5.1-.4.3-.8.7-1.1.4-.5.8-.8 1.1-.8.2 0 .3.1.3.2s.1.2.1.2c.2 0 .3-.2.3-.5 0-.4-.2-.7-.5-.7-.4 0-.8.3-1.3.8-.6.6-1 1.5-1 2.3 0 .3.2.5.6.7.4.1.7.2 1.1.3.4.1.7.2.8.3 0 .1-.2.2-.6.6-.5.4-1.1.7-1.7.9-.7.3-1.4.5-2.2.5-.4 0-.9-.2-1.2-.5-.1-.4-.3-.8-.3-1.3 0-.6.1-1.2.4-1.7.1-.2.1-.3.2-.5-.1 0-.2.2-.3.5-.3.6-.5 1.3-.5 2 0 .6.1 1.1.5 1.5.2.5.8.8 1.3.8z"/><path d="M21.3 31.4c1-1 1.7-1.6 1.9-1.9.4-.4 1-.6 1.5-.7.4 0 .7.1.9.4 0 .1.1.1.1.1s.1-.1.1-.3c0-.1 0-.3.1-.4 0-.2-.1-.4-.3-.5-.1 0-.3-.1-.6-.1-.8.1-1.5.4-2 .9-.6.6-1.2 1.2-1.8 1.7-.4.5-1 .8-1.7.9-.3 0-.5-.2-.5-.6 0-.8.2-1.5.6-2.1 0-.1.1-.1.1-.2-.1 0-.1.1-.2.2-.4.7-.7 1.5-.7 2.3 0 .3.1.6.3.9.2.2.5.4.8.4.6-.3 1.1-.5 1.4-1zM33.3 34.2c.7 0 1.5 0 2.2.1.8.2 1.7-.3 1.9-1.2.3-.9-.5-1.1-1.1-1.5-.8-.5-1-1-.3-1.5.2-.1.4-.2.7-.1.3.1.3.1.3-.4 0-.3-.2-.5-.5-.6h-.2c-.8.3-1.1 1.7-1.3 2-.8.3-1.8 1.1-1.4 2.2-.6.1-1.2.4-1.7.9-.6.6-1.2 1.2-1.8 1.7-.4.5-1 .8-1.7.9-.3 0-.5-.2-.5-.6 0-.7.2-1.3.5-1.9v.2s.1 0 .1-.2c.2-.4.3-.9.3-1.4v-.6-.9l.2-.2c1-1 1.7-1.6 1.9-1.9.3-.3.7-.5 1.1-.6.7 0 1.5 0 2.2.1.8.2 1.7-.3 1.9-1.2.3-.9-.5-1.1-1.1-1.5-.9-.5-1.1-1.1 0-1.7.3 1.4 1.2 1.5 2.1.5h.1c.7 1 2.1-.2 1.4-1.7-.5 0-.2.4-.3.9-.1.4-.7.3-.7-.5 0 0 0-.1-.1-.1h-.1c-.8 1.3-1.6 1.4-2.1 0 0-.1-.1-.1-.2-.1-.8.3-1.1 1.7-1.3 2-.8.3-1.8 1.1-1.4 2.2-.6.1-1.2.4-1.7.9-.6.6-1.2 1.2-1.8 1.7 0 .1-.1.1-.2.2 0-.5-.1-1.1-.1-1.8l.9-.6c.5-.3 1.1-.7 1.6-1.1l.3-.3c.1-.2.1-.4.2-.5v-.3c0-.4-.1-.7-.4-1-.4-.2-.7-.4-1.1-.6-.5-.2-.9-.5-1.2-.8.3 0 .4 0 .5-.1 0 0 0-.1-.2-.2h-.1l-.8-.4h-.1v.6c0 .1 0 .2.1.2s.2.1.2.2c.3.4.6.7 1 1 .3.2.6.4.9.5.3.1.6.3.8.5.1.1.2.2.2.3 0 .1 0 .1-.1.2-.5.4-1.1.8-1.6 1.1-.3.3-.7.5-1.1.6 0-.8-.1-1.3 0-1.4l.3.3h.1c0-.3-.1-.5-.2-.8-.1-.3-.2-.5-.3-.8-.1-.2-.1-.3-.1-.3-.1.2-.2.5-.2.7.1.1.1.2.1.4v2c-.2.1-.4.1-.6.2-.2 0-.3-.1-.4-.2-.1-.1-.2-.3-.2-.5 0-.4.1-.7.2-1.1l.1-.1c.2-.4.3-.9.3-1.4v-.6c0-.8-.1-1.9-.2-3.5-.1-1.3-.1-2.1-.1-2.2l.3.3h.1c0-.3-.1-.5-.2-.8-.1-.3-.2-.5-.3-.8-.1-.2-.1-.3-.1-.3-.1.2-.2.5-.2.7.1.1.1.2.1.4v1.8c.1 2.2.2 3.9.2 5 0 .3 0 .7-.1 1v.2c-.1 1-.2 1.5-.2 2.1 0 .4.1.7.2.9-.3.6-.5 1.2-.5 1.9 0 .3.1.6.3.9.2.2.5.4.8.4.2-.1.5-.1.7-.3 0 .5 0 1 .1 1.3 0 .3 0 .5-.1.8l-.1.1c-.4.7-.7 1.5-.7 2.3 0 .3.1.6.3.9.2.2.5.4.8.4.5-.1 1-.4 1.3-.8 1-1 1.7-1.6 1.9-1.9.5-.5.9-.7 1.3-.8zm2.3-1.8c.5.1 1.3.5 1.3.7 0 .2-1.1.7-1.9.3.3-.3.5-.6.6-1zm-.7-.4c.5 0 .2 1.3-.5 1.3-.9 0 .1-1.3.5-1.3zm-.4-5.1c.5.1 1.3.5 1.3.7 0 .2-1.1.7-1.9.3.3-.2.5-.6.6-1zm-.7-.3c.5 0 .2 1.3-.5 1.3-.8-.1.1-1.3.5-1.3zm-6.3 4.8c-.3 0-.5-.2-.5-.6 0-.6.1-1.2.4-1.7.1.1.3.1.5.1.2-.1.4-.1.6-.2 0 .7.1 1.4.1 2-.4.2-.7.4-1.1.4z"/><path d="M34.9 21.8c.1.1.3.2.4.3.1 0 .1-.1.2-.2s.1-.2.1-.3c0-.1-.1-.2-.2-.3-.2-.1-.4-.3-.5-.5-.1.2-.3.5-.4.7 0-.1.1.1.4.3zM22.8 32.9c-.1.2-.3.5-.4.7 0 .1.1.2.4.4.1.1.3.2.4.3.1 0 .1-.1.2-.2s.1-.2.1-.3c0-.1-.1-.2-.2-.3-.2-.3-.4-.5-.5-.6zM35 20.5c.2.1.4.3.7.4.2-.2.3-.4.3-.7 0-.1-.1-.2-.3-.3-.2-.1-.4-.2-.6-.4-.2.5-.3.7-.3.7 0 .2 0 .2.2.3zM35.7 21c-.1.1-.1.2-.1.3 0 .1.1.2.3.3.1.1.3.2.4.3.1-.1.2-.2.2-.4 0-.1.1-.2.1-.3 0-.1-.2-.3-.7-.5 0 0-.1.1-.2.3zM32 30.9c-.2-.1-.4-.3-.5-.5-.1.2-.3.5-.4.7 0 .1.1.2.4.4.1.1.3.2.4.3.1 0 .1-.1.2-.2s.1-.2.1-.3c.1-.2 0-.3-.2-.4zM32.4 30.8c-.1.1-.1.2-.1.3 0 .1.1.2.3.3.1.1.3.2.4.3.1-.1.2-.2.2-.4 0-.1.1-.2.1-.3 0-.1-.2-.3-.7-.5 0 0-.1.1-.2.3z"/><path d="M26.8 32.9l-.3-.6H26.8c-.2-.2-.3-.4-.5-.6-.1-.2-.2-.2-.2-.2 0 .3-.1.5-.2.8l.1.1c.1.3.2.6.3.8.1.3.2.5.3.7.1.2.2.3.2.5-.5.7-1.2 1.2-2 1.6-.8.5-1.7.9-2.7.9-1.5 0-2.2-.7-2.2-2.1 0-.3 0-.5.1-.8v-.4c0-.1-.1-.1-.1 0s-.1.2-.1.2c-.1.4-.1.7-.1 1.1 0 .6.1 1.3.5 1.9.4.6 1 .9 1.7.9 1 0 2-.4 2.9-.9.8-.4 1.5-1.1 2.1-1.8.2-.3.3-.6.3-1v-.3c-.2-.2-.3-.6-.4-.8z"/></g></svg>