<svg xmlns="http://www.w3.org/2000/svg" viewBox="0 0 18.7 19.8"><path d="M16.3 12.9c-.4-.1-.8-.2-1.2-.2-1.1 0-2.1.5-2.8 1.4l-5.4-3c.1-.4.2-.8.2-1.2 0-.4-.1-.8-.2-1.2l5.4-3c1.2 1.6 3.4 1.8 5 .7 1.6-1.2 1.8-3.4.7-5-1.2-1.6-3.4-1.8-5-.7-.9.7-1.4 1.7-1.4 2.8 0 .4.1.8.2 1.2l-5.4 3C5.2 6.1 3 5.9 1.4 7s-1.8 3.4-.7 5 3.4 1.8 5 .7c.2-.2.5-.4.7-.7l5.4 3c-.7 1.8.3 3.9 2.2 4.5s3.9-.3 4.5-2.2c.6-1.7-.3-3.7-2.2-4.4zM15.1 1.1c1.3 0 2.4 1.1 2.4 2.4S16.5 6 15.1 6c-1.3 0-2.4-1.1-2.4-2.4 0-1.4 1.1-2.5 2.4-2.5zM3.5 12.3c-1.3 0-2.4-1.1-2.4-2.4s1.1-2.4 2.4-2.4S6 8.6 6 9.9c0 1.4-1.1 2.4-2.5 2.4zm11.6 6.4c-1.3 0-2.4-1.1-2.4-2.4s1.1-2.4 2.4-2.4c1.3 0 2.4 1.1 2.4 2.4.1 1.3-1 2.4-2.4 2.4z" fill="#2e4057"/></svg>