<svg xmlns="http://www.w3.org/2000/svg" viewBox="0 0 700 980"><path d="M630 280H490v35h140c19.3 0 35 15.7 35 35v560c0 19.3-15.7 35-35 35H70c-19.2 0-35-15.7-35-35V350c0-19.2 15.7-35 35-35h140v-35H70c-38.7 0-70 31.3-70 70v560c0 38.7 31.3 70 70 70h560c38.7 0 70-31.3 70-70V350c0-38.7-31.3-70-70-70zM222.5 170l110-110.2v552.7c0 9.6 7.9 17.5 17.5 17.5s17.5-7.9 17.5-17.5V59.8l110 110c3.5 3.5 7.9 5 12.5 5s9-1.7 12.5-5c6.8-6.8 6.8-17.9 0-24.7l-140-140c-6.8-6.8-17.9-6.8-24.7 0l-140 140c-6.8 6.8-6.8 17.9 0 24.7 6.7 7 17.7 7 24.7.2z" fill="#2e4057"/></svg>