<svg xmlns="http://www.w3.org/2000/svg" viewBox="0 0 324.5 274"><path d="M26.8.3c1.5 0 3-.3 4.6-.3h259.4c1.6 0 3.1-.1 4.7.2 7.8.1 15.4 3.8 20.7 9.6 5.4 5.7 8.4 13.5 8.4 21.4v14h-156c-2.8-.3-5.7-.1-8.5-.3-2-.4-4 0-6-.3-1.6-.2-3.3-.1-4.9-.2-6.6-.4-13.2-.7-19.7-1.3-7.4-.5-14.7-2.4-22.1-3.5-8.4-1.3-16.9-1.2-25.2-.3-3.8.5-8 1.1-10.9 3.9-1.4 1.2-1.8 3.3-1.1 5 1.5 2.3 4.1 3.6 6.7 4.2 1.7.5 3.6 0 5.3.4 2.3.1 4.7-.1 7.1.2 8 .3 16.1-.1 24-1.4.4 0 .8-.1 1.2-.1 2.7-.5 5.3-.8 8-1.2 10.3-1.4 20.8-1.6 31.1-2.2 4.3-.1 8.6-.3 12.9-.5h158.2v13.1H158c-.8-.1-1.5-.2-2.3-.4-1.7-.1-3.5-.4-5.2-.6-10.8-1.4-21.5-3.2-32.4-3.5-3.4-.5-6.9.1-10.4-.4-14.2-.1-28.3 0-42.5 0-3.9.5-7.9 0-11.8.4-4.2 0-8.8-.3-12.5 2.3-2 1.2-3.6 3.8-2.6 6.2 1 2.4 3.6 3.5 5.9 4.1 4.7 1.2 9.6.7 14.3.8 5.4.4 10.8.1 16.2.2 6 .1 12-.2 18 .2 9.7 0 19.5.2 29.2-.6 1.9-.1 3.8-.2 5.7-.4 4.2-.3 8.5-.8 12.7-1.3 1.2-.1 2.3-.3 3.5-.4 2.5-.2 5-.6 7.5-.9.4 0 .8-.1 1.2-.1 6.5-1.1 13.1-.2 19.6-.8h81.5c1.2 0 2.3-.2 3.5-.2h67.5v12.9H183.9c-2.6.1-5.2-.1-7.7-.4-7.9-.5-15.7-1.3-23.6-1.9-6.4-.6-12.8-1-19.3-1.3-10.1-.6-20.3-.9-30.5-.8-6.1-.4-12.3-.1-18.4-.2H53.7c-.7 0-1.4 0-2 .2-2.7.1-5.4 0-8.1.1-4.3.5-8.8-.4-12.9 1.3-2.5.9-4.9 3-5 5.9.2 1.5 1.1 2.9 2.4 3.7 3 1.9 6.6 2.3 10 2.3 4 .4 8.1.1 12.1.2 7.3.4 14.6.1 21.9.2h21c7.6.6 15.2-.1 22.8-.2 16.7-.8 33.5-2 50.2-3.2 5.6-.3 11.2-.7 16.8-.9h73.6c3.1 0 6.1.1 9.2-.2h58.7v12.5H185.5c-3.9.1-7.7-.7-11.6-.9-1.3-.2-2.6-.3-3.9-.4-1.3-.2-2.6-.3-3.9-.4-1.3-.2-2.6-.3-3.9-.4-2.9-.4-5.8-.6-8.8-.9-7.3-.7-14.6-1.1-21.9-1.3-2.8-.5-5.7.1-8.5-.3-4.6-.3-9.2.2-13.7-.3H53.2c-.5 0-1.1.1-1.6.2-4.4.2-8.9-.2-13.3.3-3.1-.2-6.1.2-9.2.2-3 .2-6.2 1-8.3 3.3-1.6 1.5-2 4.3-.5 5.9 2 2.4 5.4 3.1 8.4 3.4 3.1.4 6.2 0 9.2.4 4.9.2 9.9-.2 14.9.3h15.8c2.9.3 5.9.2 8.8.2h16.7c6.1.4 12.3.2 18.4.2 3.3-.4 6.6 0 9.9-.3 13.4-.5 26.9-1.3 40.3-2.4 4.2-.2 8.4-.7 12.6-1 1-.1 2.1-.2 3.2-.3 6.5-.8 13-.4 19.5-.5h63.5c7.1-.5 14.3-.1 21.5-.2h41.6v11.8H192.3c-2.4.1-4.8-.5-7.2-.7-1.2-.2-2.3-.3-3.5-.4-2.6-.4-5.3-.6-7.9-.9-1.5-.2-2.9-.3-4.4-.4-5.2-.5-10.5-.9-15.7-1.1-2.4-.3-4.9 0-7.4-.3-2.9-.2-5.8.1-8.7-.2-6.5-.2-12.9.2-19.4-.3h-71c-1.4 0-2.8-.1-4.2.2-3.4.2-6.8-.1-10.2.3-4.1 0-8.5-.2-12 2-2 1-3.4 3.3-3.1 5.6.3 1.9 2.1 3.1 3.7 3.9 3 1.3 6.2 1.5 9.4 1.5 4.1.5 8.3-.1 12.5.4 4 .1 7.9 0 11.9 0 6.7.6 13.4-.1 20.1.4 7.9.1 15.8-.2 23.7.2h23.7c3-.4 6.1 0 9.1-.3 12.4-.4 24.8-1 37.1-2 2.5-.1 4.9-.4 7.4-.6 1.6-.2 3.2-.3 4.8-.4 1.3-.2 2.6-.3 3.9-.4 2.4-.3 4.8-.6 7.2-.8H264c4.2-.4 8.5-.1 12.7-.2h47.8v12.5H184.7c-1.3 0-2.5-.2-3.8-.4-1.9-.2-3.8-.4-5.6-.6-1.3-.2-2.6-.3-3.9-.4-1.3-.2-2.6-.3-3.9-.4-2.8-.3-5.5-.6-8.3-.9-1.6-.2-3.2-.4-4.8-.4-4.1-.4-8.2-.7-12.3-.9-3.3-.3-6.7-.4-10.1-.4-2.8-.5-5.7.1-8.5-.3-3.7-.2-7.5 0-11.2-.1-1.1-.2-2.2-.2-3.3-.2H52.4c-4.5.5-9-.1-13.5.4-2.2.2-4.3-.2-6.5.2-3.3 0-6.7 0-9.6 1.8-1.7 1.1-3.5 2.8-3.3 5-.1 1.5.9 2.7 2 3.6 2.4 1.7 5.4 2.2 8.2 2.4 2.8.4 5.7-.1 8.5.3 4 .1 7.9 0 11.9 0 6 .4 12 .1 18 .2 10.4.6 20.8-.1 31.1.5H112c3.4-.4 6.9 0 10.3-.3 11.8-.4 23.7-1.1 35.5-2 3.8-.3 7.6-.5 11.4-.9 1.8-.1 3.5-.2 5.3-.4 3.7-.2 7.4-.7 11.1-.9h73.2c6-.4 12-.1 17.9-.2h47.8v11.8H181.6c-1.5 0-3-.2-4.6-.3-1.1-.2-2.1-.2-3.2-.3-20.4-1.5-40.8-3-61.3-3.7-3.4-.4-6.7.1-10.1-.2-1.5-.2-3.1-.1-4.6-.1H56.6c-4.4-.1-8.8.4-13.1.2-4.1.5-8.3-.3-12.3 1.1-2.4.9-5 2.4-5.5 5.1-.6 2.2 1.1 4.2 2.9 5.1 2.7 1.3 5.7 1.8 8.7 1.8 5 .4 10 .2 15 .2 7.9.5 15.8.1 23.6.2 7.6.1 15.2-.2 22.8.2 7.3-.1 14.5.2 21.8-.4 2.9-.1 5.9-.2 8.8-.4 2.2-.1 4.4-.2 6.6-.4 4.1-.2 8.2-.5 12.3-.9 9.7-.7 19.5-1.6 29.2-2.2 5.5-.4 11-.3 16.6-.3h59.6c1.4 0 2.8.1 4.2-.2 22.3-.1 44.5 0 66.8-.1v12.5H158.9c-4.3.1-8.6-.7-12.9-1.2-1.8-.2-3.6-.5-5.3-.7-1.4-.2-2.9-.4-4.3-.6-3.8-.5-7.6-1-11.4-1.3-4-.4-8.1-.6-12.2-.6-2.5-.3-5-.2-7.4-.2H66.9c-1.6 0-3.2-.1-4.8.1-2.9.3-5.8-.2-8.6.3-3.5.1-7.1-.3-10.4 1.1-2.3.8-4.5 2.6-5.1 5.1-.4 1.8.9 3.5 2.2 4.5 3 1.9 6.6 2.3 10 2.3 6 .5 12-.1 17.9.4h39.5c2.9-.1 5.7.2 8.6-.2 2.5 0 5-.1 7.4-.4 4.4-.3 8.8-.8 13.1-1.3 1.2-.1 2.3-.3 3.5-.4 1.2-.1 2.3-.3 3.5-.4 2.5-.2 5-.6 7.5-.9 1.3-.1 2.6-.2 3.9-.5 6-.2 12.1.2 18.1-.3h78c2.9 0 5.8.1 8.7-.2h64.5v13.4H185c-8.2 0-16.5.1-24.7-.3-3.3-.3-6.7-.4-10.1-.4-8.8-.5-17.6-.9-26.3-2-4.8-.7-9.6-1.6-14.5-2.3l-4.8-.6c-2.3-.3-4.6-.4-6.9-.4-3.9-.6-7.9.2-11.8 0-3 .3-6 .1-9 .5-2.8.7-5.8 1.9-7.2 4.6-1.1 2.1-.3 4.8 1.5 6.2 2.9 2.4 6.7 3.3 10.4 3.7 1.4.2 2.9.4 4.4.4 7.8.7 15.7.3 23.3-1.2 4.9-.9 9.7-1.9 14.6-2.8 6.2-.7 12.5-1.2 18.7-1.6 9.3-.5 18.5-.9 27.8-1.2h153.8c-.1 6.1.3 12.1-.3 18.2-1.3 10.3-8.1 19.7-17.6 24-3.2 1.7-6.8 2.3-10.4 2.7-88.6.1-177.2 0-265.7 0-6.4 0-12.7-2.1-17.8-5.9-7.6-5.5-12.3-14.6-12.6-24C-.1 143 0 87.3 0 31.6c0-7.5 2.5-15.1 7.5-20.8C12.3 5 19.3 1.2 26.8.3m218.9 248c.5-3.2 2.2-6 4.3-8.3.5.6 1 1.1 1.5 1.7-1.9 2.6-3.6 5.6-3.7 9-.2 3.7 1 7.6 3.7 10.2-.5.5-.9 1.1-1.4 1.7-3.7-3.6-5.5-9.2-4.4-14.3m67-6.7l1.5-1.5c3 3.1 4.8 7.4 4.5 11.7.1 4-1.9 7.7-4.5 10.7l-1.5-1.5c3.5-3.9 4.9-9.8 2.7-14.7-.7-1.6-1.9-3.1-2.7-4.7m-290.8 2.9c2.6-1.3 5.5-2 8.2-2.9.4.9.8 1.8 1.1 2.7-2.3.8-4.8 1-6.8 2.4 1.3 2.1 1.7 4.8 3.7 6.4 1.6 1.2 3.7.7 5.5.7-.2-1.4-1-2.5-1.7-3.7.9-.6 1.8-1.2 2.6-1.9 1.1 2.1 2.6 4.5 1.8 6.9-.3 1.2-1.5 2.3-2.8 2.2-2.4 0-5.4.5-6.9-1.9-1.4 2.3-4.2 2-6.5 1.9v1.1c-.9 3.4-4.5 5.1-7.7 5.5-2.4.5-5.2-.1-6.7-2.1-1.7-2.6-1.4-5.9-.5-8.8.9.3 1.7.5 2.6.8-.4 1.8-.9 3.9.3 5.6.9 1.1 2.5 1.2 3.9 1.2 2 0 3.9-.7 5.3-2.1-1.7-1-3.6-1.2-5.5-1.7.4-.9.3-2.3 1.1-2.9 3.6-.2 7.3.1 11-.1.1-3-2.8-5.2-2.7-8.3.2-.3.5-.8.7-1m16.5-2.6h2.8c.1 3.7-.3 7.5.3 11.2.2.2.5.5.7.6h4.2c.1-1.4-.9-2.6-1.5-3.8.9-.6 1.8-1.2 2.6-1.8 1.2 2.3 2.8 5 1.5 7.6-1.4 2.4-4.5 1.2-6.8 1.5-2.4.4-3.8-2.2-3.9-4.3 0-3.6.1-7.3.1-11m38.3 0h3.1v8.3c0 1-.1 2.1.3 3.1 1 .7 2.3.3 3.5.4-.2-1.3-.7-2.8-.1-4.1.7-1.8 2.8-2.6 4.6-2.7 1.8.2 3.6.8 5.1 1.8-.5.7-.9 1.5-1.3 2.3-1.4-.7-2.9-.9-4.4-.9-.5.6-.9 1.2-1.2 1.8.5.7.9 1.6 1.9 1.7 1.8.1 3.6 0 5.3.1v3.5H80.1c-2.2-.1-3.1-2.6-3.2-4.4-.2-3.6-.2-7.3-.2-10.9m18.9 1.5c.9-.5 1.7-1 2.5-1.5 1.6 3.6 3.3 7.1 5 10.6 1.3-3.3.6-6.9.8-10.4h2.8v7.3c0 1.5.1 3.3 1.4 4.4.9 0 1.9-.1 2.8-.2.4-3.8.1-7.6.2-11.4h3.1v8.7c1.6-1.8 3.5-3.9 6.1-3.9 2.7.3 4.4 3.4 3.8 6-.3 2.3-2.3 4.4-4.6 4.3h-11.1c-1.6 0-2.8-1.5-3.1-3-2 3.5-7.1 4-10.2 1.6v-2.1h5.4c-1.6-3.5-3.4-6.9-4.9-10.4m24.1 6.9c-1.3.1-2.1 1.2-3.1 1.9-.4.5-.9 1.1-1.4 1.6h5.1c1-.5 1.2-1.6 1.2-2.6-.6-.3-1.1-1.1-1.8-.9m44.6-8.4h3.1v9.6c0 .7.3 1.4.5 2.1 1.1.1 2.1.1 3.2.1 1.1-1.5.5-3.4.7-5.1h2.8c.1 1.7-.1 3.8 1.4 5.1h3.7c0-1.4-.9-2.5-1.5-3.7.9-.7 1.8-1.3 2.7-1.9 1.2 2.4 2.8 5.3 1.2 7.9-1 1.7-3.3 1.1-4.9 1.2-1.4.2-2.5-.8-3.3-1.8-.4 1-1.3 1.7-2.3 1.7-1.5 0-2.9.1-4.4 0-1.6-.3-2.3-2-2.6-3.4-.5-3.8-.2-7.8-.3-11.8m37 2.5c2.3-.9 4.7-1.6 7-2.5.4.9.8 1.7 1.2 2.6-2.2.7-4.5 1.2-6.6 2.2.7 1.7 1.5 3.4 2.4 5 .8 1.4 2.4 2.1 4 2.1.7 0 1.4-.4 1.5-1.1.1-1.3 0-2.6 0-3.9h2.8c.1 1.4-.2 2.9.4 4.2.5 1 1.7.9 2.7.9 1.3-1.2.4-3.2.7-4.8h2.8c.3 1.5-.2 3.6 1.3 4.6.3 0 1-.1 1.3-.1.7-1.4.2-3 .3-4.5.9 0 1.8-.1 2.6.1.4 1.5 0 3.2 1.2 4.4.5.1 1.4.4 1.8-.2.2-1.4-.6-2.6-1.1-3.8.8-.5 1.5-1 2.3-1.4 1.5 2.3 2.6 5.6.7 7.9-1.6 1.7-4.4 1.1-5.7-.6-.7 1.4-2.1 1.9-3.6 1.8-.7-.5-1.3-1.1-2-1.7-1.5 2.1-5 2.3-6.5 0-.7 1.6-2.5 1.7-4 1.6-1.5.1-2.8-.8-3.8-1.9-1.4 2.2-4.1 1.9-6.3 1.8-1.5.1-2.8-1-3.9-1.9-1.5.1-2.9.6-4.4.2-2.1-.3-3.5-2.4-3.1-4.5.7-1.8 2.5-2.8 4.2-3.6-.1-.4-.4-1.1-.6-1.5.8-.6 1.6-1.1 2.4-1.6 1.2 3 1.9 6.3 3.6 9.1 1.8.7 3.8.5 5.6.3-.3-2.9-2.8-5.1-2.6-8.1.5-.4.8-.9 1.4-1.1m-11.5 7.6c1.2.5 2.4.4 3.7.4-.4-.9-.7-1.8-1.1-2.7-1 .7-2.2 1.1-2.6 2.3m88.9-10.1h2.9v9.2c0 .9.1 2 .9 2.6.9.1 1.8 0 2.8.1.2-.3.5-.7.7-1v-4.1h2.8c.1 1.7 0 3.8 1.4 5.1h2.3c.8-1.6.4-3.4.5-5h2.8c.4 1.5-.1 3.4 1.1 4.6.6.8 1.9.3 2-.7.1-1.3 0-2.6 0-3.9h2.8c0 1.5.1 3.2.9 4.5.6.7 1.5.4 2.3.1 0-1.5-.6-2.8-1.2-4.1l2.4-1.5c.9 1.7 2 3.6 1.8 5.6-.2 1.4-.9 3.1-2.4 3.5-1.7.7-3.7-.1-4.7-1.5-.6 1.1-1.7 2-3 1.8-1.2.1-2.1-.9-2.8-1.7-1.5 2.3-5.4 2.5-6.7 0-.5.8-1.2 1.5-2.1 1.7-1.6.1-3.2 0-4.9 0-1.6-.8-2.5-2.6-2.5-4.4-.1-3.6-.1-7.2-.1-10.9m-152.7.2h2.8v15.1h-2.9c.1-5 .1-10 .1-15.1m20.6 0h2.6c-.1 5 .2 10-.2 15 0 .2 0 .6-.1.7-.4 1.3-.9 2.7-2 3.7-2.6 2.3-7.2 2.3-9.3-.7-2-2.7-1.6-6.3-.6-9.3.8.3 1.6.7 2.4 1.1-.5 1.8-1 3.9.1 5.6 1.2 1.6 3.6 1.6 5.3.8 1.4-.5 1.6-2.2 1.7-3.5.1-4.4.1-8.9.1-13.4m151.6 0h2.8v2.8h-2.8v-2.8m-75.6.5h2.4v2.9h-2.4v-2.9m-67.7 4c1-.6 1.6-2.3 2.8-2.2l-.4.3 4.5 5.7c1.5 1.9 1.2 5-.9 6.3-1.8.9-3.8.4-5.6.5-2 .2-3.3-1.5-4.6-2.8l2.1-2.1c1.5 2.2 4.4 1 6.6 1.3.1-.7.1-1.4-.5-2-1.2-1.6-2.6-3.3-4-5m-122.9-2h2.8v3.1H32v-3.1m146.2.2h2.6v2.8h-2.6v-2.8m3.2 0h2.6v2.8h-2.6v-2.8m103.9 0h2.6v2.8h-2.6v-2.8m3.3 0h2.6v2.8h-2.6v-2.8m8.3.4h2.6v2.8h-2.6v-2.8m3.1 0h2.6v2.8H300v-2.8m-78.7.4h2.4v2.6h-2.4v-2.6m2.9.1h2.4v2.6h-2.4v-2.6m-163.7 1.9h2.6v2.8h-2.6v-2.8m3.3 0h2.6v2.8h-2.6v-2.8m6.5 2.3c.9-.6 1.8-1.2 2.6-1.8 1.2 2.4 3 5 1.5 7.7-.4.4-.8.8-1.1 1.2-.7.2-1.3.4-2 .3H57.2c-1.6.1-3-1-3.5-2.4-.5-1.3-.3-2.6-.4-4h3c0 .9.1 1.8.2 2.7 5.1.4 10.2.1 15.3.2-.1-1.5-.9-2.7-1.5-3.9m202 .1c.9-.6 1.7-1.2 2.5-1.9.9 1.7 1.7 3.4 2.2 5.2-.1 1.7-1 3.7-2.9 4-5.2 0-10.4.1-15.6 0-2.8-.6-3-4-2.8-6.3h2.8c0 1 .1 2 .7 2.9 4.9-.1 9.7 0 14.5 0 0-1.5-.8-2.7-1.4-3.9m-34.9 2c.5-1.1 1.9-1.7 3.1-1.4-1.2.8-2.3 1.8-2.2 3.4h1.8v3.3h-3.3c.1-1.8-.2-3.7.6-5.3m-26.6 7h2.8v2.8h-2.8V259m-165.7.2h3.1v3.1h-3.1v-3.1m127.4 0h3.1v3.1h-3.1v-3.1m91.5 0h3.1v3.3H264v-3.3z" fill="#2e4057"/></svg>