<svg xmlns="http://www.w3.org/2000/svg" viewBox="0 0 33.9 29.6"><path d="M29.6.6l3.9 9-1.3 2.8-2.7 1-3-1.7-2.8 1.8-3.7-1.6-3.1 1.6-3.2-1.6-3.4 1.6-3-1.8-2.9 1.9-3.2-1.4-.6-3L4.7.4l24.9.2z" fill="#ffa300"/><g fill="#2e4057"><path d="M33.3 28.6h-2.9V14v-.2h.1c2.3-.4 3.8-2.6 3.4-4.8v-.1L30.2.4c-.2-.3-.3-.4-.5-.4H4.2c-.2 0-.4.1-.4.3L.1 8.9V9c-.1.2-.1.5-.1.7 0 1.5.8 2.9 2.1 3.6.4.2.9.4 1.4.5v14.8h-3c-.3 0-.5.2-.5.5s.2.5.5.5h32.8c.3 0 .5-.2.5-.5s-.2-.5-.5-.5zM20 1h4.3l1.6 10.2c0 .1 0 .1.1.1-.9 1.4-2.7 1.9-4.2 1-.5-.3-.9-.7-1.2-1.2L20 1zm-.5 10.2v.2c-.9 1.4-2.7 1.9-4.2 1.1-.5-.3-.9-.7-1.2-1.2L14.7 1H19l.5 10.2zm-6.3 0v.2c-.9 1.4-2.7 1.9-4.2 1.1-.5-.3-.9-.7-1.2-1.2L9.4 1h4.3l-.5 10.2zm.5 1.2c.3.4.7.7 1.2 1 1.8 1 4 .5 5.2-1 .3.4.7.7 1.2 1 1.8 1 4 .5 5.2-1 .7.9 1.8 1.4 2.9 1.5V28.7H12.6V13.4v-.1c.4-.2.8-.5 1.1-.9zm19.1-3.2c.3 1.7-.9 3.3-2.6 3.6-1.3.2-2.7-.4-3.3-1.6l-.1-.1V11L25.3 1h4l3.5 8.2zM1 9.7v-.5L4.6 1h3.9L6.8 11.1v.2c-.9 1.4-2.7 1.9-4.2 1.1-1-.5-1.6-1.6-1.6-2.7zm3.5 4.1c1.1-.1 2.1-.6 2.9-1.5.3.4.7.7 1.2 1 1 .5 2.1.6 3.1.4v14.9H4.5V13.8z"/><path d="M9.4 20.1c-.3 0-.5.2-.5.5V23c0 .3.2.5.5.5s.5-.2.5-.5v-2.4c0-.3-.2-.5-.5-.5zM18.8 25.2c.1 0 .3 0 .4-.1l7.4-7.5c.2-.2.2-.5 0-.7-.2-.2-.5-.2-.7 0l-7.4 7.5c-.2.2-.2.5 0 .7 0 0 .1.1.3.1zM26 21.3l-5 5.1c-.2.2-.2.5 0 .7.1.1.2.1.4.1.1 0 .3 0 .4-.1l5-5.1c.2-.2.2-.5 0-.7-.3-.2-.6-.2-.8 0z"/></g></svg>