<svg xmlns="http://www.w3.org/2000/svg" viewBox="0 0 17 17"><circle cx="8.5" cy="8.5" r="8.5" fill="#ffa300"/><path d="M8.545 1.019c-4.1 0-7.4 3.3-7.4 7.4s3.3 7.4 7.4 7.4 7.4-3.3 7.4-7.4c.1-4.1-3.2-7.4-7.4-7.4zm0 14.1c-3.7 0-6.6-3-6.6-6.6 0-3.7 3-6.6 6.6-6.6 3.7 0 6.6 3 6.6 6.6.1 3.6-2.9 6.6-6.6 6.6z" fill="#2e4057"/><g fill="#2e4057"><path d="M7.324 9.806l-.1-.1h-.7c-.1 0-.2 0-.2.1 0 0-.1 0-.1.1l-.1.1v.8h1.4c-.1-.3-.1-.5 0-.6v-.2c-.1-.1-.1-.2-.2-.2zM12.324 9.006h-.4-.2H10.624h-1c-.1 0-.1 0-.2-.1 0 0-.1 0-.1-.1v-.1-.2c-.1.2-.1.1-.1 0s.1-.3.1-.4c0-.1.1-.3.1-.4v-.2-.1l-.1-.1H8.424c-.1-.1-.2 0-.2 0V9.506c0 .1.1.2.1.3-.2 0-.1.1 0 .2s.2.2.3.2c.1 0 .2.1.2.1H9.724c.1 0 .3-.1.4-.1s.2-.1.4-.1.3-.1.4-.1h1.5v-1h-.1c.1.1.1 0 0 0zM4.224 8.606h1l.4-.1c.2 0 .4-.1.5-.1h1.3c.1 0 .1 0 .2.1h.1v-.1-.2-.3c0-.1 0-.1-.1-.2l-.1-.1c.1-.1 0-.1 0-.1h-1.1c-.2 0-.3.1-.5.1l-.3.1c-.1 0-.2 0-.3.1h-.2H4.524h-.1-.1l-.1.8zM10.724 7.506H11.924l.1-.1c0-.1.1-.1.1-.2v-.3-.1c0-.1-.1-.1-.2-.2h-.1c-.3-.1-.5-.1-.8-.1 0 0-.1 0-.2.1-.1 0-.1.1-.2.1v.9s.1 0 .1-.1z"/><path d="M9.624 8.806s.1 0 0 0c.1.1.1.1 0 0h2.1s.1 0 .1.1h.1v-.2-.2-.2-.2-.1h-.1H11.224h-.1H10.824h-.5c-.1 0-.2 0-.3.1s-.2 0-.3.1h-.1v.6zM7.524 8.706s0-.1 0 0l-.1-.1H5.824c-.1 0-.2 0-.3.1h-.2-.1v.9H7.124c.1-.1.1-.1.2-.1h.1v-.2-.1-.1V8.806c.2 0 .2 0 .1-.1.1.1.1 0 0 0 .1 0 0 0 0 0z"/></g></svg>