<svg xmlns="http://www.w3.org/2000/svg" viewBox="0 0 49.9 48.1"><path d="M8.957 35.578l-3.2-2.5c-2.2.6-3.9 2.8-4 5l4.2-.4 3-2.1z" fill="#ffa300"/><g fill="#2e4057"><path d="M12.857 37.778c-2.9 0-5.2 2.3-5.2 5.2 0 2.9 2.3 5.2 5.2 5.2 2.9 0 5.2-2.3 5.2-5.2 0-2.9-2.3-5.2-5.2-5.2zm3.7 5.2c0 2-1.6 3.7-3.7 3.7-2 0-3.7-1.6-3.7-3.7s1.6-3.7 3.7-3.7c2 0 3.7 1.6 3.7 3.7zM38.757 37.778c-2.9 0-5.2 2.3-5.2 5.2 0 2.9 2.3 5.2 5.2 5.2 2.8 0 5.2-2.3 5.2-5.2 0-2.9-2.3-5.2-5.2-5.2zm3.7 5.2c0 2-1.6 3.6-3.6 3.6s-3.6-1.6-3.6-3.6 1.6-3.6 3.6-3.6c1.9-.1 3.6 1.5 3.6 3.6zM31.557 42.878h-12.1c-.4 0-.8.3-.8.8s.3.8.8.8h12.1c.4 0 .8-.3.8-.8s-.4-.8-.8-.8z"/><path d="M49.457 34.678c0-.1 0-.2-.1-.2-.1-.2-2.6-4.4-3.9-6 .1-.1.3-.2.4-.3.6-.4 1.2-.7 1.1-1.4-.1-.4-.4-.7-1-.9-3.1-.9-9.7-1.2-14.4-1.2-6.7 0-8 .5-13.8 2.7l-.1.1c-.6.2-12.8 5.5-14.9 6.5-.9.4-1.6 1.2-1.9 2.2l-.8 3.1c-.2 1.1.1 2.2.8 3 .9 1 2.1 1.7 3.4 1.8h1.4c.4 0 .8-.3.8-.8s-.4-.6-.8-.6h-1.4c-.9-.2-1.7-.6-2.3-1.3-.4-.5-.5-1.1-.4-1.7l.2-.8c.1.1.2.1.3.1h1.4c.9 0 1.8-.1 2.6-.4l3.2-1.9c.3-.2.6-.5.6-.9.1-.7-.3-1.4-1-1.5h-.1l-1.1-.8c1.4-.6 2.9-1.3 4.4-1.9 0 .2.1.4.3.5l2.7 1.5c.1.1.2.1.4.1l3.2.3h.1l7.5-.4h.1l7.7-.9 3.6-.3c.2 0 .4-.1.5-.3l3.9-5c.1-.1.1-.2.1-.4.8.1 1.7.2 2.5.3-.5.2-.8.6-.9 1.1 0 .3.1.7.3.9 1.4 1.9 2.7 3.9 3.9 5.9.3 1.4.4 2.9.4 4.3-.2.7-.7 1.3-1.2 1.7-.4.1-.9.2-1.3.2h-.2c-.4 0-.8.3-.8.8 0 .3.2.6.5.7.1 0 .4.2 1.4 0 .5 0 1-.2 1.4-.4.9-.6 1.5-1.5 1.8-2.6 0-1.6-.2-3.3-.5-4.9zm-43.3-.6l1.7 1.6-2.5 1.5c-.3.1-2.4.2-3.3.3l.2-.8c.1-.5.5-1 1-1.2.6-.4 1.6-.8 2.9-1.4zm19.4-1.9l-6.8.3-2.9-.3-2.4-1.3c2.5-1.1 4.5-2 4.7-2.1h.1c3.8-1.4 5.6-2.1 8.2-2.4l-.9 5.8zm7.7-.9l-6.1.7.9-5.6v-.1c1-.1 2.1-.1 3.5-.1h2c0 .1-.1.2-.1.3l-.2 4.8zm4-.3l-2.5.2.2-4.6c0-.1 0-.2-.1-.4 1.9.1 3.8.2 5.7.4l-3.3 4.4z"/><path d="M44.157 30.278c-.4-.2-.8-.1-1 .3l-.8 1.4c-.2.3-.1.8.2 1l3 2.1c.1.1.3.1.4.1.3 0 .5-.1.6-.3.2-.3.1-.8-.2-1.1l-2.4-1.7.5-.8c.2-.3.1-.8-.3-1z"/></g><path d="M2.957 1h10c.6 0 1 .4 1 1v12c0 .6-.4 1-1 1h-10c-.6 0-1-.4-1-1V2c0-.6.5-1 1-1z" fill="#ffa300"/><g fill="#2e4057"><path d="M12.757 0h-9.5c-1.5 0-2.8 1.3-2.8 2.8v10.4c0 1.6 1.3 2.8 2.8 2.8h3.9v12.6c0 .4.3.8.8.8.4 0 .8-.3.8-.8V16.1h3.9c1.6 0 2.8-1.3 2.8-2.8V2.8c.1-1.5-1.2-2.8-2.7-2.8zm1.3 13.3c0 .7-.6 1.3-1.3 1.3h-9.5c-.7 0-1.3-.6-1.3-1.3V2.8c0-.7.6-1.3 1.3-1.3h9.4c.7 0 1.3.6 1.3 1.3v10.5z"/><path d="M8.457 4.1h-3.4V12h1.6V9.2h1.6c.7 0 1.4-.2 2-.6.5-.5.8-1.2.7-2 .1-.7-.2-1.4-.7-1.9-.5-.4-1.2-.6-1.8-.6zm.6 3.4c-.3.2-.6.3-.9.3h-1.5V5.5h1.5c.3 0 .6.1.9.3.2.2.3.5.3.8 0 .4-.1.7-.3.9z"/></g></svg>