<svg xmlns="http://www.w3.org/2000/svg" xmlns:xlink="http://www.w3.org/1999/xlink" viewBox="0 0 125 89" style="enable-background:new 0 0 125 89" xml:space="preserve"><path style="fill:#2e4057" d="M104.2 88.7H21c-11 0-20-9-20-20V25.3c0-11 9-20 20-20h83.2c11 0 20 9 20 20v43.4c0 11.1-9 20-20 20z"/><path style="fill:#f6f7f9" d="M51.2 3.1h24.6c3.9 0 7 3.1 7 7v60.7c0 3.9-3.1 7-7 7H51.2c-3.9 0-7-3.1-7-7V10.1c0-3.9 3.2-7 7-7z"/><path style="fill:none;stroke:#5e6780;stroke-width:2" d="M51.2 4.1h24.6c3.3 0 6 2.7 6 6v60.7c0 3.3-2.7 6-6 6H51.2c-3.3 0-6-2.7-6-6V10.1c0-3.4 2.7-6 6-6z"/><path style="fill:#e8ecf3" d="M51.8 4.9h23.4c2.2 0 4 1.8 4 4v5.5c0 2.2-1.8 4-4 4H51.8c-2.2 0-4-1.8-4-4V8.9c0-2.3 1.8-4 4-4zM51.8 20.1h23.4c2.2 0 4 1.8 4 4v19c0 2.2-1.8 4-4 4H51.8c-2.2 0-4-1.8-4-4v-19c0-2.2 1.8-4 4-4zM51.8 48.9h23.4c2.2 0 4 1.8 4 4V70c0 2.2-1.8 4-4 4H51.8c-2.2 0-4-1.8-4-4V52.9c0-2.2 1.8-4 4-4z"/><path style="fill:#5e6780" d="M55.4 4.1h16.3c0 1.1-.9 2-2 2H57.5c-1.2 0-2.1-.9-2.1-2z"/><g><defs><path id="a" d="M33.1 21.4h24.4V59H33.1z"/></defs><clipPath id="b"><use xlink:href="#a" style="overflow:visible"/></clipPath><g style="clip-path:url(#b)"><linearGradient id="c" gradientUnits="userSpaceOnUse" x1="45.263" y1="68.638" x2="45.263" y2="31.02" gradientTransform="matrix(1 0 0 -1 0 90)"><stop offset="0" style="stop-color:#ffac2c"/><stop offset="1" style="stop-color:#ffb62c"/></linearGradient><path style="fill:url(#c)" d="M55.6 59H34.9c-1 0-1.8-.8-1.8-1.8v-34c0-1 .8-1.8 1.8-1.8h12.7c1.3 0 2.5.5 3.3 1.4L57 29c.3.3.4.7.4 1v27.1c.1 1.1-.8 1.9-1.8 1.9z"/><path style="fill:#ffae2c" d="M41.6 38v5.2h-5.1v-3.9c0-.7.6-1.3 1.3-1.3h3.8zM48.1 38h-5.4v5.2h5.4V38zM54.2 39.3v3.9h-5.1V38h3.8c.7 0 1.3.6 1.3 1.3zM54.2 44.2H36.5v5.3h17.7v-5.3zM41.6 50.5v5.2h-3.8c-.7 0-1.3-.6-1.3-1.3v-3.9h5.1zM48.1 50.5h-5.4v5.2h5.4v-5.2zM54.2 50.5v3.9c0 .7-.6 1.3-1.3 1.3h-3.8v-5.2h5.1z"/><g><path style="fill-rule:evenodd;clip-rule:evenodd;fill:#fff" d="M46.8 32.6c-.5-.1-.8.1-1.1.3-.2.2-.5.5-.7.9-.5.7-1.1 1.7-1.9 3.1L41 40.7c-.3.4-.5.8-.6 1.2-.1.3-.3.8-.1 1.3.2.5.7.7 1.1.7.3.1.7.1 1.2.1h2.1l-.3 1.5c-.3 1.4-.5 2.6-.5 3.4V50c.1.4.3.8.8.9.5.1.8-.1 1.1-.3.2-.2.5-.5.7-.9.5-.7 1.1-1.7 1.9-3.1l2.2-3.8c.3-.4.5-.8.6-1.2.1-.3.3-.8.1-1.3-.2-.5-.7-.7-1.1-.7-.3-.1-.7-.1-1.2-.1h-2.1l.3-1.5c.3-1.4.5-2.6.5-3.4v-1.1c-.1-.4-.3-.8-.9-.9z"/></g></g></g></svg>