<svg xmlns="http://www.w3.org/2000/svg" viewBox="0 0 21.6 30.6"><g fill="#2e4057"><path d="M18.3 0h-11c-.4 0-.9.2-1.2.5L.4 6.2c-.3.3-.4.7-.4 1.2v20c0 1.8 1.4 3.2 3.2 3.2h15.4c.8 0 1.7-.3 2.2-.9.5-.6.8-1.4.8-2.1V3.2C21.5 1.4 20.1 0 18.3 0zm1.6 28.8c-.3.4-.8.6-1.4.6H3.1c-1.1 0-2-.9-2-2v-20c0-.2.1-.3.1-.4l5.7-5.7c.1-.1.3-.2.4-.2h11c1.1 0 2 .9 2 2v24.3c.1.6-.1 1.1-.4 1.4z"/><path d="M16.2 10.2H5.4c-.9 0-1.6.7-1.6 1.6v13.4c0 .9.7 1.6 1.6 1.6h10.8c.9 0 1.6-.7 1.6-1.6V11.8c0-.9-.7-1.6-1.6-1.6zM5.4 11.3h2.2v3.3c0 .3.3.6.6.6s.6-.3.6-.6v-3.3h4v3.3c0 .3.3.6.6.6s.6-.3.6-.6v-3.3h2.3c.3 0 .4.1.4.4v6.1h-5.3v-3.2c0-.3-.3-.6-.6-.6s-.6.3-.6.6v3.2H5v-6.1c0-.1.1-.4.4-.4zm10.8 14.3h-4.8v-3.2c0-.3-.3-.6-.6-.6s-.6.3-.6.6v3.2H5.4c-.3 0-.4-.1-.4-.4V19h2.7v3.3c0 .3.3.6.6.6s.6-.3.6-.6V19h4v3.3c0 .3.3.6.6.6s.6-.3.6-.6V19h2.8v6.1c-.2.4-.4.5-.7.5z"/></g></svg>