<svg xmlns="http://www.w3.org/2000/svg" viewBox="0 0 124 85" style="enable-background:new 0 0 124 85" xml:space="preserve"><path style="fill:#2e4057" d="M103.2 84.3H20c-11 0-20-9-20-20V20.9c0-11 9-20 20-20h83.2c11 0 20 9 20 20v43.4c0 11.1-8.9 20-20 20z"/><path style="fill:#fff" d="M39.1 13.9h32.7c2.8 0 5 2.2 5 5v42.9c0 2.8-2.2 5-5 5H39.1c-2.8 0-5-2.2-5-5V18.9c0-2.8 2.3-5 5-5z"/><path style="fill:#e7ebf1" d="M42.2 18h26.6c2.8 0 5 2.2 5 5v13.4c0 2.8-2.2 5-5 5H42.2c-2.8 0-5-2.2-5-5V23c0-2.8 2.2-5 5-5zM44.3 45.4h22.4c1.7 0 3.1 1.4 3.1 3.1 0 1.7-1.4 3.1-3.1 3.1H44.3c-1.7 0-3.1-1.4-3.1-3.1 0-1.7 1.4-3.1 3.1-3.1zM44.3 54.6h22.4c1.7 0 3.1 1.4 3.1 3.1 0 1.7-1.4 3.1-3.1 3.1H44.3c-1.7 0-3.1-1.4-3.1-3.1 0-1.8 1.4-3.1 3.1-3.1z"/><linearGradient id="a" gradientUnits="userSpaceOnUse" x1="80.3" y1="50.52" x2="80.3" y2="16.153" gradientTransform="matrix(1 0 0 -1 0 86)"><stop offset="0" style="stop-color:#ffab2c"/><stop offset="1" style="stop-color:#ffab2c"/></linearGradient><path style="fill:url(#a)" d="M94 40.2c-.4-1.1-1.2-2-2.1-2.6-.9-.6-2.1-1-3.2-1h-.3v-1.1h-16v1.1h-.3c-1.1 0-2.3.3-3.2 1-.9.6-1.7 1.6-2.1 2.6l-3.7 9h-2.2v2.3h1.6c.3 0 .5.1.7.2s.3.4.4.6l3.8 14.9c.2.7.6 1.4 1.2 1.9s1.3.7 2.1.7H90c.8 0 1.5-.3 2.1-.7.6-.5 1.1-1.1 1.3-1.9l3.7-14.9c.1-.2.2-.5.4-.6.2-.2.4-.2.7-.2h1.6v-2.3h-2.2l-3.6-9zM74.6 65.3h-2.3V53.8h2.3v11.5zm6.8 0h-2.3V53.8h2.3v11.5zm6.9 0H86V53.8h2.3v11.5zM68.8 41.1c.3-.6.7-1.2 1.3-1.6.6-.4 1.2-.6 1.9-.6h.3V40h16v-1.1h.3c.7 0 1.4.2 1.9.6.6.4 1 .9 1.3 1.6l3.3 8.1H65.4l3.4-8.1z"/><path style="fill:#ee9f27" d="m62.8 51.5 34.8-.1-.7 1.8-33.2-.3-.9-1.4z"/><path style="fill:#ffab2c" d="M98.4 49.4H62.6v2.1h35.8v-2.1z"/></svg>