<svg xmlns="http://www.w3.org/2000/svg" viewBox="0 0 23 24" style="enable-background:new 0 0 23 24" xml:space="preserve"><path style="fill:#2e4057" d="M17.5 1.9c-.8 0-1.4.6-1.4 1.4v6.8h3c1.3 0 2-.7 2-2V5.5c0-1-.4-1.9-1.1-2.5-.6-.7-1.5-1.1-2.5-1.1z"/><path style="fill:#2e4057" d="M5.6 1.2H4.5C1.3 1.2.2 3.1.2 5.5v16.3c0 .9 1 1.4 1.7.9l1.9-1.4c.4-.3 1-.3 1.4.1L7 23.1c.4.4 1.1.4 1.5 0l1.8-1.8c.4-.4 1-.4 1.4-.1l1.9 1.4c.7.5 1.7 0 1.7-.9V3.3c0-1.2 1-2.2 2.2-2.2H5.6zm5.1 9.4h-6c-.3 0-.7-.4-.7-.8s.3-.8.8-.8h6c.4 0 .8.3.8.8s-.5.8-.9.8z"/></svg>