<svg xmlns="http://www.w3.org/2000/svg" viewBox="0 0 30.6 26.3"><path d="M21.7.53l2.8 2.2.2 2.9 1.6.5h1.6l2.4 2.7-4.3 5-8.7-8.5 4.4-4.8z" fill="#ffa300"/><path d="M20.9 8.93l.7-.7.7.7-.7.7-.7-.7zM19.5 7.53l.7-.7.7.7-.7.7-.7-.7zM18.1 6.13l.7-.7.7.7-.7.7-.7-.7zM23.8 11.83l.7-.7.7.7-.7.7-.7-.7zM22.4 10.43l.7-.7.7.7-.7.7-.7-.7z" fill="#2e4057"/><path d="M30.2 7.63l-2.5-2.5-.4.4c-.6.6-1.5.6-2.1 0-.6-.6-.6-1.5 0-2.1l.4-.4L23 .43c-.6-.6-1.6-.6-2.1 0l-1.8 1.8-1.1-1.1c-.6-.6-1.6-.6-2.1 0L.4 16.63c-.6.6-.6 1.6 0 2.1l2.5 2.5.4-.4c.6-.6 1.5-.6 2.1 0 .6.6.6 1.6 0 2.1l-.4.4 2.5 2.5c.6.6 1.6.6 2.1 0l1.8-1.8 1.1 1.1c.6.6 1.6.6 2.1 0l15.6-15.4c.6-.6.6-1.6 0-2.1zM9 25.13c-.2.2-.5.2-.7 0l-1.8-1.8c.8-1.2.4-2.7-.7-3.5-.8-.6-1.9-.6-2.8 0l-1.8-1.8c-.2-.2-.2-.5 0-.7l15.4-15.5c.2-.2.5-.2.7 0l1.1 1.1-13 12.9c-.6.6-.6 1.6 0 2.1l2.5 2.5.4-.4c.6-.6 1.6-.6 2.1 0 .6.6.6 1.6 0 2.1l-.4.4.7.7-1.7 1.9zm20.4-16.1L14 24.43c-.2.2-.5.2-.7 0l-1.8-1.8c.8-1.2.4-2.7-.7-3.5-.8-.6-1.9-.6-2.8 0l-1.8-1.8c-.2-.2-.2-.5 0-.7l15.4-15.5c.2-.2.5-.2.7 0l1.8 1.8c-.8 1.2-.4 2.7.7 3.5.8.6 1.9.6 2.8 0l1.8 1.8c.2.3.2.6 0 .8z" fill="#2e4057"/><g fill="#2e4057"><path d="M18 9.9l-1.9-1.7h-.2l-2 2c-.1.1-.1.1 0 .1l1.9 1.7h.2l2-2c.1 0 .1 0 0-.1zm-2.1 2l-1.8-1.6L16 8.5l1.8 1.6c0-.1-1.9 1.8-1.9 1.8zm6.6 1.9l-1.9-1.7h-.2l-2 2c-.1.1-.1.1 0 .1l1.9 1.7h.2l2-2v-.1zm-2.1 2l-1.8-1.6 1.8-1.9 1.8 1.6-1.8 1.9zm-7-1.2l-1.9-1.7h-.2l-2 2c-.1.1-.1.1 0 .1l1.9 1.7h.2l2-2c.1 0 .1-.1 0-.1zm-2.1 2L9.6 15l1.8-1.9 1.8 1.6-1.9 1.9zm4.1-4.1L13.7 11h-.2c-.1.1-.1.1 0 .1l1.7 1.5-.2.2v.2h.2l.3-.3s0-.1-.1-.2zm-3.5 0l1.8 1.6h.2c.1-.1.1-.1 0-.1l-1.7-1.5.2-.2c.1-.1.1-.1 0-.1s-.1-.1-.2 0l-.3.3c0-.1-.1-.1 0 0zm6 6h-.2l-1.9 2-.5-.5h-.2c-.1.1-.1.1 0 .1l.5.5h.2l2-2c.1 0 .1-.1.1-.1zm-3.7-3.2l-.3-.2h-.2L11.9 17c-.1.1-.1.1 0 .1h.2l1.8-1.8.2.2h.2c0-.1 0-.1-.1-.2zm.2 4l-1.6-1.4h-.2c-.1.1-.1.1 0 .1l1.6 1.4h.2c.1 0 .1-.1 0-.1zm-.5-1.4c.1-.1.1-.1 0-.1l-.8-.8h-.2c-.1.1-.1.1 0 .1l.8.7c.1.2.2.2.2.1z"/><path d="M14.9 18.9l.8.7h.2c.1 0 .1-.1 0-.1l-.9-.8h-.2c0 .1 0 .1.1.2zm1.4-1.5l.6.5h.2c.1-.1.1-.1 0-.1l-.6-.5h-.2c-.1 0-.1.1 0 .1zm-.6-.4h.2c.1-.1.1-.1 0-.1l-.3-.2h-.2c-.1.1-.1.1 0 .1l.3.2zm-.6-.9l-.3-.2h-.2c-.1.1-.1.1 0 .1l.3.2h.2c.1 0 0-.1 0-.1zm.3 2.1c-.1.1-.1.1 0 .1h.2l.3-.3c.1-.1.1-.1 0-.1h-.2l-.3.3zm1 .8l.3-.3c.1-.1.1-.1 0-.1h-.2l-.3.3c-.1.1-.1.1 0 .1.1.1.2.1.2 0zm-2.6-2.8l-.3.3c-.1.1-.1.1 0 .1h.2l.3-.3c.1-.1.1-.1 0-.1s-.1-.1-.2 0zm1 .7h-.2l-.3.3c-.1.1-.1.1 0 .1h.2l.3-.3v-.1zm-1.5-4.8h.2c.1-.1.1-.1 0-.1l-.3-.2H13c-.1.1-.1.1 0 .1l.3.2zm.6 1h.2c.1-.1.1-.1 0-.1l-.3-.2h-.2c-.1.1-.1.1 0 .1l.3.2zm4.5 4.8l-1-.9h.1l.4-.4c.1-.1.1-.1 0-.1h-.2l-.4.4v.1l-1.1-1H16c-.1.1-.1.1 0 .1l2.2 1.9h.2c.1 0 .1 0 0-.1zm1.5-1.5l-2.2-1.9h-.2c-.1.1-.1.1 0 .1l2.2 1.9h.2c.1 0 0 0 0-.1zm-1.5-5.8l1.3 1.2-1.6 1.6c-.1.1-.1.1 0 .1h.2l1.7-1.8c.1-.1.1-.1 0-.1l-1.4-1.2h-.2c0 .1-.1.2 0 .2zm-2 2h.2l1.5-1.5c.1-.1.1-.1 0-.1h-.2l-1.4 1.5c-.1 0-.2.1-.1.1z"/><path d="M18.6 11.5h-.2l-.3.3c-.1.1-.1.1 0 .1 0 0 .1.1.2 0l.3-.3c.1 0 0-.1 0-.1zm-.9 1.6l.3-.3c.1-.1.1-.1 0-.1h-.2l-.3.3c-.1.1-.1.1 0 .1h.2zm1.6 3.9h-.2l-.3.3c-.1.1-.1.1 0 .1h.2l.3-.3V17zm-2.7-1.5h.2l.3-.3c.1-.1.1-.1 0-.1h-.2l-.3.3v.1zm.7.5l.3-.3c.1-.1.1-.1 0-.1h-.2l-.3.3c-.1.1-.1.1 0 .1.1.1.2.1.2 0zm-2.9-1.3h.2l1.1-1.2v.1l.4.4h.2c.1-.1.1-.1 0-.1l-.4-.4h-.1l.3-.3c.1-.1.1-.1 0-.1 0 0-.1-.1-.1 0l-1.4 1.5c-.3 0-.3 0-.2.1zm3-.8c.1-.1.1-.1 0-.1 0 0-.1-.1-.2 0L16.1 15v-.1l-.4-.3h-.2c-.1.1-.1.1 0 .1l.4.3h.1l-.3.3c-.1.1-.1.1 0 .1h.2l1.5-1.5zM15 10.3l.8.7h.2l.9-.9c.1-.1.1-.1 0-.1l-.8-.7h-.2l-.9.9v.1zm1-.7l.6.6-.6.6-.6-.6c-.1 0 .6-.6.6-.6zm3.5 4.6l.8.7h.2l.9-.9c.1-.1.1-.1 0-.1l-.8-.7h-.2l-.9.9c-.1 0-.1.1 0 .1zm.9-.8l.6.6-.7.7-.6-.6.7-.7zm-10 1.6l.8.7h.2l.9-.9c.1-.1.1-.1 0-.2l-.8-.7h-.2l-.9.9v.2zm1-.8l.6.6-.7.7-.6-.6.7-.7z"/></g></svg>