<svg xmlns="http://www.w3.org/2000/svg" viewBox="0 0 490.4 490"><path fill="#fff" d="M16.7 51.1h450.8v375.5H16.7z"/><path d="M0 0v490l490.4-2.7V0H0zm153.4 369.1H149v11.7h-1.8v-11.7h-4.4v-1.6h10.5v1.6zm40.3 11.7l-1.5-4h-5.5l-1.5 4h-1.9l5.1-13.3h1.9l5.4 13.3h-2zm27.9-57.8s-26.3-9.1-52.7 5.4c-26.3 14.5-48.1-12.7-22.7-21.8 37.2-12.7 72.7 1.8 72.7 1.8 14.5 9.1 2.7 14.6 2.7 14.6zm13.6 57.8h-8.3v-13.3h1.8v11.7h6.5v1.6zm34.4 0h-1.8v-13.3h1.8v13.3zM287 277.6c-1.8 14.5-11.8 26.3-12.7 25.4-29.1 29.1-53.6-23.6-59-38.1-5.4-14.5-13.6-7.3-13.6-7.3s-30 45.4-82.6 32.7c-52.7-12.7-64.5-65.4-40.9-112.6 23.6-47.2 29.1-14.5 30-15.4C94.6 177.7 90 200.4 91 200.4c-6.4 93.5 83.5 57.2 100.8 42.7 17.2-14.5 27.2 0 27.2 0s19.1 29.1 29.1 40.9c10 11.8 10.9 0 10.9 0v-63.5c0-4.8-1.5-9.5-3.7-13.9-9.2-18.3-5.4-27.9-2.3-32.4 2.4-3.5 6.6-3.4 10.8-2.7 23.3 3.8 22.4 32.5 22.4 32.5s2.6 59 .8 73.6zm21.7 97.6v5.6h-1.8v-5.6l-5.1-7.6h2.1l2.6 4c.5.7.9 1.5 1.3 2.2.4-.7.9-1.5 1.4-2.3l2.6-3.9h2l-5.1 7.6zm45.3 5.6l-1.5-4H347l-1.5 4h-1.9l5.1-13.3h1.9l5.4 13.3h-2zm-3.5-92.3c-93.5-32.7-29.1-128.9-29.1-128.9 18.2-15.4 18.2-.9 18.2.9-37.2 71.7-10.9 109.9 49 98.1 60-11.9 55.5 62.6-38.1 29.9zm74.5-60s-26.3-9.1-52.7 5.4c-26.3 14.5-48.1-12.7-22.7-21.8 37.2-12.7 72.7 1.8 72.7 1.8 14.5 9.2 2.7 14.6 2.7 14.6z" fill="#ff0026"/></svg>