<svg xmlns="http://www.w3.org/2000/svg" viewBox="0 0 34.6 38.6"><path d="M3.51.866h27c1.7 0 3 1.3 3 3v8c0 1.7-1.3 3-3 3l-.9-8.4H4.71l-1.1 8.4c-1.7 0-3-1.3-3-3v-8c-.1-1.7 1.3-3 2.9-3z" fill="#ffa300"/><path d="M30.71-.034H3.91c-2.2 0-3.9 1.8-3.9 3.9v7.1c0 2.1 1.7 3.9 3.9 3.9v20.4c0 .2.1.4.2.5l3.1 2.7c.1.1.3.2.4.2.1 0 .3 0 .4-.1l3.6-2.4 3 2.4c.2.2.6.2.8 0l3.2-2.4 3.1 2.4c.2.2.5.2.8 0l3.5-2.4 3.7 2.4c.3.2.7.1.9-.2.1-.1.1-.2.1-.4v-23c2.1 0 3.9-1.8 3.9-3.9v-7.1c0-2.2-1.8-4-3.9-4zm-1.3 36.7l-3.1-2c-.2-.1-.5-.1-.7 0l-3.5 2.4-3.1-2.4c-.2-.2-.6-.2-.8 0l-3.2 2.4-2.9-2.4c-.2-.2-.5-.2-.8 0l-3.6 2.4-2.5-2.1v-28.1h24.2v29.8zm3.9-25.7c0 1.4-1.1 2.6-2.5 2.6v-7.4c0-.4-.3-.7-.7-.7H4.61c-.4 0-.7.3-.7.7v7.4c-1.4 0-2.5-1.2-2.5-2.6v-7.1c0-1.4 1.2-2.6 2.6-2.6h26.8c1.4 0 2.6 1.2 2.6 2.6l-.1 7.1z" fill="#2e4057"/><path d="M25.61 24.366H9.01c-.4 0-.7.3-.7.6 0 .4.3.7.6.7H25.61c.4 0 .7-.3.6-.7 0-.3-.2-.6-.6-.6zM25.61 29.366H9.01c-.4 0-.7.3-.7.6 0 .4.3.7.6.7H25.61c.4 0 .7-.3.6-.7 0-.3-.2-.6-.6-.6zM25.61 19.366H9.01c-.4 0-.7.3-.7.6 0 .4.3.7.6.7H25.61c.4 0 .7-.3.6-.7 0-.3-.2-.6-.6-.6zM25.61 14.366H9.01c-.4 0-.7.3-.7.6 0 .4.3.7.6.7H25.61c.4 0 .7-.3.6-.7 0-.3-.2-.6-.6-.6z" fill="#2e4057"/></svg>