<svg xmlns="http://www.w3.org/2000/svg" viewBox="0 0 43 49.4"><g fill="#2e4057"><path d="M21.526 6.348c-11.9 0-21.5 9.6-21.5 21.5s9.6 21.5 21.5 21.5 21.5-9.6 21.5-21.5c0-11.8-9.7-21.5-21.5-21.5zm0 40c-10.2 0-18.5-8.3-18.5-18.5s8.3-18.5 18.5-18.5 18.5 8.3 18.5 18.5-8.3 18.5-18.5 18.5z"/><path d="M32.026 33.548l-9.1-6.5v-11c0-.8-.7-1.5-1.5-1.5s-1.5.7-1.5 1.5v11.8c0 .5.2.9.6 1.2l9.7 6.9c.7.5 1.6.3 2.1-.3.6-.6.5-1.6-.3-2.1.1 0 .1 0 0 0zM16.726 3.048h9.6c.8 0 1.5-.7 1.5-1.5s-.7-1.5-1.5-1.5h-9.6c-.8 0-1.5.7-1.5 1.5s.7 1.5 1.5 1.5z"/></g></svg>