<svg xmlns="http://www.w3.org/2000/svg" viewBox="0 0 117.1 144.8"><path d="M64.2 107.8c-3.1 2.4-6.6 4.2-10.4 5.5-15.7 5.2-34.6 1.5-45.6-11.8C2.9 95.4 0 87.6 0 79.5V0c.7-.1 1.1.5 1.5.8C8 5.7 14.5 10.7 21 15.7c.6.7 1.7.7 2.4.1L44.1 2c.4-.3.9-.6 1.6-1v14.4c.6.2.8-.1 1-.3 7.7-5.5 16.4-7.5 25.7-7 10.5.5 19.8 4.1 27.3 11.8 6.6 6.7 10.2 14.8 10.2 24.3-.1 23.2-.1 46.4 0 69.6 0 1.4-.3 1.8-1.8 1.8-14.1-.1-28.2-.1-42.2 0-1.4 0-1.8-.3-1.7-1.7.1-2 0-3.9 0-6.1zM68 97.3c.5.6.3 1.2.3 1.7 0 3.6.1 7.2 0 10.8 0 1.3.4 1.6 1.7 1.6h33.9c1.5 0 1.9-.3 1.9-1.9-.1-21.8-.1-43.6 0-65.4.1-8.3-3.4-16.2-9.5-21.9-8.4-8.1-18.6-10.9-29.9-10-6.4.4-12.5 2.6-17.6 6.4-2.7 2.2-5.1 4.6-7.2 7.3V8.8c-.5.3-.8.5-1 .6C34.8 13.3 29 17 23.3 20.9c-.6.6-1.6.6-2.3 0-2.8-2.2-5.6-4.3-8.4-6.5L4.2 8.1v2.1c0 23 .1 46.1 0 69.1-.1 7.9 3 15.5 8.6 21.1 6.8 7.2 15.4 10.5 25.1 10.9 8.9.4 17.1-1.6 24.2-7.3 2.3-1.9 4.3-4.1 5.9-6.7z" fill="#261f20"/><path d="M68 97.3c-1.6 2.5-3.6 4.8-5.9 6.7-7.1 5.7-15.3 7.7-24.2 7.3-9.7-.4-18.3-3.8-25.1-10.9-5.6-5.6-8.7-13.2-8.6-21.1.1-23 0-46.1 0-69.1V8.1l8.3 6.3c2.8 2.1 5.7 4.3 8.4 6.5.6.6 1.6.6 2.3 0 5.8-3.8 11.5-7.6 17.3-11.4.3-.2.5-.3 1-.6v17.3c2.1-2.7 4.6-5.2 7.2-7.3 5.1-3.8 11.3-6 17.6-6.4 11.3-.9 21.6 1.9 29.9 10 6.1 5.6 9.5 13.6 9.4 21.9v65.4c0 1.5-.4 1.9-1.9 1.9-11.3-.1-22.6-.1-33.9 0-1.3 0-1.7-.3-1.7-1.6.1-3.6 0-7.2 0-10.8.2-.8.4-1.4-.1-2zM43.2 63c.4-.5.7-.9 1-1.2 7.6-7.6 15.2-15.2 22.8-22.9.8-.8 1.2-.9 2.1 0C75.7 45.6 82.4 52.3 89 59c1.2 1.2 2.3 2.4 3.5 3.6-.5.3-1 .4-1.6.3h-17c-1.2 0-1.6.2-1.6 1.5v41.4c0 1.2.4 1.4 1.5 1.4 8.6-.1 17.2-.1 25.9 0 1.5 0 2-.3 2-1.9-.1-20.1-.1-40.3 0-60.4.1-3-.4-6-1.5-8.8-3.5-9.5-9.9-15.9-19.7-18.7-6.7-1.9-13.9-1.9-20.6 0C47.7 21 41.2 32 40.7 42.5c-.3 6.1 0 12.2-.1 18.3 0 2.5.2 2.1-2 2.1H23.9c.2.7.7 1.3 1.2 1.7l14.5 14.8c2.1 2.2 2 2.2 4.2 0 3.1-3.2 6.2-6.4 9.4-9.6l6.8-7-16.8.2zM8.4 16.5c-.2.5-.3 1.1-.2 1.7v60.3c0 7.3 2.8 13.5 7.3 18.9 4.3 5.1 10.4 8.5 17.1 9.4 6.9 1.1 13.9 1 20.4-1.9 10.6-4.7 15.7-13.4 16.2-24.8.3-5.9.1-11.9 0-17.9 0-1.4.4-1.7 1.8-1.7 4.4.1 8.7 0 13.1 0 .7.1 1.5 0 2.1-.3-5.8-5.9-11.5-11.7-17.2-17.6-.7-.7-1-.4-1.6.1-3 3.1-6 6.1-9 9.2l-8.2 8.3c.7.3 1.4.4 2.1.3h12.6c.5 0 1.1-.3 1.3.2.3.5-.4.8-.7 1.1C58 69.5 50.4 77 42.9 84.5c-.9.9-1.4 1-2.4 0-7.3-7.5-14.8-15-22.2-22.6-.3-.3-1-.6-.8-1.2.5-.2 1.1-.2 1.6-.2h16.7c1.3 0 1.6-.3 1.6-1.6V18.8v-2.4c-.8.5-1.4.9-2 1.2-4.2 2.8-8.3 5.5-12.5 8.3-.6.6-1.5.5-2.1-.1-2.6-2.1-5.2-4.1-7.8-6-1.5-1.1-3-2.2-4.6-3.3z" fill="#fdfdfd"/><path d="M43.2 63H60l-6.8 7c-3.1 3.2-6.2 6.4-9.4 9.6-2.1 2.2-2.1 2.2-4.2 0-4.8-5-9.7-9.9-14.5-14.8-.6-.4-1-1-1.2-1.7h14.7c2.2 0 2 .4 2-2.1 0-6.1-.2-12.2.1-18.3.5-10.6 7-21.5 19.3-25 6.7-1.9 13.9-1.9 20.6 0 9.7 2.8 16.2 9.2 19.7 18.7 1 2.8 1.5 5.8 1.4 8.8v60.4c0 1.7-.5 1.9-2 1.9-8.6-.1-17.2-.1-25.9 0-1.1 0-1.5-.2-1.5-1.4V64.7c0-1.3.4-1.5 1.6-1.5 5.7.1 11.3 0 17 0 .5.1 1.1 0 1.6-.3-1.2-1.2-2.3-2.4-3.5-3.6-6.6-6.9-13.2-13.6-19.9-20.3-.8-.8-1.3-.8-2.1 0-7.6 7.7-15.2 15.3-22.8 22.9-.3.3-.5.6-1 1.1z" fill="#fc0503"/><path d="M8.4 16.5c1.5 1.1 3.1 2.2 4.5 3.3 2.6 2 5.3 4 7.8 6 .6.6 1.5.6 2.1.1 4.2-2.8 8.3-5.6 12.5-8.3.6-.4 1.2-.7 2-1.2v42.5c0 1.3-.4 1.7-1.6 1.6-5.6-.1-11.1 0-16.7 0-.5-.1-1.1 0-1.6.2-.1.7.5.9.8 1.3 7.4 7.5 14.9 15 22.2 22.6 1 1 1.4.9 2.4 0 7.5-7.6 15-15.1 22.6-22.6.3-.3 1-.5.7-1.1s-.9-.2-1.3-.2H52.2c-.7.1-1.4-.1-2-.3l8.1-8.2c3-3.1 6-6.1 9-9.2.5-.5.8-.8 1.6-.1 5.7 5.8 11.4 11.6 17.2 17.6-.6.3-1.4.4-2.1.3H70.9c-1.3 0-1.8.3-1.8 1.7.1 6 .2 11.9 0 17.9-.5 11.4-5.5 20-16.2 24.8-6.5 2.9-13.5 3-20.4 1.9-6.7-.9-12.7-4.2-17.1-9.4C11 92 8.1 85.9 8.2 78.5c.1-20.1 0-40.2 0-60.3-.1-.5-.1-1.1.2-1.7z" fill="#31962a"/><path d="M5.1 140.6c.2-.2.4-.4.6-.7.4-.5.7-1.1.9-1.8.2-.6.3-1.2.3-1.8 0-.3-.1-.5-.3-.7-.1-.1-.3-.2-.4-.2-.2-.1-.3-.1-.5-.2-.1-.1-.1-.1-.1-.2l.4-1 .4-1c.2-.5.3-1 .3-1.6 0-.4-.1-.8-.3-1.2-.1-.3-.3-.5-.6-.7-.1.3-.3.7-.4 1l-.1.3-.1.4c0 .1 0 .2.1.2l.1.2.1.2c.1.2.2.3.2.5.1.1.1.3.1.4-.1.4-.2.9-.4 1.3-.1.1-.2.4-.4.9-.2.3-.3.7-.3 1.1 0 .2 0 .4.2.6.1.1.3.2.4.3l.3.1.4.1c.1 0 .2.1.3.1.1 0 .1.1.1.2 0 .2-.1.5-.2.6-.2.3-.4.5-.6.7-.3.2-.6.4-1 .6-.5.2-1 .3-1.5.3s-1-.1-1.4-.4c-.3-.3-.5-.8-.5-1.2 0-.6.1-1.2.3-1.8.1-.4.3-.7.4-1.1l.5-1.1.1-.2v-.1s-.1 0-.1.1l-.1.1c-.2.4-.4.8-.7 1.2-.2.4-.4.9-.6 1.3-.2.4-.3.9-.4 1.3-.1.4-.2.9-.2 1.3 0 .3 0 .5.1.8.1.3.2.5.4.8.4.5 1.1.8 1.7.7.6 0 1.2-.2 1.8-.5.2.2.5 0 .7-.2zM6 143.8v-.4s0-.1-.1-.1l-.1-.1-.1-.1-.1-.1h-.2-.1l-.9 1.4v.2-.2l.1.1.3.2.2.2h.2l.1-.1.1-.1.1-.1v-.1l.1-.1V144.1l.4-.3zM7.7 143c-.1-.2-.2-.3-.4-.4l-.2-.1H7s-.1 0-.1.1l-.9 1.3v.2c.2.1.3.2.4.3l.4.3H7.1c.1 0 .1-.1.1-.1.1-.1.2-.2.2-.3l.2-.3c.1-.1.1-.2.2-.4v-.3c0-.1-.1-.2-.1-.3zM9.4 131.4l-.6 1.4c-.1.2-.1.5-.2.7 0 .3-.1.6-.1 1s0 .7-.1.9c0 .2 0 .4-.1.7 0 .2-.1.5-.1.7 0 .2-.1.4-.1.6 0 .2-.1.3-.1.5v.2s.2-.2.4-.5c.2-.4.3-.7.5-1.1l.3-1.5c0-.2 0-.4.1-.7l.1-.8c0-.3 0-.5.1-.8 0-.3.1-.5.1-.7l.1-.5c0-.1 0-.3.1-.4v-.1l-.4.4zM14 134.9c-.1-.1-.3-.2-.4-.3-.1-.1-.2-.1-.3-.1-.1 0-.1.1-.2.2-.3.5-.5 1-.8 1.6h.2l-.3.5-.3.6c-.1.2-.1.4-.1.6 0 .5.2.8.7.8.3 0 .6-.1.8-.3.5-.5.9-1.1 1.1-1.8.1-.3.1-.6.1-.9 0-.2 0-.4-.1-.5-.1-.2-.2-.3-.4-.4zm-.5 2.7c-.2.1-.4.2-.5.2-.4 0-.6-.1-.6-.4 0-.2.1-.4.2-.6l.3-.3c.1 0 .2.1.3.1.1.1.2.1.3.2.1.1.2.3.2.4.1.2 0 .3-.2.4zM17 134.2c-.2-.2-.3-.3-.5-.4-.2-.2-.1 0-.1 0l-.1.2-.4.9-.3.6v.1c.3.2.6.5.8.8.2.2.3.4.3.6-.1.2-.2.5-.4.6-.3.3-.6.6-.9.8l-.4.3-.1.1v.1h.1c.4-.1.8-.2 1.1-.4.2-.1.3-.2.4-.3.1-.1.2-.2.3-.4.2-.4.4-.7.5-1.1.1-.4.2-.7.2-1.1 0-.3-.1-.6-.2-.8-.1-.3-.2-.5-.3-.6zM23.8 134.7h-.5c-.2 0-.4-.1-.6-.1-.2-.1-.3-.1-.5 0-.2 0-.3.1-.4.2-.1.1-.3.2-.4.4-.1.1-.2.3-.3.4-.1.1-.2.3-.2.4l-.1.2-.1.2-.1.2-.1.2-.1.1c-.3 0-.6-.1-.9-.4-.2-.3-.4-.7-.3-1.1v-.7-.5c0-.3.1-.8.2-1.5s.2-1.4.3-2c0-.1 0-.1-.1 0l-.2.6c-.1.2-.2.4-.2.6s-.1.5-.2.9-.1.7-.2 1.1c-.1.3-.1.9-.2 1.7-.1.8-.1 1.2-.1 1.4 0 .5.1.9.4 1.3.3.4.8.7 1.4.6.3 0 .5-.1.8-.2.2-.1.5-.2.7-.4.2-.2.4-.3.5-.6.2-.2.3-.4.4-.7l.5-.9c.1-.2.3-.4.4-.6.1-.1.2-.2.2-.3.1-.1.1-.2.1-.4v-.1c-.1.1-.1.1-.1 0zm-1.4 1.5c-.2.2-.4.3-.6.4-.2.1-.4.2-.6.2l-.5.1.2-.5.2-.4c.1-.1.1-.2.2-.4.1-.1.2-.2.3-.2.1-.1.2-.1.3-.1h.4l.3.1.3.1c-.1.3-.3.5-.5.7zM21.2 142.3c-.1-.1-.1-.2-.2-.2l-.2-.2-.2-.2h-.1s-.1 0-.1.1l-.9 1.4v.2c.2.1.3.2.5.3l.4.4h.1l.1-.1.1-.1.1-.1.2-.2c.1-.1.1-.2.2-.2.1-.1.1-.2.2-.4v-.4c-.1-.1-.2-.2-.2-.3zM32.8 124.3l.2.2.1.1.3.2.2.2h.2l.1-.1.1-.1.1-.1v-.1l.1-.1v-.8s0-.1-.1-.1l.4-.7-.1-.1-.2-.2-.1-.1h-.2-.1l-.9 1.4v.2l-.1.2zM34.6 124.2c-.1 0-.1 0 0 0l.4.4.4.3h.2c.1 0 .1-.1.1-.1l.2-.2.2-.3c.1-.1.1-.2.2-.4v-.3c0-.1-.1-.2-.1-.3-.1-.1-.1-.2-.2-.2l-.2-.2-.2-.2h-.1l-.1.1-.8 1.4c-.1 0-.1 0 0 0zM39.1 127l-.1.1-.4.9-.3.6c0 .2-.1.3-.1.5v.6c0 .2-.1.3-.2.4l-.2.2-.2.2c-.2.1-.4.2-.6.2 0-.1.1-.3.2-.5s.1-.4.1-.6c0-.2-.1-.5-.2-.7-.1-.2-.3-.3-.6-.3-.2 0-.4.1-.5.3-.2.2-.4.5-.6.8l-.1.2-.1.2c0 .1-.1.2-.1.3-.1.2-.1.4-.1.6-.4.1-.8-.1-1-.4-.1-.2-.2-.3-.2-.5v-.4-.8-.7-.4-.2c0-.1 0 0-.1.1l-.5 1.5c0 .1-.1.3-.1.5-.1.4-.1.8-.1 1.2v1.9c0 .6 0 1.3-.1 1.9v.6c0 .9-.2 1.9-.6 2.7-.3.5-.7 1-1.3 1.3-.7.4-1.4.6-2.2.6-.5 0-1.1-.2-1.5-.4-.4-.3-.7-.8-.8-1.3v-.6c0-.2.1-.4.2-.7.1-.2.1-.4.2-.7l.3-.7c.1-.1.1-.3.1-.4v-.1l-.2.4c-.7 1.2-1.1 2.6-1.1 4 0 .7.2 1.3.7 1.8.4.4 1 .6 1.6.7 1.4 0 2.7-.8 3.5-1.9.4-.6.7-1.2 1-1.9.3-.9.6-1.8.7-2.8 0-.2 0-.4.1-.6 0-.3.1-1 .1-2.1h.7c.3 0 .7-.1 1-.2.4-.2.7-.4 1-.6.2 0 .5-.1.7-.1.2-.1.5-.2.6-.4.3-.3.5-.6.7-.9.2-.3.3-.6.4-.9.1-.3.2-.6.2-.9v-1.4c.1-.1.1-.2.1-.2zm-2.5 3.6c-.1.1-.3.2-.5.2-.1 0-.3 0-.4-.1-.1-.1-.2-.2-.2-.3 0-.1.1-.3.2-.3.1-.1.3-.2.5-.2.1 0 .3 0 .4.1.1.1.1.2.1.4.2.1.1.1-.1.2zM39.4 123.1c-.1-.1-.1-.2-.2-.2l-.2-.2-.2-.2h-.1s-.1 0-.1.1l-1 1.4v.2c.2.1.3.2.5.3l.4.3h.1l.1-.1.1-.1.1-.1.2-.2c.1-.1.1-.2.2-.2.1-.1.1-.2.2-.4v-.4s0-.1-.1-.2zM43.1 133.9c-.2 0-.4.1-.5.3-.2.2-.3.5-.5.7l-.3.6c0 .1-.1.2-.1.4s.1.4.2.5c.2.1.4.2.6.2h.7l.2-.1c-.1.3-.2.5-.4.7l-.6.6-.9.6c-.4.2-.5.4-.5.4h.1c.2 0 .4 0 .5-.1.2-.1.5-.1.7-.2.2-.1.3-.1.5-.2s.3-.3.4-.5l.6-1.2c.1-.1.1-.3.1-.4 0-.1.1-.3.1-.4v-.4-.4c0-.3-.1-.5-.3-.8-.1-.1-.3-.3-.6-.3zM57.8 128.4l-.6-.2-.6-.1-.5-.1h-.5c-.2 0-.4.1-.5.2-.1.1-.3.2-.4.4-.1.1-.2.3-.2.4l-.1.3v.1c.1 0 .1 0 .2-.1l.3-.3c.1-.1.3-.2.5-.2h.3l.4.1.4.1.3.1-.4.3-.4.2-.4.2-.4.2c-.2.2-.4.3-.6.5-.1.1-.2.2-.3.4-.1.3-.3.5-.4.7-.2-.1-.3-.4-.3-1.1v-.5-.8-.7-.4-.2l-.1.1-.5 1.5c0 .1-.1.3-.1.5-.1.4-.1.8-.1 1.2v.3c0 .1 0 .2-.1.4V133.2c0 .6 0 1.3-.1 1.9v.6c0 .9-.2 1.9-.6 2.7-.3.5-.7 1-1.3 1.3-.7.4-1.4.6-2.2.6-.5 0-1.1-.2-1.5-.4-.4-.3-.7-.8-.7-1.3v-.6c0-.2.1-.4.2-.7.1-.2.1-.4.2-.7l.3-.7c.1-.1.1-.3.1-.4v-.1l-.2.4c-.7 1.2-1.1 2.6-1.1 4 0 .7.2 1.3.7 1.8.4.4 1 .6 1.6.7 1.4 0 2.7-.8 3.5-1.9.4-.6.7-1.2 1-1.9.3-.9.6-1.8.7-2.8 0-.2 0-.4.1-.6 0-.2 0-.7.1-1.3.1.1.2.1.4.1.3 0 .7-.2.9-.4.3-.3.5-.7.7-1.1.1-.2.1-.4.1-.6 0-.1 0-.2-.1-.2H55c-.1 0-.3 0-.4-.1-.1-.1 0-.2.1-.4.2-.2.5-.3.8-.5.3-.2.7-.3 1.1-.5l.3-.1.2-.1c.2-.1.3-.2.5-.3.2-.1.3-.3.4-.5v-.2c0-.4-.1-.5-.2-.5zM61.9 133.9c-.2 0-.4.1-.5.3-.2.2-.3.5-.4.7l-.3.6c0 .1-.1.2-.1.4s.1.4.2.5c.2.1.4.2.6.2H62l.2-.1c-.1.3-.2.5-.4.7l-.6.6-.9.6c-.4.2-.5.4-.5.4h.1c.2 0 .4 0 .5-.1.2-.1.5-.1.7-.2.2-.1.3-.1.5-.2s.3-.3.4-.5l.6-1.2c.1-.1.1-.3.1-.4 0-.1.1-.3.1-.4 0-.1 0-.2.1-.4v-.4c0-.3-.1-.5-.3-.8-.2-.1-.4-.3-.7-.3zM72.6 131.4h-.2l-.2.1c-.2.1-.5.3-.7.4-.2.2-.5.4-.7.6l-.9.9c-.4.5-.7.9-.9 1.5-.2.4-.3.8-.3 1.2 0 .2 0 .4.2.6.1.1.3.2.4.3l.3.1.4.1c.1 0 .2.1.3.1.1 0 .1.1.1.2 0 .2-.1.5-.2.6-.2.3-.4.5-.7.7-.3.2-.6.4-1 .6-.5.2-1 .3-1.5.3s-1-.1-1.4-.4c-.3-.3-.5-.7-.6-1.1 0-.6.1-1.2.3-1.8.1-.4.3-.7.4-1.1l.5-1.1.1-.2v-.1s-.1 0-.1.1l-.1.1c-.2.4-.4.8-.7 1.2-.2.4-.4.9-.6 1.3-.2.4-.3.9-.4 1.3-.1.4-.2.9-.2 1.4 0 .3 0 .5.1.8.1.3.2.5.4.8.4.5 1.1.8 1.7.7.6 0 1.2-.2 1.8-.5.3-.2.5-.3.7-.6.2-.2.4-.4.6-.7.4-.5.7-1.1.9-1.8.2-.6.3-1.2.3-1.8 0-.3-.1-.5-.3-.7-.1-.1-.3-.2-.4-.2-.2-.1-.3-.1-.5-.2-.1-.1-.1-.2-.1-.3 0-.2.1-.3.2-.5.2-.3.5-.5.7-.7.3-.2.6-.4.9-.5.2-.1.4-.1.7-.1h.2c.1 0 0 0 .1-.1l.1-.2.1-.3.1-.3.1-.3v-.4c.1 0 .1 0 0 0zM76.3 134c-.1.1-.1.4-.3.8-.1.4-.2.8-.4 1.1-.1.3-.2.6-.4.9-.2.3-.5.5-.7.7-.3.3-.6.5-.8.7-.2.1-.3.3-.5.4 0 .1-.1.1 0 .1h.1l.4-.1.9-.3c.3-.1.5-.2.7-.4.2-.2.3-.4.4-.6.1-.4.2-.8.3-1.1.1-.5.3-1.3.5-2.3 0-.1 0-.2-.1-.2s-.1.1-.1.3zM78.7 131.8c0-.1 0-.3.1-.4v-.1s-.1.1-.1.2l-.6 1.4c-.1.2-.1.5-.2.7 0 .3-.1.6-.1 1s0 .7-.1.9c0 .2 0 .4-.1.7 0 .2-.1.5-.1.7 0 .2-.1.4-.1.6 0 .2-.1.3-.1.5v.2s.2-.2.4-.5c.2-.4.3-.7.5-1.1l.3-1.5c0-.2 0-.4.1-.7l.1-.8c0-.3 0-.5.1-.8s.1-.5.1-.7l-.2-.3zM87 134.5c-.3-.1-.5-.1-.8-.2l-.6-.3-.2-.2c-.1-.1-.2-.1-.3.1-.1.1-.1.2-.2.3 0 .1-.1.2-.1.4-.3.3-.6.7-.8 1.1-.2.4-.2.8 0 1.2-.4.2-.8.2-1.2.1-.4-.1-.7-.4-.8-.9 0-.3.1-.6.3-.9v-.2s-.1 0-.2.1l-.6 1.2c-.2.4-.4.8-.7 1.1-.3.3-.6.6-1 .9-.4.3-.8.6-1.3.8-.1.1-.2.1-.1.1h.2c.4-.1.8-.2 1.2-.2.4-.1.7-.4.9-.7.1-.1.2-.3.3-.4l.3.6c.2.2.4.3.6.4.2.1.5.1.8.1.3 0 .6-.1.8-.3.3-.2.6-.4.8-.6.3-.3.7-.6 1.1-1.1.1-.1.1-.1.2-.1h.9c.1 0 .2 0 .3-.1.1 0 .2-.1.2-.1.2-.1.3-.3.4-.5.1-.2.2-.4.2-.7 0-.2 0-.4-.1-.6 0-.2-.3-.3-.5-.4zm-1.5 1.4c-.2.1-.4.2-.6.2-.2 0-.3-.1-.4-.2-.1-.1-.1-.3 0-.5.1-.3.4-.5.7-.5.3 0 .6.2.7.4-.1.3-.2.5-.4.6zm1.7.1c-.1.1-.2.1-.2.1h-1v-.3c0-.1 0-.2.1-.3l.2-.2c0-.1.1-.1.1-.1.2 0 .4 0 .5.1.2.1.3.2.3.2.1.3 0 .4 0 .5zM90 131.4l-.6 1.4c-.1.2-.1.5-.2.7 0 .3-.1.6-.1 1s0 .7-.1.9c0 .2 0 .4-.1.7s-.1.5-.1.7c0 .2-.1.4-.1.6 0 .2-.1.3-.1.5v.2s.2-.2.4-.5c.2-.4.3-.7.5-1.1l.3-1.5c0-.2 0-.4.1-.7l.1-.8c0-.3 0-.5.1-.8 0-.3.1-.5.1-.7l.1-.5c0-.1 0-.3.1-.4v-.1s-.4.3-.4.4zM94 134c-.1.1-.1.4-.3.8-.1.4-.2.8-.3 1.1-.1.3-.2.6-.4.9-.2.3-.5.5-.7.7-.3.3-.6.5-.8.7-.2.1-.3.3-.5.4 0 .1-.1.1 0 .1h.1l.4-.1.9-.3c.3-.1.5-.2.7-.4.2-.2.3-.4.4-.6.1-.4.3-.8.4-1.2.1-.5.3-1.3.5-2.3 0-.1 0-.2-.1-.2-.1.1-.2.2-.3.4zM99.1 136.8l.3.2.2.2.1.1h.1l.2-.1.1-.1.1-.2.2-.2c.1-.1.1-.3.2-.4v-.3c-.1-.2-.2-.4-.4-.5l-.3-.2-.3-.2h-.1v.1l-.4.7-.4.7v.2h.4z"/><path d="M103.3 132.7c-.1.1-.1.2-.1.3-.3.7-.4 1.2-.5 1.4-.1.2-.1.5-.1.7.1 1-.1 2.1-.7 2.9-.3.5-.8 1-1.3 1.3-.7.4-1.4.6-2.2.6-.5 0-1.1-.2-1.5-.4-.4-.3-.7-.8-.8-1.3v-.6c0-.2.1-.4.2-.7.1-.2.1-.4.2-.7l.3-.7c.1-.1.1-.3.1-.4v-.1l-.2.4c-.7 1.2-1.1 2.6-1.1 4 0 .7.2 1.3.7 1.8.4.4 1 .6 1.6.7 1.4 0 2.7-.8 3.5-1.9.4-.6.7-1.2 1-1.9.4-1.1.7-2.2.8-3.4v-.3l.1-.9.1-.6c-.1-.1-.1-.1-.1-.2zM106.1 136c-.1.1-.1.3-.2.6-.1.2-.1.4-.2.4-.2 0-.4-.1-.5-.3-.2-.3-.3-.6-.2-.9v-.3-.7-.5c0-.3.1-.8.2-1.5s.2-1.4.3-2c0-.1 0-.1-.1 0l-.2.6c-.1.2-.2.4-.2.6s-.1.5-.2.9-.1.7-.2 1.1c-.1.3-.1.9-.2 1.7-.1.8-.1 1.2-.1 1.4 0 .5.1 1 .3 1.5.2.3.4.4.7.4.4 0 .8-.3 1.1-.9.2-.4.3-.9.3-1.3 0-.2 0-.4-.1-.5-.3-.1-.4-.2-.5-.3zM110.7 130.5c-.1-.1-.1-.2-.2-.2l-.2-.2-.2-.2h-.1s-.1 0-.1.1l-.9 1.4v.2c.2.1.3.2.5.3l.4.4h.1l.1-.1.1-.1.1-.1.2-.2c.1-.1.1-.2.2-.2.1-.1.1-.2.2-.4v-.4c-.1-.2-.1-.3-.2-.3zM110.2 134c-.1.1-.1.4-.3.8-.1.4-.2.8-.4 1.1-.1.3-.2.6-.4.9-.2.3-.5.5-.7.7-.3.3-.6.5-.8.7-.2.1-.3.3-.5.4 0 .1-.1.1 0 .1h.1l.4-.1.9-.3c.3-.1.5-.2.7-.4.2-.2.3-.4.4-.6.1-.4.3-.8.4-1.2.1-.5.3-1.3.5-2.3 0-.1 0-.2-.1-.2s-.1.2-.2.4zM117 134.5c-.1 0-.1 0-.2.2-.1.1-.1.3-.2.4 0 .1-.1.1-.2.2h-.4-.1c-.1.2-.3.4-.4.5-.1.1-.3.2-.5.2h-.4c-.2.1-.4.2-.5.4-.3.3-.6.4-1 .4-.3 0-.5-.1-.7-.2-.2-.1-.3-.3-.4-.6-.1-.2-.1-.4-.1-.6v-.1-.7-.5c0-.3.1-.8.2-1.5s.2-1.4.3-2c0-.1 0-.1-.1 0l-.2.6c-.1.2-.2.4-.2.6s-.1.5-.2.9-.1.7-.2 1.1c-.1.3-.1.9-.2 1.7-.1.8-.1 1.2-.1 1.4 0 .4 0 .9.2 1.3s.6.7 1.1.6c.5 0 .9-.3 1.2-.8.2-.3.4-.6.7-.8.1-.1.2-.1.4-.1h.4c.2-.1.3-.2.4-.3.1-.1.3-.2.4-.4.2 0 .4-.1.5-.2.2-.1.3-.3.4-.5.1-.3.3-.6.3-.9-.1-.2-.1-.3-.2-.3z"/></svg>