<svg xmlns="http://www.w3.org/2000/svg" viewBox="0 0 45 34.2"><g><circle cx="11.1" cy="22.8" r="5.5" fill="#ffa300"/><circle cx="19.6" cy="8.3" r="4" fill="#ffa300"/><path d="M0 5.9c0-.2.1-.5.1-.7C.5 2.6 2.6.6 5.1.1c.4-.1.8-.1 1.3-.1h15.3C25.2 0 28 2.8 28 6.3v21.6c0 1.9-.8 3.7-2.3 4.9-.9.8-2.1 1.3-3.3 1.4h-16c-2.2 0-4.3-1.2-5.4-3.1-.5-.8-.8-1.7-.8-2.7v-.1L0 5.9zm26.1 11.2V6.4c0-.7-.1-1.4-.5-2.1-.8-1.6-2.4-2.6-4.1-2.5H6.4c-.4 0-.9.1-1.3.2-2 .5-3.3 2.3-3.3 4.4v21.5c0 .3 0 .5.1.8.4 2.2 2.2 3.8 4.4 3.8h15.4c1.1 0 2.1-.4 2.9-1.1 1-.9 1.6-2.1 1.6-3.5-.1-3.6-.1-7.2-.1-10.8zM38.7 10.8h5.4c.5 0 .9.3.9.7V22.4c0 .5-.4.9-.9.9h-5.5V27.7c0 .4-.2.8-.6.9h-8.3V27h7.2V9.9c0-.5.4-.9.9-.9s.9.4.9.9v.9zm4.5 10.8v-9h-4.5v9h4.5z" fill="#2e4057"/><path d="M31.5 15.3v9c0 .5-.3.9-.8 1-.5 0-.9-.3-1-.8v-.2V6.4c0-.4.2-.7.5-.9.4-.2 1 0 1.2.4.1.1.1.2.1.4v9zM33.3 16.2v-8c0-.5.4-.9.9-.9s.9.4.9.9V24.4c0 .3-.1.6-.3.8-.3.2-.6.3-.9.1-.3-.1-.5-.5-.5-.8v-.1l-.1-8.2zM18 23c0 3.7-3 6.8-6.8 6.7s-6.8-3-6.7-6.8 3-6.8 6.8-6.7c3.7 0 6.7 3.1 6.7 6.8zm-1.8 0c0-2.7-2.2-4.9-5-4.9-2.7 0-4.9 2.2-4.9 5s2.2 4.9 5 4.9c2.7-.1 4.9-2.3 4.9-5zM19.8 12.6c-2.5 0-4.5-2-4.5-4.5s2-4.5 4.5-4.5 4.5 2 4.5 4.5-2 4.5-4.5 4.5zm0-1.8c1.5 0 2.7-1.2 2.7-2.7s-1.2-2.7-2.7-2.7-2.7 1.2-2.7 2.7c0 1.5 1.2 2.7 2.7 2.7z" fill="#2e4057"/></g></svg>