<svg xmlns="http://www.w3.org/2000/svg" viewBox="0 0 37.6 32.9"><g fill="#2e4057"><path d="M3 14c.2.1.4.1.6 0l6.1-2.8c.4-.2.6-.7.4-1-.2-.4-.6-.5-1-.4l-4.3 2C7.5 3.9 16.1-.3 24 2.4c4.7 1.6 8.4 5.5 9.7 10.3.1.4.5.7 1 .6s.7-.5.6-1C32.8 3.4 23.6-1.8 14.7.6 9.4 2 5.1 6 3.3 11.3L1.5 6.8c-.1-.4-.5-.7-1-.5-.4.1-.6.5-.5.9v.1l2.5 6.3c.2.2.3.4.5.4zM37.6 25.6l-2.5-6.3c-.1-.2-.2-.4-.4-.4-.2-.1-.4-.1-.6 0L28 21.7c-.4.1-.6.6-.5 1 .1.4.6.6 1 .5h.1l4.3-2c-2.7 7.9-11.3 12.1-19.2 9.4-4.9-1.7-8.5-5.6-9.8-10.4-.1-.4-.5-.7-1-.6-.4.1-.7.5-.6 1C4.8 29.5 14 34.7 22.9 32.3c5.3-1.4 9.6-5.4 11.4-10.7l1.8 4.5c.2.4.6.6 1 .4.4-.1.6-.5.5-.9z"/></g><g fill="#2e4057"><path d="M22.9 15.802v-.1l-6.1-3.4 3.5-2.2 5.8 3.3-2.5 1.5c-.2.1-.3.4-.2.6.1.2.4.3.6.2l3-1.9c.2-.1.2-.4.1-.6 0-.1-.1-.1-.1-.1l-6.6-3.8c-.1-.1-.3-.1-.4 0l-4.3 2.7-2.1 1.3-4.3 2.7c-.3-.1-.4.2-.2.4 0 .1.1.1.1.1l6.6 3.8c.1.1.3.1.4 0l3-1.9c.2-.1.3-.4.2-.6-.1-.2-.4-.3-.6-.2l-2.8 1.8-5.8-3.3 3.5-2.2 6.2 3.5v4.7c0 .2.2.4.4.4.1 0 .2 0 .2-.1l2.1-1.3c.1-.1.2-.2.2-.3l.1-5c0 .1 0 0 0 0zm-2.2 5.6v-4.2c0-.1-.1-.3-.2-.4l-6.1-3.4 1.3-.8 5.8 3.3-.5.3c-.2.1-.3.4-.2.6.1.2.4.3.6.2l.5-.3v4l-1.2.7z"/><path d="M26.5 14.502l-3 1.9c-.2.1-.3.4-.1.6.1.2.4.3.6.1l3-1.9c.2-.1.3-.4.2-.6-.2-.2-.4-.3-.7-.1zM18.9 19.302l-2.9 1.8-6.4-3.7c-.2-.1-.4 0-.6.2-.1.2 0 .4.1.5l6.8 3.8c.1.1.3.1.4 0l3-1.9c.2-.1.2-.4.1-.6-.1-.2-.3-.2-.5-.1zM26.5 16.102l-3 1.9c-.2.1-.3.4-.1.6.1.2.4.3.6.1l3-1.9c.2-.1.2-.4.1-.6-.2-.1-.4-.2-.6-.1z"/><path d="M18.9 20.902l-2.9 1.8-6.4-3.7c-.2-.1-.4 0-.6.2-.1.2 0 .4.1.5l6.6 3.8c.1.1.3.1.4 0l3-1.9c.2-.1.2-.4.1-.6.1-.1-.1-.2-.3-.1zM26.5 17.802l-3 1.9c-.2.1-.3.4-.1.6.1.2.4.3.6.1l3-1.9c.2-.1.2-.4.1-.6-.2-.2-.4-.2-.6-.1z"/><path d="M18.9 22.602l-2.9 1.8-6.4-3.7c-.2-.1-.4 0-.6.2-.1.2 0 .4.1.5l6.6 3.8c.1.1.3.1.4 0l3-1.9c.2-.1.2-.4.1-.6.1-.2-.1-.2-.3-.1z"/></g></svg>