<svg xmlns="http://www.w3.org/2000/svg" viewBox="0 0 52.9 52.6" style="enable-background:new 0 0 52.9 52.6" xml:space="preserve"><path style="fill:#2e4057" d="M51.5 22c-1.9-.2-3.3-1.2-4.1-2.9l-.9-2.1c-.8-1.9-.5-3.7.8-5.3.7-.8.6-1.3-.1-2.1-1.3-1.3-2.6-2.5-3.9-3.8-.7-.7-1.2-.8-2-.1-1.2 1-2.6 1.5-4.2 1.1-1.5-.3-2.9-.9-4.2-1.7-1.3-.9-1.9-2.1-2.1-3.7-.1-1-.5-1.4-1.5-1.4h-5.5c-1 0-1.4.4-1.5 1.4-.2 1.9-1.2 3.4-3 4.2-.7.3-1.3.6-2 .9-2 .8-3.8.6-5.5-.7-.9-.8-1.4-.8-2.1 0C8.4 7 7.1 8.3 5.9 9.6c-.8.8-.8 1.2-.1 2.1 1.2 1.6 1.5 3.3.7 5.2-.2.4-.3.8-.5 1.2-.8 2.3-2.3 3.7-4.8 3.9-.9.1-1.2.6-1.2 1.5v5.6c0 .9.3 1.3 1.3 1.4 2.2.3 3.7 1.4 4.5 3.5l.6 1.5c.8 2 .6 3.8-.7 5.5-.6.8-.6 1.3.1 2l3.7 3.7c.9.9 1.3.9 2.3.2 1.6-1.2 3.3-1.5 5.1-.7.6.2 1.2.5 1.8.7 2.1.8 3.3 2.3 3.5 4.6.1.8.5 1.2 1.3 1.2h5.9c.8 0 1.2-.4 1.3-1.2.2-2.2 1.3-3.6 3.4-4.5.5-.2 1-.4 1.6-.6 2-.9 3.9-.7 5.6.7.3.2.6.4.9.4.4 0 .7-.2 1-.5l3.9-3.9c.8-.8.8-1.2.1-2.1-1.3-1.7-1.5-3.5-.7-5.4l.6-1.5c.8-2.1 2.3-3.2 4.5-3.5 1-.1 1.3-.5 1.3-1.5v-5.4c0-1.2-.3-1.5-1.4-1.7zM26.4 40.4c-3.8 0-7.4-1.5-10.1-4.2-2.7-2.7-4.2-6.3-4.1-10 0-7.7 6.5-14.1 14.3-14.1 7.9 0 14.3 6.4 14.3 14.3-.1 7.8-6.5 14.1-14.4 14z"/><path style="fill:#2e4057" d="M34.2 29.9c-1.4 2.5-3.3 4.2-6.1 4.7-3.5.6-6.3-.6-8.5-3.3-.5-.6-.4-1.3.1-1.7.5-.4 1.3-.3 1.8.4 2 2.5 5.1 3.2 7.8 1.9.9-.5 1.8-1.2 2.3-2.1.1-.1.1-.3.2-.4 0 0 0-.1-.1-.2l-.9.6c-.3.2-.6.2-.9.2-.3-.1-.6-.2-.7-.5-.1-.1-.2-.3-.2-.4v-.4c0-.1.1-.3.2-.4l.3-.3c1.2-.9 2.5-1.7 3.7-2.6.1-.1.3-.2.4-.2h.5c.2 0 .3.1.4.2.1.1.2.2.3.4.7 1.4 1.3 2.8 1.9 4.2.1.1.1.3.1.4 0 .1 0 .3-.1.4s-.1.3-.2.4c-.1.1-.2.2-.4.2-.6.3-1.2.1-1.5-.5-.1-.3-.2-.6-.4-1zM18.7 22.7c1.8-3.2 4.4-5 8.1-4.9 2.8.1 5 1.3 6.6 3.5.5.6.4 1.3-.1 1.7-.5.4-1.2.3-1.7-.3-.6-.8-1.4-1.5-2.4-2-.9-.4-2-.6-3-.6-1 .1-2.1.4-2.9 1-.9.6-1.6 1.3-2.1 2.3.4-.1.7-.4 1-.6.6-.4 1.3-.3 1.6.2.1.1.2.3.2.4v.5c0 .2-.1.3-.2.4l-.3.3c-1.2.9-2.3 1.7-3.5 2.5-.7.5-1.4.3-1.8-.5-.6-1.3-1.3-2.5-1.9-3.8-.3-.7-.1-1.4.5-1.7.6-.3 1.2 0 1.6.7 0 .3.1.6.3.9z"/></svg>
