<svg xmlns="http://www.w3.org/2000/svg" viewBox="0 0 26 26"><path d="M16.5 1.3c.6-.2 1.1-.3 1.7-.2.9-.1 1.8.3 2.3 1 .5.8.3 1.2.1 1.5l-.4.4c-.1.1-.1.2-.1.3l-.1 2c0 .1 0 .2.1.3.1.1.2.1.3.1.2 0 .3.2.3.4l-.2 1.6c0 .1-.1.2-.2.3h-.2c-.2 0-.4.2-.4.4-.1 1.1-.6 2.2-1.4 2.9-.1.1-.1.2-.1.3 0 .2.2.4.4.4.1 0 .2 0 .3-.1.9-.8 1.5-2 1.7-3.2.1 0 .1 0 .2-.1.4-.2.7-.5.7-1l.2-1.6c.1-.6-.2-1.1-.8-1.3l.1-1.3.3-.3c.7-.7.7-1.8 0-2.5-.7-1-1.9-1.5-3.1-1.4-.7 0-1.3.1-2 .3-.2.1-.3.3-.2.6.1.2.3.3.5.2z" fill="#2e4057"/><path d="M20.4 14.7c-3.1 0-5.6 2.5-5.6 5.6s2.5 5.6 5.6 5.6c3.1 0 5.6-2.5 5.6-5.6 0-3-2.5-5.6-5.6-5.6zm0 10.4c-2.6 0-4.8-2.1-4.8-4.8s2.1-4.8 4.8-4.8c2.6 0 4.8 2.1 4.8 4.8-.1 2.7-2.2 4.8-4.8 4.8z" fill="#ffa300"/><path d="M23 19.9h-2.2v-2.2c0-.2-.2-.4-.4-.4s-.4.2-.4.4v2.2h-2.2c-.2 0-.4.2-.4.4s.2.4.4.4H20V23c0 .2.2.4.4.4s.4-.2.4-.4v-2.2H23c.2 0 .4-.2.4-.4 0-.3-.2-.5-.4-.5z" fill="#ffa300"/><path d="M16 14.8c.1-.2-.1-.5-.3-.5l-3-.8-.2-1c.8-.8 1.3-1.9 1.5-3 .5-.1.8-.5.9-1l.1-1.6c.1-.5-.2-1.1-.8-1.3l.1-1.4.3-.3c.7-.7.7-1.8 0-2.5-.7-1-1.8-1.5-3-1.4-1.1 0-2.1.2-3 .8C5.2.9 4.7 2.5 4.7 4c0 .3.1 1.1.1 1.6-.5.2-.8.7-.7 1.3l.2 1.6c.1.5.4.9 1 1 .2 1.1.7 2.1 1.4 2.9l-.3 1.1-3 .8c-2 .5-3.4 2.3-3.4 4.4 0 .2.2.4.4.4s.4-.2.4-.4c0-1.7 1.1-3.1 2.7-3.5l3.3-.8c.2 0 .3-.2.3-.3l.4-1.6c0-.2 0-.3-.1-.4-.8-.8-1.3-1.9-1.4-3 0-.2-.2-.4-.4-.4h-.1c-.2 0-.3-.1-.4-.3l-.2-1.6c0-.1 0-.2.1-.3.1-.1.2-.1.3-.1h.1c.2 0 .4-.2.4-.5 0-.4-.2-1.5-.2-1.9 0-1.2.2-2.3 3.1-2.3.1 0 .2 0 .2-.1.8-.5 1.7-.8 2.6-.7.9-.1 1.8.3 2.3 1 .6.7.4 1.1.2 1.4l-.4.4c-.1.1-.1.2-.1.3l-.1 2c0 .2.2.4.4.4.1 0 .2 0 .3.1.1.1.1.2.1.3L14 8.4c0 .2-.2.3-.4.3s-.4.2-.4.4c-.1 1.1-.6 2.2-1.5 3-.1.1-.2.3-.1.4L12 14c0 .2.2.3.3.3l3.3.8c.1.1.3-.1.4-.3z" fill="#2e4057"/></svg>