<svg xmlns="http://www.w3.org/2000/svg" viewBox="0 0 14.3 16.3"><g fill="#2e4057"><path d="M6 13.4H2c-.3 0-.6-.2-.8-.5-.1-.2-.2-.6-.2-.9.4-2.7 1.6-4.4 3.6-4.9.2-.1.3-.3.4-.5 0-.2-.1-.4-.3-.5-.5-.3-1-.7-1.2-1.2-.3-.6-.4-1.4-.2-2.1.3-.6.7-1.2 1.4-1.5.6-.3 1.4-.4 2.1-.2.6.3 1.2.8 1.5 1.4.3.6.4 1.4.1 2.1s-.7 1.2-1.3 1.5c-.2.1-.3.3-.3.5s.2.4.4.5c.6.2 1.2.5 1.7.9.2.2.5.2.7 0 .2-.2.2-.5 0-.7-.4-.4-.8-.7-1.2-.9.5-.4.8-.9 1-1.6.3-.9.2-1.9-.2-2.8C8.8 1.2 8 .5 7.1.2c-1-.3-2-.3-2.8.2-1.8.9-2.6 3.1-1.7 5 .2.4.5.8.8 1.1-1.8.9-3 2.8-3.4 5.4-.1.6.1 1.2.4 1.7.4.5.9.8 1.5.9H6c.3 0 .5-.2.5-.5s-.2-.6-.5-.6zM10.9 10.8c-.6-.6-1.6-.6-2.2 0-.2.2-.2.5 0 .7s.5.2.7 0c.2-.2.6-.2.8 0 .1.1.2.2.2.4s-.1.3-.2.4c-.2.2-.2.5 0 .7.1.1.2.1.4.1s.3 0 .4-.1c.3-.3.5-.7.5-1.1-.1-.4-.3-.8-.6-1.1z"/><path d="M13.9 14.7l-1.5-1.1c.3-.5.5-1.1.5-1.7 0-1.7-1.4-3.1-3.1-3.1-1.7 0-3.1 1.4-3.1 3.1S8.1 15 9.9 15c.6 0 1.2-.2 1.7-.5l1.1 1.5c.1.1.1.2.2.2.4.3 1 .2 1.3-.2.2-.5.1-1-.3-1.3zm-4-.7c-1.2 0-2.1-.9-2.1-2.1s.9-2.1 2.1-2.1c1.2 0 2.1.9 2.1 2.1S11 14 9.9 14z"/></g></svg>