<svg xmlns="http://www.w3.org/2000/svg" viewBox="0 0 26.7 26.7"><path d="M20.726 8.825l.1-2.2-.8-2-1.6-2.4-2.6-1.5-2.7-.5-2.5.7-1.9 1.3-2.1 2.3-.6 2.3.3 2.3 1.3.2.6-3.1h1.9l1.3-1.4.3-1.2 1.5 1.8 2.5 1.3 2.5.6.9 2.1 1.6-.6z" fill="#ffa300"/><g fill="#2e4057"><path d="M7.226 13.225c1 3.4 3.4 5.6 6.2 5.6 2.7 0 5.2-2.2 6.1-5.6.9.1 1.6-1.1 1.6-2.7 0-.4-.1-.9-.2-1.3.1-.5.2-1 .2-1.5 0-4.3-3.5-7.7-7.7-7.7-4.3 0-7.8 3.4-7.8 7.7 0 .5.1 1 .2 1.5-.1.4-.2.8-.2 1.3 0 1.5.7 2.7 1.6 2.7zm12.3-.9h-.1c-.1-.1-.3-.1-.4 0-.1 0-.2.2-.3.3-.8 3.2-3 5.4-5.4 5.4s-4.6-2.2-5.4-5.4c0-.1-.1-.2-.3-.3h-.2c-.1 0-.2 0-.2.1h-.1c-.3 0-.7-.7-.7-1.8 0-.3 0-.5.1-.8.4 0 .7 0 1.1.1.1 0 .3 0 .4-.1.1-.2.1-.3.1-.4-.1-1.4 0-2.8.3-3 .7 0 2.1 0 3-.9.2-.2.3-.4.4-.6 1.1 1.2 3.6 2.5 6.2 2.6.1.7.3 1.4.6 2 .1.2.2.3.4.3l1.1-.1c.1.3.1.5.1.8 0 1.2-.5 1.8-.7 1.8zm-6.2-11.5c3.8 0 6.9 3.1 6.9 6.9 0 .4-.1.8-.1 1.2l-.9.1c-.2-.6-.4-1.2-.4-1.8 0-.2-.2-.4-.4-.4-3.3 0-6.3-2.3-6.3-2.9 0-.2-.2-.4-.4-.4s-.4.2-.4.4c0 .5-.1.9-.4 1.2-.7.5-1.8.5-2.5.5-.2 0-.4 0-.7.2-.5.6-.5 2.2-.4 3.1h-.7c-.1-.4-.2-.8-.2-1.2 0-3.8 3.1-6.9 6.9-6.9z"/><path d="M21.926 18.725l-2.9-1c-.2-.1-.4 0-.5.1-1.2 1.4-2.8 2.2-4.6 2.4-1.8.2-3.5-.4-4.9-1.5l-.9-.9c-.1-.1-.3-.2-.5-.1l-2.9 1c-2.9 1-4.8 3.7-4.8 6.8v.8c0 .2.2.4.4.4h25.8c.2 0 .4-.2.4-.4v-.9c.2-3-1.8-5.7-4.6-6.7zm3.9 7.1h-25v-.4c0-2.7 1.7-5.1 4.2-6l2.6-.9c.2.3.5.5.8.8 1.6 1.3 3.5 1.9 5.5 1.7 1.9-.2 3.7-1.1 4.9-2.5l2.6.9c2.5.9 4.2 3.3 4.2 6v.4zM11.626 10.125h-1.1c-.2 0-.4.2-.4.4s.2.4.4.4h1.1c.2 0 .4-.2.4-.4s-.1-.4-.4-.4zM16.126 10.125h-1.1c-.2 0-.4.2-.4.4s.2.4.4.4h1.1c.2 0 .4-.2.4-.4s-.1-.4-.4-.4z"/></g></svg>