<svg xmlns="http://www.w3.org/2000/svg" viewBox="0 0 27.4 18"><path d="M13.7 8.5c2.3 0 4.2-1.9 4.3-4.3C18 1.9 16.1 0 13.7 0S9.5 1.9 9.5 4.3s1.9 4.2 4.2 4.2zm0-7.6C15.5.9 17 2.4 17 4.2c0 1.8-1.5 3.3-3.3 3.3S10.4 6 10.4 4.2 11.9.9 13.7.9z" fill="#ffa300"/><path d="M22.7 10.4c1.6 0 2.8-1.3 2.8-2.8 0-1.6-1.3-2.8-2.8-2.8S19.8 6 19.8 7.6s1.3 2.8 2.9 2.8zm0-4.7c1 0 1.9.8 1.9 1.9 0 1-.8 1.9-1.9 1.9s-1.9-.8-1.9-1.9.8-1.9 1.9-1.9zM4.7 10.4c1.6 0 2.8-1.3 2.8-2.8 0-1.6-1.3-2.8-2.8-2.8S1.9 6 1.9 7.6s1.3 2.8 2.8 2.8zm0-4.7c1 0 1.9.8 1.9 1.9 0 1-.8 1.9-1.9 1.9s-1.9-.9-1.9-1.9.9-1.9 1.9-1.9zM22.1 12.2c-.7 0-1.4.1-2 .4-1.5-1.9-3.8-3.2-6.4-3.2-2.6 0-4.9 1.2-6.4 3.2-.6-.3-1.3-.4-2-.4-2.9 0-5.3 2.4-5.3 5.3 0 .2.2.5.5.5s.5-.2.5-.5c0-2.4 1.9-4.3 4.3-4.3.5 0 1 .1 1.5.3-.7 1.2-1.1 2.6-1.1 4.1 0 .2.2.4.5.5.3 0 .5-.2.5-.5 0-1.4.4-2.8 1.2-3.9.1 0 .1-.1.1-.2 1.3-1.8 3.4-3 5.8-3s4.5 1.2 5.8 3v.1c0 .1.1.1.1.1.7 1.1 1.2 2.5 1.2 3.9 0 .3.2.5.5.5s.5-.2.5-.5c0-1.5-.4-2.9-1.1-4.1.5-.2 1-.3 1.5-.3 2.4 0 4.3 1.9 4.3 4.3 0 .3.2.5.5.5s.5-.2.5-.5c-.2-2.9-2.6-5.3-5.5-5.3z" fill="#2e4057"/></svg>