<svg xmlns="http://www.w3.org/2000/svg" viewBox="0 0 12 14.3"><g fill="#2e4057"><path d="M9.6 7.9c.2-.2.2-.5-.1-.7-.3-.3-.7-.6-1.1-.8.5-.4.8-.9 1-1.5.3-1 .2-2-.2-2.9C8.7 1.2 8 .5 7 .2c-.9-.3-1.9-.3-2.8.2-1.8.9-2.5 3.1-1.6 4.9.2.4.4.8.8 1.1-1.8.9-3 2.7-3.4 5.4-.2 1.2.7 2.4 1.9 2.5H6c.3 0 .5-.2.5-.5s-.3-.5-.5-.5H2c-.7-.1-1.1-.7-1.1-1.4.5-2.7 1.7-4.4 3.7-4.9.2 0 .3-.2.3-.4s-.1-.4-.3-.5c-.5-.3-1-.7-1.2-1.2-.6-1.3-.1-3 1.3-3.6.6-.3 1.3-.4 2-.2.7.3 1.3.7 1.6 1.4.3.6.4 1.4.1 2.1s-.7 1.2-1.3 1.5c-.2.1-.3.3-.3.5s.2.4.4.4c.6.2 1.2.5 1.7.9.2.2.5.2.7 0zM9.4 9.6c-.3 0-.5.2-.5.5s.2.5.5.5c.4 0 .8.4.8.8s-.4.8-.8.8c-.3 0-.5.2-.5.5s.2.5.5.5c1 0 1.8-.8 1.8-1.8.1-1-.8-1.8-1.8-1.8z"/></g></svg>