<svg xmlns="http://www.w3.org/2000/svg" viewBox="0 0 23.9 22.7"><path d="M18.8 2.7l-.4-1c-.5-.8-1.2-1.3-2-1.6-1-.3-2-.2-3 .2L8.9 2.8H5.2C2.2 2.9-.1 5.4 0 8.4v10.9c0 1.9 1.6 3.4 3.4 3.3h17.1c1.9-.1 3.4-1.6 3.4-3.5V8.2c.1-.2.1-.2.1-.3-.1-2.9-2.4-5.1-5.2-5.2zm-.9.1L19.3 6h-7.2l5.8-3.2zm-4.2-1.7c.7-.3 1.5-.4 2.3-.2.6.2 1.2.6 1.5 1.2l-6.9 3.8s0 .1-.1.1h-6l9.2-4.9zM5.2 3.5h2.4L3 6c-.8.1-1.6.5-2.1 1.1.4-2 2.2-3.5 4.3-3.6zM20.5 22H3.4C2 22 .8 20.8.8 19.4V9.3c.1-1.5 1.3-2.6 2.8-2.6h16.7c1.4-.1 2.7 1 2.8 2.4v1.5h-3.6c-2 0-3.5 1.6-3.6 3.6 0 2 1.6 3.5 3.6 3.6h3.6v1.3c0 1.6-1.1 2.8-2.6 2.9zm2.7-4.9h-3.6c-1.5-.1-2.7-1.3-2.8-2.8.1-1.5 1.3-2.7 2.8-2.8h3.6v5.6zM20.4 6l-1.1-2.4c1.9.2 3.5 1.6 3.8 3.5-.7-.7-1.7-1.1-2.7-1.1z" fill="#2e4057"/><path d="M18.4 14.3c0 .7.5 1.2 1.2 1.2s1.2-.5 1.2-1.2-.5-1.2-1.2-1.2-1.2.6-1.2 1.2zm1.2-.4c.3 0 .4.2.4.4s-.2.4-.4.4-.4-.2-.4-.4.1-.4.4-.4z" fill="#ffa300"/></svg>