<svg xmlns="http://www.w3.org/2000/svg" viewBox="0 0 19.6 21.5"><path d="M18 19.7H1.6C.7 19.7 0 19 0 18.1V4.5c0-.9.7-1.6 1.6-1.6H18c.9 0 1.6.7 1.6 1.6v13.6c-.1.9-.8 1.6-1.6 1.6z" fill="#f4950c"/><path d="M18.5 7.3L14.6.5c-.3-.5-.8-.6-1.3-.3L.8 7.3h17.7z" fill="#75bf91"/><path d="M0 12.8h19.5V7.6c0-.7-.5-1.2-1.2-1.2H1.2C.5 6.4 0 7 0 7.6v5.2z" fill="#c14146"/><path d="M0 10.8v7.3c0 .9.7 1.6 1.6 1.6H18c.9 0 1.6-.7 1.6-1.6v-7.3c0-.5-.4-1-1-1H1c-.6.1-1 .5-1 1z" fill="#ea4d57"/><path d="M15.3 21.5L1.5 19.9C.7 19.8 0 19 0 18.1V4.4c0 .3.2.5.5.6l15.1 1.8c.9.1 1.5.8 1.5 1.7v11.3c0 1-.8 1.7-1.7 1.7h-.1z" fill="#fab832"/><path d="M1.2 6.5l-.6-.1C.4 6.4.3 6.2.3 6s.2-.3.3-.3l.6.1c.2 0 .3.2.3.3 0 .3-.1.4-.3.4zM14.1 20.4l-1.3-.2c-.2 0-.3-.2-.3-.4s.2-.3.4-.3l1.2.2c.2 0 .3.2.3.4s-.1.3-.3.3zm1.2-.1c-.2 0-.3-.1-.3-.3 0-.1.1-.2.2-.3.3-.1.5-.4.7-.7.1-.2.3-.2.4-.2.1.1.2.2.2.4-.2.5-.5.8-1 1.1h-.2zm-3.6-.2l-1.3-.1c-.2 0-.3-.2-.3-.4s.2-.3.4-.3l1.2.2c.2 0 .3.2.3.4 0 .1-.2.2-.3.2zm-2.5-.3L8 19.6c-.2 0-.3-.2-.3-.4s.2-.2.4-.2l1.2.2c.2 0 .3.2.3.4-.1.1-.2.2-.4.2zm-2.4-.3l-1.3-.2c-.2 0-.3-.2-.3-.4s.2-.3.4-.3l1.2.2c.2 0 .3.2.3.4s-.1.3-.3.3zm-2.4-.3L3.1 19c-.2 0-.3-.2-.3-.4s.2-.3.4-.3l1.2.2c.2 0 .3.2.3.4s-.2.3-.3.3zm11.8-1c-.2 0-.3-.1-.3-.3v-1.2c0-.2.1-.3.3-.3s.3.1.3.3v1.2c0 .1-.1.3-.3.3zm0-2.5c-.2 0-.3-.1-.3-.3v-1.2c0-.2.1-.3.3-.3s.3.1.3.3v1.2c0 .2-.1.3-.3.3zm0-2.4c-.2 0-.3-.1-.3-.3v-1.2c0-.2.1-.3.3-.3s.3.1.3.3V13c0 .1-.1.3-.3.3zm0-2.5c-.2 0-.3-.1-.3-.3V9.3c0-.2.1-.3.3-.3s.3.1.3.3v1.2c0 .2-.1.3-.3.3zm-.4-2.3c-.1 0-.2 0-.2-.1-.3-.3-.6-.4-.9-.4-.2 0-.3-.2-.3-.4s.2-.3.3-.3c.5 0 .9.2 1.3.6.1.1.1.3 0 .4-.1.1-.1.2-.2.2zm-2.3-.7l-1.3-.1c-.2 0-.3-.2-.3-.3 0-.2.2-.3.3-.3l1.2.1c.2 0 .3.2.3.3 0 .2-.1.3-.2.3zM11 7.6l-1.2-.2c-.2 0-.3-.2-.3-.4s.2-.3.3-.3l1.2.2c.2 0 .3.2.3.3 0 .3-.1.4-.3.4zm-2.4-.3l-1.3-.1C7.1 7.1 7 7 7 6.8s.2-.3.3-.3l1.2.1c.2 0 .3.2.3.3.1.3-.1.4-.2.4zM6.1 7l-1.2-.1c-.2 0-.3-.2-.3-.3 0-.2.2-.3.3-.3l1.2.1c.2 0 .3.2.3.3 0 .2-.1.3-.3.3zm-2.4-.2l-1.3-.2c-.2 0-.3-.2-.3-.3 0-.2.2-.3.4-.3l1.2.1c.2.1.3.2.3.4 0 .1-.2.3-.3.3z" fill="#fbee6a"/><path d="M1.9 18.9l-.7-.1c-.2 0-.3-.2-.3-.4s.2-.3.4-.3l.7.1c.2 0 .3.2.3.4-.1.2-.2.3-.4.3z" fill="#fbee6b"/><circle cx="14.1" cy="14.3" r="1.5" fill="#ea4d57"/><circle cx="14.1" cy="14.3" r="1.1" fill="#be4045"/><circle cx="13.7" cy="13.9" r=".2" fill="#aed8c2"/><circle cx="14.5" cy="13.9" r=".2" fill="#aed8c2"/><circle cx="13.7" cy="14.7" r=".2" fill="#aed8c2"/><circle cx="14.5" cy="14.7" r=".2" fill="#aed8c2"/></svg>