<svg width="50" height="50" viewBox="0 0 50 50" fill="none" xmlns="http://www.w3.org/2000/svg">
<path d="M39.1211 28.2778C33.1225 28.2778 28.2423 33.158 28.2423 39.1567C28.7892 53.5693 49.4554 53.5652 50.0001 39.1566C50 33.1579 45.1198 28.2778 39.1211 28.2778ZM42.3758 42.4114C41.8037 42.9834 40.8763 42.9834 40.3042 42.4114L39.1211 41.2282L37.938 42.4114C37.3659 42.9834 36.4385 42.9834 35.8664 42.4114C35.2944 41.8393 35.2944 40.9118 35.8664 40.3398L37.0495 39.1567L35.8664 37.9736C35.2944 37.4015 35.2944 36.474 35.8664 35.902C36.4385 35.3299 37.3659 35.3299 37.938 35.902L39.1211 37.085L40.3042 35.9019C40.8763 35.3298 41.8037 35.3298 42.3758 35.9019C42.9479 36.474 42.9479 37.4014 42.3758 37.9735L41.1927 39.1566L42.3758 40.3397C42.9479 40.9118 42.9479 41.8393 42.3758 42.4114Z" fill="white"/>
<path d="M28.3969 24.4524C32.9104 28.648 39.1729 22.3953 34.9746 17.8747C28.1813 11.0814 17.1672 11.0814 10.3739 17.8747C8.5575 19.6911 8.5575 22.636 10.3739 24.4524C12.1903 26.2688 15.1352 26.2688 16.9516 24.4524C20.1121 21.2919 25.2363 21.2919 28.3969 24.4524Z" fill="white"/>
<path d="M37.4084 15.4409C41.9158 19.6351 48.1869 13.3876 43.986 8.86317C32.2158 -2.90705 13.1325 -2.90705 1.3623 8.86317C-0.454102 10.6796 -0.454102 13.6245 1.3623 15.4409C3.17871 17.2573 6.12363 17.2573 7.94004 15.4409C16.0774 7.3034 29.2709 7.3034 37.4084 15.4409Z" fill="white"/>
<path d="M22.6742 25.5239C20.1055 25.5239 18.0231 27.6063 18.0231 30.1751C18.2511 36.3381 27.0983 36.3364 27.3253 30.175C27.3253 27.6063 25.243 25.5239 22.6742 25.5239Z" fill="white"/>
</svg>
